<svg width="2273" height="2726" viewBox="0 0 2273 2726" fill="none" xmlns="http://www.w3.org/2000/svg">
<g filter="url(#filter0_f)">
<path d="M2032.6 172H240.404C202.626 172 172 202.626 172 240.404V308.809C172 346.587 202.626 377.213 240.404 377.213H2032.6C2070.37 377.213 2101 346.587 2101 308.809V240.404C2101 202.626 2070.37 172 2032.6 172Z" fill="#00BFA6"/>
</g>
<g filter="url(#filter1_f)">
<path d="M256.85 318.653H282.151C284.1 318.653 285.77 319.349 287.161 320.74C288.609 322.076 289.332 323.718 289.332 325.667C289.332 327.615 288.609 329.285 287.161 330.677C285.77 332.013 284.1 332.681 282.151 332.681H255.932C252.592 332.681 249.14 331.623 245.578 329.508C242.015 327.392 239.538 325.027 238.146 322.41L221.947 291.097C219.776 286.588 218.69 281.968 218.69 277.236C218.69 272.003 219.72 267.466 221.78 263.625L238.146 232.646C239.705 229.752 242.126 227.219 245.411 225.048C248.695 222.821 251.868 221.708 254.93 221.708H282.652C284.601 221.708 286.243 222.404 287.579 223.795C288.971 225.187 289.666 226.829 289.666 228.722C289.666 230.67 288.971 232.368 287.579 233.815C286.243 235.207 284.601 235.903 282.652 235.903H255.932C253.705 235.903 251.896 237.211 250.504 239.827L234.973 268.886C233.748 271.168 233.136 273.868 233.136 276.986C233.136 280.27 233.804 283.165 235.14 285.67L250.003 314.227C251.395 317.177 253.677 318.653 256.85 318.653ZM321.898 325.667V221.708H371.498C377.231 221.708 382.158 223.795 386.277 227.97C390.452 232.145 392.54 237.128 392.54 242.917V250.933C392.54 256.778 390.48 261.788 386.361 265.963C382.242 270.083 377.287 272.142 371.498 272.142H362.563L391.287 321.408C392.178 322.856 392.624 324.303 392.624 325.75C392.624 327.643 391.9 329.285 390.452 330.677C389.005 332.013 387.363 332.681 385.526 332.681C382.743 332.681 380.627 331.428 379.18 328.923L346.197 272.142H336.093V325.667C336.093 327.615 335.369 329.285 333.922 330.677C332.53 332.013 330.86 332.681 328.912 332.681C326.964 332.681 325.294 332.013 323.902 330.677C322.566 329.285 321.898 327.615 321.898 325.667ZM335.926 258.114H371.498C373.446 258.114 375.088 257.446 376.424 256.11C377.816 254.719 378.512 253.049 378.512 251.1V242.917C378.512 240.969 377.816 239.326 376.424 237.99C375.088 236.599 373.446 235.903 371.498 235.903H335.926V258.114ZM488.733 235.903H439.134V270.055H460.51C462.403 270.055 464.045 270.751 465.437 272.142C466.828 273.534 467.524 275.176 467.524 277.069C467.524 279.073 466.828 280.771 465.437 282.163C464.101 283.554 462.458 284.25 460.51 284.25H439.134V318.653H488.9C490.793 318.653 492.435 319.349 493.827 320.74C495.219 322.076 495.915 323.718 495.915 325.667C495.915 327.615 495.191 329.285 493.744 330.677C492.352 332.013 490.682 332.681 488.733 332.681H425.106V221.708H488.733C490.682 221.708 492.352 222.431 493.744 223.879C495.191 225.27 495.915 226.94 495.915 228.889C495.915 230.781 495.191 232.424 493.744 233.815C492.352 235.207 490.682 235.903 488.733 235.903ZM528.898 322.911L557.288 226.968C558.401 223.461 560.739 221.708 564.302 221.708C567.754 221.708 569.925 223.183 570.815 226.133L598.788 323.579C599.011 324.303 599.122 324.999 599.122 325.667C599.122 327.615 598.454 329.285 597.118 330.677C595.782 332.013 594.251 332.681 592.526 332.681C588.852 332.681 586.513 330.983 585.511 327.587L579.833 308.549H547.852L541.673 328.923C541.506 329.814 540.81 330.677 539.586 331.512C538.361 332.291 537.025 332.681 535.578 332.681C533.518 332.681 531.82 331.985 530.484 330.593C529.148 329.202 528.48 327.504 528.48 325.5C528.48 324.665 528.619 323.802 528.898 322.911ZM564.135 254.19L552.111 294.354H575.742L564.135 254.19ZM631.688 240.829V221.875H702.497V240.996C702.497 242.945 701.801 244.615 700.409 246.007C699.018 247.343 697.375 248.011 695.483 248.011C693.534 248.011 691.836 247.315 690.389 245.923C688.997 244.531 688.302 242.889 688.302 240.996V235.903H674.106V325.667C674.106 327.615 673.41 329.285 672.019 330.677C670.627 332.013 668.985 332.681 667.092 332.681C665.088 332.681 663.39 332.013 661.999 330.677C660.607 329.285 659.911 327.615 659.911 325.667V235.903H645.716V240.829C645.716 242.778 645.02 244.448 643.628 245.84C642.292 247.176 640.65 247.844 638.702 247.844C636.753 247.844 635.083 247.176 633.692 245.84C632.356 244.448 631.688 242.778 631.688 240.829ZM798.857 235.903H749.257V270.055H770.634C772.526 270.055 774.169 270.751 775.56 272.142C776.952 273.534 777.648 275.176 777.648 277.069C777.648 279.073 776.952 280.771 775.56 282.163C774.224 283.554 772.582 284.25 770.634 284.25H749.257V318.653H799.024C800.917 318.653 802.559 319.349 803.951 320.74C805.342 322.076 806.038 323.718 806.038 325.667C806.038 327.615 805.315 329.285 803.867 330.677C802.476 332.013 800.806 332.681 798.857 332.681H735.229V221.708H798.857C800.806 221.708 802.476 222.431 803.867 223.879C805.315 225.27 806.038 226.94 806.038 228.889C806.038 230.781 805.315 232.424 803.867 233.815C802.476 235.207 800.806 235.903 798.857 235.903ZM1012.62 228.889V332.681H993.749L956.007 246.508V325.667C956.007 327.615 955.311 329.285 953.919 330.677C952.583 332.013 950.941 332.681 948.993 332.681C947.044 332.681 945.374 332.013 943.982 330.677C942.646 329.285 941.978 327.615 941.978 325.667V221.708H960.599L998.425 307.714V228.889C998.425 226.94 999.121 225.27 1000.51 223.879C1001.96 222.431 1003.66 221.708 1005.61 221.708C1007.55 221.708 1009.2 222.404 1010.53 223.795C1011.92 225.187 1012.62 226.885 1012.62 228.889ZM1108.98 235.903H1059.38V270.055H1080.76C1082.65 270.055 1084.29 270.751 1085.68 272.142C1087.08 273.534 1087.77 275.176 1087.77 277.069C1087.77 279.073 1087.08 280.771 1085.68 282.163C1084.35 283.554 1082.71 284.25 1080.76 284.25H1059.38V318.653H1109.15C1111.04 318.653 1112.68 319.349 1114.07 320.74C1115.47 322.076 1116.16 323.718 1116.16 325.667C1116.16 327.615 1115.44 329.285 1113.99 330.677C1112.6 332.013 1110.93 332.681 1108.98 332.681H1045.35V221.708H1108.98C1110.93 221.708 1112.6 222.431 1113.99 223.879C1115.44 225.27 1116.16 226.94 1116.16 228.889C1116.16 230.781 1115.44 232.424 1113.99 233.815C1112.6 235.207 1110.93 235.903 1108.98 235.903ZM1191.15 265.128V311.806L1195.24 318.653H1201.08L1205.34 311.639V228.889C1205.34 226.94 1206.04 225.27 1207.43 223.879C1208.88 222.431 1210.57 221.708 1212.52 221.708C1214.42 221.708 1216.06 222.404 1217.45 223.795C1218.84 225.187 1219.54 226.829 1219.54 228.722V313.893C1219.54 314.951 1218.95 316.426 1217.78 318.319L1211.27 329.09C1209.93 331.484 1207.9 332.681 1205.17 332.681H1191.98C1187.81 332.681 1185.13 330.788 1183.97 327.003C1182.68 330.788 1180.12 332.681 1176.28 332.681H1163.92C1160.36 332.681 1157.8 331.373 1156.24 328.756L1150.23 318.653C1149.12 316.816 1148.56 315.229 1148.56 313.893V228.889C1148.56 226.94 1149.26 225.27 1150.65 223.879C1152.1 222.431 1153.79 221.708 1155.74 221.708C1157.58 221.708 1159.17 222.431 1160.5 223.879C1161.89 225.27 1162.59 226.94 1162.59 228.889V311.973L1166.68 318.653H1172.69L1177.12 311.639V265.128C1177.12 263.18 1177.79 261.538 1179.12 260.202C1180.51 258.81 1182.18 258.114 1184.13 258.114C1186.08 258.114 1187.72 258.81 1189.06 260.202C1190.45 261.538 1191.15 263.18 1191.15 265.128ZM1355.48 325.667V221.708H1405.24C1410.98 221.708 1415.9 223.795 1420.02 227.97C1424.2 232.145 1426.29 237.128 1426.29 242.917V269.22C1426.29 275.009 1424.23 279.964 1420.11 284.083C1415.99 288.203 1411.03 290.262 1405.24 290.262H1369.67V325.667C1369.67 327.615 1368.98 329.285 1367.58 330.677C1366.25 332.013 1364.61 332.681 1362.66 332.681C1360.65 332.681 1358.96 332.013 1357.56 330.677C1356.17 329.285 1355.48 327.615 1355.48 325.667ZM1369.67 276.234H1405.24C1407.14 276.234 1408.78 275.566 1410.17 274.23C1411.56 272.838 1412.26 271.168 1412.26 269.22V242.917C1412.26 240.969 1411.56 239.326 1410.17 237.99C1408.78 236.599 1407.14 235.903 1405.24 235.903H1369.67V276.234ZM1459.02 325.667V221.708H1508.62C1514.35 221.708 1519.28 223.795 1523.4 227.97C1527.57 232.145 1529.66 237.128 1529.66 242.917V250.933C1529.66 256.778 1527.6 261.788 1523.48 265.963C1519.36 270.083 1514.41 272.142 1508.62 272.142H1499.68L1528.41 321.408C1529.3 322.856 1529.74 324.303 1529.74 325.75C1529.74 327.643 1529.02 329.285 1527.57 330.677C1526.13 332.013 1524.48 332.681 1522.65 332.681C1519.86 332.681 1517.75 331.428 1516.3 328.923L1483.32 272.142H1473.21V325.667C1473.21 327.615 1472.49 329.285 1471.04 330.677C1469.65 332.013 1467.98 332.681 1466.03 332.681C1464.08 332.681 1462.41 332.013 1461.02 330.677C1459.69 329.285 1459.02 327.615 1459.02 325.667ZM1473.05 258.114H1508.62C1510.57 258.114 1512.21 257.446 1513.54 256.11C1514.94 254.719 1515.63 253.049 1515.63 251.1V242.917C1515.63 240.969 1514.94 239.326 1513.54 237.99C1512.21 236.599 1510.57 235.903 1508.62 235.903H1473.05V258.114ZM1614.16 231.978L1629.61 263.458C1631.78 267.745 1632.87 272.393 1632.87 277.403C1632.87 282.302 1631.78 286.922 1629.61 291.264L1614.16 322.41C1610.88 329.257 1605.31 332.681 1597.46 332.681C1593.73 332.681 1590.37 331.707 1587.36 329.758C1584.41 327.81 1582.18 325.361 1580.68 322.41L1565.15 291.264C1563.09 287.201 1562.06 282.58 1562.06 277.403C1562.06 272.226 1563.09 267.578 1565.15 263.458L1580.68 231.978C1584.19 225.131 1589.78 221.708 1597.46 221.708C1605.26 221.708 1610.82 225.131 1614.16 231.978ZM1592.79 238.992L1578.26 268.552C1576.92 271.502 1576.25 274.397 1576.25 277.236C1576.25 280.298 1576.92 283.22 1578.26 286.004L1593.2 315.897C1593.98 317.734 1595.4 318.653 1597.46 318.653C1599.24 318.653 1600.61 317.734 1601.55 315.897L1616.59 286.004C1617.98 283.053 1618.67 280.131 1618.67 277.236C1618.67 274.174 1617.98 271.28 1616.59 268.552L1601.89 238.992C1600.94 236.821 1599.47 235.736 1597.46 235.736C1595.46 235.736 1593.9 236.821 1592.79 238.992ZM1672.45 311.472V289.26C1672.45 287.312 1673.12 285.67 1674.45 284.334C1675.84 282.942 1677.51 282.246 1679.46 282.246C1681.41 282.246 1683.05 282.942 1684.39 284.334C1685.78 285.67 1686.48 287.312 1686.48 289.26V311.639C1686.48 313.531 1687.17 315.146 1688.56 316.482C1689.96 317.818 1691.65 318.486 1693.66 318.486H1707.85C1709.8 318.486 1711.47 317.818 1712.86 316.482C1714.31 315.09 1715.03 313.42 1715.03 311.472V228.722C1715.03 226.773 1715.7 225.131 1717.04 223.795C1718.37 222.404 1719.99 221.708 1721.88 221.708C1723.77 221.708 1725.44 222.459 1726.89 223.962C1728.34 225.465 1729.06 227.163 1729.06 229.056V311.472C1729.06 317.372 1726.92 322.382 1722.63 326.502C1718.35 330.621 1713.42 332.681 1707.85 332.681H1693.66C1687.81 332.681 1682.8 330.593 1678.63 326.418C1674.51 322.243 1672.45 317.261 1672.45 311.472ZM1832.6 235.903H1783V270.055H1804.38C1806.27 270.055 1807.91 270.751 1809.31 272.142C1810.7 273.534 1811.39 275.176 1811.39 277.069C1811.39 279.073 1810.7 280.771 1809.31 282.163C1807.97 283.554 1806.33 284.25 1804.38 284.25H1783V318.653H1832.77C1834.66 318.653 1836.3 319.349 1837.7 320.74C1839.09 322.076 1839.78 323.718 1839.78 325.667C1839.78 327.615 1839.06 329.285 1837.61 330.677C1836.22 332.013 1834.55 332.681 1832.6 332.681H1768.97V221.708H1832.6C1834.55 221.708 1836.22 222.431 1837.61 223.879C1839.06 225.27 1839.78 226.94 1839.78 228.889C1839.78 230.781 1839.06 232.424 1837.61 233.815C1836.22 235.207 1834.55 235.903 1832.6 235.903ZM1910.84 318.653H1936.14C1938.09 318.653 1939.76 319.349 1941.15 320.74C1942.6 322.076 1943.33 323.718 1943.33 325.667C1943.33 327.615 1942.6 329.285 1941.15 330.677C1939.76 332.013 1938.09 332.681 1936.14 332.681H1909.93C1906.59 332.681 1903.13 331.623 1899.57 329.508C1896.01 327.392 1893.53 325.027 1892.14 322.41L1875.94 291.097C1873.77 286.588 1872.68 281.968 1872.68 277.236C1872.68 272.003 1873.71 267.466 1875.77 263.625L1892.14 232.646C1893.7 229.752 1896.12 227.219 1899.4 225.048C1902.69 222.821 1905.86 221.708 1908.92 221.708H1936.65C1938.59 221.708 1940.24 222.404 1941.57 223.795C1942.96 225.187 1943.66 226.829 1943.66 228.722C1943.66 230.67 1942.96 232.368 1941.57 233.815C1940.24 235.207 1938.59 235.903 1936.65 235.903H1909.93C1907.7 235.903 1905.89 237.211 1904.5 239.827L1888.97 268.886C1887.74 271.168 1887.13 273.868 1887.13 276.986C1887.13 280.27 1887.8 283.165 1889.13 285.67L1904 314.227C1905.39 317.177 1907.67 318.653 1910.84 318.653ZM1975.56 240.829V221.875H2046.37V240.996C2046.37 242.945 2045.67 244.615 2044.28 246.007C2042.89 247.343 2041.24 248.011 2039.35 248.011C2037.4 248.011 2035.71 247.315 2034.26 245.923C2032.87 244.531 2032.17 242.889 2032.17 240.996V235.903H2017.98V325.667C2017.98 327.615 2017.28 329.285 2015.89 330.677C2014.5 332.013 2012.85 332.681 2010.96 332.681C2008.96 332.681 2007.26 332.013 2005.87 330.677C2004.48 329.285 2003.78 327.615 2003.78 325.667V235.903H1989.59V240.829C1989.59 242.778 1988.89 244.448 1987.5 245.84C1986.16 247.176 1984.52 247.844 1982.57 247.844C1980.62 247.844 1978.95 247.176 1977.56 245.84C1976.23 244.448 1975.56 242.778 1975.56 240.829Z" fill="white"/>
</g>
<g filter="url(#filter2_f)">
<path d="M1148.49 2645.92H1147.99C1129.85 2645.92 1111.46 2645.41 1093.39 2644.38L1093.67 2639.94C1111.67 2640.97 1129.95 2641.49 1147.99 2641.49H1148.49V2645.92ZM1203.59 2644.31L1203.34 2639.91C1221.52 2638.84 1239.91 2637.22 1257.94 2635.13L1258.51 2639.53C1240.37 2641.62 1221.87 2643.24 1203.62 2644.31H1203.59ZM1038.47 2639.63C1020.29 2637.53 1001.97 2634.85 983.969 2631.69L984.786 2627.32C1002.54 2630.48 1020.93 2633.13 1039.03 2635.23L1038.47 2639.63ZM1313 2631.52L1312.19 2627.15C1330.12 2623.99 1348.15 2620.27 1365.83 2616.04L1366.93 2620.34C1349.18 2624.57 1331 2628.32 1313 2631.52ZM930.041 2620.62C912.29 2616.42 894.539 2611.61 876.788 2606.35L878.137 2602.12C895.533 2607.34 913.32 2612.12 931 2616.32L930.041 2620.62ZM1419.97 2606.07L1418.59 2601.84C1435.95 2596.58 1453.38 2590.77 1470.42 2584.65L1472.06 2588.81C1454.94 2595.1 1437.4 2600.98 1419.97 2606.24V2606.07ZM824.599 2588.88C807.487 2582.59 790.34 2575.71 773.582 2568.42L775.464 2564.36C792.115 2571.62 809.191 2578.46 826.232 2584.72L824.599 2588.88ZM1522.89 2568.25L1521.01 2564.19C1537.59 2556.97 1554.17 2549.13 1570.25 2540.91L1572.38 2544.83C1556.2 2553.09 1539.54 2560.96 1522.89 2568.25V2568.25ZM724.092 2545.11C707.868 2536.86 691.714 2527.92 676.058 2518.8L678.401 2515.02C693.986 2524.17 710.069 2532.97 726.222 2541.19L724.092 2545.11ZM1620.49 2518.6L1618.11 2514.82C1633.7 2505.7 1649.18 2495.97 1664.26 2485.97L1666.86 2489.61C1651.63 2499.55 1636.04 2509.31 1620.42 2518.49L1620.49 2518.6ZM629.763 2489.78C614.674 2479.71 599.728 2469.15 585.314 2458.12L588.154 2454.68C602.355 2465.58 617.372 2476.17 632.354 2486.21L629.763 2489.78ZM1711.09 2457.94L1708.25 2454.51C1722.63 2443.61 1736.65 2432.16 1750.36 2420.46L1753.41 2423.9C1739.74 2435.63 1725.51 2447.11 1711.09 2458.08V2457.94ZM543.066 2423.9C529.362 2412.14 515.836 2399.83 502.913 2387.28L506.144 2384.16C519.031 2396.64 532.451 2408.88 546.084 2420.57L543.066 2423.9ZM1793.67 2387.11L1790.44 2383.98C1803.33 2371.47 1816 2358.47 1828.07 2345.27L1831.62 2348.22C1819.48 2361.46 1806.77 2374.56 1793.81 2387.11H1793.67ZM464.925 2348.33C452.748 2335.05 440.89 2321.27 429.601 2307.34L433.151 2304.59C444.37 2318.34 456.227 2332.1 468.298 2345.37L464.925 2348.33ZM1866.63 2307.07L1863.08 2304.31C1874.37 2290.56 1885.3 2276.02 1895.67 2261.54L1899.43 2264.05C1888.96 2278.7 1877.95 2293.17 1866.63 2307.13V2307.07ZM396.832 2264.36C386.394 2249.78 376.312 2234.72 366.833 2219.66L370.738 2217.36C380.181 2232.42 390.193 2247.41 400.56 2262.06L396.832 2264.36ZM1929.32 2219.21L1925.42 2216.94C1934.86 2201.82 1943.95 2186.24 1952.44 2170.63L1956.48 2172.69C1948.07 2188.44 1938.87 2204.12 1929.36 2219.28L1929.32 2219.21ZM339.815 2173.24C331.295 2157.56 323.165 2141.44 315.638 2125.31L319.792 2123.49C327.283 2139.55 335.377 2155.57 343.862 2171.18L339.815 2173.24ZM1980.73 2124.69L1976.54 2122.9C1984.07 2106.74 1991.13 2090.2 1997.6 2073.73L2001.86 2075.28C1995.39 2091.85 1988.26 2108.46 1980.73 2124.69ZM294.372 2076.11C287.875 2059.53 281.804 2042.55 276.337 2025.63L280.704 2024.32C286.136 2041.14 292.171 2058.02 298.455 2074.52L294.372 2076.11ZM2019.78 2024.74L2015.42 2023.43C2020.81 2006.58 2025.78 1989.35 2030.12 1972.23L2034.55 1973.3C2030.19 1990.49 2025.22 2007.68 2019.78 2024.87V2024.74ZM261.71 1974.19C257.343 1957 253.438 1939.43 250.172 1921.96L254.645 1921.17C257.947 1938.53 261.746 1956 266.183 1973.13L261.71 1974.19ZM2046.3 1921.03L2041.8 1920.24C2045.06 1902.88 2047.83 1885.24 2049.96 1867.7L2054.51 1868.25C2052.34 1885.82 2049.57 1903.6 2046.3 1921.03V1921.03ZM241.722 1869.22C239.521 1851.65 237.853 1833.77 236.752 1816.06L241.332 1815.78C242.432 1833.39 244.101 1851.2 246.302 1868.7L241.722 1869.22ZM2059.44 1815.1L2054.9 1814.82C2055.96 1797.25 2056.53 1779.37 2056.53 1761.73V1759.84H2061.11V1761.73C2060.97 1779.47 2060.4 1797.42 2059.3 1815.1H2059.44ZM239.628 1762.66H235.048V1761.73C235.048 1744.3 235.58 1726.66 236.61 1709.29L241.19 1709.57C240.16 1726.76 239.628 1744.4 239.628 1761.73V1762.66ZM2054.58 1706.75C2053.48 1689.11 2051.77 1671.3 2049.57 1653.87L2054.12 1653.32C2056.35 1670.85 2058.02 1688.77 2059.16 1706.48L2054.58 1706.75ZM246.054 1656.65L241.509 1656.14C243.675 1638.53 246.409 1620.76 249.675 1603.32L254.148 1604.11C251.059 1621.48 248.184 1639.15 246.054 1656.65ZM2041.3 1601.33C2038 1583.96 2034.2 1566.46 2029.73 1549.41L2034.16 1548.34C2038.57 1565.53 2042.47 1583.07 2045.81 1600.54L2041.3 1601.33ZM265.58 1552.12L261.107 1551.09C265.473 1533.9 270.408 1516.71 275.84 1499.52L280.207 1500.82C274.81 1517.67 269.876 1534.9 265.58 1552.02V1552.12ZM2014.92 1498.24C2009.49 1481.43 2003.42 1464.55 1996.96 1448.04L2001.22 1446.46C2007.71 1463.03 2013.82 1480.02 2019.32 1496.9L2014.92 1498.24ZM298.065 1450.59L293.662 1449.04C300.159 1432.43 307.26 1415.82 314.964 1399.6L319.117 1401.42C311.413 1417.54 304.526 1434.12 298.065 1450.59ZM1975.87 1399.01C1968.38 1382.95 1960.25 1366.93 1951.76 1351.35L1955.81 1349.29C1964.37 1364.94 1972.5 1381.06 1980.02 1397.19L1975.87 1399.01ZM343.081 1353.59L339.034 1351.53C347.519 1335.85 356.785 1320.17 366.122 1304.97L370.028 1307.27C360.62 1322.4 351.531 1338.08 343.081 1353.59ZM1924.71 1305.45C1915.27 1290.39 1905.22 1275.43 1894.82 1260.92L1898.58 1258.41C1909.02 1272.99 1919.14 1288.02 1928.61 1303.11L1924.71 1305.45ZM399.85 1262.61L396.086 1260.1C406.453 1245.52 417.388 1231.04 428.784 1217.05L432.334 1219.8C421.151 1233.69 410.181 1248.1 399.85 1262.61ZM1862.23 1217.91C1850.94 1204.16 1839.11 1190.4 1827.01 1177.16L1830.56 1174.24C1842.7 1187.44 1854.59 1201.23 1866.06 1215.16L1862.23 1217.91ZM467.624 1178.95L464.073 1175.99C476.215 1162.72 488.925 1149.66 501.848 1137.11L505.079 1140.23C492.227 1152.72 479.552 1165.75 467.624 1178.95ZM1789.37 1138.65C1776.45 1126.17 1763 1113.93 1749.36 1102.27L1752.42 1098.84C1766.09 1110.53 1779.61 1122.91 1792.61 1135.39L1789.37 1138.65ZM544.983 1103.75L541.93 1100.31C555.598 1088.56 569.835 1077.04 584.213 1065.93L587.053 1069.37C572.746 1080.61 558.58 1092.06 544.983 1103.75ZM1707.19 1068.34C1692.99 1057.47 1677.97 1046.88 1662.95 1036.88L1665.54 1033.23C1680.63 1043.31 1695.58 1053.86 1709.99 1064.86L1707.19 1068.34ZM631.147 1038.15L628.556 1034.5C643.609 1024.39 659.123 1014.63 674.709 1005.41L677.087 1009.2C661.537 1018.34 646.058 1028.07 630.934 1038.11L631.147 1038.15ZM1616.83 1007.99C1601.21 998.847 1585.09 990.079 1568.98 981.895L1571.11 977.975C1587.33 986.193 1603.48 995.167 1619.21 1004.21L1616.83 1007.99ZM724.802 983.064L722.672 979.144C738.861 970.892 755.512 962.984 772.162 955.694L774.044 959.717C757.464 966.972 740.92 974.846 724.838 983.064H724.802ZM1519.59 958.686C1502.94 951.465 1485.87 944.622 1468.79 938.399L1470.42 934.273C1487.57 940.531 1504.72 947.373 1521.47 954.663L1519.59 958.686ZM824.599 939.224L822.966 935.098C840.078 928.771 857.616 922.892 875.048 917.596L876.433 921.826C859.072 927.087 841.605 932.932 824.599 939.224V939.224ZM1416.81 921C1399.42 915.774 1381.63 911.029 1363.95 906.834L1365.02 902.536C1382.77 906.731 1400.52 911.51 1418.27 916.771L1416.81 921ZM929.154 907.659L928.053 903.361C945.804 899.098 963.946 895.315 981.946 892.118L982.762 896.484C965.011 899.648 946.834 903.361 929.154 907.659ZM1310.16 895.969C1292.41 892.84 1274.02 890.192 1255.92 888.129L1256.45 883.728C1274.66 885.791 1293.02 888.473 1310.98 891.602L1310.16 895.969ZM1036.8 888.473L1036.55 884.209C1054.69 882.043 1073.15 880.427 1091.43 879.327L1091.72 883.762C1073.51 884.828 1055.15 886.444 1037.08 888.576L1036.8 888.473ZM1201.1 883.453C1183.35 882.49 1165.6 881.974 1147.85 881.974H1146.39V877.539H1147.85C1165.6 877.539 1183.74 878.055 1201.49 879.052L1201.1 883.453Z" fill="white"/>
</g>
<g filter="url(#filter3_f)">
<path d="M1528.22 2321.26V2715H2068V2321.26H1528.22ZM2000.53 2610.01H1595.69V2583.76H2000.53V2610.01ZM2000.53 2531.27H1595.69V2505.02H2000.53V2531.27ZM2000.53 2452.53H1595.69V2426.28H2000.53V2452.53Z" fill="#F50057"/>
</g>
<g filter="url(#filter4_f)">
<path d="M225.86 843V1119.31H604.854V843.173L225.86 843ZM557.489 1045.62H273.226V1027.22H557.489V1045.62ZM557.489 990.388H273.226V971.956H557.489V990.388ZM557.489 935.161H273.226V916.694H557.489V935.161Z" fill="white"/>
</g>
<g filter="url(#filter5_f)">
<path d="M384.349 985.76V1262.07H763.342V985.933L384.349 985.76ZM715.977 1188.38H431.927V1169.98H716.155L715.977 1188.38ZM715.977 1133.15H431.927V1114.72H716.155L715.977 1133.15ZM715.977 1077.92H431.927V1059.45H716.155L715.977 1077.92Z" fill="#F50057"/>
</g>
<g filter="url(#filter6_f)">
<path d="M1663.74 2134.75H632.417V1386.41H1663.74V2134.75ZM643.049 1396.71V2124.45H1653.11V1396.71H643.049Z" fill="white"/>
</g>
<g filter="url(#filter7_f)">
<path d="M1148.08 1570.62C1109.24 1570.62 1071.27 1581.76 1038.97 1602.63C1006.68 1623.5 981.504 1653.17 966.64 1687.88C951.776 1722.59 947.887 1760.79 955.464 1797.64C963.042 1834.49 981.746 1868.34 1009.21 1894.9C1036.68 1921.47 1071.67 1939.56 1109.77 1946.89C1147.86 1954.22 1187.35 1950.46 1223.23 1936.08C1259.12 1921.7 1289.79 1897.36 1311.37 1866.12C1332.95 1834.88 1344.47 1798.15 1344.47 1760.58C1344.47 1735.63 1339.39 1710.93 1329.52 1687.88C1319.65 1664.84 1305.18 1643.9 1286.95 1626.26C1268.71 1608.62 1247.06 1594.62 1223.23 1585.08C1199.41 1575.53 1173.87 1570.62 1148.08 1570.62V1570.62ZM1245.33 1759.83C1245.33 1763.85 1243.68 1767.72 1240.73 1770.56C1237.79 1773.41 1233.8 1775.01 1229.63 1775.01H1162.86V1839.6C1162.67 1843.51 1160.93 1847.2 1158 1849.9C1155.07 1852.6 1151.18 1854.1 1147.14 1854.1C1143.1 1854.1 1139.21 1852.6 1136.28 1849.9C1133.35 1847.2 1131.61 1843.51 1131.42 1839.6V1775.01H1064.65C1060.49 1775 1056.5 1773.4 1053.55 1770.55C1050.61 1767.71 1048.95 1763.85 1048.95 1759.83V1759.83C1048.95 1755.79 1050.6 1751.93 1053.54 1749.07C1056.49 1746.22 1060.48 1744.61 1064.65 1744.6H1131.42V1680.12C1131.43 1676.09 1133.09 1672.22 1136.04 1669.38C1138.99 1666.53 1142.99 1664.93 1147.16 1664.93V1664.93C1151.32 1664.93 1155.32 1666.53 1158.26 1669.38C1161.2 1672.23 1162.86 1676.09 1162.86 1680.12V1744.71H1229.63C1231.7 1744.71 1233.74 1745.1 1235.65 1745.87C1237.56 1746.63 1239.29 1747.75 1240.75 1749.17C1242.21 1750.58 1243.36 1752.26 1244.15 1754.11C1244.94 1755.95 1245.34 1757.93 1245.33 1759.93V1759.83Z" fill="#00BFA6"/>
</g>
<g filter="url(#filter8_f)">
<path d="M196 2254.48V2530.79H574.994V2254.48H196ZM527.629 2457.1H243.365V2438.7H527.629V2457.1ZM527.629 2401.87H243.365V2383.47H527.629V2401.87ZM527.629 2346.64H243.365V2328.25H527.629V2346.64Z" fill="white"/>
</g>
<defs>
<filter id="filter0_f" x="0.989365" y="0.989365" width="2271.02" height="547.234" filterUnits="userSpaceOnUse" color-interpolation-filters="sRGB">
<feFlood flood-opacity="0" result="BackgroundImageFix"/>
<feBlend mode="normal" in="SourceGraphic" in2="BackgroundImageFix" result="shape"/>
<feGaussianBlur stdDeviation="85.5053" result="effect1_foregroundBlur"/>
</filter>
<filter id="filter1_f" x="211.85" y="214.867" width="1841.36" height="124.654" filterUnits="userSpaceOnUse" color-interpolation-filters="sRGB">
<feFlood flood-opacity="0" result="BackgroundImageFix"/>
<feBlend mode="normal" in="SourceGraphic" in2="BackgroundImageFix" result="shape"/>
<feGaussianBlur stdDeviation="3.42021" result="effect1_foregroundBlur"/>
</filter>
<filter id="filter2_f" x="224.762" y="867.253" width="1846.63" height="1788.96" filterUnits="userSpaceOnUse" color-interpolation-filters="sRGB">
<feFlood flood-opacity="0" result="BackgroundImageFix"/>
<feBlend mode="normal" in="SourceGraphic" in2="BackgroundImageFix" result="shape"/>
<feGaussianBlur stdDeviation="5.14286" result="effect1_foregroundBlur"/>
</filter>
<filter id="filter3_f" x="1517.94" y="2310.97" width="560.35" height="414.313" filterUnits="userSpaceOnUse" color-interpolation-filters="sRGB">
<feFlood flood-opacity="0" result="BackgroundImageFix"/>
<feBlend mode="normal" in="SourceGraphic" in2="BackgroundImageFix" result="shape"/>
<feGaussianBlur stdDeviation="5.14286" result="effect1_foregroundBlur"/>
</filter>
<filter id="filter4_f" x="215.575" y="832.714" width="399.565" height="296.881" filterUnits="userSpaceOnUse" color-interpolation-filters="sRGB">
<feFlood flood-opacity="0" result="BackgroundImageFix"/>
<feBlend mode="normal" in="SourceGraphic" in2="BackgroundImageFix" result="shape"/>
<feGaussianBlur stdDeviation="5.14286" result="effect1_foregroundBlur"/>
</filter>
<filter id="filter5_f" x="374.063" y="975.474" width="399.565" height="296.881" filterUnits="userSpaceOnUse" color-interpolation-filters="sRGB">
<feFlood flood-opacity="0" result="BackgroundImageFix"/>
<feBlend mode="normal" in="SourceGraphic" in2="BackgroundImageFix" result="shape"/>
<feGaussianBlur stdDeviation="5.14286" result="effect1_foregroundBlur"/>
</filter>
<filter id="filter6_f" x="622.131" y="1376.12" width="1051.89" height="768.911" filterUnits="userSpaceOnUse" color-interpolation-filters="sRGB">
<feFlood flood-opacity="0" result="BackgroundImageFix"/>
<feBlend mode="normal" in="SourceGraphic" in2="BackgroundImageFix" result="shape"/>
<feGaussianBlur stdDeviation="5.14286" result="effect1_foregroundBlur"/>
</filter>
<filter id="filter7_f" x="941.405" y="1560.33" width="413.347" height="400.498" filterUnits="userSpaceOnUse" color-interpolation-filters="sRGB">
<feFlood flood-opacity="0" result="BackgroundImageFix"/>
<feBlend mode="normal" in="SourceGraphic" in2="BackgroundImageFix" result="shape"/>
<feGaussianBlur stdDeviation="5.14286" result="effect1_foregroundBlur"/>
</filter>
<filter id="filter8_f" x="185.714" y="2244.2" width="399.565" height="296.881" filterUnits="userSpaceOnUse" color-interpolation-filters="sRGB">
<feFlood flood-opacity="0" result="BackgroundImageFix"/>
<feBlend mode="normal" in="SourceGraphic" in2="BackgroundImageFix" result="shape"/>
<feGaussianBlur stdDeviation="5.14286" result="effect1_foregroundBlur"/>
</filter>
</defs>
</svg>
