<svg width="2262" height="2861" viewBox="0 0 2262 2861" fill="none" xmlns="http://www.w3.org/2000/svg">
<g filter="url(#filter0_f)">
<path d="M1715.6 172H632.404C594.626 172 564 202.626 564 240.404V273.596C564 311.374 594.626 342 632.404 342H1715.6C1753.37 342 1784 311.374 1784 273.596V240.404C1784 202.626 1753.37 172 1715.6 172Z" fill="#00BFA6"/>
</g>
<g filter="url(#filter1_f)">
<path d="M623.142 320.23L651.532 224.287C652.646 220.78 654.984 219.027 658.547 219.027C661.998 219.027 664.169 220.502 665.06 223.452L693.033 320.898C693.255 321.622 693.367 322.318 693.367 322.986C693.367 324.934 692.699 326.604 691.363 327.996C690.027 329.332 688.496 330 686.77 330C683.096 330 680.758 328.302 679.756 324.906L674.078 305.868H642.097L635.918 326.242C635.751 327.133 635.055 327.996 633.83 328.831C632.606 329.61 631.27 330 629.822 330C627.762 330 626.065 329.304 624.729 327.912C623.393 326.521 622.725 324.823 622.725 322.819C622.725 321.984 622.864 321.121 623.142 320.23ZM658.38 251.509L646.355 291.673H669.986L658.38 251.509ZM732.946 219.027H760.669C764.287 219.082 767.794 220.251 771.19 222.534C774.641 224.816 777.174 227.572 778.788 230.8L792.65 258.857C795.266 263.923 796.574 269.211 796.574 274.722C796.574 279.844 795.183 285.104 792.399 290.504L778.454 318.226C776.673 321.789 774.112 324.656 770.772 326.827C767.432 328.942 763.703 330 759.583 330H732.779C730.831 330 729.161 329.304 727.769 327.912C726.433 326.521 725.765 324.879 725.765 322.986C725.765 321.038 726.433 319.367 727.769 317.976C729.161 316.528 730.831 315.805 732.779 315.805H740.127V233.222H732.946C730.998 233.222 729.328 232.526 727.936 231.134C726.6 229.687 725.932 227.989 725.932 226.041C725.932 224.148 726.6 222.506 727.936 221.114C729.328 219.723 730.998 219.027 732.946 219.027ZM754.156 233.222V315.972H759.082C762.2 315.972 764.538 314.441 766.096 311.379L779.957 283.824C781.683 280.205 782.546 277.172 782.546 274.722C782.546 271.66 781.85 268.766 780.458 266.038L766.096 237.481C764.593 234.642 762.144 233.222 758.748 233.222H754.156ZM836.321 219.027H864.043C867.662 219.082 871.169 220.251 874.564 222.534C878.016 224.816 880.549 227.572 882.163 230.8L896.024 258.857C898.641 263.923 899.949 269.211 899.949 274.722C899.949 279.844 898.557 285.104 895.774 290.504L881.829 318.226C880.048 321.789 877.487 324.656 874.147 326.827C870.807 328.942 867.077 330 862.958 330H836.154C834.205 330 832.535 329.304 831.144 327.912C829.808 326.521 829.14 324.879 829.14 322.986C829.14 321.038 829.808 319.367 831.144 317.976C832.535 316.528 834.205 315.805 836.154 315.805H843.502V233.222H836.321C834.372 233.222 832.702 232.526 831.311 231.134C829.975 229.687 829.307 227.989 829.307 226.041C829.307 224.148 829.975 222.506 831.311 221.114C832.702 219.723 834.372 219.027 836.321 219.027ZM857.53 233.222V315.972H862.457C865.574 315.972 867.912 314.441 869.471 311.379L883.332 283.824C885.058 280.205 885.921 277.172 885.921 274.722C885.921 271.66 885.225 268.766 883.833 266.038L869.471 237.481C867.968 234.642 865.518 233.222 862.123 233.222H857.53ZM1064.45 262.614V259.024L1049.92 238.316V322.986C1049.92 324.934 1049.22 326.604 1047.83 327.996C1046.49 329.332 1044.85 330 1042.9 330C1040.95 330 1039.28 329.304 1037.89 327.912C1036.56 326.521 1035.89 324.879 1035.89 322.986V219.027H1054.01L1071.29 244.161L1089.08 219.027H1106.86V322.986C1106.86 324.934 1106.14 326.604 1104.69 327.996C1103.3 329.332 1101.63 330 1099.68 330C1097.79 330 1096.15 329.304 1094.76 327.912C1093.37 326.521 1092.67 324.879 1092.67 322.986V238.65L1078.47 258.69V262.614C1078.47 264.507 1077.78 266.149 1076.39 267.541C1075 268.933 1073.35 269.629 1071.46 269.629C1069.51 269.629 1067.84 268.933 1066.45 267.541C1065.11 266.149 1064.45 264.507 1064.45 262.614ZM1203.23 233.222H1153.63V267.374H1175C1176.89 267.374 1178.54 268.07 1179.93 269.462C1181.32 270.853 1182.02 272.495 1182.02 274.388C1182.02 276.392 1181.32 278.09 1179.93 279.482C1178.59 280.873 1176.95 281.569 1175 281.569H1153.63V315.972H1203.39C1205.29 315.972 1206.93 316.668 1208.32 318.059C1209.71 319.395 1210.41 321.038 1210.41 322.986C1210.41 324.934 1209.68 326.604 1208.24 327.996C1206.84 329.332 1205.17 330 1203.23 330H1139.6V219.027H1203.23C1205.17 219.027 1206.84 219.75 1208.24 221.198C1209.68 222.59 1210.41 224.26 1210.41 226.208C1210.41 228.101 1209.68 229.743 1208.24 231.134C1206.84 232.526 1205.17 233.222 1203.23 233.222ZM1271.2 262.614V259.024L1256.67 238.316V322.986C1256.67 324.934 1255.97 326.604 1254.58 327.996C1253.24 329.332 1251.6 330 1249.65 330C1247.7 330 1246.03 329.304 1244.64 327.912C1243.31 326.521 1242.64 324.879 1242.64 322.986V219.027H1260.76L1278.04 244.161L1295.83 219.027H1313.61V322.986C1313.61 324.934 1312.89 326.604 1311.44 327.996C1310.05 329.332 1308.38 330 1306.43 330C1304.54 330 1302.9 329.304 1301.51 327.912C1300.11 326.521 1299.42 324.879 1299.42 322.986V238.65L1285.22 258.69V262.614C1285.22 264.507 1284.53 266.149 1283.14 267.541C1281.74 268.933 1280.1 269.629 1278.21 269.629C1276.26 269.629 1274.59 268.933 1273.2 267.541C1271.86 266.149 1271.2 264.507 1271.2 262.614ZM1416.99 295.597V301.777C1416.99 309.514 1414.23 316.167 1408.72 321.733C1403.27 327.244 1396.67 330 1388.93 330H1346.01V219.027H1388.93C1396.67 219.027 1403.27 221.782 1408.72 227.293C1414.23 232.804 1416.99 239.457 1416.99 247.25V253.179C1416.99 261.473 1413.79 268.543 1407.39 274.388C1413.79 280.345 1416.99 287.414 1416.99 295.597ZM1402.63 253.012V247.25C1402.63 243.353 1401.23 240.013 1398.45 237.23C1395.72 234.447 1392.44 233.055 1388.6 233.055H1360.04V267.04H1388.6C1392.38 267.04 1395.67 265.676 1398.45 262.948C1401.23 260.165 1402.63 256.853 1402.63 253.012ZM1402.63 301.777V295.931C1402.63 292.035 1401.23 288.695 1398.45 285.911C1395.72 283.128 1392.44 281.736 1388.6 281.736H1360.21V315.805H1388.6C1392.38 315.805 1395.67 314.441 1398.45 311.713C1401.23 308.93 1402.63 305.618 1402.63 301.777ZM1513.35 233.222H1463.75V267.374H1485.13C1487.02 267.374 1488.66 268.07 1490.05 269.462C1491.44 270.853 1492.14 272.495 1492.14 274.388C1492.14 276.392 1491.44 278.09 1490.05 279.482C1488.72 280.873 1487.07 281.569 1485.13 281.569H1463.75V315.972H1513.52C1515.41 315.972 1517.05 316.668 1518.44 318.059C1519.83 319.395 1520.53 321.038 1520.53 322.986C1520.53 324.934 1519.81 326.604 1518.36 327.996C1516.97 329.332 1515.3 330 1513.35 330H1449.72V219.027H1513.35C1515.3 219.027 1516.97 219.75 1518.36 221.198C1519.81 222.59 1520.53 224.26 1520.53 226.208C1520.53 228.101 1519.81 229.743 1518.36 231.134C1516.97 232.526 1515.3 233.222 1513.35 233.222ZM1553.26 322.986V219.027H1602.86C1608.6 219.027 1613.52 221.114 1617.64 225.289C1621.82 229.464 1623.9 234.447 1623.9 240.236V248.252C1623.9 254.097 1621.85 259.107 1617.73 263.282C1613.61 267.402 1608.65 269.462 1602.86 269.462H1593.93L1622.65 318.727C1623.54 320.175 1623.99 321.622 1623.99 323.069C1623.99 324.962 1623.26 326.604 1621.82 327.996C1620.37 329.332 1618.73 330 1616.89 330C1614.11 330 1611.99 328.747 1610.54 326.242L1577.56 269.462H1567.46V322.986C1567.46 324.934 1566.73 326.604 1565.29 327.996C1563.9 329.332 1562.23 330 1560.28 330C1558.33 330 1556.66 329.332 1555.27 327.996C1553.93 326.604 1553.26 324.934 1553.26 322.986ZM1567.29 255.433H1602.86C1604.81 255.433 1606.45 254.765 1607.79 253.429C1609.18 252.038 1609.88 250.368 1609.88 248.419V240.236C1609.88 238.288 1609.18 236.646 1607.79 235.31C1606.45 233.918 1604.81 233.222 1602.86 233.222H1567.29V255.433ZM1672.34 219.027H1708.83C1713.28 219.027 1717.48 220.919 1721.43 224.705C1725.44 228.435 1727.45 232.971 1727.45 238.316C1727.45 240.32 1726.72 242.017 1725.28 243.409C1723.88 244.801 1722.33 245.497 1720.6 245.497C1718.21 245.497 1716.56 244.968 1715.67 243.91C1714.78 242.797 1713.92 240.765 1713.08 237.815C1712.3 234.864 1710.52 233.389 1707.74 233.389H1673.09C1671.42 233.389 1670.58 233.918 1670.58 234.976C1670.58 235.644 1670.94 236.423 1671.67 237.314L1723.69 303.864C1726.19 307.093 1727.45 310.544 1727.45 314.218C1727.45 318.393 1725.92 322.067 1722.85 325.24C1719.85 328.413 1716.48 330 1712.75 330H1674.92C1669.91 330 1665.54 328.107 1661.81 324.322C1658.14 320.481 1656.3 316.278 1656.3 311.713C1656.3 306.48 1658.75 303.864 1663.65 303.864C1665.54 303.864 1667.16 304.56 1668.49 305.952C1669.83 307.288 1670.5 308.874 1670.5 310.711C1670.5 312.214 1671 313.467 1672 314.469C1673.06 315.471 1674.37 315.972 1675.93 315.972H1710.83C1712.33 315.972 1713.08 315.387 1713.08 314.218C1713.08 313.662 1712.72 312.938 1712 312.047L1660.06 245.497C1657.61 242.324 1656.39 238.872 1656.39 235.143C1656.39 230.8 1657.95 227.043 1661.06 223.87C1664.18 220.641 1667.94 219.027 1672.34 219.027Z" fill="white"/>
</g>
<g filter="url(#filter2_f)">
<path d="M1667.05 2318.18C1683.57 2318.18 1696.96 2304.79 1696.96 2288.27C1696.96 2271.75 1683.57 2258.36 1667.05 2258.36C1650.52 2258.36 1637.13 2271.75 1637.13 2288.27C1637.13 2304.79 1650.52 2318.18 1667.05 2318.18Z" fill="#2F2E41"/>
<path d="M1675.34 2259.08C1679.29 2259.08 1683.21 2259.87 1686.87 2261.39C1690.52 2262.92 1693.83 2265.15 1696.62 2267.97C1699.4 2270.79 1701.6 2274.12 1703.08 2277.79C1704.56 2281.46 1705.3 2285.39 1705.25 2289.35C1705.3 2294.38 1704.06 2299.34 1701.65 2303.76C1704.22 2300.51 1706.08 2296.77 1707.13 2292.76C1708.18 2288.76 1708.39 2284.58 1707.74 2280.49C1707.09 2276.4 1705.61 2272.48 1703.37 2269C1701.14 2265.51 1698.2 2262.53 1694.76 2260.23C1691.31 2257.93 1687.42 2256.37 1683.35 2255.65C1679.27 2254.93 1675.08 2255.06 1671.06 2256.04C1667.03 2257.01 1663.25 2258.81 1659.96 2261.32C1656.66 2263.83 1653.92 2266.99 1651.91 2270.61C1654.65 2267.01 1658.19 2264.09 1662.26 2262.08C1666.33 2260.08 1670.8 2259.06 1675.34 2259.08V2259.08Z" fill="#2F2E41"/>
<path d="M1610.82 2288.27C1659.59 2288.27 1699.12 2248.75 1699.12 2199.99C1699.12 2151.24 1659.59 2111.72 1610.82 2111.72C1562.05 2111.72 1522.52 2151.24 1522.52 2199.99C1522.52 2248.75 1562.05 2288.27 1610.82 2288.27Z" fill="#2F2E41"/>
<path d="M1541.26 2145.23C1556.5 2128.11 1577.78 2117.57 1600.64 2115.82C1623.5 2114.07 1646.14 2121.26 1663.8 2135.86L1661.64 2133.7C1653 2125.96 1642.92 2120 1631.98 2116.16C1621.04 2112.32 1609.45 2110.67 1597.87 2111.3C1586.29 2111.94 1574.95 2114.85 1564.49 2119.86C1554.04 2124.88 1544.67 2131.91 1536.93 2140.54C1521.3 2157.98 1513.25 2180.91 1514.53 2204.29C1515.81 2227.67 1526.34 2249.59 1543.78 2265.21V2265.21L1544.14 2265.57C1544.77 2266.27 1545.5 2266.88 1546.3 2267.37C1529.76 2251.65 1519.98 2230.12 1519.04 2207.32C1518.1 2184.52 1526.07 2162.26 1541.26 2145.23Z" fill="#2F2E41"/>
<path d="M1665.12 2243.57C1672.34 2212.97 1653.38 2182.31 1622.77 2175.09C1592.16 2167.87 1561.49 2186.82 1554.27 2217.42C1547.04 2248.02 1566 2278.68 1596.61 2285.9C1627.22 2293.12 1657.89 2274.17 1665.12 2243.57Z" fill="#A0616A"/>
<path d="M1711.74 2379.07V2398.16L1700.93 2404.65L1696.6 2406.81L1695.88 2407.17C1694.08 2408.25 1692.28 2408.97 1690.47 2410.05C1682.28 2413.94 1673.86 2417.31 1665.24 2420.14V2420.14C1651.67 2424.49 1637.64 2427.27 1623.43 2428.43C1617.09 2429.16 1610.72 2429.52 1604.33 2429.51C1586.8 2429.59 1569.34 2427.28 1552.43 2422.66C1543.8 2420.49 1535.36 2417.59 1527.2 2414.02H1526.84C1526.12 2413.66 1525.04 2413.3 1524.32 2412.94C1520.35 2411.13 1516.39 2409.33 1512.42 2407.17L1510.62 2406.45C1506.3 2404.29 1502.33 2401.77 1498.37 2399.6H1498.01C1491.84 2395.81 1485.93 2391.6 1480.35 2386.99C1477.46 2384.83 1474.58 2382.31 1471.7 2379.79C1470.26 2378.71 1468.81 2377.27 1467.37 2376.18C1462.06 2371.29 1457 2366.12 1452.23 2360.69C1452.86 2356.89 1453.82 2353.15 1455.12 2349.52V2349.52C1455.48 2348.8 1455.48 2348.44 1455.84 2347.72C1456.2 2347 1456.2 2346.64 1456.56 2346.28C1463.05 2334.39 1474.58 2331.15 1489.36 2330.43C1497.65 2330.07 1506.66 2330.43 1516.03 2330.43C1521.07 2330.43 1526.12 2330.07 1531.53 2329.7C1564.33 2326.82 1558.56 2307.37 1560 2296.92C1561.44 2286.47 1570.81 2295.48 1571.17 2296.2C1589.86 2304.84 1610.49 2308.44 1631 2306.65C1634.61 2306.28 1638.21 2305.92 1641.46 2305.92C1650.83 2305.92 1648.66 2308.45 1645.42 2310.61C1643.98 2311.69 1642.18 2312.41 1640.37 2313.49C1640.37 2313.49 1638.93 2322.5 1637.49 2335.83C1636.05 2349.16 1660.92 2354.93 1662.72 2355.29C1671.74 2353 1681.22 2353.25 1690.11 2356.01C1695.45 2357.57 1700.27 2360.53 1704.08 2364.59C1707.88 2368.64 1710.52 2373.64 1711.74 2379.07Z" fill="#F50057"/>
<path d="M1527.56 2402.05V2413.94H1527.2C1526.48 2413.58 1525.4 2413.22 1524.68 2412.86C1520.71 2411.06 1516.75 2409.26 1512.79 2407.1L1510.98 2406.38C1506.66 2404.22 1502.69 2401.69 1498.73 2399.53C1498.73 2398.45 1499.09 2397.01 1499.09 2395.57C1499.45 2392.69 1499.81 2390.16 1500.17 2387.28C1501.59 2367.73 1497.99 2348.13 1489.72 2330.35L1488.64 2328.19C1488.64 2328.19 1499.09 2319.18 1514.23 2328.19C1515.14 2328.82 1515.99 2329.55 1516.75 2330.35C1525.4 2340.8 1527.92 2376.54 1527.56 2402.05Z" fill="#2F2E41"/>
<path d="M1691.19 2397.44C1691.19 2401.41 1690.83 2405.73 1690.47 2410.05C1682.28 2413.94 1673.86 2417.31 1665.24 2420.14V2420.14L1664.88 2410.05V2408.61L1663.08 2359.25C1663.01 2358.16 1663.17 2357.06 1663.53 2356.03C1663.9 2355 1664.47 2354.05 1665.21 2353.24C1665.95 2352.43 1666.84 2351.78 1667.84 2351.33C1668.84 2350.88 1669.92 2350.63 1671.01 2350.6H1689.75C1690.83 2350.6 1691.19 2352.4 1691.92 2355.65C1692.4 2369.58 1692.16 2383.53 1691.19 2397.44Z" fill="#2F2E41"/>
<path d="M1561.08 2159.64V2216.57H1574.42L1591.36 2198.55L1589.19 2216.57H1647.58L1643.98 2198.55L1651.19 2216.57H1660.56V2159.64H1561.08Z" fill="#2F2E41"/>
<path d="M1552.07 2227.02C1554.46 2227.02 1556.4 2223.31 1556.4 2218.73C1556.4 2214.15 1554.46 2210.44 1552.07 2210.44C1549.68 2210.44 1547.75 2214.15 1547.75 2218.73C1547.75 2223.31 1549.68 2227.02 1552.07 2227.02Z" fill="#A0616A"/>
<path d="M1667.77 2227.02C1670.16 2227.02 1672.09 2223.31 1672.09 2218.73C1672.09 2214.15 1670.16 2210.44 1667.77 2210.44C1665.38 2210.44 1663.44 2214.15 1663.44 2218.73C1663.44 2223.31 1665.38 2227.02 1667.77 2227.02Z" fill="#A0616A"/>
<path d="M1723.99 2389.52C1721.02 2391.88 1717.88 2394.05 1714.62 2396C1713.54 2396.72 1712.82 2397.08 1711.74 2397.8L1700.93 2404.29L1696.6 2406.45V2366.82C1696.6 2366.82 1702.37 2371.5 1711.38 2379.07C1712.41 2380.22 1713.63 2381.19 1714.98 2381.95C1718.23 2384.47 1721.11 2386.99 1723.99 2389.52Z" fill="#F50057"/>
<path d="M1410.2 2301.93L1410.2 2301.93C1417.73 2323.27 1428.74 2343.22 1442.8 2360.95L1442.81 2360.96L1442.82 2360.97C1443.7 2362.03 1444.59 2363.19 1445.49 2364.36L1445.5 2364.37C1446.4 2365.54 1447.31 2366.72 1448.22 2367.82L1448.25 2367.85L1448.28 2367.88L1448.62 2368.22C1453.41 2373.67 1458.48 2378.86 1463.81 2383.77L1463.85 2383.8L1463.89 2383.83C1464.57 2384.34 1465.27 2384.95 1465.99 2385.58L1466.01 2385.6C1466.71 2386.21 1467.44 2386.85 1468.18 2387.41C1471.06 2389.93 1473.59 2392.1 1476.85 2394.63L1476.86 2394.63L1476.86 2394.64L1476.88 2394.65C1482.63 2398.96 1488.42 2403.31 1494.58 2407.29L1494.83 2407.45H1495.12H1495.2C1499.11 2409.9 1503.15 2412.15 1507.3 2414.19L1507.33 2414.21L1507.37 2414.22L1509.12 2414.92C1513.09 2417.09 1517.07 2418.89 1521 2420.68L1521.01 2420.68C1521.4 2420.88 1521.88 2421.07 1522.3 2421.24L1522.33 2421.25C1522.79 2421.43 1523.2 2421.6 1523.51 2421.76L1523.72 2421.86H1523.96H1524.13C1532.39 2425.09 1540.65 2427.96 1549.27 2430.47L1549.28 2430.47L1549.29 2430.48C1566.32 2434.94 1583.84 2437.25 1601.44 2437.36H1601.45C1607.87 2437.35 1614.28 2436.99 1620.66 2436.27C1634.89 2434.82 1648.94 2432.04 1662.65 2427.95L1662.66 2427.94L1662.67 2427.94C1671.32 2425.09 1679.78 2421.71 1688.01 2417.81C1689.91 2416.98 1691.74 2416 1693.49 2414.89L1694.16 2414.55L1694.16 2414.55L1698.49 2412.39L1698.49 2412.39C1702.29 2410.47 1705.94 2408.28 1709.42 2405.83C1709.93 2405.49 1710.36 2405.23 1710.81 2404.97L1710.82 2404.96C1711.27 2404.69 1711.73 2404.41 1712.29 2404.04L1712.31 2404.03C1715.52 2401.89 1718.75 2399.73 1721.64 2397.57C1722.02 2397.38 1722.3 2397.19 1722.55 2397.02L1722.57 2397.01C1722.84 2396.83 1723.06 2396.68 1723.36 2396.53L1723.45 2396.49L1723.52 2396.43C1757.19 2370.46 1781.85 2334.57 1794.01 2293.83C1806.16 2253.09 1805.2 2209.56 1791.26 2169.4L1790.31 2169.73L1791.26 2169.4C1782.55 2144.39 1769 2121.33 1751.39 2101.55C1733.77 2081.78 1712.43 2065.66 1688.58 2054.13C1664.73 2042.59 1638.85 2035.87 1612.4 2034.34C1585.95 2032.81 1559.46 2036.5 1534.44 2045.2C1509.42 2053.9 1486.36 2067.44 1466.58 2085.05C1446.79 2102.67 1430.67 2124 1419.13 2147.84C1407.6 2171.68 1400.87 2197.56 1399.34 2224C1397.81 2250.43 1401.5 2276.92 1410.2 2301.93ZM1704.34 2393.37L1704.34 2393.37C1703.82 2393.71 1703.39 2393.97 1702.93 2394.24L1702.93 2394.24C1702.48 2394.51 1702.02 2394.79 1701.47 2395.16C1700.04 2396.05 1698.52 2396.94 1696.99 2397.84L1696.99 2397.85C1695.52 2398.71 1694.05 2399.57 1692.65 2400.44C1692.31 2400.52 1692.04 2400.7 1691.86 2400.83C1691.66 2400.97 1691.48 2401.15 1691.33 2401.3C1690.07 2401.9 1688.84 2402.57 1687.65 2403.3C1687.5 2403.31 1687.32 2403.35 1687.14 2403.44C1687.01 2403.5 1686.91 2403.58 1686.83 2403.65H1686.6L1686.37 2403.78C1684.69 2404.74 1682.93 2405.56 1681.12 2406.23L1681.07 2406.25L1681.03 2406.27C1674.26 2409.5 1667.31 2412.37 1660.23 2414.87C1659.67 2415.06 1659.2 2415.25 1658.75 2415.43L1658.75 2415.43C1658.3 2415.61 1657.87 2415.78 1657.37 2415.95C1644.54 2419.98 1631.33 2422.62 1617.94 2423.83L1617.93 2423.83C1611.98 2424.43 1606 2424.67 1600.03 2424.55L1600.02 2424.55H1600.01C1583.54 2424.57 1567.15 2422.4 1551.25 2418.09L1551.24 2418.09L1551.23 2418.09C1543.02 2416.05 1535 2413.3 1527.27 2409.87C1526.87 2409.67 1526.38 2409.48 1525.95 2409.3C1525.49 2409.12 1525.08 2408.96 1524.77 2408.8L1524.04 2408.44L1523.32 2408.08L1523.3 2408.07L1523.28 2408.06C1521.67 2407.34 1519.97 2406.54 1518.26 2405.73L1518.26 2405.72C1516.55 2404.92 1514.84 2404.11 1513.21 2403.38L1511.81 2402.68C1507.84 2400.52 1503.91 2398.38 1499.99 2395.88L1499.96 2395.86L1499.93 2395.84C1498.46 2395.04 1497.06 2394.11 1495.75 2393.06L1495.72 2393.03L1495.68 2393.01C1491.35 2390.12 1487.06 2387.26 1483.14 2384.06L1483.13 2384.04L1483.11 2384.03C1480.26 2381.89 1477.76 2379.75 1475.23 2377.59L1475.22 2377.57L1475.2 2377.56C1473.84 2376.48 1472.54 2375.31 1471.34 2374.05L1471.31 2374.02L1471.29 2374C1466.16 2369.35 1461.37 2364.33 1456.98 2358.98C1456.97 2358.98 1456.97 2358.98 1456.97 2358.97L1452.65 2353.58L1452.62 2353.54L1452.58 2353.5L1451.54 2352.46C1428.37 2323.19 1414.4 2287.71 1411.39 2250.51C1408.38 2213.29 1416.48 2176.01 1434.66 2143.39C1452.85 2110.77 1480.3 2084.27 1513.55 2067.25C1546.79 2050.22 1584.35 2043.44 1621.45 2047.75C1658.56 2052.06 1693.55 2067.27 1722.01 2091.46C1750.46 2115.66 1771.11 2147.74 1781.32 2183.66C1791.54 2219.58 1790.87 2257.72 1779.4 2293.26C1767.93 2328.8 1746.17 2360.15 1716.88 2383.33L1716.51 2383.63V2384.11C1716.51 2384.32 1716.39 2384.64 1716.06 2385.05C1715.73 2385.45 1715.27 2385.84 1714.79 2386.16L1714.64 2386.26L1714.63 2386.28L1711.15 2388.71L1707.57 2391.22L1707.55 2391.23L1704.34 2393.37Z" fill="white" stroke="white" stroke-width="2"/>
</g>
<g filter="url(#filter3_f)">
<path d="M1750.78 2131.47C1759.79 2128.15 1767.13 2121.39 1771.18 2112.68C1775.23 2103.98 1775.67 2094.02 1772.4 2084.99C1771.68 2082.82 1770.6 2081.02 1769.88 2079.22L1854.22 1981.94L1787.9 1973.29L1717.98 2066.97C1710.55 2071.92 1705.2 2079.42 1702.94 2088.05C1700.68 2096.68 1701.66 2105.84 1705.71 2113.79C1709.75 2121.74 1716.57 2127.93 1724.88 2131.19C1733.19 2134.45 1742.4 2134.55 1750.78 2131.47V2131.47Z" fill="#FFB8B8"/>
</g>
<g filter="url(#filter4_f)">
<path d="M2225.45 2152C2231.78 2144.77 2234.98 2135.34 2234.37 2125.75C2233.77 2116.17 2229.39 2107.21 2222.21 2100.84C2220.68 2099.44 2218.99 2098.23 2217.16 2097.24L2243.84 1971.13L2181.48 1995.63L2165.62 2111.65C2163.41 2115.88 2162.06 2120.51 2161.64 2125.27C2161.22 2130.02 2161.74 2134.82 2163.18 2139.37C2164.62 2143.92 2166.95 2148.15 2170.03 2151.8C2173.11 2155.45 2176.88 2158.46 2181.12 2160.65C2188.42 2164.33 2196.74 2165.48 2204.77 2163.92C2212.8 2162.35 2220.07 2158.16 2225.45 2152Z" fill="#FFB8B8"/>
</g>
<g filter="url(#filter5_f)">
<path d="M1923.78 2808.12H1879.81L1858.9 2638.06H1923.78V2808.12Z" fill="#FFB8B8"/>
</g>
<g filter="url(#filter6_f)">
<path d="M1935.31 2851H1792.95V2849.2C1792.96 2834.49 1798.81 2820.38 1809.21 2809.97C1819.62 2799.57 1833.73 2793.72 1848.45 2793.71H1935.31V2851Z" fill="#2F2E41"/>
</g>
<g filter="url(#filter7_f)">
<path d="M2140.03 2808.12H2096.06L2075.16 2638.06H2140.03V2808.12Z" fill="#FFB8B8"/>
</g>
<g filter="url(#filter8_f)">
<path d="M2151.57 2851H2009.2V2849.2C2009.21 2834.49 2015.06 2820.38 2025.47 2809.97C2035.87 2799.57 2049.99 2793.72 2064.71 2793.71H2151.57V2851Z" fill="#2F2E41"/>
</g>
<g filter="url(#filter9_f)">
<path d="M1928.47 2719.49L1865.75 2716.97C1861.5 2716.82 1857.48 2714.99 1854.58 2711.88C1851.67 2708.77 1850.12 2704.64 1850.25 2700.39L1867.91 2122.46L1869 2122.1C1978.56 2082.46 2069.39 2085.35 2146.16 2131.11L2146.88 2131.47L2157.33 2694.27C2157.38 2698.55 2155.75 2702.69 2152.79 2705.79C2149.82 2708.89 2145.76 2710.7 2141.48 2710.84H2088.49C2084.76 2710.84 2081.14 2709.55 2078.25 2707.18C2075.36 2704.82 2073.38 2701.53 2072.63 2697.87L2000.91 2332.45C2000.58 2331.04 1999.73 2329.8 1998.52 2329C1997.32 2328.2 1995.85 2327.88 1994.42 2328.12C1993.3 2328.34 1992.27 2328.91 1991.49 2329.75C1990.71 2330.6 1990.22 2331.67 1990.1 2332.81L1944.9 2705.08C1944.37 2709.02 1942.44 2712.64 1939.46 2715.29C1936.49 2717.93 1932.66 2719.42 1928.68 2719.49H1928.47Z" fill="#2F2E41"/>
</g>
<g filter="url(#filter10_f)">
<path d="M1989.38 1615.51C2038.34 1615.51 2078.04 1575.82 2078.04 1526.87C2078.04 1477.92 2038.34 1438.24 1989.38 1438.24C1940.41 1438.24 1900.71 1477.92 1900.71 1526.87C1900.71 1575.82 1940.41 1615.51 1989.38 1615.51Z" fill="#FFB8B8"/>
</g>
<g filter="url(#filter11_f)">
<path d="M1780.69 2060.85C1777.52 2059.77 1774.84 2057.6 1773.12 2054.72L1756.18 2029.14C1754.39 2026.33 1753.46 2023.05 1753.53 2019.72C1753.59 2016.38 1754.64 2013.14 1756.54 2010.4L1825.38 1916.72L1868.64 1709.55C1871.14 1703.16 1874.89 1697.33 1879.65 1692.39C1884.41 1687.44 1890.1 1683.49 1896.39 1680.75C1902.69 1678 1909.46 1676.52 1916.32 1676.4C1923.18 1676.27 1930 1677.49 1936.39 1680C1942.78 1682.51 1948.62 1686.25 1953.56 1691.01C1958.5 1695.77 1962.46 1701.46 1965.21 1707.75C1967.95 1714.04 1969.43 1720.81 1969.56 1727.67C1969.68 1734.53 1968.46 1741.35 1965.95 1747.74V1747.74L1945.41 1879.61C1939.27 1919.6 1918.77 1955.97 1887.74 1981.94L1796.91 2057.96C1795.17 2059.4 1793.15 2060.47 1790.98 2061.09C1788.81 2061.71 1786.53 2061.87 1784.3 2061.57C1783.68 2061.7 1783.04 2061.7 1782.42 2061.58C1781.8 2061.45 1781.21 2061.2 1780.69 2060.85V2060.85Z" fill="#00BFA6"/>
</g>
<g filter="url(#filter12_f)">
<path d="M2221.85 2070.21C2218.74 2071.41 2215.31 2071.54 2212.12 2070.57L2182.2 2062.65C2178.97 2061.77 2176.09 2059.92 2173.96 2057.34C2171.83 2054.75 2170.55 2051.57 2170.31 2048.24L2160.22 1932.58L2055.69 1748.46C2050.93 1735.47 2051.51 1721.11 2057.33 1708.55C2063.14 1695.99 2073.71 1686.25 2086.7 1681.48C2099.7 1676.7 2114.06 1677.28 2126.63 1683.08C2139.19 1688.89 2148.94 1699.44 2153.73 1712.43V1712.43L2225.45 1824.85C2247.39 1858.88 2256.11 1899.76 2249.96 1939.78L2232.3 2056.88C2231.98 2059.16 2231.17 2061.33 2229.92 2063.26C2228.68 2065.19 2227.03 2066.82 2225.09 2068.05C2224.3 2069.13 2223.15 2069.89 2221.85 2070.21V2070.21Z" fill="#00BFA6"/>
</g>
<g filter="url(#filter13_f)">
<path d="M1892.42 1684.33C1907.58 1667.62 1926.3 1654.55 1947.21 1646.06C1968.11 1637.58 1990.65 1633.91 2013.16 1635.32C2014.61 1635.32 2016.05 1635.68 2017.49 1635.68C2038.85 1637.32 2059.61 1643.51 2078.38 1653.82C2097.16 1664.14 2113.51 1678.35 2126.34 1695.49C2139.31 1712.88 2148.42 1732.83 2153.08 1754.02C2157.75 1775.2 2157.84 1797.14 2153.37 1818.36C2136.07 1899.61 2140.42 1983.97 2165.98 2063.01L2189.77 2136.87C2190.46 2138.9 2190.73 2141.05 2190.57 2143.19C2190.41 2145.33 2189.83 2147.42 2188.86 2149.33C2187.88 2151.24 2186.54 2152.94 2184.9 2154.33C2183.26 2155.72 2181.37 2156.76 2179.32 2157.41C2178.03 2157.79 2176.7 2158.03 2175.35 2158.13L2053.89 2164.61L2022.9 2110.93V2166.42L1875.48 2174.34H1874.76C1872.63 2174.35 1870.52 2173.94 1868.54 2173.13C1866.57 2172.32 1864.78 2171.12 1863.27 2169.62C1861.76 2168.11 1860.57 2166.32 1859.76 2164.35C1858.95 2162.37 1858.53 2160.26 1858.54 2158.13V2156.69L1875.12 1949.87L1854.22 1809.35C1850.81 1786.98 1852.48 1764.13 1859.09 1742.49C1865.71 1720.85 1877.1 1700.98 1892.42 1684.33V1684.33Z" fill="#00BFA6"/>
</g>
<g filter="url(#filter14_f)">
<path d="M2051.01 1611.54C2042.72 1616.23 2010.28 1619.47 2008.12 1610.1V1609.74C2007.16 1602.92 2007.28 1595.99 2008.48 1589.2C2009.05 1585.79 2008.89 1582.29 2008.02 1578.94C2007.15 1575.59 2005.59 1572.46 2003.43 1569.75C1994.78 1560.38 1979.28 1565.42 1966.31 1562.9C1958.86 1561.28 1952.27 1556.96 1947.81 1550.78C1943.35 1544.59 1941.34 1536.97 1942.16 1529.39C1942.22 1527.93 1942.47 1526.48 1942.88 1525.07C1943.58 1521.99 1943.65 1518.81 1943.1 1515.7C1942.55 1512.59 1941.39 1509.63 1939.68 1506.97C1937.96 1504.32 1935.74 1502.04 1933.13 1500.26C1930.53 1498.48 1927.59 1497.24 1924.5 1496.6C1922.37 1496.13 1920.18 1496 1918.01 1496.24C1905.4 1496.97 1891.34 1500.93 1880.89 1491.2C1872.6 1483.99 1870.8 1464.9 1874.4 1454.45C1880.53 1437.15 1919.09 1427.79 1936.03 1422.74C1956.91 1416.73 1978.85 1415.42 2000.29 1418.91C2021.73 1422.4 2042.13 1430.6 2060.02 1442.92C2070.83 1450.49 2080.56 1459.85 2085.25 1472.1C2089.93 1484.35 2087.77 1499.85 2077.32 1507.77C2085.28 1516.18 2090.88 1526.54 2093.54 1537.8C2096.2 1549.07 2095.82 1560.83 2092.46 1571.91C2087.41 1588.84 2063.26 1604.34 2051.01 1611.54Z" fill="#2F2E41"/>
</g>
<g filter="url(#filter15_f)">
<path d="M15 1071.66H1680.03" stroke="white" stroke-width="10" stroke-miterlimit="10"/>
<path d="M1502.53 1052.03C1512.52 1052.03 1520.62 1043.93 1520.62 1033.94C1520.62 1023.95 1512.52 1015.84 1502.53 1015.84C1492.53 1015.84 1484.43 1023.95 1484.43 1033.94C1484.43 1043.93 1492.53 1052.03 1502.53 1052.03Z" fill="#00BFA6"/>
<path d="M1567.78 1052.28C1577.78 1052.28 1585.88 1044.17 1585.88 1034.18C1585.88 1024.19 1577.78 1016.09 1567.78 1016.09C1557.79 1016.09 1549.69 1024.19 1549.69 1034.18C1549.69 1044.17 1557.79 1052.28 1567.78 1052.28Z" fill="#F50057"/>
<path d="M1436.57 1052.28C1446.56 1052.28 1454.67 1044.17 1454.67 1034.18C1454.67 1024.19 1446.56 1016.09 1436.57 1016.09C1426.57 1016.09 1418.47 1024.19 1418.47 1034.18C1418.47 1044.17 1426.57 1052.28 1436.57 1052.28Z" fill="white"/>
<path d="M274.743 1465.68L269.557 1446.05L258.176 1446.61H257.898C253.833 1447.08 249.971 1448.64 246.726 1451.13C244.477 1452.76 242.513 1454.75 240.913 1457.02C244.409 1459.45 248.059 1461.66 251.842 1463.63H252.12C253.199 1464.11 254.278 1464.84 255.392 1465.33C257.271 1466.31 259.464 1467.25 261.343 1468.22L262.701 1468.67C265.694 1470.13 268.652 1471.32 271.645 1472.5C272.202 1472.71 273.003 1472.95 273.525 1473.2L277.841 1474.55L274.743 1465.68Z" fill="#00BFA6"/>
<path d="M327.506 1399.56C355.301 1399.56 377.833 1377.04 377.833 1349.25C377.833 1321.46 355.301 1298.93 327.506 1298.93C299.711 1298.93 277.179 1321.46 277.179 1349.25C277.179 1377.04 299.711 1399.56 327.506 1399.56Z" fill="#FFB8B8"/>
<path d="M293.85 1324.89C299.175 1330.98 307.772 1332.86 316.125 1333.62C335.128 1334.66 354.184 1333.15 372.786 1329.13C373.865 1340.27 370.698 1352.45 377.31 1361.46C380.399 1350.31 382.174 1338.85 382.601 1327.29C383.037 1322.35 382.408 1317.38 380.756 1312.71C379.81 1310.39 378.245 1308.37 376.232 1306.88C374.219 1305.39 371.835 1304.48 369.34 1304.25C373.069 1301.38 377.442 1299.47 382.079 1298.68L366.173 1290.71L370.141 1286.5L341.288 1284.63L349.745 1279.34C337.065 1277.57 324.234 1277.12 311.461 1278.01C305.496 1278.12 299.659 1279.77 294.511 1282.78C292.073 1284.34 290.277 1286.72 289.453 1289.5C288.628 1292.27 288.83 1295.25 290.022 1297.88C286.33 1298.53 282.854 1300.08 279.899 1302.38C276.943 1304.69 274.599 1307.68 273.072 1311.11C271.158 1316.64 270.703 1322.57 271.75 1328.33C272.786 1337.55 274.912 1346.62 278.084 1355.33L293.85 1324.89Z" fill="#2F2E41"/>
<path d="M50.5002 991H1644.88C1649.5 990.986 1654.07 991.886 1658.34 993.647C1662.61 995.409 1666.5 997.997 1669.76 1001.26C1673.03 1004.53 1675.62 1008.41 1677.38 1012.68C1679.14 1016.95 1680.04 1021.53 1680.03 1026.15V1937.85C1680.04 1942.47 1679.14 1947.05 1677.38 1951.32C1675.62 1955.59 1673.03 1959.47 1669.76 1962.74C1666.5 1966 1662.61 1968.59 1658.34 1970.35C1654.07 1972.11 1649.5 1973.01 1644.88 1973H50.5002C45.8801 1973.01 41.3028 1972.11 37.0318 1970.35C32.7607 1968.59 28.8801 1966 25.6131 1962.74C22.3462 1959.47 19.7575 1955.59 17.9958 1951.32C16.2341 1947.05 15.3343 1942.47 15.3481 1937.85V1026.15C15.3343 1021.53 16.2341 1016.95 17.9958 1012.68C19.7575 1008.41 22.3462 1004.53 25.6131 1001.26C28.8801 997.997 32.7607 995.409 37.0318 993.647C41.3028 991.886 45.8801 990.986 50.5002 991V991Z" stroke="white" stroke-width="10" stroke-miterlimit="10"/>
<path d="M1609.72 1564.82H85.6522C81.4202 1564.86 77.3742 1566.56 74.3816 1569.56C71.3889 1572.55 69.6876 1576.59 69.6423 1580.83V1892.62C69.6876 1896.85 71.3889 1900.89 74.3816 1903.88C77.3742 1906.88 81.4202 1908.58 85.6522 1908.62H1609.72C1613.96 1908.58 1618 1906.88 1620.99 1903.88C1623.99 1900.89 1625.69 1896.85 1625.73 1892.62V1580.83C1625.74 1578.72 1625.33 1576.64 1624.52 1574.69C1623.72 1572.75 1622.54 1570.98 1621.05 1569.5C1619.57 1568.01 1617.8 1566.83 1615.86 1566.03C1613.91 1565.22 1611.83 1564.81 1609.72 1564.82V1564.82ZM461.188 1734.98C461.303 1761.84 453.428 1788.12 438.566 1810.49C435.483 1815.22 432.112 1819.75 428.472 1824.06C419.891 1834.21 409.934 1843.12 398.889 1850.51C395.757 1852.6 392.624 1854.34 389.492 1856.08C372.941 1865.22 354.706 1870.9 335.894 1872.78C331.717 1873.13 327.193 1873.48 323.016 1873.48C310.92 1873.54 298.869 1872.02 287.168 1868.95C280.602 1867.33 274.195 1865.11 268.026 1862.34C264.893 1860.95 261.761 1859.56 258.628 1857.82C251.261 1853.95 244.27 1849.41 237.746 1844.25C234.614 1841.81 231.829 1839.37 229.045 1836.94C215.47 1824.64 204.47 1809.78 196.684 1793.2C188.898 1776.62 184.48 1758.67 183.686 1740.37C182.893 1722.07 185.739 1703.8 192.06 1686.61C198.381 1669.42 208.052 1653.66 220.511 1640.24C232.97 1626.81 247.971 1616 264.642 1608.41C281.314 1600.82 299.326 1596.62 317.634 1596.05C335.942 1595.48 354.182 1598.54 371.296 1605.07C388.41 1611.59 404.059 1621.45 417.335 1634.07C431.234 1646.94 442.308 1662.55 449.857 1679.92C457.406 1697.29 461.264 1716.04 461.188 1734.98V1734.98ZM1193.12 1816.76C1193.07 1820.99 1191.37 1825.03 1188.38 1828.02C1185.39 1831.02 1181.34 1832.72 1177.11 1832.76H610.846C606.614 1832.72 602.568 1831.02 599.575 1828.02C596.582 1825.03 594.881 1820.99 594.836 1816.76C594.881 1812.52 596.582 1808.48 599.575 1805.49C602.568 1802.5 606.614 1800.79 610.846 1800.75H1177.11C1179.21 1800.74 1181.3 1801.16 1183.24 1801.96C1185.18 1802.76 1186.95 1803.94 1188.44 1805.43C1189.93 1806.91 1191.11 1808.68 1191.91 1810.63C1192.71 1812.57 1193.12 1814.65 1193.12 1816.76V1816.76ZM594.836 1736.72C594.881 1732.49 596.582 1728.44 599.575 1725.45C602.568 1722.46 606.614 1720.76 610.846 1720.71H879.185C883.431 1720.71 887.504 1722.4 890.506 1725.4C893.508 1728.4 895.195 1732.48 895.195 1736.72C895.195 1740.97 893.508 1745.04 890.506 1748.04C887.504 1751.04 883.431 1752.73 879.185 1752.73H610.846C606.614 1752.68 602.568 1750.98 599.575 1747.99C596.582 1745 594.881 1740.95 594.836 1736.72V1736.72ZM1437.09 1656.69C1437.05 1660.92 1435.35 1664.96 1432.36 1667.95C1429.36 1670.95 1425.32 1672.65 1421.08 1672.69H610.846C606.614 1672.65 602.568 1670.95 599.575 1667.95C596.582 1664.96 594.881 1660.92 594.836 1656.69C594.881 1652.45 596.582 1648.41 599.575 1645.42C602.568 1642.42 606.614 1640.72 610.846 1640.68H1421.08C1423.19 1640.67 1425.27 1641.08 1427.22 1641.89C1429.16 1642.69 1430.93 1643.87 1432.42 1645.36C1433.9 1646.84 1435.08 1648.61 1435.89 1650.55C1436.69 1652.5 1437.1 1654.58 1437.09 1656.69V1656.69Z" fill="white"/>
<path d="M416.987 1633.37C403.711 1620.75 388.062 1610.9 370.948 1604.37C353.833 1597.84 335.594 1594.78 317.286 1595.35C298.978 1595.93 280.966 1600.13 264.294 1607.71C247.622 1615.3 232.622 1626.12 220.163 1639.54C207.703 1652.97 198.033 1668.73 191.712 1685.92C185.391 1703.11 182.544 1721.38 183.338 1739.67C184.132 1757.97 188.55 1775.93 196.336 1792.5C204.122 1809.08 215.122 1823.95 228.697 1836.24C231.347 1838.96 234.261 1841.41 237.398 1843.55C243.922 1848.71 250.913 1853.26 258.28 1857.12C261.413 1858.86 264.545 1860.25 267.677 1861.65C273.888 1864.31 280.286 1866.52 286.82 1868.26C298.516 1871.34 310.571 1872.86 322.668 1872.78C327.192 1872.78 331.369 1872.43 335.545 1872.09C354.401 1870.42 372.679 1864.72 389.144 1855.38C392.276 1853.64 395.408 1851.9 398.541 1849.81C409.658 1842.51 419.628 1833.6 428.124 1823.37C431.873 1819.14 435.25 1814.6 438.217 1809.8C452.878 1787.33 460.734 1761.11 460.84 1734.29C460.937 1715.34 457.089 1696.59 449.538 1679.21C441.988 1661.84 430.903 1646.23 416.987 1633.37V1633.37ZM387.403 1743.33H331.369V1799.36H314.315V1743.33H258.28V1726.28H314.315V1670.26H331.369V1726.28H387.403V1743.33Z" fill="#00BFA6"/>
<path d="M405.119 1447.31C392.282 1441.24 378.905 1436.4 365.164 1432.83L362.623 1413.86L292.423 1409.9L284.627 1434.67L259.951 1445.11C259.043 1445.51 258.18 1446 257.375 1446.57V1446.57C255.994 1447.54 254.841 1448.8 253.999 1450.26C253.157 1451.72 252.646 1453.35 252.503 1455.03C252.265 1456.72 252.432 1458.43 252.99 1460.04L254.591 1465.26C256.505 1466.24 258.663 1467.18 260.577 1468.15L261.9 1468.64C264.893 1470.06 267.886 1471.25 270.845 1472.43C271.401 1472.67 272.202 1472.88 272.759 1473.13C274.081 1473.58 275.717 1474.03 277.04 1474.52C281.776 1476.14 286.627 1477.39 291.553 1478.28C304.132 1480.93 316.994 1481.99 329.838 1481.44C334.502 1481.2 339.15 1480.7 343.759 1479.95C354.139 1478.42 364.325 1475.78 374.143 1472.08V1472.08C380.354 1469.69 386.41 1466.91 392.276 1463.77C393.628 1463.1 394.92 1462.32 396.139 1461.43L396.661 1461.16L399.759 1459.42C402.403 1457.94 404.897 1456.22 407.207 1454.27C407.973 1453.71 408.495 1453.43 409.26 1452.84C410.243 1452.15 411.174 1451.4 412.045 1450.58C409.672 1449.63 407.359 1448.54 405.119 1447.31Z" fill="#00BFA6"/>
<path d="M1609.72 1160.81H85.6522C83.5485 1160.81 81.4646 1161.22 79.5201 1162.02C77.5756 1162.83 75.8089 1164.01 74.3213 1165.49C72.8338 1166.98 71.6547 1168.75 70.8517 1170.69C70.0488 1172.63 69.6378 1174.72 69.6424 1176.82V1488.61C69.6876 1492.84 71.3889 1496.89 74.3816 1499.88C77.3743 1502.87 81.4202 1504.57 85.6522 1504.62H1609.72C1613.96 1504.57 1618 1502.87 1620.99 1499.88C1623.99 1496.89 1625.69 1492.84 1625.73 1488.61V1176.82C1625.69 1172.59 1623.99 1168.54 1620.99 1165.55C1618 1162.56 1613.96 1160.86 1609.72 1160.81V1160.81ZM415.665 1449.64C415.199 1449.86 414.757 1450.13 414.342 1450.44C413.019 1451.24 411.697 1452.32 410.374 1453.08C409.449 1453.86 408.472 1454.56 407.451 1455.21C406.685 1455.76 406.128 1456.01 405.363 1456.53C402.964 1458.37 400.387 1459.97 397.671 1461.29L394.469 1462.9L393.947 1463.17C392.669 1463.96 391.344 1464.67 389.979 1465.3C383.952 1468.14 377.757 1470.62 371.429 1472.71C361.441 1475.91 351.138 1478.04 340.697 1479.04C336.076 1479.58 331.427 1479.85 326.775 1479.84C313.854 1479.78 300.992 1478.1 288.49 1474.83C283.619 1473.67 278.838 1472.16 274.186 1470.31C272.863 1469.79 271.262 1469.26 269.94 1468.71L268.095 1467.94C265.172 1466.62 262.283 1465.3 259.359 1463.7L258.037 1463.17C256.157 1462.1 254.069 1461.05 252.19 1459.97C251.146 1459.45 250.067 1458.65 249.023 1458.13H248.744C245.11 1455.98 241.622 1453.6 238.303 1450.99C237.329 1450.51 236.436 1449.88 235.658 1449.12C233.256 1447.27 231.412 1445.64 229.289 1443.83C228.174 1443.02 227.116 1442.13 226.122 1441.18C222.397 1437.46 218.708 1433.77 215.263 1429.8L214.984 1429.52C213.418 1427.92 212.061 1426.04 210.738 1424.48C200.472 1411.5 192.417 1396.93 186.897 1381.33C177.892 1355.67 176.157 1328.02 181.884 1301.43C187.611 1274.85 200.576 1250.37 219.348 1230.69C238.119 1211.01 261.967 1196.9 288.255 1189.92C314.543 1182.94 342.249 1183.37 368.312 1191.15C394.374 1198.92 417.779 1213.76 435.94 1234C454.1 1254.24 466.311 1279.11 471.221 1305.86C476.132 1332.61 473.552 1360.19 463.766 1385.56C453.98 1410.94 437.369 1433.11 415.769 1449.64H415.665ZM1177.11 1428.76H610.846C608.743 1428.76 606.661 1428.34 604.719 1427.54C602.777 1426.74 601.012 1425.56 599.525 1424.07C598.038 1422.58 596.859 1420.82 596.055 1418.88C595.25 1416.94 594.836 1414.85 594.836 1412.75C594.836 1410.65 595.25 1408.57 596.055 1406.63C596.859 1404.68 598.038 1402.92 599.525 1401.43C601.012 1399.95 602.777 1398.77 604.719 1397.96C606.661 1397.16 608.743 1396.74 610.846 1396.74H1177.11C1181.34 1396.79 1185.39 1398.49 1188.38 1401.48C1191.37 1404.48 1193.07 1408.52 1193.12 1412.75C1193.15 1414.86 1192.76 1416.96 1191.97 1418.92C1191.17 1420.87 1190 1422.65 1188.5 1424.14C1187.01 1425.64 1185.23 1426.81 1183.27 1427.61C1181.32 1428.4 1179.22 1428.79 1177.11 1428.76V1428.76ZM594.836 1332.72C594.881 1328.48 596.582 1324.44 599.575 1321.45C602.568 1318.46 606.614 1316.75 610.846 1316.71H879.185C883.431 1316.71 887.504 1318.4 890.506 1321.4C893.508 1324.4 895.195 1328.47 895.195 1332.72C895.195 1336.96 893.508 1341.03 890.506 1344.04C887.504 1347.04 883.431 1348.72 879.185 1348.72H610.846C606.614 1348.68 602.568 1346.98 599.575 1343.98C596.582 1340.99 594.881 1336.95 594.836 1332.72ZM1421.08 1268.69H610.846C608.743 1268.69 606.661 1268.27 604.719 1267.47C602.777 1266.67 601.012 1265.49 599.525 1264C598.038 1262.51 596.859 1260.75 596.055 1258.81C595.25 1256.86 594.836 1254.78 594.836 1252.68C594.836 1250.58 595.25 1248.5 596.055 1246.56C596.859 1244.61 598.038 1242.85 599.525 1241.36C601.012 1239.88 602.777 1238.7 604.719 1237.89C606.661 1237.09 608.743 1236.67 610.846 1236.67H1421.08C1425.32 1236.72 1429.36 1238.42 1432.36 1241.41C1435.35 1244.4 1437.05 1248.45 1437.09 1252.68C1437.13 1254.79 1436.74 1256.89 1435.94 1258.85C1435.15 1260.8 1433.97 1262.58 1432.48 1264.07C1430.99 1265.57 1429.21 1266.74 1427.25 1267.54C1425.29 1268.33 1423.2 1268.72 1421.08 1268.69V1268.69Z" fill="white"/>
</g>
<defs>
<filter id="filter0_f" x="392.989" y="0.989365" width="1562.02" height="512.021" filterUnits="userSpaceOnUse" color-interpolation-filters="sRGB">
<feFlood flood-opacity="0" result="BackgroundImageFix"/>
<feBlend mode="normal" in="SourceGraphic" in2="BackgroundImageFix" result="shape"/>
<feGaussianBlur stdDeviation="85.5053" result="effect1_foregroundBlur"/>
</filter>
<filter id="filter1_f" x="615.884" y="212.186" width="1118.4" height="124.654" filterUnits="userSpaceOnUse" color-interpolation-filters="sRGB">
<feFlood flood-opacity="0" result="BackgroundImageFix"/>
<feBlend mode="normal" in="SourceGraphic" in2="BackgroundImageFix" result="shape"/>
<feGaussianBlur stdDeviation="3.42021" result="effect1_foregroundBlur"/>
</filter>
<filter id="filter2_f" x="1388" y="2023" width="425.467" height="425.355" filterUnits="userSpaceOnUse" color-interpolation-filters="sRGB">
<feFlood flood-opacity="0" result="BackgroundImageFix"/>
<feBlend mode="normal" in="SourceGraphic" in2="BackgroundImageFix" result="shape"/>
<feGaussianBlur stdDeviation="5" result="effect1_foregroundBlur"/>
</filter>
<filter id="filter3_f" x="1691.75" y="1963.29" width="172.468" height="180.417" filterUnits="userSpaceOnUse" color-interpolation-filters="sRGB">
<feFlood flood-opacity="0" result="BackgroundImageFix"/>
<feBlend mode="normal" in="SourceGraphic" in2="BackgroundImageFix" result="shape"/>
<feGaussianBlur stdDeviation="5" result="effect1_foregroundBlur"/>
</filter>
<filter id="filter4_f" x="2151.5" y="1961.13" width="102.338" height="213.469" filterUnits="userSpaceOnUse" color-interpolation-filters="sRGB">
<feFlood flood-opacity="0" result="BackgroundImageFix"/>
<feBlend mode="normal" in="SourceGraphic" in2="BackgroundImageFix" result="shape"/>
<feGaussianBlur stdDeviation="5" result="effect1_foregroundBlur"/>
</filter>
<filter id="filter5_f" x="1848.9" y="2628.06" width="84.8761" height="190.065" filterUnits="userSpaceOnUse" color-interpolation-filters="sRGB">
<feFlood flood-opacity="0" result="BackgroundImageFix"/>
<feBlend mode="normal" in="SourceGraphic" in2="BackgroundImageFix" result="shape"/>
<feGaussianBlur stdDeviation="5" result="effect1_foregroundBlur"/>
</filter>
<filter id="filter6_f" x="1782.95" y="2783.71" width="162.367" height="77.2888" filterUnits="userSpaceOnUse" color-interpolation-filters="sRGB">
<feFlood flood-opacity="0" result="BackgroundImageFix"/>
<feBlend mode="normal" in="SourceGraphic" in2="BackgroundImageFix" result="shape"/>
<feGaussianBlur stdDeviation="5" result="effect1_foregroundBlur"/>
</filter>
<filter id="filter7_f" x="2065.16" y="2628.06" width="84.8759" height="190.065" filterUnits="userSpaceOnUse" color-interpolation-filters="sRGB">
<feFlood flood-opacity="0" result="BackgroundImageFix"/>
<feBlend mode="normal" in="SourceGraphic" in2="BackgroundImageFix" result="shape"/>
<feGaussianBlur stdDeviation="5" result="effect1_foregroundBlur"/>
</filter>
<filter id="filter8_f" x="1999.2" y="2783.71" width="162.367" height="77.2888" filterUnits="userSpaceOnUse" color-interpolation-filters="sRGB">
<feFlood flood-opacity="0" result="BackgroundImageFix"/>
<feBlend mode="normal" in="SourceGraphic" in2="BackgroundImageFix" result="shape"/>
<feGaussianBlur stdDeviation="5" result="effect1_foregroundBlur"/>
</filter>
<filter id="filter9_f" x="1840.25" y="2084.43" width="327.089" height="645.063" filterUnits="userSpaceOnUse" color-interpolation-filters="sRGB">
<feFlood flood-opacity="0" result="BackgroundImageFix"/>
<feBlend mode="normal" in="SourceGraphic" in2="BackgroundImageFix" result="shape"/>
<feGaussianBlur stdDeviation="5" result="effect1_foregroundBlur"/>
</filter>
<filter id="filter10_f" x="1890.71" y="1428.24" width="197.328" height="197.271" filterUnits="userSpaceOnUse" color-interpolation-filters="sRGB">
<feFlood flood-opacity="0" result="BackgroundImageFix"/>
<feBlend mode="normal" in="SourceGraphic" in2="BackgroundImageFix" result="shape"/>
<feGaussianBlur stdDeviation="5" result="effect1_foregroundBlur"/>
</filter>
<filter id="filter11_f" x="1743.52" y="1666.39" width="236.04" height="405.329" filterUnits="userSpaceOnUse" color-interpolation-filters="sRGB">
<feFlood flood-opacity="0" result="BackgroundImageFix"/>
<feBlend mode="normal" in="SourceGraphic" in2="BackgroundImageFix" result="shape"/>
<feGaussianBlur stdDeviation="5" result="effect1_foregroundBlur"/>
</filter>
<filter id="filter12_f" x="2042.5" y="1668.27" width="219.385" height="412.944" filterUnits="userSpaceOnUse" color-interpolation-filters="sRGB">
<feFlood flood-opacity="0" result="BackgroundImageFix"/>
<feBlend mode="normal" in="SourceGraphic" in2="BackgroundImageFix" result="shape"/>
<feGaussianBlur stdDeviation="5" result="effect1_foregroundBlur"/>
</filter>
<filter id="filter13_f" x="1842.5" y="1625.03" width="358.113" height="559.315" filterUnits="userSpaceOnUse" color-interpolation-filters="sRGB">
<feFlood flood-opacity="0" result="BackgroundImageFix"/>
<feBlend mode="normal" in="SourceGraphic" in2="BackgroundImageFix" result="shape"/>
<feGaussianBlur stdDeviation="5" result="effect1_foregroundBlur"/>
</filter>
<filter id="filter14_f" x="1862.64" y="1407" width="242.652" height="219.113" filterUnits="userSpaceOnUse" color-interpolation-filters="sRGB">
<feFlood flood-opacity="0" result="BackgroundImageFix"/>
<feBlend mode="normal" in="SourceGraphic" in2="BackgroundImageFix" result="shape"/>
<feGaussianBlur stdDeviation="5" result="effect1_foregroundBlur"/>
</filter>
<filter id="filter15_f" x="0.3479" y="976" width="1694.68" height="1012" filterUnits="userSpaceOnUse" color-interpolation-filters="sRGB">
<feFlood flood-opacity="0" result="BackgroundImageFix"/>
<feBlend mode="normal" in="SourceGraphic" in2="BackgroundImageFix" result="shape"/>
<feGaussianBlur stdDeviation="5" result="effect1_foregroundBlur"/>
</filter>
</defs>
</svg>
