<svg width="2447" height="2688" viewBox="0 0 2447 2688" fill="none" xmlns="http://www.w3.org/2000/svg">
<g filter="url(#filter0_f)">
<path d="M1851.6 172H628.404C590.626 172 560 202.626 560 240.404V273.596C560 311.374 590.626 342 628.404 342H1851.6C1889.37 342 1920 311.374 1920 273.596V240.404C1920 202.626 1889.37 172 1851.6 172Z" fill="#00BFA6"/>
</g>
<g filter="url(#filter1_f)">
<path d="M647.87 277.958V195.208C647.87 193.26 648.566 191.59 649.958 190.198C651.35 188.75 652.992 188.027 654.884 188.027C656.777 188.027 658.419 188.723 659.811 190.114C661.203 191.506 661.899 193.148 661.899 195.041V277.958C661.899 279.795 662.594 281.409 663.986 282.801C665.378 284.137 667.02 284.805 668.913 284.805H697.637C699.585 284.805 701.228 284.137 702.564 282.801C703.955 281.465 704.651 279.85 704.651 277.958V195.208C704.651 193.204 705.319 191.506 706.655 190.114C708.047 188.723 709.717 188.027 711.665 188.027C713.614 188.027 715.256 188.723 716.592 190.114C717.984 191.506 718.679 193.204 718.679 195.208V277.791C718.679 283.58 716.592 288.562 712.417 292.737C708.297 296.912 703.371 299 697.637 299H668.913C663.123 299 658.169 296.94 654.049 292.821C649.93 288.701 647.87 283.747 647.87 277.958ZM751.412 291.986V188.027H801.179C806.912 188.027 811.839 190.114 815.958 194.289C820.133 198.464 822.221 203.447 822.221 209.236V235.539C822.221 241.328 820.161 246.283 816.042 250.402C811.923 254.522 806.968 256.581 801.179 256.581H765.607V291.986C765.607 293.934 764.911 295.604 763.52 296.996C762.184 298.332 760.541 299 758.593 299C756.589 299 754.891 298.332 753.499 296.996C752.108 295.604 751.412 293.934 751.412 291.986ZM765.607 242.553H801.179C803.071 242.553 804.714 241.885 806.105 240.549C807.497 239.157 808.193 237.487 808.193 235.539V209.236C808.193 207.288 807.497 205.646 806.105 204.31C804.714 202.918 803.071 202.222 801.179 202.222H765.607V242.553ZM854.787 299V195.041C854.787 193.148 855.482 191.506 856.874 190.114C858.266 188.723 859.908 188.027 861.801 188.027C863.693 188.027 865.335 188.723 866.727 190.114C868.119 191.506 868.815 193.148 868.815 195.041V284.972H918.414C920.363 284.972 922.033 285.668 923.425 287.059C924.872 288.395 925.596 290.038 925.596 291.986C925.596 293.934 924.872 295.604 923.425 296.996C922.033 298.332 920.363 299 918.414 299H854.787ZM1010.1 198.297L1025.55 229.777C1027.72 234.064 1028.8 238.712 1028.8 243.722C1028.8 248.621 1027.72 253.241 1025.55 257.583L1010.1 288.729C1006.81 295.576 1001.25 299 993.399 299C989.669 299 986.301 298.026 983.295 296.077C980.345 294.129 978.118 291.68 976.615 288.729L961.084 257.583C959.024 253.52 957.994 248.899 957.994 243.722C957.994 238.545 959.024 233.897 961.084 229.777L976.615 198.297C980.122 191.45 985.716 188.027 993.399 188.027C1001.19 188.027 1006.76 191.45 1010.1 198.297ZM988.723 205.312L974.193 234.871C972.857 237.821 972.189 240.716 972.189 243.555C972.189 246.617 972.857 249.539 974.193 252.323L989.14 282.216C989.919 284.053 991.339 284.972 993.399 284.972C995.18 284.972 996.544 284.053 997.49 282.216L1012.52 252.323C1013.91 249.372 1014.61 246.45 1014.61 243.555C1014.61 240.493 1013.91 237.599 1012.52 234.871L997.824 205.312C996.878 203.141 995.403 202.055 993.399 202.055C991.395 202.055 989.836 203.141 988.723 205.312ZM1061.95 289.23L1090.34 193.287C1091.46 189.78 1093.79 188.027 1097.36 188.027C1100.81 188.027 1102.98 189.502 1103.87 192.452L1131.84 289.898C1132.07 290.622 1132.18 291.318 1132.18 291.986C1132.18 293.934 1131.51 295.604 1130.17 296.996C1128.84 298.332 1127.31 299 1125.58 299C1121.91 299 1119.57 297.302 1118.57 293.906L1112.89 274.868H1080.91L1074.73 295.242C1074.56 296.133 1073.87 296.996 1072.64 297.831C1071.42 298.61 1070.08 299 1068.63 299C1066.57 299 1064.88 298.304 1063.54 296.912C1062.2 295.521 1061.54 293.823 1061.54 291.819C1061.54 290.984 1061.67 290.121 1061.95 289.23ZM1097.19 220.509L1085.17 260.673H1108.8L1097.19 220.509ZM1171.76 188.027H1199.48C1203.1 188.082 1206.61 189.251 1210 191.534C1213.45 193.816 1215.99 196.572 1217.6 199.8L1231.46 227.857C1234.08 232.923 1235.39 238.211 1235.39 243.722C1235.39 248.844 1233.99 254.104 1231.21 259.504L1217.27 287.226C1215.48 290.789 1212.92 293.656 1209.58 295.827C1206.24 297.942 1202.51 299 1198.39 299H1171.59C1169.64 299 1167.97 298.304 1166.58 296.912C1165.24 295.521 1164.58 293.879 1164.58 291.986C1164.58 290.038 1165.24 288.367 1166.58 286.976C1167.97 285.528 1169.64 284.805 1171.59 284.805H1178.94V202.222H1171.76C1169.81 202.222 1168.14 201.526 1166.75 200.134C1165.41 198.687 1164.74 196.989 1164.74 195.041C1164.74 193.148 1165.41 191.506 1166.75 190.114C1168.14 188.723 1169.81 188.027 1171.76 188.027ZM1192.97 202.222V284.972H1197.89C1201.01 284.972 1203.35 283.441 1204.91 280.379L1218.77 252.824C1220.49 249.205 1221.36 246.172 1221.36 243.722C1221.36 240.66 1220.66 237.766 1219.27 235.038L1204.91 206.481C1203.4 203.642 1200.95 202.222 1197.56 202.222H1192.97ZM1371.66 291.986V188.027H1435.29C1437.12 188.027 1438.74 188.723 1440.13 190.114C1441.58 191.506 1442.3 193.148 1442.3 195.041C1442.3 196.989 1441.61 198.687 1440.21 200.134C1438.82 201.526 1437.18 202.222 1435.29 202.222H1385.69V224.266H1421.26C1423.21 224.266 1424.85 224.962 1426.19 226.354C1427.58 227.69 1428.27 229.332 1428.27 231.28C1428.27 233.229 1427.58 234.899 1426.19 236.291C1424.85 237.627 1423.21 238.295 1421.26 238.295H1385.69V291.986C1385.69 293.934 1384.99 295.604 1383.6 296.996C1382.26 298.332 1380.62 299 1378.67 299C1376.73 299 1375.06 298.332 1373.66 296.996C1372.33 295.604 1371.66 293.934 1371.66 291.986ZM1481.88 188.027H1538.66C1540.5 188.027 1542.11 188.723 1543.5 190.114C1544.95 191.506 1545.68 193.148 1545.68 195.041C1545.68 196.989 1544.98 198.687 1543.59 200.134C1542.2 201.526 1540.55 202.222 1538.66 202.222H1517.45V284.972H1538.66C1540.61 284.972 1542.25 285.668 1543.59 287.059C1544.98 288.395 1545.68 290.038 1545.68 291.986C1545.68 293.934 1544.98 295.604 1543.59 296.996C1542.2 298.332 1540.55 299 1538.66 299H1481.88C1479.93 299 1478.26 298.332 1476.87 296.996C1475.53 295.604 1474.87 293.934 1474.87 291.986C1474.87 290.038 1475.53 288.395 1476.87 287.059C1478.26 285.668 1479.93 284.972 1481.88 284.972H1503.42V202.222H1481.88C1479.93 202.222 1478.26 201.526 1476.87 200.134C1475.53 198.743 1474.87 197.101 1474.87 195.208C1474.87 193.204 1475.53 191.506 1476.87 190.114C1478.26 188.723 1479.93 188.027 1481.88 188.027ZM1578.41 299V195.041C1578.41 193.148 1579.1 191.506 1580.5 190.114C1581.89 188.723 1583.53 188.027 1585.42 188.027C1587.32 188.027 1588.96 188.723 1590.35 190.114C1591.74 191.506 1592.44 193.148 1592.44 195.041V284.972H1642.04C1643.98 284.972 1645.65 285.668 1647.05 287.059C1648.49 288.395 1649.22 290.038 1649.22 291.986C1649.22 293.934 1648.49 295.604 1647.05 296.996C1645.65 298.332 1643.98 299 1642.04 299H1578.41ZM1745.41 202.222H1695.81V236.374H1717.19C1719.08 236.374 1720.72 237.07 1722.11 238.462C1723.51 239.853 1724.2 241.495 1724.2 243.388C1724.2 245.392 1723.51 247.09 1722.11 248.482C1720.78 249.873 1719.14 250.569 1717.19 250.569H1695.81V284.972H1745.58C1747.47 284.972 1749.11 285.668 1750.5 287.059C1751.9 288.395 1752.59 290.038 1752.59 291.986C1752.59 293.934 1751.87 295.604 1750.42 296.996C1749.03 298.332 1747.36 299 1745.41 299H1681.78V188.027H1745.41C1747.36 188.027 1749.03 188.75 1750.42 190.198C1751.87 191.59 1752.59 193.26 1752.59 195.208C1752.59 197.101 1751.87 198.743 1750.42 200.134C1749.03 201.526 1747.36 202.222 1745.41 202.222ZM1801.02 188.027H1837.51C1841.97 188.027 1846.17 189.919 1850.12 193.705C1854.13 197.435 1856.13 201.971 1856.13 207.316C1856.13 209.32 1855.41 211.017 1853.96 212.409C1852.57 213.801 1851.01 214.497 1849.29 214.497C1846.89 214.497 1845.25 213.968 1844.36 212.91C1843.47 211.797 1842.61 209.765 1841.77 206.815C1840.99 203.864 1839.21 202.389 1836.43 202.389H1801.77C1800.1 202.389 1799.27 202.918 1799.27 203.976C1799.27 204.644 1799.63 205.423 1800.36 206.314L1852.38 272.864C1854.88 276.093 1856.13 279.544 1856.13 283.218C1856.13 287.393 1854.6 291.067 1851.54 294.24C1848.54 297.413 1845.17 299 1841.44 299H1803.61C1798.6 299 1794.23 297.107 1790.5 293.322C1786.83 289.481 1784.99 285.278 1784.99 280.713C1784.99 275.48 1787.44 272.864 1792.34 272.864C1794.23 272.864 1795.85 273.56 1797.18 274.952C1798.52 276.288 1799.19 277.874 1799.19 279.711C1799.19 281.214 1799.69 282.467 1800.69 283.469C1801.75 284.471 1803.05 284.972 1804.61 284.972H1839.52C1841.02 284.972 1841.77 284.387 1841.77 283.218C1841.77 282.662 1841.41 281.938 1840.69 281.047L1788.75 214.497C1786.3 211.324 1785.07 207.872 1785.07 204.143C1785.07 199.8 1786.63 196.043 1789.75 192.87C1792.87 189.641 1796.63 188.027 1801.02 188.027Z" fill="white"/>
</g>
<g filter="url(#filter2_f)">
<path d="M2189.68 2162.59C2205.56 2156.48 2218.66 2144.79 2226.53 2129.71C2234.4 2114.63 2236.49 2097.19 2232.41 2080.66C2228.34 2064.13 2218.37 2049.65 2204.39 2039.93C2190.41 2030.21 2173.36 2025.92 2156.45 2027.86C2139.54 2029.8 2123.92 2037.84 2112.53 2050.47C2101.13 2063.11 2094.74 2079.46 2094.55 2096.48C2094.36 2113.49 2100.39 2130 2111.5 2142.91C2122.61 2155.81 2138.04 2164.23 2154.91 2166.58L2186.27 2402.73L2148.77 2407.88L2149.1 2421.04L2130.35 2423.62L2128.55 2410.77L2109.74 2413.45L2112.53 2433.65L2124.08 2432.06L2127.07 2453.68L2115.6 2455.17L2119.9 2486.81L2137.29 2484.49L2135.78 2473.04L2154.52 2470.45L2156.36 2484.84L2190.92 2479.98L2195.72 2514.59L2237.51 2508.95L2189.68 2162.59ZM2127.54 2069.3C2133.07 2062 2140.64 2056.51 2149.3 2053.51C2157.95 2050.52 2167.3 2050.16 2176.17 2052.48C2185.03 2054.81 2193.01 2059.7 2199.1 2066.55C2205.19 2073.4 2209.11 2081.9 2210.36 2090.98C2211.62 2100.05 2210.16 2109.29 2206.16 2117.52C2202.16 2125.76 2195.81 2132.62 2187.91 2137.25C2180 2141.87 2170.9 2144.05 2161.76 2143.5C2152.61 2142.95 2143.83 2139.71 2136.52 2134.17C2131.67 2130.5 2127.59 2125.91 2124.51 2120.66C2121.43 2115.41 2119.42 2109.61 2118.58 2103.58C2117.75 2097.56 2118.11 2091.43 2119.65 2085.54C2121.18 2079.66 2123.87 2074.14 2127.54 2069.3Z" fill="#00BFA6"/>
</g>
<g filter="url(#filter3_f)">
<path d="M1221.22 1796.9L984.637 2268.67C975.835 2286.28 974.089 2306.88 979.78 2325.94C985.471 2345.01 998.136 2360.99 1015 2370.38L1258.73 2505.41C1275.62 2514.74 1295.32 2516.71 1313.49 2510.89C1331.67 2505.06 1346.85 2491.91 1355.7 2474.33L1592.3 2002.7C1601.11 1985.1 1602.86 1964.5 1597.17 1945.43C1591.48 1926.36 1578.8 1910.38 1561.93 1900.99L1527.27 1881.67L1352.88 1784.94L1318.22 1765.62C1301.3 1756.29 1281.58 1754.35 1263.39 1760.21C1245.21 1766.08 1230.04 1779.27 1221.22 1796.9ZM1308.66 1784.96L1349.85 1807.78L1511.57 1897.4L1552.37 1920.29C1564.35 1927.01 1573.35 1938.39 1577.41 1951.96C1581.46 1965.52 1580.25 1980.18 1574.02 1992.73L1337.47 2464.51C1331.14 2477 1320.33 2486.34 1307.39 2490.48C1294.46 2494.63 1280.45 2493.25 1268.4 2486.64L1024.72 2351.61C1018.73 2348.3 1013.41 2343.78 1009.07 2338.32C1004.74 2332.87 1001.47 2326.58 999.446 2319.82C997.425 2313.05 996.696 2305.95 997.299 2298.91C997.903 2291.87 999.827 2285.04 1002.96 2278.8L1239.56 1807.13C1245.84 1794.59 1256.64 1785.2 1269.6 1781.05C1282.55 1776.89 1296.59 1778.3 1308.62 1784.96L1308.66 1784.96Z" fill="white"/>
<path d="M1291.47 1906.1L1159.77 2168.63C1158.3 2171.56 1155.77 2173.76 1152.73 2174.73C1149.7 2175.7 1146.42 2175.36 1143.61 2173.8C1140.79 2172.24 1138.68 2169.57 1137.73 2166.39C1136.78 2163.21 1137.08 2159.78 1138.55 2156.85L1270.25 1894.32C1271.72 1891.39 1274.25 1889.19 1277.28 1888.23C1280.31 1887.26 1283.6 1887.59 1286.41 1889.15C1289.22 1890.72 1291.34 1893.38 1292.29 1896.56C1293.23 1899.74 1292.94 1903.17 1291.47 1906.1Z" fill="white"/>
<path d="M1350.16 1880.35L1195.54 2188.48C1194.85 2190.01 1193.88 2191.37 1192.67 2192.49C1191.46 2193.6 1190.05 2194.45 1188.52 2194.97C1186.99 2195.5 1185.37 2195.7 1183.76 2195.55C1182.15 2195.4 1180.58 2194.92 1179.15 2194.12C1177.72 2193.33 1176.45 2192.24 1175.43 2190.92C1174.41 2189.6 1173.65 2188.08 1173.21 2186.45C1172.76 2184.82 1172.63 2183.12 1172.83 2181.44C1173.03 2179.77 1173.55 2178.15 1174.36 2176.7L1328.94 1868.57C1329.67 1867.12 1330.67 1865.83 1331.87 1864.78C1333.08 1863.74 1334.47 1862.95 1335.98 1862.47C1337.48 1861.99 1339.05 1861.83 1340.62 1861.99C1342.19 1862.15 1343.71 1862.63 1345.1 1863.4C1346.5 1864.18 1347.73 1865.23 1348.74 1866.5C1349.75 1867.77 1350.51 1869.23 1350.98 1870.81C1351.45 1872.38 1351.62 1874.03 1351.48 1875.67C1351.34 1877.31 1350.89 1878.9 1350.16 1880.35Z" fill="white"/>
<path d="M1421.48 1920.04L1193.61 2374.32C1192.13 2377.25 1189.6 2379.45 1186.57 2380.42C1183.54 2381.38 1180.26 2381.05 1177.44 2379.49C1174.63 2377.93 1172.52 2375.26 1171.57 2372.08C1170.62 2368.9 1170.92 2365.47 1172.39 2362.54L1400.44 1908.2C1401.92 1905.27 1404.45 1903.08 1407.48 1902.11C1410.51 1901.14 1413.79 1901.47 1416.61 1903.03C1419.42 1904.6 1421.53 1907.26 1422.48 1910.44C1423.43 1913.62 1423.13 1917.05 1421.66 1919.99L1421.48 1920.04Z" fill="white"/>
<path d="M1458.05 1938.36L1229.38 2394.17C1227.86 2397 1225.34 2399.09 1222.35 2399.99C1219.37 2400.9 1216.16 2400.55 1213.4 2399.03C1210.65 2397.5 1208.56 2394.91 1207.58 2391.81C1206.6 2388.72 1206.81 2385.35 1208.17 2382.43L1436.8 1926.66C1437.53 1925.2 1438.52 1923.92 1439.72 1922.87C1440.93 1921.82 1442.32 1921.03 1443.82 1920.54C1445.32 1920.06 1446.89 1919.89 1448.46 1920.04C1450.02 1920.19 1451.55 1920.67 1452.94 1921.44C1454.34 1922.2 1455.58 1923.25 1456.59 1924.52C1457.6 1925.79 1458.37 1927.25 1458.84 1928.82C1459.32 1930.39 1459.49 1932.04 1459.35 1933.68C1459.22 1935.32 1458.78 1936.91 1458.05 1938.36Z" fill="white"/>
<path d="M1491.63 1958.85L1263.73 2413.25C1262.26 2416.19 1259.73 2418.38 1256.69 2419.35C1253.66 2420.32 1250.38 2419.98 1247.57 2418.42C1244.75 2416.86 1242.64 2414.19 1241.69 2411.01C1240.74 2407.83 1241.04 2404.4 1242.51 2401.47L1470.42 1947.18C1471.94 1944.35 1474.46 1942.27 1477.45 1941.36C1480.43 1940.46 1483.64 1940.8 1486.4 1942.33C1489.16 1943.86 1491.24 1946.45 1492.22 1949.54C1493.2 1952.64 1492.99 1956.01 1491.64 1958.93L1491.63 1958.85Z" fill="white"/>
<path d="M1528.18 1977.33L1299.54 2433.1C1298.07 2436.04 1295.53 2438.23 1292.5 2439.2C1289.47 2440.17 1286.19 2439.83 1283.38 2438.27C1280.56 2436.71 1278.45 2434.04 1277.5 2430.86C1276.55 2427.69 1276.85 2424.25 1278.32 2421.32L1506.96 1965.59C1507.64 1964.05 1508.61 1962.67 1509.81 1961.54C1511.01 1960.41 1512.42 1959.54 1513.96 1959C1515.49 1958.46 1517.12 1958.26 1518.74 1958.39C1520.36 1958.53 1521.93 1959.01 1523.37 1959.81C1524.81 1960.6 1526.09 1961.7 1527.11 1963.02C1528.14 1964.34 1528.9 1965.87 1529.35 1967.5C1529.8 1969.14 1529.93 1970.85 1529.73 1972.53C1529.52 1974.22 1529 1975.84 1528.17 1977.3L1528.18 1977.33Z" fill="white"/>
<path d="M1182.29 2256.31L1135.7 2349.31C1135 2350.72 1133.78 2351.77 1132.33 2352.24C1130.88 2352.71 1129.3 2352.55 1127.95 2351.81L1048.64 2307.93C1047.97 2307.57 1047.38 2307.07 1046.89 2306.46C1046.41 2305.85 1046.05 2305.15 1045.82 2304.4C1045.6 2303.64 1045.52 2302.85 1045.59 2302.07C1045.66 2301.29 1045.88 2300.53 1046.23 2299.83L1092.82 2206.91C1093.53 2205.51 1094.75 2204.46 1096.2 2204C1097.66 2203.54 1099.23 2203.7 1100.58 2204.45L1179.89 2248.32C1181.2 2249.07 1182.19 2250.33 1182.63 2251.82C1183.08 2253.31 1182.96 2254.92 1182.29 2256.31Z" fill="#00BFA6"/>
</g>
<g filter="url(#filter4_f)">
<path d="M2118.56 2049.54C2113.26 2042.07 2111.31 2032.79 2113.15 2023.73C2114.98 2014.67 2120.44 2006.58 2128.33 2001.23C2130.07 2000.03 2131.92 1998.99 2133.85 1998.11L2132.1 1919.11L2181.57 1904.9L2182.35 2016.59C2185.35 2024.51 2185.2 2033.29 2181.95 2041.29C2178.69 2049.29 2172.55 2055.95 2164.68 2060.01C2156.82 2064.07 2147.77 2065.25 2139.25 2063.33C2130.73 2061.41 2123.33 2056.52 2118.45 2049.58L2118.56 2049.54Z" fill="#FFB8B8"/>
<path d="M1984 1578.11C1987.76 1571.03 1993.37 1564.98 2000.26 1560.58C2007.14 1556.17 2015.05 1553.57 2023.19 1553.04C2031.33 1552.51 2039.41 1554.07 2046.6 1557.55C2053.78 1561.03 2059.83 1566.32 2064.13 1572.88L2164.61 1725.25C2181.83 1751.32 2191.41 1781.55 2192.37 1812.85L2196.86 1960.75C2196.97 1964.63 2195.49 1968.44 2192.74 1971.36C2189.99 1974.27 2186.19 1976.06 2182.17 1976.33C2181.4 1976.37 2180.63 1976.36 2179.86 1976.29L2145.56 1973.26C2142.04 1972.91 2138.79 1971.37 2136.37 1968.92C2133.95 1966.47 2132.52 1963.26 2132.33 1959.83L2131.64 1949.11C2125.99 1859.88 2095.44 1774.5 2043.2 1702L1986.9 1623.79C1982.17 1617.27 1979.41 1609.58 1978.89 1601.53C1978.38 1593.49 1980.15 1585.39 1984 1578.11Z" fill="#00BFA6"/>
</g>
<g filter="url(#filter5_f)">
<path d="M1815.17 2627.65H1771.23L1750.32 2465.77H1815.17V2627.65Z" fill="#FFB8B8"/>
</g>
<g filter="url(#filter6_f)">
<path d="M1739.83 2615.65H1824.39V2666.6H1686.48C1686.48 2653.09 1692.1 2640.13 1702.11 2630.57C1712.11 2621.02 1725.68 2615.65 1739.83 2615.65Z" fill="#2F2E41"/>
</g>
<g filter="url(#filter7_f)">
<path d="M2052.01 2627.65H2008.08L1987.17 2465.77H2052.01V2627.65Z" fill="#FFB8B8"/>
</g>
<g filter="url(#filter8_f)">
<path d="M1976.68 2615.65H2061.43V2666.6H1923.33C1923.34 2653.09 1928.96 2640.14 1938.96 2630.59C1948.97 2621.03 1962.53 2615.66 1976.68 2615.65Z" fill="#2F2E41"/>
</g>
<g filter="url(#filter9_f)">
<path d="M1923.33 1476.89C1975.46 1476.89 2017.73 1436.52 2017.73 1386.73C2017.73 1336.94 1975.46 1296.57 1923.33 1296.57C1871.19 1296.57 1828.93 1336.94 1828.93 1386.73C1828.93 1436.52 1871.19 1476.89 1923.33 1476.89Z" fill="#FFB8B8"/>
</g>
<g filter="url(#filter10_f)">
<path d="M1545.85 1936.56C1547.19 1932.24 1549.41 1928.22 1552.38 1924.75C1555.36 1921.28 1559.02 1918.41 1563.17 1916.31C1567.33 1914.21 1571.88 1912.92 1576.58 1912.51C1581.28 1912.11 1586.03 1912.6 1590.56 1913.95C1592.6 1914.56 1594.58 1915.34 1596.48 1916.27L1658.71 1865.68L1700.51 1894.83L1611.56 1965.23C1607.01 1972.36 1599.87 1977.63 1591.49 1980.04C1583.11 1982.45 1574.04 1981.84 1566 1978.33C1557.95 1974.82 1551.47 1968.65 1547.76 1960.96C1544.06 1953.27 1543.38 1944.6 1545.85 1936.56Z" fill="#FFB8B8"/>
</g>
<g filter="url(#filter11_f)">
<path d="M1946.31 1476.89C1973.01 1477.42 1998.84 1467.8 2018.12 1450.14C2037.39 1432.48 2048.54 1408.23 2049.09 1382.73C2049.65 1357.23 2039.57 1332.56 2021.08 1314.15C2002.59 1295.74 1977.2 1285.1 1950.5 1284.57C1942.75 1284.39 1935.01 1285.1 1927.44 1286.66C1906.68 1274.62 1882.55 1266.51 1858.25 1268.56C1833.96 1270.62 1810.17 1284.35 1801.1 1305.9C1792.03 1327.44 1801.79 1355.78 1824.16 1364.63C1838.57 1370.25 1854.91 1367.53 1870.28 1365.26C1885.66 1362.98 1902.46 1361.58 1915.87 1369.11C1929.28 1376.64 1935.28 1397.05 1923.29 1406.52C1916.94 1411.76 1912.41 1418.73 1910.32 1426.5C1908.22 1434.27 1908.66 1442.46 1911.56 1449.98C1917.6 1464.66 1934.05 1476.67 1946.31 1476.89Z" fill="#2F2E41"/>
</g>
<g filter="url(#filter12_f)">
<path d="M2063.43 1971.25L2080.19 2578.21C2080.29 2582.1 2078.77 2585.86 2075.97 2588.69C2073.17 2591.51 2069.31 2593.15 2065.23 2593.26H2064.04L2008.85 2590.58C2005.33 2590.4 2001.98 2589.08 1999.37 2586.82C1996.75 2584.57 1995.02 2581.53 1994.47 2578.21L1928.86 2183.91C1928.59 2182.22 1927.7 2180.67 1926.35 2179.54C1925.01 2178.4 1923.29 2177.75 1921.5 2177.7C1919.71 2177.65 1917.95 2178.2 1916.54 2179.25C1915.12 2180.3 1914.14 2181.8 1913.76 2183.47L1824.93 2563.05C1824.01 2566.82 1821.57 2570.1 1818.14 2572.16C1814.7 2574.22 1810.55 2574.9 1806.59 2574.06C1805.98 2573.93 1805.38 2573.75 1804.79 2573.54L1750.05 2570.35C1746.89 2569.28 1744.18 2567.24 1742.34 2564.56C1740.5 2561.87 1739.63 2558.68 1739.87 2555.48L1787.65 1965.34L2063.43 1971.25Z" fill="#2F2E41"/>
</g>
<g filter="url(#filter13_f)">
<path d="M2090.3 1682.9C2099.56 1590.91 2028.8 1507.73 1932.24 1501.19C1890.66 1498.36 1826.12 1497.52 1804.83 1549.43C1740.71 1706.21 1852.95 1702.4 1814.28 1838.26C1775.61 1974.12 1741.48 1981.9 1794.53 1991.7C1847.57 2001.5 2086.11 2059.36 2076.34 1963.91C2070.31 1905.18 2081.19 1774.64 2090.3 1682.9Z" fill="#00BFA6"/>
</g>
<g filter="url(#filter14_f)">
<path d="M1840.44 1539.19C1848.42 1537.72 1856.7 1538.29 1864.45 1540.85C1872.19 1543.41 1879.13 1547.87 1884.56 1553.78C1889.99 1559.68 1893.72 1566.83 1895.38 1574.5C1897.04 1582.17 1896.56 1590.1 1894 1597.47L1833.88 1769.66C1823.59 1799.1 1805.27 1825.28 1780.81 1845.51L1665.11 1941.12C1663.6 1942.37 1661.83 1943.33 1659.93 1943.92C1658.02 1944.52 1656 1944.75 1653.99 1944.6C1651.97 1944.44 1650.01 1943.91 1648.19 1943.04C1646.38 1942.16 1644.77 1940.95 1643.43 1939.48C1642.93 1938.92 1642.48 1938.31 1642.06 1937.68L1623.32 1909.44C1621.39 1906.52 1620.58 1903.06 1621.03 1899.66C1621.47 1896.26 1623.15 1893.13 1625.77 1890.83L1633.95 1883.63C1701.93 1823.68 1751.46 1747.02 1777.33 1661.74L1805.29 1569.7C1807.66 1561.99 1812.18 1555.09 1818.37 1549.71C1824.56 1544.34 1832.19 1540.7 1840.44 1539.19Z" fill="#00BFA6"/>
</g>
<g filter="url(#filter15_f)">
<path d="M257.83 2072.53C242.096 2066.05 229.274 2054.05 221.766 2038.79C214.258 2023.52 212.58 2006.04 217.046 1989.61C221.512 1973.19 231.816 1958.95 246.027 1949.56C260.238 1940.18 277.38 1936.29 294.24 1938.63C311.101 1940.97 326.522 1949.38 337.615 1962.27C348.707 1975.17 354.709 1991.67 354.495 2008.69C354.281 2025.71 347.867 2042.07 336.454 2054.71C325.041 2067.34 309.413 2075.39 292.499 2077.35L255.551 2312.69L292.922 2318.72L292.282 2331.87L310.957 2334.89L313.061 2322.09L331.808 2325.22L328.539 2345.34L317.029 2343.48L313.523 2365.02L324.961 2366.78L319.911 2398.31L302.578 2395.58L304.36 2384.17L285.685 2381.14L283.508 2395.48L249.074 2389.8L243.455 2424.29L201.811 2417.66L257.83 2072.53ZM322.16 1980.74C316.806 1973.31 309.367 1967.64 300.785 1964.44C292.202 1961.25 282.862 1960.67 273.944 1962.78C265.026 1964.89 256.932 1969.59 250.685 1976.3C244.438 1983 240.318 1991.41 238.847 2000.45C237.376 2009.49 238.62 2018.76 242.421 2027.09C246.222 2035.42 252.41 2042.43 260.202 2047.24C267.993 2052.05 277.04 2054.44 286.196 2054.11C295.352 2053.78 304.208 2050.74 311.642 2045.38C316.582 2041.82 320.772 2037.33 323.974 2032.15C327.176 2026.98 329.327 2021.23 330.304 2015.22C331.281 2009.22 331.065 2003.08 329.667 1997.17C328.27 1991.25 325.719 1985.66 322.16 1980.74Z" fill="#F50057"/>
</g>
<g filter="url(#filter16_f)">
<path d="M872.436 940.32L644.036 1395.79C635.535 1412.81 634.159 1432.71 640.211 1451.14C646.263 1469.58 659.248 1485.02 676.318 1494.1L922.768 1624.91C939.851 1633.94 959.606 1635.86 977.701 1630.24C995.796 1624.63 1010.75 1611.94 1019.3 1594.95L1247.71 1139.43C1256.15 1122.48 1257.53 1102.67 1251.54 1084.31C1245.55 1065.95 1232.67 1050.53 1215.72 1041.41L1180.59 1022.75L1004.26 929.192L969.106 910.497C952.024 901.413 932.248 899.451 914.122 905.043C895.997 910.635 881.003 923.323 872.436 940.32ZM959.683 928.718L1001.31 950.825L1164.67 1037.53L1206.3 1059.63C1218.42 1066.13 1227.62 1077.13 1231.92 1090.24C1236.23 1103.34 1235.27 1117.5 1229.27 1129.62L1000.89 1585.12C994.772 1597.19 984.115 1606.21 971.236 1610.2C958.356 1614.2 944.297 1612.86 932.12 1606.46L685.641 1475.68C673.515 1469.18 664.295 1458.18 659.99 1445.06C655.685 1431.95 656.643 1417.79 662.655 1405.66L890.863 950.238C896.946 938.12 907.599 929.054 920.495 925.021C933.39 920.989 947.48 922.318 959.683 928.718Z" fill="white"/>
<path d="M944.747 1045.86L817.615 1299.41C816.192 1302.24 813.697 1304.35 810.679 1305.29C807.662 1306.22 804.369 1305.89 801.526 1304.38C798.682 1302.87 796.52 1300.29 795.516 1297.22C794.512 1294.15 794.747 1290.83 796.171 1288L923.302 1034.45C924.726 1031.62 927.221 1029.5 930.238 1028.57C933.255 1027.64 936.548 1027.96 939.392 1029.48C942.236 1030.99 944.397 1033.57 945.401 1036.64C946.406 1039.71 946.17 1043.03 944.747 1045.86Z" fill="white"/>
<path d="M1003.01 1021.01L853.802 1318.62C852.378 1321.45 849.883 1323.56 846.866 1324.49C843.848 1325.43 840.556 1325.1 837.712 1323.59C834.868 1322.07 832.707 1319.5 831.702 1316.43C830.698 1313.35 830.934 1310.04 832.357 1307.21L981.567 1009.6C983.076 1006.94 985.559 1004.99 988.502 1004.16C991.445 1003.32 994.622 1003.68 997.375 1005.14C1000.13 1006.6 1002.25 1009.06 1003.29 1012.01C1004.34 1014.96 1004.23 1018.17 1002.99 1020.98L1003.01 1021.01Z" fill="white"/>
<path d="M1075.09 1059.45L855.15 1498.12C853.64 1500.78 851.157 1502.73 848.215 1503.56C845.272 1504.39 842.095 1504.04 839.342 1502.58C836.588 1501.12 834.47 1498.66 833.424 1495.71C832.379 1492.76 832.487 1489.55 833.727 1486.74L1053.67 1048.07C1054.32 1046.59 1055.27 1045.27 1056.46 1044.18C1057.64 1043.09 1059.04 1042.27 1060.57 1041.75C1062.1 1041.24 1063.72 1041.04 1065.34 1041.18C1066.96 1041.32 1068.55 1041.79 1070 1042.56C1071.45 1043.33 1072.74 1044.39 1073.79 1045.67C1074.84 1046.95 1075.63 1048.42 1076.1 1050C1076.58 1051.58 1076.73 1053.23 1076.56 1054.86C1076.39 1056.48 1075.89 1058.05 1075.09 1059.45Z" fill="white"/>
<path d="M1112.08 1077.22L891.387 1517.33C890.734 1518.81 889.785 1520.14 888.598 1521.23C887.412 1522.31 886.012 1523.14 884.485 1523.65C882.957 1524.17 881.334 1524.36 879.713 1524.22C878.092 1524.08 876.507 1523.61 875.055 1522.84C873.602 1522.07 872.312 1521.01 871.263 1519.73C870.214 1518.46 869.428 1516.98 868.952 1515.4C868.476 1513.82 868.32 1512.17 868.494 1510.55C868.668 1508.92 869.169 1507.36 869.965 1505.95L1090.67 1065.78C1092.09 1062.95 1094.59 1060.84 1097.61 1059.91C1100.62 1058.98 1103.92 1059.3 1106.76 1060.81C1109.6 1062.33 1111.77 1064.9 1112.77 1067.98C1113.77 1071.05 1113.54 1074.36 1112.11 1077.2L1112.08 1077.22Z" fill="white"/>
<path d="M1146.2 1096.97L926.106 1535.79C925.452 1537.27 924.503 1538.59 923.316 1539.68C922.13 1540.77 920.73 1541.59 919.203 1542.11C917.676 1542.62 916.052 1542.82 914.431 1542.68C912.81 1542.54 911.225 1542.07 909.773 1541.3C908.32 1540.53 907.03 1539.47 905.981 1538.19C904.932 1536.91 904.146 1535.44 903.67 1533.86C903.194 1532.28 903.038 1530.63 903.212 1529C903.387 1527.38 903.887 1525.81 904.683 1524.41L1124.78 1085.59C1126.29 1082.92 1128.77 1080.97 1131.72 1080.14C1134.66 1079.31 1137.83 1079.66 1140.59 1081.12C1143.34 1082.59 1145.46 1085.05 1146.51 1088C1147.55 1090.95 1147.44 1094.16 1146.2 1096.97Z" fill="white"/>
<path d="M1183.09 1114.95L962.293 1554.99C961.639 1556.48 960.69 1557.8 959.503 1558.89C958.317 1559.97 956.917 1560.8 955.39 1561.32C953.863 1561.83 952.239 1562.02 950.618 1561.89C948.997 1561.75 947.412 1561.28 945.96 1560.5C944.507 1559.73 943.217 1558.68 942.168 1557.4C941.119 1556.12 940.333 1554.64 939.857 1553.06C939.381 1551.48 939.225 1549.83 939.399 1548.21C939.574 1546.58 940.074 1545.02 940.87 1543.61L1161.55 1103.47C1163.06 1100.8 1165.54 1098.85 1168.48 1098.02C1171.42 1097.19 1174.6 1097.54 1177.35 1099C1180.11 1100.47 1182.23 1102.93 1183.27 1105.88C1184.32 1108.83 1184.21 1112.04 1182.97 1114.85L1183.09 1114.95Z" fill="white"/>
<path d="M841.753 1384.12L796.785 1473.84C796.448 1474.52 795.981 1475.12 795.41 1475.6C794.839 1476.09 794.175 1476.45 793.457 1476.67C792.739 1476.89 791.981 1476.97 791.226 1476.89C790.471 1476.82 789.735 1476.59 789.06 1476.23L708.852 1433.67C708.174 1433.31 707.569 1432.83 707.073 1432.24C706.577 1431.65 706.198 1430.97 705.959 1430.24C705.72 1429.5 705.626 1428.74 705.681 1427.98C705.737 1427.22 705.941 1426.48 706.282 1425.81L751.25 1336.08C751.937 1334.72 753.135 1333.71 754.582 1333.26C756.03 1332.82 757.609 1332.97 758.975 1333.69L839.226 1376.31C840.572 1377.04 841.593 1378.27 842.066 1379.73C842.539 1381.19 842.426 1382.77 841.753 1384.12Z" fill="#F50057"/>
</g>
<g filter="url(#filter17_f)">
<path d="M268.895 1978.83C265.699 1975.03 263.258 1970.64 261.713 1965.92C260.168 1961.2 259.55 1956.24 259.893 1951.32C260.236 1946.4 261.534 1941.62 263.712 1937.26C265.89 1932.89 268.906 1929.03 272.587 1925.89C274.241 1924.49 276.011 1923.24 277.879 1922.14L322.325 1667L384.373 1694.05L330.204 1938.49C334.401 1946.81 335.471 1956.34 333.209 1965.26C330.947 1974.18 325.512 1981.86 317.939 1986.84C310.366 1991.83 301.183 1993.76 292.139 1992.29C283.095 1990.81 274.822 1986.02 268.895 1978.83Z" fill="#FFB8B8"/>
</g>
<g filter="url(#filter18_f)">
<path d="M942.075 1600.75C941.419 1602.7 940.904 1604.71 940.533 1606.74L774.39 1677.84L739.055 1650.52L692.668 1699.19L766.913 1769.04L960.84 1649.31C967.598 1652.93 975.222 1654.43 982.75 1653.61C990.277 1652.8 997.369 1649.71 1003.13 1644.74C1008.89 1639.78 1013.05 1633.15 1015.1 1625.7C1017.15 1618.24 1016.99 1610.31 1014.63 1602.89C1012.28 1595.47 1007.84 1588.9 1001.88 1584.02C995.919 1579.13 988.702 1576.15 981.144 1575.45C973.585 1574.74 966.024 1576.35 959.418 1580.07C952.811 1583.78 947.456 1589.44 944.029 1596.32C943.294 1597.75 942.641 1599.23 942.075 1600.75Z" fill="#FFB8B8"/>
</g>
<g filter="url(#filter19_f)">
<path d="M628.274 2323.86L659.926 2356.27L796.514 2246.15L749.819 2198.3L628.274 2323.86Z" fill="#FFB8B8"/>
</g>
<g filter="url(#filter20_f)">
<path d="M691.687 2449.01L592.251 2347.17L630.496 2307.64L691.541 2370.13C701.704 2380.6 707.412 2394.78 707.412 2409.57C707.412 2424.36 701.704 2438.55 691.541 2449.01H691.687Z" fill="#2F2E41"/>
</g>
<g filter="url(#filter21_f)">
<path d="M460.071 2634.74H504.726L525.961 2457.59H460.071V2634.74Z" fill="#FFB8B8"/>
</g>
<g filter="url(#filter22_f)">
<path d="M590.94 2677.42H450.492V2621.59H536.633C543.764 2621.58 550.827 2623.02 557.418 2625.82C564.009 2628.62 569.998 2632.73 575.042 2637.92C580.087 2643.1 584.087 2649.26 586.815 2656.04C589.543 2662.82 590.945 2670.08 590.94 2677.42Z" fill="#2F2E41"/>
</g>
<g filter="url(#filter23_f)">
<path d="M450.383 2497.94L399.39 2112.01C391.435 2053.7 393.904 1994.39 406.675 1936.99C417.128 1890.87 431.224 1858.91 448.598 1842.01C451.329 1839.35 454.839 1837.71 458.578 1837.32L626.526 1819.34C629.76 1818.99 633.022 1819.6 635.931 1821.1C638.84 1822.59 641.276 1824.9 642.953 1827.77L648.453 1837.25C649.153 1838.42 649.704 1839.68 650.092 1841L685.641 1954.11C686.167 1955.83 687.017 1957.41 688.142 1958.78C689.268 1960.15 690.646 1961.28 692.197 1962.1C748.107 1991.43 929.714 2090.54 919.297 2133.33C909.535 2173.5 818.113 2238.66 790.358 2257.65C787.54 2259.61 784.217 2260.66 780.815 2260.66C777.414 2260.66 774.091 2259.61 771.272 2257.65L725.124 2225.17C723.273 2223.86 721.689 2222.2 720.464 2220.26C719.239 2218.33 718.396 2216.17 717.983 2213.9C717.571 2211.63 717.596 2209.3 718.059 2207.04C718.522 2204.78 719.413 2202.64 720.68 2200.74C721.772 2199.11 723.113 2197.68 724.651 2196.5L756.448 2172.41C758.387 2170.92 759.894 2168.91 760.807 2166.6C761.72 2164.29 762.004 2161.77 761.63 2159.31C761.255 2156.85 760.236 2154.54 758.681 2152.63C757.127 2150.72 755.095 2149.28 752.806 2148.47L582.017 2086.83C580.369 2086.23 578.623 2085.97 576.877 2086.07C575.132 2086.16 573.422 2086.61 571.846 2087.39C570.269 2088.16 568.857 2089.25 567.69 2090.59C566.523 2091.93 565.623 2093.49 565.043 2095.19C564.688 2096.3 564.455 2097.46 564.351 2098.63L532.845 2494.61C532.507 2498.86 530.681 2502.84 527.707 2505.81C524.733 2508.78 520.812 2510.53 516.673 2510.76L467.939 2513.27H467.065C462.951 2513.23 458.992 2511.65 455.923 2508.83C452.855 2506.01 450.886 2502.14 450.383 2497.94Z" fill="#2F2E41"/>
</g>
<g filter="url(#filter24_f)">
<path d="M527.382 1499.84C576.787 1499.84 616.837 1458.64 616.837 1407.82C616.837 1356.99 576.787 1315.79 527.382 1315.79C477.977 1315.79 437.926 1356.99 437.926 1407.82C437.926 1458.64 477.977 1499.84 527.382 1499.84Z" fill="#FFB8B8"/>
</g>
<g filter="url(#filter25_f)">
<path d="M443.717 1826.23L377.864 1578.94L378.993 1578.15C380.413 1577.18 522.355 1480.73 688.591 1558.44L691.615 1560.24L652.496 1816.94C651.644 1822.79 648.835 1828.15 644.553 1832.1C640.271 1836.04 634.784 1838.33 629.039 1838.56L468.485 1844.93H467.502C462.089 1844.94 456.825 1843.11 452.525 1839.73C448.224 1836.35 445.128 1831.61 443.717 1826.23Z" fill="#F50057"/>
</g>
<g filter="url(#filter26_f)">
<path d="M375.35 1739.98L320.497 1675.12C317.891 1672.01 316.429 1668.05 316.362 1663.95C316.295 1659.84 317.63 1655.84 320.132 1652.64L377.463 1579.76L421.462 1592.13L444.81 1676.13L402.267 1738.56C400.78 1740.75 398.826 1742.56 396.553 1743.86C394.281 1745.16 391.751 1745.91 389.155 1746.05H388.244C385.797 1746.05 383.378 1745.51 381.153 1744.46C378.928 1743.41 376.949 1741.89 375.35 1739.98Z" fill="#F50057"/>
</g>
<g filter="url(#filter27_f)">
<path d="M678.648 1726.49C676.051 1726.36 673.518 1725.61 671.245 1724.31C668.972 1723.01 667.019 1721.19 665.535 1719L622.993 1656.46L643.463 1568.03L683.966 1556.79L691.542 1560.54L747.561 1632.97C750.059 1636.17 751.386 1640.18 751.313 1644.28C751.24 1648.39 749.771 1652.34 747.16 1655.45L692.416 1720.46C690.829 1722.37 688.856 1723.89 686.636 1724.94C684.415 1725.98 681.999 1726.51 679.558 1726.49H678.648Z" fill="#F50057"/>
</g>
<g filter="url(#filter28_f)">
<path d="M493.362 1475.03C486.639 1471.53 481.049 1466.09 477.269 1459.38C473.49 1452.67 471.683 1444.97 472.069 1437.23C472.454 1429.48 475.015 1422.02 479.441 1415.74C483.867 1409.46 489.968 1404.64 497.004 1401.86C523.994 1391.14 554.262 1413.1 582.563 1406.8C610.864 1400.51 627.072 1365.92 620.37 1337.07C613.668 1308.22 589.119 1286.49 562.093 1276.11C544.446 1269.36 525.549 1266.77 506.799 1268.54C488.049 1270.31 469.926 1276.39 453.77 1286.34C437.78 1296.58 424.464 1310.67 414.98 1327.41C405.496 1344.15 400.131 1363.02 399.353 1382.37C398.975 1401.75 403.571 1420.89 412.677 1437.85C421.783 1454.82 435.078 1469.01 451.22 1479.01C458.505 1483.28 466.773 1486.5 474.859 1484.78C481.491 1482.56 487.737 1479.27 493.362 1475.03Z" fill="#2F2E41"/>
</g>
<g filter="url(#filter29_f)">
<path d="M464.369 1284.17C440.585 1251.68 408.459 1225 371.052 1211.78C333.646 1198.55 290.921 1199.6 255.809 1218.3C220.697 1236.99 194.508 1274.13 191.777 1314.7C187.224 1382.15 243.316 1439.66 249.071 1507.07C250.897 1528.45 247.525 1549.96 239.259 1569.66C230.993 1589.37 218.092 1606.65 201.718 1619.95C185.344 1633.24 166.011 1642.14 145.462 1645.84C124.912 1649.54 103.791 1647.92 84 1641.14C98.0882 1653.06 114.419 1661.86 131.969 1666.99C149.518 1672.11 167.908 1673.45 185.985 1670.92C204.01 1668.11 221.202 1661.2 236.319 1650.72C251.436 1640.24 264.102 1626.43 273.401 1610.3C286.04 1587.82 291.212 1561.59 293.216 1535.36C296.378 1494.33 292.092 1453.04 280.577 1413.62C274.312 1392.12 265.753 1369.97 269.65 1347.9C271.934 1336.42 277.44 1325.88 285.486 1317.58C293.533 1309.28 303.767 1303.59 314.924 1301.22C333.136 1297.73 351.347 1303.43 368.648 1309.95C385.95 1316.47 403.251 1324 421.608 1324.41C439.965 1324.82 459.925 1316.2 467.028 1298.78L464.369 1284.17Z" fill="#2F2E41"/>
</g>
<defs>
<filter id="filter0_f" x="388.989" y="0.989365" width="1702.02" height="512.021" filterUnits="userSpaceOnUse" color-interpolation-filters="sRGB">
<feFlood flood-opacity="0" result="BackgroundImageFix"/>
<feBlend mode="normal" in="SourceGraphic" in2="BackgroundImageFix" result="shape"/>
<feGaussianBlur stdDeviation="85.5053" result="effect1_foregroundBlur"/>
</filter>
<filter id="filter1_f" x="641.03" y="181.186" width="1221.94" height="124.654" filterUnits="userSpaceOnUse" color-interpolation-filters="sRGB">
<feFlood flood-opacity="0" result="BackgroundImageFix"/>
<feBlend mode="normal" in="SourceGraphic" in2="BackgroundImageFix" result="shape"/>
<feGaussianBlur stdDeviation="3.42021" result="effect1_foregroundBlur"/>
</filter>
<filter id="filter2_f" x="2084.55" y="2017.41" width="162.961" height="507.179" filterUnits="userSpaceOnUse" color-interpolation-filters="sRGB">
<feFlood flood-opacity="0" result="BackgroundImageFix"/>
<feBlend mode="normal" in="SourceGraphic" in2="BackgroundImageFix" result="shape"/>
<feGaussianBlur stdDeviation="5" result="effect1_foregroundBlur"/>
</filter>
<filter id="filter3_f" x="966.492" y="1746.89" width="643.961" height="777.288" filterUnits="userSpaceOnUse" color-interpolation-filters="sRGB">
<feFlood flood-opacity="0" result="BackgroundImageFix"/>
<feBlend mode="normal" in="SourceGraphic" in2="BackgroundImageFix" result="shape"/>
<feGaussianBlur stdDeviation="5" result="effect1_foregroundBlur"/>
</filter>
<filter id="filter4_f" x="1968.81" y="1542.94" width="238.06" height="531.289" filterUnits="userSpaceOnUse" color-interpolation-filters="sRGB">
<feFlood flood-opacity="0" result="BackgroundImageFix"/>
<feBlend mode="normal" in="SourceGraphic" in2="BackgroundImageFix" result="shape"/>
<feGaussianBlur stdDeviation="5" result="effect1_foregroundBlur"/>
</filter>
<filter id="filter5_f" x="1740.32" y="2455.77" width="84.8425" height="181.888" filterUnits="userSpaceOnUse" color-interpolation-filters="sRGB">
<feFlood flood-opacity="0" result="BackgroundImageFix"/>
<feBlend mode="normal" in="SourceGraphic" in2="BackgroundImageFix" result="shape"/>
<feGaussianBlur stdDeviation="5" result="effect1_foregroundBlur"/>
</filter>
<filter id="filter6_f" x="1676.48" y="2605.65" width="157.911" height="70.9531" filterUnits="userSpaceOnUse" color-interpolation-filters="sRGB">
<feFlood flood-opacity="0" result="BackgroundImageFix"/>
<feBlend mode="normal" in="SourceGraphic" in2="BackgroundImageFix" result="shape"/>
<feGaussianBlur stdDeviation="5" result="effect1_foregroundBlur"/>
</filter>
<filter id="filter7_f" x="1977.17" y="2455.77" width="84.8425" height="181.888" filterUnits="userSpaceOnUse" color-interpolation-filters="sRGB">
<feFlood flood-opacity="0" result="BackgroundImageFix"/>
<feBlend mode="normal" in="SourceGraphic" in2="BackgroundImageFix" result="shape"/>
<feGaussianBlur stdDeviation="5" result="effect1_foregroundBlur"/>
</filter>
<filter id="filter8_f" x="1913.33" y="2605.65" width="158.103" height="70.9531" filterUnits="userSpaceOnUse" color-interpolation-filters="sRGB">
<feFlood flood-opacity="0" result="BackgroundImageFix"/>
<feBlend mode="normal" in="SourceGraphic" in2="BackgroundImageFix" result="shape"/>
<feGaussianBlur stdDeviation="5" result="effect1_foregroundBlur"/>
</filter>
<filter id="filter9_f" x="1818.93" y="1286.57" width="208.801" height="200.317" filterUnits="userSpaceOnUse" color-interpolation-filters="sRGB">
<feFlood flood-opacity="0" result="BackgroundImageFix"/>
<feBlend mode="normal" in="SourceGraphic" in2="BackgroundImageFix" result="shape"/>
<feGaussianBlur stdDeviation="5" result="effect1_foregroundBlur"/>
</filter>
<filter id="filter10_f" x="1534.39" y="1855.68" width="176.12" height="135.814" filterUnits="userSpaceOnUse" color-interpolation-filters="sRGB">
<feFlood flood-opacity="0" result="BackgroundImageFix"/>
<feBlend mode="normal" in="SourceGraphic" in2="BackgroundImageFix" result="shape"/>
<feGaussianBlur stdDeviation="5" result="effect1_foregroundBlur"/>
</filter>
<filter id="filter11_f" x="1787.73" y="1258.24" width="271.384" height="228.665" filterUnits="userSpaceOnUse" color-interpolation-filters="sRGB">
<feFlood flood-opacity="0" result="BackgroundImageFix"/>
<feBlend mode="normal" in="SourceGraphic" in2="BackgroundImageFix" result="shape"/>
<feGaussianBlur stdDeviation="5" result="effect1_foregroundBlur"/>
</filter>
<filter id="filter12_f" x="1729.83" y="1955.34" width="360.361" height="647.914" filterUnits="userSpaceOnUse" color-interpolation-filters="sRGB">
<feFlood flood-opacity="0" result="BackgroundImageFix"/>
<feBlend mode="normal" in="SourceGraphic" in2="BackgroundImageFix" result="shape"/>
<feGaussianBlur stdDeviation="5" result="effect1_foregroundBlur"/>
</filter>
<filter id="filter13_f" x="1757.26" y="1490.14" width="343.846" height="537.879" filterUnits="userSpaceOnUse" color-interpolation-filters="sRGB">
<feFlood flood-opacity="0" result="BackgroundImageFix"/>
<feBlend mode="normal" in="SourceGraphic" in2="BackgroundImageFix" result="shape"/>
<feGaussianBlur stdDeviation="5" result="effect1_foregroundBlur"/>
</filter>
<filter id="filter14_f" x="1610.91" y="1528.39" width="295.441" height="426.25" filterUnits="userSpaceOnUse" color-interpolation-filters="sRGB">
<feFlood flood-opacity="0" result="BackgroundImageFix"/>
<feBlend mode="normal" in="SourceGraphic" in2="BackgroundImageFix" result="shape"/>
<feGaussianBlur stdDeviation="5" result="effect1_foregroundBlur"/>
</filter>
<filter id="filter15_f" x="191.811" y="1927.97" width="172.689" height="506.321" filterUnits="userSpaceOnUse" color-interpolation-filters="sRGB">
<feFlood flood-opacity="0" result="BackgroundImageFix"/>
<feBlend mode="normal" in="SourceGraphic" in2="BackgroundImageFix" result="shape"/>
<feGaussianBlur stdDeviation="5" result="effect1_foregroundBlur"/>
</filter>
<filter id="filter16_f" x="626.492" y="891.916" width="638.719" height="751.487" filterUnits="userSpaceOnUse" color-interpolation-filters="sRGB">
<feFlood flood-opacity="0" result="BackgroundImageFix"/>
<feBlend mode="normal" in="SourceGraphic" in2="BackgroundImageFix" result="shape"/>
<feGaussianBlur stdDeviation="5" result="effect1_foregroundBlur"/>
</filter>
<filter id="filter17_f" x="249.801" y="1657" width="144.572" height="345.766" filterUnits="userSpaceOnUse" color-interpolation-filters="sRGB">
<feFlood flood-opacity="0" result="BackgroundImageFix"/>
<feBlend mode="normal" in="SourceGraphic" in2="BackgroundImageFix" result="shape"/>
<feGaussianBlur stdDeviation="5" result="effect1_foregroundBlur"/>
</filter>
<filter id="filter18_f" x="682.668" y="1565.29" width="343.859" height="213.752" filterUnits="userSpaceOnUse" color-interpolation-filters="sRGB">
<feFlood flood-opacity="0" result="BackgroundImageFix"/>
<feBlend mode="normal" in="SourceGraphic" in2="BackgroundImageFix" result="shape"/>
<feGaussianBlur stdDeviation="5" result="effect1_foregroundBlur"/>
</filter>
<filter id="filter19_f" x="618.274" y="2188.3" width="188.239" height="177.97" filterUnits="userSpaceOnUse" color-interpolation-filters="sRGB">
<feFlood flood-opacity="0" result="BackgroundImageFix"/>
<feBlend mode="normal" in="SourceGraphic" in2="BackgroundImageFix" result="shape"/>
<feGaussianBlur stdDeviation="5" result="effect1_foregroundBlur"/>
</filter>
<filter id="filter20_f" x="582.251" y="2297.64" width="135.161" height="161.371" filterUnits="userSpaceOnUse" color-interpolation-filters="sRGB">
<feFlood flood-opacity="0" result="BackgroundImageFix"/>
<feBlend mode="normal" in="SourceGraphic" in2="BackgroundImageFix" result="shape"/>
<feGaussianBlur stdDeviation="5" result="effect1_foregroundBlur"/>
</filter>
<filter id="filter21_f" x="450.071" y="2447.59" width="85.8898" height="197.154" filterUnits="userSpaceOnUse" color-interpolation-filters="sRGB">
<feFlood flood-opacity="0" result="BackgroundImageFix"/>
<feBlend mode="normal" in="SourceGraphic" in2="BackgroundImageFix" result="shape"/>
<feGaussianBlur stdDeviation="5" result="effect1_foregroundBlur"/>
</filter>
<filter id="filter22_f" x="440.492" y="2611.59" width="160.448" height="75.829" filterUnits="userSpaceOnUse" color-interpolation-filters="sRGB">
<feFlood flood-opacity="0" result="BackgroundImageFix"/>
<feBlend mode="normal" in="SourceGraphic" in2="BackgroundImageFix" result="shape"/>
<feGaussianBlur stdDeviation="5" result="effect1_foregroundBlur"/>
</filter>
<filter id="filter23_f" x="384.83" y="1809.25" width="544.897" height="714.021" filterUnits="userSpaceOnUse" color-interpolation-filters="sRGB">
<feFlood flood-opacity="0" result="BackgroundImageFix"/>
<feBlend mode="normal" in="SourceGraphic" in2="BackgroundImageFix" result="shape"/>
<feGaussianBlur stdDeviation="5" result="effect1_foregroundBlur"/>
</filter>
<filter id="filter24_f" x="427.926" y="1305.79" width="198.912" height="204.048" filterUnits="userSpaceOnUse" color-interpolation-filters="sRGB">
<feFlood flood-opacity="0" result="BackgroundImageFix"/>
<feBlend mode="normal" in="SourceGraphic" in2="BackgroundImageFix" result="shape"/>
<feGaussianBlur stdDeviation="5" result="effect1_foregroundBlur"/>
</filter>
<filter id="filter25_f" x="367.864" y="1518.19" width="333.751" height="336.737" filterUnits="userSpaceOnUse" color-interpolation-filters="sRGB">
<feFlood flood-opacity="0" result="BackgroundImageFix"/>
<feBlend mode="normal" in="SourceGraphic" in2="BackgroundImageFix" result="shape"/>
<feGaussianBlur stdDeviation="5" result="effect1_foregroundBlur"/>
</filter>
<filter id="filter26_f" x="306.36" y="1569.76" width="148.45" height="186.288" filterUnits="userSpaceOnUse" color-interpolation-filters="sRGB">
<feFlood flood-opacity="0" result="BackgroundImageFix"/>
<feBlend mode="normal" in="SourceGraphic" in2="BackgroundImageFix" result="shape"/>
<feGaussianBlur stdDeviation="5" result="effect1_foregroundBlur"/>
</filter>
<filter id="filter27_f" x="612.993" y="1546.79" width="148.323" height="189.698" filterUnits="userSpaceOnUse" color-interpolation-filters="sRGB">
<feFlood flood-opacity="0" result="BackgroundImageFix"/>
<feBlend mode="normal" in="SourceGraphic" in2="BackgroundImageFix" result="shape"/>
<feGaussianBlur stdDeviation="5" result="effect1_foregroundBlur"/>
</filter>
<filter id="filter28_f" x="389.332" y="1258" width="242.545" height="237.252" filterUnits="userSpaceOnUse" color-interpolation-filters="sRGB">
<feFlood flood-opacity="0" result="BackgroundImageFix"/>
<feBlend mode="normal" in="SourceGraphic" in2="BackgroundImageFix" result="shape"/>
<feGaussianBlur stdDeviation="5" result="effect1_foregroundBlur"/>
</filter>
<filter id="filter29_f" x="74" y="1192.9" width="403.028" height="489.269" filterUnits="userSpaceOnUse" color-interpolation-filters="sRGB">
<feFlood flood-opacity="0" result="BackgroundImageFix"/>
<feBlend mode="normal" in="SourceGraphic" in2="BackgroundImageFix" result="shape"/>
<feGaussianBlur stdDeviation="5" result="effect1_foregroundBlur"/>
</filter>
</defs>
</svg>
