<svg width="1862" height="2621" viewBox="0 0 1862 2621" fill="none" xmlns="http://www.w3.org/2000/svg">
<g filter="url(#filter0_f)">
<path d="M1531.6 172H308.404C270.626 172 240 202.626 240 240.404V273.596C240 311.374 270.626 342 308.404 342H1531.6C1569.37 342 1600 311.374 1600 273.596V240.404C1600 202.626 1569.37 172 1531.6 172Z" fill="#00BFA6"/>
</g>
<g filter="url(#filter1_f)">
<path d="M399.013 195.208V221.01L370.456 293.739C369.009 297.246 366.726 299 363.609 299C360.324 299 357.986 297.246 356.595 293.739L328.204 221.01V195.208C328.204 193.204 328.872 191.506 330.208 190.114C331.6 188.723 333.27 188.027 335.218 188.027C337.167 188.027 338.809 188.723 340.145 190.114C341.537 191.506 342.233 193.204 342.233 195.208V218.087L363.609 272.53L384.985 218.254V195.208C384.985 193.204 385.653 191.506 386.989 190.114C388.381 188.723 390.051 188.027 391.999 188.027C393.948 188.027 395.59 188.723 396.926 190.114C398.318 191.506 399.013 193.204 399.013 195.208ZM495.04 202.222H445.44V236.374H466.816C468.709 236.374 470.351 237.07 471.743 238.462C473.135 239.853 473.831 241.495 473.831 243.388C473.831 245.392 473.135 247.09 471.743 248.482C470.407 249.873 468.765 250.569 466.816 250.569H445.44V284.972H495.207C497.1 284.972 498.742 285.668 500.133 287.059C501.525 288.395 502.221 290.038 502.221 291.986C502.221 293.934 501.497 295.604 500.05 296.996C498.658 298.332 496.988 299 495.04 299H431.412V188.027H495.04C496.988 188.027 498.658 188.75 500.05 190.198C501.497 191.59 502.221 193.26 502.221 195.208C502.221 197.101 501.497 198.743 500.05 200.134C498.658 201.526 496.988 202.222 495.04 202.222ZM534.954 291.986V188.027H584.553C590.287 188.027 595.214 190.114 599.333 194.289C603.508 198.464 605.596 203.447 605.596 209.236V217.252C605.596 223.097 603.536 228.107 599.416 232.282C595.297 236.402 590.343 238.462 584.553 238.462H575.619L604.343 287.727C605.234 289.175 605.679 290.622 605.679 292.069C605.679 293.962 604.955 295.604 603.508 296.996C602.061 298.332 600.419 299 598.581 299C595.798 299 593.683 297.747 592.235 295.242L559.252 238.462H549.149V291.986C549.149 293.934 548.425 295.604 546.978 296.996C545.586 298.332 543.916 299 541.968 299C540.019 299 538.349 298.332 536.958 296.996C535.622 295.604 534.954 293.934 534.954 291.986ZM548.982 224.433H584.553C586.502 224.433 588.144 223.765 589.48 222.429C590.872 221.038 591.567 219.368 591.567 217.419V209.236C591.567 207.288 590.872 205.646 589.48 204.31C588.144 202.918 586.502 202.222 584.553 202.222H548.982V224.433ZM645.008 188.027H701.789C703.626 188.027 705.24 188.723 706.632 190.114C708.079 191.506 708.803 193.148 708.803 195.041C708.803 196.989 708.107 198.687 706.716 200.134C705.324 201.526 703.682 202.222 701.789 202.222H680.58V284.972H701.789C703.737 284.972 705.38 285.668 706.716 287.059C708.107 288.395 708.803 290.038 708.803 291.986C708.803 293.934 708.107 295.604 706.716 296.996C705.324 298.332 703.682 299 701.789 299H645.008C643.06 299 641.39 298.332 639.998 296.996C638.662 295.604 637.994 293.934 637.994 291.986C637.994 290.038 638.662 288.395 639.998 287.059C641.39 285.668 643.06 284.972 645.008 284.972H666.551V202.222H645.008C643.06 202.222 641.39 201.526 639.998 200.134C638.662 198.743 637.994 197.101 637.994 195.208C637.994 193.204 638.662 191.506 639.998 190.114C641.39 188.723 643.06 188.027 645.008 188.027ZM741.536 291.986V188.027H805.164C807.001 188.027 808.615 188.723 810.007 190.114C811.454 191.506 812.178 193.148 812.178 195.041C812.178 196.989 811.482 198.687 810.09 200.134C808.698 201.526 807.056 202.222 805.164 202.222H755.564V224.266H791.135C793.084 224.266 794.726 224.962 796.062 226.354C797.454 227.69 798.149 229.332 798.149 231.28C798.149 233.229 797.454 234.899 796.062 236.291C794.726 237.627 793.084 238.295 791.135 238.295H755.564V291.986C755.564 293.934 754.868 295.604 753.476 296.996C752.14 298.332 750.498 299 748.55 299C746.601 299 744.931 298.332 743.54 296.996C742.204 295.604 741.536 293.934 741.536 291.986ZM887.496 245.81V291.986C887.496 293.934 886.8 295.604 885.408 296.996C884.017 298.332 882.374 299 880.482 299C878.478 299 876.78 298.332 875.388 296.996C873.997 295.604 873.301 293.934 873.301 291.986V245.81L845.077 210.071V195.208C845.077 193.204 845.745 191.506 847.081 190.114C848.473 188.723 850.143 188.027 852.091 188.027C854.04 188.027 855.71 188.75 857.101 190.198C858.549 191.59 859.272 193.26 859.272 195.208V204.811L880.315 231.948L901.691 204.978V195.208C901.691 193.26 902.387 191.59 903.779 190.198C905.17 188.75 906.813 188.027 908.705 188.027C910.542 188.027 912.157 188.695 913.548 190.031C914.996 191.311 915.719 193.037 915.719 195.208V209.904L887.496 245.81ZM1051.66 291.986V188.027H1115.29C1117.12 188.027 1118.74 188.723 1120.13 190.114C1121.58 191.506 1122.3 193.148 1122.3 195.041C1122.3 196.989 1121.61 198.687 1120.21 200.134C1118.82 201.526 1117.18 202.222 1115.29 202.222H1065.69V224.266H1101.26C1103.21 224.266 1104.85 224.962 1106.19 226.354C1107.58 227.69 1108.27 229.332 1108.27 231.28C1108.27 233.229 1107.58 234.899 1106.19 236.291C1104.85 237.627 1103.21 238.295 1101.26 238.295H1065.69V291.986C1065.69 293.934 1064.99 295.604 1063.6 296.996C1062.26 298.332 1060.62 299 1058.67 299C1056.73 299 1055.06 298.332 1053.66 296.996C1052.33 295.604 1051.66 293.934 1051.66 291.986ZM1161.88 188.027H1218.66C1220.5 188.027 1222.11 188.723 1223.5 190.114C1224.95 191.506 1225.68 193.148 1225.68 195.041C1225.68 196.989 1224.98 198.687 1223.59 200.134C1222.2 201.526 1220.55 202.222 1218.66 202.222H1197.45V284.972H1218.66C1220.61 284.972 1222.25 285.668 1223.59 287.059C1224.98 288.395 1225.68 290.038 1225.68 291.986C1225.68 293.934 1224.98 295.604 1223.59 296.996C1222.2 298.332 1220.55 299 1218.66 299H1161.88C1159.93 299 1158.26 298.332 1156.87 296.996C1155.53 295.604 1154.87 293.934 1154.87 291.986C1154.87 290.038 1155.53 288.395 1156.87 287.059C1158.26 285.668 1159.93 284.972 1161.88 284.972H1183.42V202.222H1161.88C1159.93 202.222 1158.26 201.526 1156.87 200.134C1155.53 198.743 1154.87 197.101 1154.87 195.208C1154.87 193.204 1155.53 191.506 1156.87 190.114C1158.26 188.723 1159.93 188.027 1161.88 188.027ZM1258.41 299V195.041C1258.41 193.148 1259.1 191.506 1260.5 190.114C1261.89 188.723 1263.53 188.027 1265.42 188.027C1267.32 188.027 1268.96 188.723 1270.35 190.114C1271.74 191.506 1272.44 193.148 1272.44 195.041V284.972H1322.04C1323.98 284.972 1325.65 285.668 1327.05 287.059C1328.49 288.395 1329.22 290.038 1329.22 291.986C1329.22 293.934 1328.49 295.604 1327.05 296.996C1325.65 298.332 1323.98 299 1322.04 299H1258.41ZM1425.41 202.222H1375.81V236.374H1397.19C1399.08 236.374 1400.72 237.07 1402.11 238.462C1403.51 239.853 1404.2 241.495 1404.2 243.388C1404.2 245.392 1403.51 247.09 1402.11 248.482C1400.78 249.873 1399.14 250.569 1397.19 250.569H1375.81V284.972H1425.58C1427.47 284.972 1429.11 285.668 1430.5 287.059C1431.9 288.395 1432.59 290.038 1432.59 291.986C1432.59 293.934 1431.87 295.604 1430.42 296.996C1429.03 298.332 1427.36 299 1425.41 299H1361.78V188.027H1425.41C1427.36 188.027 1429.03 188.75 1430.42 190.198C1431.87 191.59 1432.59 193.26 1432.59 195.208C1432.59 197.101 1431.87 198.743 1430.42 200.134C1429.03 201.526 1427.36 202.222 1425.41 202.222ZM1481.02 188.027H1517.51C1521.97 188.027 1526.17 189.919 1530.12 193.705C1534.13 197.435 1536.13 201.971 1536.13 207.316C1536.13 209.32 1535.41 211.017 1533.96 212.409C1532.57 213.801 1531.01 214.497 1529.29 214.497C1526.89 214.497 1525.25 213.968 1524.36 212.91C1523.47 211.797 1522.61 209.765 1521.77 206.815C1520.99 203.864 1519.21 202.389 1516.43 202.389H1481.77C1480.1 202.389 1479.27 202.918 1479.27 203.976C1479.27 204.644 1479.63 205.423 1480.36 206.314L1532.38 272.864C1534.88 276.093 1536.13 279.544 1536.13 283.218C1536.13 287.393 1534.6 291.067 1531.54 294.24C1528.54 297.413 1525.17 299 1521.44 299H1483.61C1478.6 299 1474.23 297.107 1470.5 293.322C1466.83 289.481 1464.99 285.278 1464.99 280.713C1464.99 275.48 1467.44 272.864 1472.34 272.864C1474.23 272.864 1475.85 273.56 1477.18 274.952C1478.52 276.288 1479.19 277.874 1479.19 279.711C1479.19 281.214 1479.69 282.467 1480.69 283.469C1481.75 284.471 1483.05 284.972 1484.61 284.972H1519.52C1521.02 284.972 1521.77 284.387 1521.77 283.218C1521.77 282.662 1521.41 281.938 1520.69 281.047L1468.75 214.497C1466.3 211.324 1465.07 207.872 1465.07 204.143C1465.07 199.8 1466.63 196.043 1469.75 192.87C1472.87 189.641 1476.63 188.027 1481.02 188.027Z" fill="white"/>
</g>
<g filter="url(#filter2_f)">
<path d="M274.355 2053.85C260.086 2044 249.901 2029.28 245.71 2012.45C241.518 1995.62 243.608 1977.84 251.588 1962.44C259.568 1947.05 272.889 1935.09 289.055 1928.81C305.221 1922.53 323.122 1922.36 339.402 1928.34C355.681 1934.32 369.223 1946.03 377.488 1961.27C385.752 1976.52 388.173 1994.25 384.295 2011.16C380.418 2028.06 370.508 2042.97 356.425 2053.09C342.341 2063.21 325.051 2067.84 307.794 2066.13L220.494 2292.3L256.331 2306.41L252.804 2319.35L270.722 2326.4L275.59 2313.99L293.508 2321.04L285.925 2340.34L274.849 2335.93L266.736 2356.6L277.741 2360.94L265.854 2391.24L249.417 2384.75L253.756 2373.74L235.837 2366.69L230.405 2380.48L197.249 2367.5L184.269 2400.58L144.34 2384.75L274.355 2053.85ZM358.022 1976.46C354.296 1967.93 348.123 1960.69 340.283 1955.67C332.444 1950.64 323.291 1948.05 313.98 1948.23C304.67 1948.4 295.621 1951.33 287.976 1956.65C280.332 1961.97 274.436 1969.44 271.034 1978.1C267.632 1986.77 266.876 1996.25 268.862 2005.35C270.848 2014.45 275.488 2022.75 282.193 2029.22C288.899 2035.68 297.369 2040.01 306.534 2041.65C315.7 2043.3 325.147 2042.2 333.684 2038.47C345.13 2033.47 354.124 2024.13 358.687 2012.51C363.251 2000.88 363.012 1987.92 358.022 1976.46V1976.46Z" fill="#F50057"/>
</g>
<g filter="url(#filter3_f)">
<path d="M1401.12 1975C1274.78 1975 1160.61 1887.4 1132.24 1759.13C1105.95 1640.4 1181.25 1522.41 1300.05 1496.16C1345.84 1486.05 1393.78 1494.54 1433.31 1519.75C1472.85 1544.95 1500.75 1584.82 1510.88 1630.58V1630.58C1518.96 1667.28 1512.14 1705.69 1491.92 1737.38C1471.7 1769.06 1439.73 1791.43 1403.02 1799.59C1377.66 1805.1 1351.18 1801.82 1327.93 1790.29C1304.68 1778.77 1286.04 1759.68 1275.08 1736.17C1274.97 1735.97 1274.91 1735.75 1274.88 1735.52C1274.86 1735.29 1274.89 1735.06 1274.96 1734.85C1275.03 1734.63 1275.15 1734.43 1275.3 1734.26C1275.45 1734.08 1275.64 1733.95 1275.85 1733.85C1276.05 1733.75 1276.28 1733.7 1276.51 1733.7C1276.74 1733.69 1276.97 1733.73 1277.18 1733.82C1277.39 1733.9 1277.58 1734.03 1277.74 1734.2C1277.9 1734.36 1278.03 1734.55 1278.11 1734.77C1288.76 1757.58 1306.85 1776.11 1329.42 1787.29C1351.99 1798.47 1377.69 1801.65 1402.3 1796.31C1438.14 1788.34 1469.36 1766.5 1489.1 1735.56C1508.85 1704.62 1515.51 1667.12 1507.62 1631.28C1502.7 1609.04 1493.44 1587.99 1480.38 1569.33C1467.32 1550.66 1450.71 1534.75 1431.49 1522.5C1412.28 1510.25 1390.84 1501.91 1368.4 1497.94C1345.96 1493.98 1322.95 1494.47 1300.7 1499.38C1244.45 1511.87 1195.45 1546.16 1164.46 1594.72C1133.48 1643.27 1123.04 1702.14 1135.43 1758.38C1167.83 1904.78 1313.35 1997.53 1459.85 1965.17C1508.25 1954.52 1553.73 1933.42 1593.11 1903.35C1632.49 1873.28 1664.82 1834.98 1687.83 1791.11C1688.04 1790.71 1688.39 1790.42 1688.81 1790.28C1689.24 1790.15 1689.7 1790.19 1690.09 1790.39C1690.49 1790.59 1690.79 1790.95 1690.92 1791.37C1691.06 1791.79 1691.02 1792.25 1690.81 1792.65C1667.58 1836.95 1634.94 1875.64 1595.18 1906.01C1555.42 1936.38 1509.5 1957.7 1460.63 1968.48C1441.09 1972.8 1421.13 1974.98 1401.12 1975V1975Z" fill="white"/>
<path d="M1299.73 1494.69L1299.73 1494.69C1180.11 1521.13 1104.3 1639.91 1130.77 1759.46C1159.31 1888.43 1274.1 1976.5 1401.12 1976.5V1975L1401.12 1976.5C1421.24 1976.48 1441.31 1974.28 1460.96 1969.94C1510.04 1959.12 1556.16 1937.71 1596.1 1907.2C1636.03 1876.7 1668.81 1837.84 1692.14 1793.34L1692.15 1793.34C1692.53 1792.59 1692.61 1791.72 1692.35 1790.91C1692.09 1790.11 1691.53 1789.44 1690.78 1789.06C1690.03 1788.67 1689.16 1788.6 1688.36 1788.85C1687.56 1789.11 1686.89 1789.67 1686.5 1790.42C1663.59 1834.09 1631.41 1872.23 1592.2 1902.16C1552.99 1932.09 1507.71 1953.1 1459.53 1963.7L1459.53 1963.7C1313.84 1995.88 1169.11 1903.64 1136.9 1758.06C1124.59 1702.2 1134.96 1643.75 1165.73 1595.52C1196.5 1547.3 1245.16 1513.25 1301.03 1500.85C1323.09 1495.97 1345.89 1495.49 1368.14 1499.42C1390.39 1503.35 1411.64 1511.63 1430.69 1523.77C1449.74 1535.91 1466.21 1551.68 1479.15 1570.19C1492.1 1588.69 1501.28 1609.56 1506.16 1631.6C1513.96 1667.06 1507.37 1704.15 1487.84 1734.75C1468.31 1765.35 1437.43 1786.96 1401.98 1794.84C1377.7 1800.12 1352.35 1796.98 1330.08 1785.95C1307.83 1774.92 1289.99 1756.66 1279.49 1734.17C1279.33 1733.79 1279.1 1733.44 1278.81 1733.14C1278.51 1732.83 1278.14 1732.59 1277.74 1732.43C1277.34 1732.26 1276.91 1732.19 1276.47 1732.2C1276.04 1732.21 1275.61 1732.31 1275.22 1732.49C1274.82 1732.67 1274.47 1732.93 1274.18 1733.26C1273.89 1733.58 1273.67 1733.96 1273.54 1734.38C1273.4 1734.79 1273.35 1735.23 1273.39 1735.66C1273.43 1736.07 1273.55 1736.48 1273.74 1736.84C1284.85 1760.65 1303.72 1779.97 1327.27 1791.64C1350.82 1803.31 1377.65 1806.63 1403.34 1801.05L1403.35 1801.05C1440.44 1792.81 1472.75 1770.2 1493.19 1738.18C1513.62 1706.16 1520.51 1667.35 1512.35 1630.26L1510.89 1630.58L1512.35 1630.26C1502.13 1584.11 1473.99 1543.9 1434.12 1518.48C1394.25 1493.06 1345.91 1484.5 1299.73 1494.69Z" stroke="white" stroke-width="3"/>
</g>
<g filter="url(#filter4_f)">
<path d="M1727.05 1593.95C1726.58 1593.96 1726.12 1593.8 1725.77 1593.49C1725.41 1593.18 1725.18 1592.75 1725.13 1592.28C1723.53 1578.69 1721.13 1565.21 1717.93 1551.91C1667.02 1340.04 1459.23 1189.21 1223.79 1193.66C1223.32 1193.66 1222.86 1193.47 1222.52 1193.13C1222.19 1192.8 1222 1192.34 1222 1191.87C1222 1191.39 1222.19 1190.94 1222.52 1190.6C1222.86 1190.27 1223.32 1190.08 1223.79 1190.08C1462.01 1186 1670.35 1337.07 1721.82 1551.21C1725.02 1564.66 1727.42 1578.29 1728.99 1592.03C1729.01 1592.27 1728.99 1592.51 1728.91 1592.74C1728.84 1592.97 1728.72 1593.18 1728.57 1593.36C1728.41 1593.55 1728.22 1593.7 1728.01 1593.81C1727.79 1593.91 1727.56 1593.98 1727.32 1594H1727.1L1727.05 1593.95Z" fill="white"/>
<path d="M1223.79 1195.16H1223.8L1223.82 1195.16C1458.64 1190.72 1665.74 1341.15 1716.47 1552.26C1719.66 1565.51 1722.05 1578.93 1723.64 1592.45C1723.74 1593.29 1724.14 1594.07 1724.78 1594.62C1725.24 1595.02 1725.79 1595.28 1726.37 1595.39L1726.48 1595.5H1727.1H1727.32H1727.38L1727.44 1595.5C1727.87 1595.46 1728.3 1595.34 1728.69 1595.14C1729.08 1594.94 1729.43 1594.67 1729.71 1594.33C1730 1594 1730.21 1593.61 1730.34 1593.19C1730.48 1592.78 1730.53 1592.34 1730.49 1591.9L1730.49 1591.88L1730.48 1591.86C1728.9 1578.06 1726.5 1564.37 1723.27 1550.86L1723.27 1550.86C1671.62 1335.96 1462.61 1184.5 1223.78 1188.58C1222.91 1188.58 1222.08 1188.93 1221.46 1189.54C1220.85 1190.16 1220.5 1191 1220.5 1191.87C1220.5 1192.74 1220.85 1193.58 1221.46 1194.19C1222.08 1194.81 1222.92 1195.16 1223.79 1195.16Z" stroke="white" stroke-width="3"/>
</g>
<g filter="url(#filter5_f)">
<path d="M804.363 1872C803.974 1872.01 803.595 1871.88 803.291 1871.64C802.986 1871.4 802.775 1871.06 802.693 1870.68C781.686 1775.8 786.828 1676.99 817.568 1584.82C848.308 1492.65 903.488 1410.59 977.198 1347.44C977.363 1347.29 977.556 1347.17 977.766 1347.1C977.977 1347.02 978.2 1346.99 978.423 1347C978.646 1347.01 978.865 1347.07 979.065 1347.17C979.266 1347.27 979.445 1347.41 979.592 1347.58C979.738 1347.75 979.849 1347.94 979.918 1348.16C979.987 1348.37 980.013 1348.59 979.994 1348.82C979.975 1349.04 979.911 1349.26 979.806 1349.46C979.702 1349.65 979.559 1349.83 979.385 1349.97C906.141 1412.74 851.31 1494.28 820.765 1585.88C790.219 1677.48 785.109 1775.67 805.982 1869.96C806.031 1870.17 806.037 1870.4 806 1870.61C805.963 1870.83 805.883 1871.04 805.765 1871.23C805.647 1871.41 805.493 1871.58 805.313 1871.7C805.132 1871.83 804.928 1871.92 804.713 1871.97L804.363 1872Z" fill="white"/>
<path d="M804.396 1873.5L804.451 1873.5L804.505 1873.49L804.856 1873.46L804.947 1873.45L805.036 1873.43C805.445 1873.34 805.832 1873.17 806.175 1872.93C806.518 1872.69 806.809 1872.38 807.033 1872.03C807.256 1871.67 807.408 1871.28 807.478 1870.87C807.548 1870.46 807.537 1870.04 807.446 1869.63C786.633 1775.62 791.728 1677.69 822.188 1586.35C852.646 1495.02 907.318 1413.71 980.35 1351.12C980.672 1350.85 980.938 1350.52 981.133 1350.16C981.331 1349.78 981.452 1349.37 981.488 1348.95C981.525 1348.52 981.476 1348.1 981.345 1347.69C981.214 1347.29 981.004 1346.92 980.726 1346.59C980.448 1346.27 980.108 1346.01 979.727 1345.82C979.346 1345.64 978.931 1345.53 978.506 1345.5C978.082 1345.48 977.658 1345.54 977.258 1345.69C976.869 1345.83 976.511 1346.04 976.204 1346.32C902.296 1409.65 846.968 1491.92 816.145 1584.35C785.32 1676.77 780.163 1775.86 801.228 1871C801.383 1871.72 801.782 1872.36 802.36 1872.82C802.938 1873.27 803.658 1873.52 804.396 1873.5Z" stroke="white" stroke-width="3"/>
</g>
<g filter="url(#filter6_f)">
<path d="M1803.69 1793H1614.32C1608.41 1793 1602.73 1790.64 1598.55 1786.46C1594.36 1782.27 1592.01 1776.59 1592 1770.67V1616.33C1592.01 1610.41 1594.36 1604.73 1598.55 1600.54C1602.73 1596.36 1608.41 1594 1614.32 1594H1803.69C1809.61 1594 1815.28 1596.36 1819.46 1600.54C1823.64 1604.73 1826 1610.41 1826 1616.33V1770.67C1826 1776.59 1823.64 1782.27 1819.46 1786.45C1815.28 1790.64 1809.61 1793 1803.69 1793ZM1614.32 1597.36C1609.3 1597.36 1604.48 1599.36 1600.92 1602.92C1597.36 1606.47 1595.36 1611.3 1595.35 1616.33V1770.67C1595.36 1775.7 1597.36 1780.53 1600.92 1784.08C1604.48 1787.64 1609.3 1789.64 1614.32 1789.64H1803.69C1808.72 1789.64 1813.54 1787.64 1817.09 1784.08C1820.65 1780.53 1822.64 1775.7 1822.65 1770.67V1616.33C1822.64 1611.3 1820.65 1606.47 1817.09 1602.92C1813.54 1599.36 1808.72 1597.36 1803.69 1597.36H1614.32Z" fill="white"/>
<path d="M1803.69 1794.5H1803.7C1810.01 1794.5 1816.06 1791.98 1820.52 1787.52C1824.99 1783.05 1827.5 1776.99 1827.5 1770.67V1770.67V1616.33V1616.33C1827.5 1610.01 1824.99 1603.95 1820.52 1599.48C1816.06 1595.02 1810.01 1592.5 1803.7 1592.5H1803.69L1614.32 1592.5L1614.32 1592.5C1608.01 1592.5 1601.95 1595.02 1597.49 1599.48C1593.02 1603.95 1590.51 1610.01 1590.5 1616.33V1616.33L1590.5 1770.67L1590.5 1770.67C1590.51 1776.99 1593.02 1783.05 1597.49 1787.52C1601.95 1791.98 1608.01 1794.5 1614.32 1794.5H1614.32H1803.69ZM1601.98 1603.98C1605.25 1600.7 1609.69 1598.86 1614.32 1598.86C1614.32 1598.86 1614.32 1598.86 1614.32 1598.86H1803.69C1803.69 1598.86 1803.69 1598.86 1803.69 1598.86C1808.32 1598.86 1812.76 1600.7 1816.03 1603.98C1819.3 1607.25 1821.14 1611.7 1821.15 1616.33V1770.67C1821.14 1775.3 1819.3 1779.75 1816.03 1783.02C1812.76 1786.3 1808.32 1788.14 1803.69 1788.14H1614.32C1609.69 1788.14 1605.26 1786.3 1601.98 1783.02C1598.7 1779.75 1596.86 1775.3 1596.85 1770.67V1616.33C1596.86 1611.7 1598.7 1607.25 1601.98 1603.98Z" stroke="white" stroke-width="3"/>
</g>
<g filter="url(#filter7_f)">
<path d="M1781.74 1642.98H1686.35C1685.52 1642.99 1684.71 1642.65 1684.1 1642.04C1683.48 1641.43 1683.09 1640.58 1683 1639.67C1682.98 1639.22 1683.04 1638.76 1683.18 1638.32C1683.32 1637.89 1683.54 1637.49 1683.82 1637.15C1684.1 1636.81 1684.43 1636.53 1684.81 1636.33C1685.19 1636.14 1685.6 1636.02 1686.02 1636H1783.35C1786.54 1639.09 1784.6 1643 1781.81 1643L1781.74 1642.98Z" fill="white"/>
</g>
<g filter="url(#filter8_f)">
<path d="M1781.74 1659H1686.35C1685.52 1659 1684.71 1658.71 1684.09 1658.19C1683.47 1657.66 1683.08 1656.93 1683 1656.15C1682.96 1655.36 1683.26 1654.58 1683.82 1653.99C1684.38 1653.4 1685.17 1653.04 1686.02 1653H1783.35C1786.54 1655.65 1784.6 1659 1781.81 1659H1781.74Z" fill="white"/>
</g>
<g filter="url(#filter9_f)">
<path d="M1665.45 1669H1636.55C1635.61 1669 1634.71 1668.62 1634.04 1667.94C1633.37 1667.26 1633 1666.34 1633 1665.38V1630.62C1633 1629.66 1633.37 1628.74 1634.04 1628.06C1634.71 1627.38 1635.61 1627 1636.55 1627H1665.45C1666.39 1627 1667.29 1627.38 1667.96 1628.06C1668.63 1628.74 1669 1629.66 1669 1630.62V1665.38C1669 1666.34 1668.63 1667.26 1667.96 1667.94C1667.29 1668.62 1666.39 1669 1665.45 1669V1669Z" fill="#F50057"/>
</g>
<g filter="url(#filter10_f)">
<path d="M1781.82 1693.98H1636.35C1635.52 1693.99 1634.71 1693.65 1634.09 1693.04C1633.48 1692.43 1633.09 1691.58 1633 1690.67C1632.96 1689.75 1633.26 1688.84 1633.82 1688.16C1634.38 1687.47 1635.17 1687.05 1636.01 1687H1783.34C1786.55 1690.09 1784.59 1694 1781.82 1694V1693.98Z" fill="white"/>
</g>
<g filter="url(#filter11_f)">
<path d="M1781.82 1710H1636.35C1635.51 1710 1634.71 1709.71 1634.09 1709.19C1633.47 1708.66 1633.08 1707.93 1633 1707.15C1632.98 1706.76 1633.04 1706.36 1633.18 1705.99C1633.32 1705.62 1633.54 1705.28 1633.82 1704.99C1634.1 1704.69 1634.43 1704.46 1634.81 1704.29C1635.19 1704.12 1635.6 1704.02 1636.01 1704H1783.34C1786.55 1706.65 1784.59 1710 1781.82 1710Z" fill="white"/>
</g>
<g filter="url(#filter12_f)">
<path d="M1781.82 1727H1636.35C1635.51 1727 1634.71 1726.71 1634.09 1726.19C1633.47 1725.66 1633.08 1724.93 1633 1724.15C1632.98 1723.76 1633.04 1723.36 1633.18 1722.99C1633.32 1722.62 1633.54 1722.28 1633.82 1721.99C1634.1 1721.69 1634.43 1721.46 1634.81 1721.29C1635.19 1721.12 1635.6 1721.02 1636.01 1721H1783.34C1786.55 1723.65 1784.59 1727 1781.82 1727Z" fill="white"/>
</g>
<g filter="url(#filter13_f)">
<path d="M1781.82 1743.98H1636.35C1635.52 1743.99 1634.71 1743.65 1634.09 1743.04C1633.48 1742.43 1633.09 1741.58 1633 1740.67C1632.96 1739.75 1633.26 1738.84 1633.82 1738.16C1634.38 1737.47 1635.17 1737.05 1636.01 1737H1783.34C1786.55 1740.09 1784.59 1744 1781.82 1744V1743.98Z" fill="white"/>
</g>
<g filter="url(#filter14_f)">
<path d="M1781.82 1760.98H1636.35C1635.52 1760.99 1634.71 1760.7 1634.09 1760.18C1633.48 1759.65 1633.09 1758.93 1633 1758.15C1632.96 1757.36 1633.26 1756.58 1633.82 1755.99C1634.38 1755.4 1635.17 1755.04 1636.01 1755H1783.34C1786.55 1757.65 1784.59 1761 1781.82 1761V1760.98Z" fill="white"/>
</g>
<g filter="url(#filter15_f)">
<path d="M296.189 1951.7C294.768 1947.27 294.234 1942.6 294.619 1937.96C295.004 1933.31 296.299 1928.79 298.432 1924.65C300.564 1920.51 303.492 1916.83 307.047 1913.82C310.602 1910.82 314.716 1908.54 319.152 1907.12C321.137 1906.47 323.18 1906 325.254 1905.74L350.368 1782.29L396.752 1828.5L365.817 1938.72C366.421 1947.44 363.801 1956.08 358.453 1963C353.106 1969.92 345.404 1974.63 336.812 1976.24C328.219 1977.85 319.334 1976.25 311.845 1971.74C304.356 1967.23 298.785 1960.12 296.189 1951.77V1951.7Z" fill="#FFB8B8"/>
</g>
<g filter="url(#filter16_f)">
<path d="M441.724 1484.98L318.728 1865.92L380.843 1879.64L507.649 1479.33L496.467 1469.63C492.212 1465.94 487.106 1463.36 481.607 1462.12C476.108 1460.89 470.389 1461.04 464.962 1462.56C459.536 1464.08 454.572 1466.92 450.516 1470.84C446.46 1474.75 443.439 1479.61 441.724 1484.98V1484.98Z" fill="#F50057"/>
</g>
<g filter="url(#filter17_f)">
<path d="M612.55 2569.96H655.794L676.358 2403.16H612.55V2569.96Z" fill="#FFB8B8"/>
</g>
<g filter="url(#filter18_f)">
<path d="M739.179 2610.1H603.273V2557.58H686.693C700.613 2557.58 713.963 2563.11 723.806 2572.95C733.649 2582.8 739.179 2596.15 739.179 2610.07V2610.1Z" fill="#2F2E41"/>
</g>
<g filter="url(#filter19_f)">
<path d="M252.768 2518.29L291.992 2536.45L380.738 2393.74L322.82 2366.93L252.768 2518.29Z" fill="#FFB8B8"/>
</g>
<g filter="url(#filter20_f)">
<path d="M350.827 2607.92L227.372 2550.85L249.418 2503.19L325.113 2538.22C337.749 2544.07 347.544 2554.7 352.346 2567.77C357.148 2580.84 356.563 2595.28 350.721 2607.92H350.827Z" fill="#2F2E41"/>
</g>
<g filter="url(#filter21_f)">
<path d="M657.875 2534.73C657.252 2534.76 656.628 2534.76 656.006 2534.73L621.791 2530.7C618.187 2530.3 614.828 2528.69 612.264 2526.12C609.7 2523.56 608.084 2520.2 607.682 2516.6L566.766 2085.49C566.699 2084.8 566.497 2084.13 566.17 2083.51C565.844 2082.9 565.399 2082.35 564.861 2081.91C564.324 2081.47 563.705 2081.14 563.039 2080.93C562.373 2080.73 561.674 2080.66 560.981 2080.73C560.126 2080.82 559.304 2081.11 558.586 2081.59C557.868 2082.06 557.274 2082.7 556.854 2083.45L328.358 2497.62C326.641 2500.75 323.915 2503.21 320.622 2504.59C317.33 2505.98 313.666 2506.2 310.228 2505.24L271.78 2494.66C269.774 2494.1 267.896 2493.16 266.255 2491.88C264.614 2490.59 263.242 2489 262.216 2487.19C261.191 2485.38 260.533 2483.38 260.279 2481.32C260.026 2479.25 260.183 2477.16 260.74 2475.15C260.806 2474.87 260.888 2474.6 260.987 2474.34C294.461 2374.2 462.041 1872.23 476.468 1826.06C493.61 1770.83 621.509 1749.1 632.514 1747.3L638.863 1740.98L640.062 1742.61C696.499 1818.62 723.835 1919.25 716.992 2026.02L673.642 2520.23C673.298 2524.18 671.49 2527.85 668.572 2530.54C665.655 2533.22 661.839 2534.71 657.875 2534.73Z" fill="#2F2E41"/>
</g>
<g filter="url(#filter22_f)">
<path d="M477.632 1416.05C525.476 1416.05 564.261 1377.27 564.261 1329.42C564.261 1281.58 525.476 1242.79 477.632 1242.79C429.788 1242.79 391.002 1281.58 391.002 1329.42C391.002 1377.27 429.788 1416.05 477.632 1416.05Z" fill="#FFB8B8"/>
</g>
<g filter="url(#filter23_f)">
<path d="M482.076 1812.48L430.648 1544.41C426.387 1521.79 430.876 1498.4 443.206 1478.96C455.537 1459.53 474.788 1445.5 497.067 1439.72C510.863 1436.11 525.383 1436.34 539.059 1440.38C552.735 1444.42 565.048 1452.12 574.667 1462.65C600.909 1491.29 634.242 1532.98 644.048 1568.89C652.302 1599.4 675.617 1713.51 675.793 1714.81L675.97 1715.73L675.335 1716.4C665.158 1726.65 654.468 1736.37 643.307 1745.53C631.914 1754.99 620.274 1763.74 608.669 1771.6C576.148 1793.54 487.684 1811.39 483.945 1812.13L482.076 1812.48Z" fill="#F50057"/>
</g>
<g opacity="0.2" filter="url(#filter24_f)">
<path d="M607.541 1770.12C620.451 1761.37 632.232 1752.48 642.038 1744.16C638.51 1691.46 560.911 1581.13 529.377 1581.13C529.377 1581.13 521.934 1751.18 607.541 1770.12Z" fill="black"/>
</g>
<g filter="url(#filter25_f)">
<path d="M767.361 1908.56C758.538 1905.34 751.355 1898.74 747.387 1890.22C743.42 1881.71 742.992 1871.97 746.198 1863.13C746.899 1861.16 747.785 1859.26 748.843 1857.45L666.446 1762.22L731.418 1753.75L799.671 1845.64C806.813 1850.55 811.921 1857.9 814.041 1866.3C816.16 1874.71 815.145 1883.6 811.185 1891.31C807.226 1899.02 800.593 1905.02 792.527 1908.2C784.462 1911.38 775.515 1911.51 767.361 1908.56V1908.56Z" fill="#FFB8B8"/>
</g>
<g filter="url(#filter26_f)">
<path d="M536.995 1445.43C540.551 1445.52 544.092 1445.92 547.577 1446.63C554.682 1448.26 561.271 1451.63 566.756 1456.43C572.24 1461.23 576.449 1467.32 579.005 1474.15L680.873 1686.95L790.218 1803.35L735.545 1847.44L562.709 1692.24L493.681 1504.3C491.467 1497.52 490.902 1490.3 492.032 1483.26C493.161 1476.21 495.953 1469.53 500.176 1463.78C504.399 1458.03 509.932 1453.36 516.316 1450.17C522.7 1446.98 529.753 1445.36 536.89 1445.43H536.995Z" fill="#F50057"/>
</g>
<g filter="url(#filter27_f)">
<path d="M472.376 1415.24C460.031 1396.79 450.331 1371.22 463.875 1353.66C477.42 1336.09 503.734 1338.88 524.227 1331.19C552.833 1320.61 569.411 1286.92 564.226 1256.87C559.041 1226.82 534.915 1201.84 506.167 1191.65C477.42 1181.45 444.969 1184.59 416.822 1196.52C382.149 1210.98 352.379 1238.84 339.927 1274.4C327.476 1309.95 334.107 1352.35 359.997 1379.62C387.722 1408.79 431.248 1416.58 471.53 1416.12" fill="#2F2E41"/>
</g>
<g filter="url(#filter28_f)">
<path d="M336.47 1313.09C332.943 1332.81 311.321 1344.03 291.427 1346.5C271.533 1348.96 250.969 1345.79 231.464 1350.97C197.355 1360.08 175.027 1392.88 162.47 1425.96C149.913 1459.05 144.587 1494.75 128.503 1526.17C112.418 1557.6 81.1669 1585.36 46 1582.4C52.8546 1599.81 64.9231 1614.68 80.5533 1624.96C96.1835 1635.25 114.611 1640.45 133.313 1639.86C152.016 1639.27 170.078 1632.92 185.028 1621.66C199.978 1610.41 211.084 1594.81 216.826 1577C229.771 1537.11 214.921 1489.49 237.531 1454.15C250.052 1434.57 271.639 1423.07 292.485 1412.84C313.332 1402.61 335.165 1392.07 349.133 1373.51C363.101 1354.96 365.923 1325.68 348.71 1310.02" fill="#2F2E41"/>
</g>
<g filter="url(#filter29_f)">
<path d="M835.5 1564C848.479 1564 859 1553.48 859 1540.5C859 1527.52 848.479 1517 835.5 1517C822.521 1517 812 1527.52 812 1540.5C812 1553.48 822.521 1564 835.5 1564Z" fill="white"/>
</g>
<g filter="url(#filter30_f)">
<path d="M1582.5 1347C1595.48 1347 1606 1336.48 1606 1323.5C1606 1310.52 1595.48 1300 1582.5 1300C1569.52 1300 1559 1310.52 1559 1323.5C1559 1336.48 1569.52 1347 1582.5 1347Z" fill="white"/>
</g>
<g filter="url(#filter31_f)">
<path d="M1199.73 1358H995.272C982.988 1358 973.017 1345.27 973 1329.6V1117.4C973 1101.73 983.055 1089 995.272 1089H1199.73C1212.03 1089 1222 1101.73 1222 1117.4V1329.6C1222 1345.2 1212.03 1358 1199.73 1358ZM995.272 1092.34C984.429 1092.34 975.631 1103.57 975.631 1117.4V1329.6C975.631 1343.43 984.429 1354.66 995.272 1354.66H1199.73C1210.59 1354.66 1219.37 1343.43 1219.39 1329.6V1117.4C1219.39 1103.57 1210.59 1092.34 1199.73 1092.34H995.272Z" fill="white"/>
<path d="M971.5 1329.6L971.5 1329.6C971.517 1345.74 981.84 1359.5 995.272 1359.5H1199.73C1213.18 1359.5 1223.5 1345.67 1223.5 1329.6V1117.4C1223.5 1101.26 1213.18 1087.5 1199.73 1087.5H995.272C981.91 1087.5 971.5 1101.26 971.5 1117.4L971.5 1329.6ZM977.131 1117.4C977.131 1104.04 985.578 1093.84 995.272 1093.84H1199.73C1209.44 1093.84 1217.89 1104.04 1217.89 1117.4V1329.59C1217.87 1342.96 1209.44 1353.16 1199.73 1353.16H995.272C985.578 1353.16 977.131 1342.96 977.131 1329.6V1117.4Z" stroke="white" stroke-width="3"/>
</g>
<g filter="url(#filter32_f)">
<path d="M1199.61 1153H1067.67C1066.5 1153.03 1065.38 1152.6 1064.51 1151.81C1063.65 1151.02 1063.11 1149.92 1063.01 1148.74C1062.97 1148.15 1063.06 1147.56 1063.25 1147C1063.44 1146.44 1063.74 1145.93 1064.13 1145.49C1064.52 1145.05 1064.99 1144.69 1065.51 1144.43C1066.03 1144.18 1066.6 1144.03 1067.18 1144H1201.72C1206.15 1147.97 1203.4 1153 1199.61 1153Z" fill="white"/>
</g>
<g filter="url(#filter33_f)">
<path d="M1199.61 1176H1067.67C1066.5 1176.03 1065.38 1175.6 1064.51 1174.81C1063.65 1174.02 1063.11 1172.92 1063.01 1171.74C1062.97 1171.15 1063.06 1170.56 1063.25 1170C1063.44 1169.44 1063.74 1168.93 1064.13 1168.49C1064.52 1168.05 1064.99 1167.69 1065.51 1167.43C1066.03 1167.18 1066.6 1167.03 1067.18 1167H1201.72C1206.15 1170.97 1203.4 1176 1199.61 1176Z" fill="white"/>
</g>
<g filter="url(#filter34_f)">
<path d="M1038.08 1190H998.008C996.68 1190 995.406 1189.47 994.467 1188.51C993.528 1187.56 993 1186.27 993 1184.93V1137.07C993 1135.73 993.528 1134.44 994.467 1133.49C995.406 1132.53 996.68 1132 998.008 1132H1038.08C1039.39 1132.02 1040.64 1132.57 1041.56 1133.51C1042.48 1134.46 1043 1135.74 1043 1137.07V1185C1042.98 1186.31 1042.46 1187.58 1041.54 1188.51C1040.62 1189.44 1039.38 1189.98 1038.08 1190V1190Z" fill="#F50057"/>
</g>
<g filter="url(#filter35_f)">
<path d="M1198.6 1222.98H996.678C995.514 1223.01 994.383 1222.63 993.515 1221.93C992.647 1221.22 992.108 1220.25 992.006 1219.2C991.946 1218.14 992.354 1217.1 993.138 1216.32C993.923 1215.53 995.021 1215.06 996.191 1215H1200.72C1205.15 1218.53 1202.4 1223 1198.6 1223V1222.98Z" fill="white"/>
</g>
<g filter="url(#filter36_f)">
<path d="M1198.6 1247H996.678C995.514 1247.03 994.383 1246.6 993.515 1245.81C992.647 1245.02 992.108 1243.92 992.006 1242.74C991.946 1241.55 992.353 1240.38 993.137 1239.49C993.922 1238.6 995.019 1238.07 996.191 1238H1200.72C1205.15 1241.97 1202.4 1247 1198.6 1247Z" fill="white"/>
</g>
<g filter="url(#filter37_f)">
<path d="M1198.6 1268.98H996.678C995.514 1269.01 994.383 1268.63 993.515 1267.93C992.647 1267.22 992.108 1266.25 992.006 1265.2C991.946 1264.14 992.354 1263.1 993.138 1262.32C993.923 1261.53 995.021 1261.06 996.191 1261H1200.72C1205.15 1264.53 1202.4 1269 1198.6 1269V1268.98Z" fill="white"/>
</g>
<g filter="url(#filter38_f)">
<path d="M1198.6 1292.98H996.678C995.515 1293.01 994.386 1292.58 993.519 1291.79C992.652 1291 992.112 1289.91 992.006 1288.73C991.946 1287.54 992.353 1286.37 993.137 1285.49C993.922 1284.6 995.019 1284.07 996.191 1284H1200.72C1205.15 1287.96 1202.4 1293 1198.6 1293V1292.98Z" fill="white"/>
</g>
<g filter="url(#filter39_f)">
<path d="M1198.6 1316H996.678C995.514 1316.03 994.383 1315.6 993.515 1314.81C992.647 1314.02 992.108 1312.92 992.006 1311.74C991.946 1310.55 992.353 1309.38 993.137 1308.49C993.922 1307.6 995.019 1307.07 996.191 1307H1200.72C1205.15 1310.97 1202.4 1316 1198.6 1316Z" fill="white"/>
</g>
<g filter="url(#filter40_f)">
<path d="M1310.5 1979C1323.48 1979 1334 1968.48 1334 1955.5C1334 1942.52 1323.48 1932 1310.5 1932C1297.52 1932 1287 1942.52 1287 1955.5C1287 1968.48 1297.52 1979 1310.5 1979Z" fill="white"/>
</g>
<g filter="url(#filter41_f)">
<path d="M1344.33 1643.43C1341.65 1629.71 1334.78 1617.16 1324.68 1607.53C1314.58 1597.89 1301.75 1591.66 1287.97 1589.68C1274.18 1587.7 1260.13 1590.08 1247.75 1596.48C1235.37 1602.89 1225.28 1613 1218.88 1625.43C1205.22 1626.93 1192.65 1633.62 1183.76 1644.14C1174.87 1654.66 1170.33 1668.21 1171.08 1681.98C1171.83 1695.76 1177.8 1708.73 1187.77 1718.22C1197.75 1727.71 1210.96 1733 1224.7 1733H1341.19C1353.07 1732.96 1364.45 1728.21 1372.85 1719.77C1381.24 1711.33 1385.97 1699.89 1386 1687.96C1386.04 1676.59 1381.74 1665.64 1373.99 1657.36C1366.24 1649.08 1355.62 1644.09 1344.33 1643.43ZM1292.81 1669.97V1704.17H1264.12V1669.97H1233.66L1278.47 1624.99L1323.27 1669.99L1292.81 1669.97Z" fill="white"/>
</g>
<g filter="url(#filter42_f)">
<path d="M1814.5 1622C1829.69 1622 1842 1609.91 1842 1595C1842 1580.09 1829.69 1568 1814.5 1568C1799.31 1568 1787 1580.09 1787 1595C1787 1609.91 1799.31 1622 1814.5 1622Z" fill="#00BFA6"/>
</g>
<g filter="url(#filter43_f)">
<path d="M1811.34 1605C1810.73 1604.99 1810.14 1604.79 1809.65 1604.43V1604.43L1803.13 1599.46C1802.52 1598.99 1802.13 1598.3 1802.03 1597.54C1801.92 1596.79 1802.13 1596.02 1802.59 1595.41C1802.82 1595.11 1803.11 1594.85 1803.43 1594.66C1803.76 1594.47 1804.12 1594.35 1804.5 1594.3C1804.88 1594.25 1805.26 1594.27 1805.62 1594.37C1805.99 1594.47 1806.33 1594.64 1806.64 1594.87V1594.87L1810.85 1598.1L1820.81 1585.12C1821.28 1584.52 1821.98 1584.12 1822.74 1584.02C1823.5 1583.93 1824.27 1584.13 1824.88 1584.6V1584.6V1584.69V1584.6C1825.18 1584.83 1825.43 1585.12 1825.62 1585.45C1825.81 1585.78 1825.93 1586.14 1825.98 1586.51C1826.02 1586.89 1826 1587.27 1825.9 1587.63C1825.8 1588 1825.63 1588.34 1825.4 1588.64L1813.68 1603.91C1813.4 1604.26 1813.05 1604.54 1812.64 1604.73C1812.23 1604.92 1811.79 1605.01 1811.34 1605Z" fill="white"/>
</g>
<g filter="url(#filter44_f)">
<path d="M1210 1127C1227.67 1127 1242 1113.12 1242 1096C1242 1078.88 1227.67 1065 1210 1065C1192.33 1065 1178 1078.88 1178 1096C1178 1113.12 1192.33 1127 1210 1127Z" fill="#00BFA6"/>
</g>
<g filter="url(#filter45_f)">
<path d="M1206.87 1108C1206.18 1108.01 1205.51 1107.79 1204.96 1107.38V1107.38L1197.76 1101.92C1197.29 1101.36 1197.02 1100.65 1197 1099.91C1196.98 1099.17 1197.22 1098.46 1197.67 1097.87C1198.12 1097.29 1198.76 1096.87 1199.48 1096.69C1200.2 1096.52 1200.96 1096.59 1201.64 1096.89L1206.3 1100.44L1217.3 1086.21C1217.83 1085.56 1218.59 1085.14 1219.42 1085.03C1220.26 1084.92 1221.1 1085.13 1221.78 1085.63V1085.71V1085.63C1222.44 1086.15 1222.86 1086.9 1222.97 1087.73C1223.08 1088.56 1222.87 1089.4 1222.37 1090.07L1209.44 1106.8C1209.13 1107.18 1208.73 1107.48 1208.29 1107.69C1207.85 1107.9 1207.36 1108 1206.87 1108Z" fill="white"/>
</g>
<defs>
<filter id="filter0_f" x="68.9894" y="0.989365" width="1702.02" height="512.021" filterUnits="userSpaceOnUse" color-interpolation-filters="sRGB">
<feFlood flood-opacity="0" result="BackgroundImageFix"/>
<feBlend mode="normal" in="SourceGraphic" in2="BackgroundImageFix" result="shape"/>
<feGaussianBlur stdDeviation="85.5053" result="effect1_foregroundBlur"/>
</filter>
<filter id="filter1_f" x="321.364" y="181.186" width="1221.61" height="124.654" filterUnits="userSpaceOnUse" color-interpolation-filters="sRGB">
<feFlood flood-opacity="0" result="BackgroundImageFix"/>
<feBlend mode="normal" in="SourceGraphic" in2="BackgroundImageFix" result="shape"/>
<feGaussianBlur stdDeviation="3.42021" result="effect1_foregroundBlur"/>
</filter>
<filter id="filter2_f" x="134.34" y="1913.98" width="261.759" height="496.607" filterUnits="userSpaceOnUse" color-interpolation-filters="sRGB">
<feFlood flood-opacity="0" result="BackgroundImageFix"/>
<feBlend mode="normal" in="SourceGraphic" in2="BackgroundImageFix" result="shape"/>
<feGaussianBlur stdDeviation="5" result="effect1_foregroundBlur"/>
</filter>
<filter id="filter3_f" x="1114" y="1479" width="590.001" height="509" filterUnits="userSpaceOnUse" color-interpolation-filters="sRGB">
<feFlood flood-opacity="0" result="BackgroundImageFix"/>
<feBlend mode="normal" in="SourceGraphic" in2="BackgroundImageFix" result="shape"/>
<feGaussianBlur stdDeviation="5" result="effect1_foregroundBlur"/>
</filter>
<filter id="filter4_f" x="1209" y="1177" width="533" height="430" filterUnits="userSpaceOnUse" color-interpolation-filters="sRGB">
<feFlood flood-opacity="0" result="BackgroundImageFix"/>
<feBlend mode="normal" in="SourceGraphic" in2="BackgroundImageFix" result="shape"/>
<feGaussianBlur stdDeviation="5" result="effect1_foregroundBlur"/>
</filter>
<filter id="filter5_f" x="777" y="1334" width="216" height="551" filterUnits="userSpaceOnUse" color-interpolation-filters="sRGB">
<feFlood flood-opacity="0" result="BackgroundImageFix"/>
<feBlend mode="normal" in="SourceGraphic" in2="BackgroundImageFix" result="shape"/>
<feGaussianBlur stdDeviation="5" result="effect1_foregroundBlur"/>
</filter>
<filter id="filter6_f" x="1579" y="1581" width="260" height="225" filterUnits="userSpaceOnUse" color-interpolation-filters="sRGB">
<feFlood flood-opacity="0" result="BackgroundImageFix"/>
<feBlend mode="normal" in="SourceGraphic" in2="BackgroundImageFix" result="shape"/>
<feGaussianBlur stdDeviation="5" result="effect1_foregroundBlur"/>
</filter>
<filter id="filter7_f" x="1673" y="1626" width="122" height="27" filterUnits="userSpaceOnUse" color-interpolation-filters="sRGB">
<feFlood flood-opacity="0" result="BackgroundImageFix"/>
<feBlend mode="normal" in="SourceGraphic" in2="BackgroundImageFix" result="shape"/>
<feGaussianBlur stdDeviation="5" result="effect1_foregroundBlur"/>
</filter>
<filter id="filter8_f" x="1673" y="1643" width="122" height="26" filterUnits="userSpaceOnUse" color-interpolation-filters="sRGB">
<feFlood flood-opacity="0" result="BackgroundImageFix"/>
<feBlend mode="normal" in="SourceGraphic" in2="BackgroundImageFix" result="shape"/>
<feGaussianBlur stdDeviation="5" result="effect1_foregroundBlur"/>
</filter>
<filter id="filter9_f" x="1623" y="1617" width="56" height="62" filterUnits="userSpaceOnUse" color-interpolation-filters="sRGB">
<feFlood flood-opacity="0" result="BackgroundImageFix"/>
<feBlend mode="normal" in="SourceGraphic" in2="BackgroundImageFix" result="shape"/>
<feGaussianBlur stdDeviation="5" result="effect1_foregroundBlur"/>
</filter>
<filter id="filter10_f" x="1623" y="1677" width="172" height="27" filterUnits="userSpaceOnUse" color-interpolation-filters="sRGB">
<feFlood flood-opacity="0" result="BackgroundImageFix"/>
<feBlend mode="normal" in="SourceGraphic" in2="BackgroundImageFix" result="shape"/>
<feGaussianBlur stdDeviation="5" result="effect1_foregroundBlur"/>
</filter>
<filter id="filter11_f" x="1623" y="1694" width="172" height="26" filterUnits="userSpaceOnUse" color-interpolation-filters="sRGB">
<feFlood flood-opacity="0" result="BackgroundImageFix"/>
<feBlend mode="normal" in="SourceGraphic" in2="BackgroundImageFix" result="shape"/>
<feGaussianBlur stdDeviation="5" result="effect1_foregroundBlur"/>
</filter>
<filter id="filter12_f" x="1623" y="1711" width="172" height="26" filterUnits="userSpaceOnUse" color-interpolation-filters="sRGB">
<feFlood flood-opacity="0" result="BackgroundImageFix"/>
<feBlend mode="normal" in="SourceGraphic" in2="BackgroundImageFix" result="shape"/>
<feGaussianBlur stdDeviation="5" result="effect1_foregroundBlur"/>
</filter>
<filter id="filter13_f" x="1623" y="1727" width="172" height="27" filterUnits="userSpaceOnUse" color-interpolation-filters="sRGB">
<feFlood flood-opacity="0" result="BackgroundImageFix"/>
<feBlend mode="normal" in="SourceGraphic" in2="BackgroundImageFix" result="shape"/>
<feGaussianBlur stdDeviation="5" result="effect1_foregroundBlur"/>
</filter>
<filter id="filter14_f" x="1623" y="1745" width="172" height="26" filterUnits="userSpaceOnUse" color-interpolation-filters="sRGB">
<feFlood flood-opacity="0" result="BackgroundImageFix"/>
<feBlend mode="normal" in="SourceGraphic" in2="BackgroundImageFix" result="shape"/>
<feGaussianBlur stdDeviation="5" result="effect1_foregroundBlur"/>
</filter>
<filter id="filter15_f" x="284.498" y="1772.29" width="122.254" height="214.559" filterUnits="userSpaceOnUse" color-interpolation-filters="sRGB">
<feFlood flood-opacity="0" result="BackgroundImageFix"/>
<feBlend mode="normal" in="SourceGraphic" in2="BackgroundImageFix" result="shape"/>
<feGaussianBlur stdDeviation="5" result="effect1_foregroundBlur"/>
</filter>
<filter id="filter16_f" x="308.728" y="1451.29" width="208.92" height="438.348" filterUnits="userSpaceOnUse" color-interpolation-filters="sRGB">
<feFlood flood-opacity="0" result="BackgroundImageFix"/>
<feBlend mode="normal" in="SourceGraphic" in2="BackgroundImageFix" result="shape"/>
<feGaussianBlur stdDeviation="5" result="effect1_foregroundBlur"/>
</filter>
<filter id="filter17_f" x="602.55" y="2393.16" width="83.8082" height="186.805" filterUnits="userSpaceOnUse" color-interpolation-filters="sRGB">
<feFlood flood-opacity="0" result="BackgroundImageFix"/>
<feBlend mode="normal" in="SourceGraphic" in2="BackgroundImageFix" result="shape"/>
<feGaussianBlur stdDeviation="5" result="effect1_foregroundBlur"/>
</filter>
<filter id="filter18_f" x="593.273" y="2547.58" width="155.906" height="72.5211" filterUnits="userSpaceOnUse" color-interpolation-filters="sRGB">
<feFlood flood-opacity="0" result="BackgroundImageFix"/>
<feBlend mode="normal" in="SourceGraphic" in2="BackgroundImageFix" result="shape"/>
<feGaussianBlur stdDeviation="5" result="effect1_foregroundBlur"/>
</filter>
<filter id="filter19_f" x="242.768" y="2356.93" width="147.969" height="189.52" filterUnits="userSpaceOnUse" color-interpolation-filters="sRGB">
<feFlood flood-opacity="0" result="BackgroundImageFix"/>
<feBlend mode="normal" in="SourceGraphic" in2="BackgroundImageFix" result="shape"/>
<feGaussianBlur stdDeviation="5" result="effect1_foregroundBlur"/>
</filter>
<filter id="filter20_f" x="217.372" y="2493.19" width="148.196" height="124.725" filterUnits="userSpaceOnUse" color-interpolation-filters="sRGB">
<feFlood flood-opacity="0" result="BackgroundImageFix"/>
<feBlend mode="normal" in="SourceGraphic" in2="BackgroundImageFix" result="shape"/>
<feGaussianBlur stdDeviation="5" result="effect1_foregroundBlur"/>
</filter>
<filter id="filter21_f" x="250.162" y="1730.98" width="477.863" height="813.768" filterUnits="userSpaceOnUse" color-interpolation-filters="sRGB">
<feFlood flood-opacity="0" result="BackgroundImageFix"/>
<feBlend mode="normal" in="SourceGraphic" in2="BackgroundImageFix" result="shape"/>
<feGaussianBlur stdDeviation="5" result="effect1_foregroundBlur"/>
</filter>
<filter id="filter22_f" x="381.002" y="1232.79" width="193.259" height="193.259" filterUnits="userSpaceOnUse" color-interpolation-filters="sRGB">
<feFlood flood-opacity="0" result="BackgroundImageFix"/>
<feBlend mode="normal" in="SourceGraphic" in2="BackgroundImageFix" result="shape"/>
<feGaussianBlur stdDeviation="5" result="effect1_foregroundBlur"/>
</filter>
<filter id="filter23_f" x="419.079" y="1427.17" width="266.891" height="395.311" filterUnits="userSpaceOnUse" color-interpolation-filters="sRGB">
<feFlood flood-opacity="0" result="BackgroundImageFix"/>
<feBlend mode="normal" in="SourceGraphic" in2="BackgroundImageFix" result="shape"/>
<feGaussianBlur stdDeviation="5" result="effect1_foregroundBlur"/>
</filter>
<filter id="filter24_f" x="519.214" y="1571.13" width="132.824" height="208.991" filterUnits="userSpaceOnUse" color-interpolation-filters="sRGB">
<feFlood flood-opacity="0" result="BackgroundImageFix"/>
<feBlend mode="normal" in="SourceGraphic" in2="BackgroundImageFix" result="shape"/>
<feGaussianBlur stdDeviation="5" result="effect1_foregroundBlur"/>
</filter>
<filter id="filter25_f" x="656.446" y="1743.75" width="168.677" height="176.928" filterUnits="userSpaceOnUse" color-interpolation-filters="sRGB">
<feFlood flood-opacity="0" result="BackgroundImageFix"/>
<feBlend mode="normal" in="SourceGraphic" in2="BackgroundImageFix" result="shape"/>
<feGaussianBlur stdDeviation="5" result="effect1_foregroundBlur"/>
</filter>
<filter id="filter26_f" x="481.465" y="1435.43" width="318.753" height="422.005" filterUnits="userSpaceOnUse" color-interpolation-filters="sRGB">
<feFlood flood-opacity="0" result="BackgroundImageFix"/>
<feBlend mode="normal" in="SourceGraphic" in2="BackgroundImageFix" result="shape"/>
<feGaussianBlur stdDeviation="5" result="effect1_foregroundBlur"/>
</filter>
<filter id="filter27_f" x="323.84" y="1175.52" width="251.33" height="250.622" filterUnits="userSpaceOnUse" color-interpolation-filters="sRGB">
<feFlood flood-opacity="0" result="BackgroundImageFix"/>
<feBlend mode="normal" in="SourceGraphic" in2="BackgroundImageFix" result="shape"/>
<feGaussianBlur stdDeviation="5" result="effect1_foregroundBlur"/>
</filter>
<filter id="filter28_f" x="36" y="1300.02" width="334.632" height="349.885" filterUnits="userSpaceOnUse" color-interpolation-filters="sRGB">
<feFlood flood-opacity="0" result="BackgroundImageFix"/>
<feBlend mode="normal" in="SourceGraphic" in2="BackgroundImageFix" result="shape"/>
<feGaussianBlur stdDeviation="5" result="effect1_foregroundBlur"/>
</filter>
<filter id="filter29_f" x="802" y="1507" width="67" height="67" filterUnits="userSpaceOnUse" color-interpolation-filters="sRGB">
<feFlood flood-opacity="0" result="BackgroundImageFix"/>
<feBlend mode="normal" in="SourceGraphic" in2="BackgroundImageFix" result="shape"/>
<feGaussianBlur stdDeviation="5" result="effect1_foregroundBlur"/>
</filter>
<filter id="filter30_f" x="1549" y="1290" width="67" height="67" filterUnits="userSpaceOnUse" color-interpolation-filters="sRGB">
<feFlood flood-opacity="0" result="BackgroundImageFix"/>
<feBlend mode="normal" in="SourceGraphic" in2="BackgroundImageFix" result="shape"/>
<feGaussianBlur stdDeviation="5" result="effect1_foregroundBlur"/>
</filter>
<filter id="filter31_f" x="960" y="1076" width="275" height="295" filterUnits="userSpaceOnUse" color-interpolation-filters="sRGB">
<feFlood flood-opacity="0" result="BackgroundImageFix"/>
<feBlend mode="normal" in="SourceGraphic" in2="BackgroundImageFix" result="shape"/>
<feGaussianBlur stdDeviation="5" result="effect1_foregroundBlur"/>
</filter>
<filter id="filter32_f" x="1053" y="1134" width="161" height="29" filterUnits="userSpaceOnUse" color-interpolation-filters="sRGB">
<feFlood flood-opacity="0" result="BackgroundImageFix"/>
<feBlend mode="normal" in="SourceGraphic" in2="BackgroundImageFix" result="shape"/>
<feGaussianBlur stdDeviation="5" result="effect1_foregroundBlur"/>
</filter>
<filter id="filter33_f" x="1053" y="1157" width="161" height="29" filterUnits="userSpaceOnUse" color-interpolation-filters="sRGB">
<feFlood flood-opacity="0" result="BackgroundImageFix"/>
<feBlend mode="normal" in="SourceGraphic" in2="BackgroundImageFix" result="shape"/>
<feGaussianBlur stdDeviation="5" result="effect1_foregroundBlur"/>
</filter>
<filter id="filter34_f" x="983" y="1122" width="70" height="78" filterUnits="userSpaceOnUse" color-interpolation-filters="sRGB">
<feFlood flood-opacity="0" result="BackgroundImageFix"/>
<feBlend mode="normal" in="SourceGraphic" in2="BackgroundImageFix" result="shape"/>
<feGaussianBlur stdDeviation="5" result="effect1_foregroundBlur"/>
</filter>
<filter id="filter35_f" x="982" y="1205" width="231" height="28" filterUnits="userSpaceOnUse" color-interpolation-filters="sRGB">
<feFlood flood-opacity="0" result="BackgroundImageFix"/>
<feBlend mode="normal" in="SourceGraphic" in2="BackgroundImageFix" result="shape"/>
<feGaussianBlur stdDeviation="5" result="effect1_foregroundBlur"/>
</filter>
<filter id="filter36_f" x="982" y="1228" width="231" height="29" filterUnits="userSpaceOnUse" color-interpolation-filters="sRGB">
<feFlood flood-opacity="0" result="BackgroundImageFix"/>
<feBlend mode="normal" in="SourceGraphic" in2="BackgroundImageFix" result="shape"/>
<feGaussianBlur stdDeviation="5" result="effect1_foregroundBlur"/>
</filter>
<filter id="filter37_f" x="982" y="1251" width="231" height="28" filterUnits="userSpaceOnUse" color-interpolation-filters="sRGB">
<feFlood flood-opacity="0" result="BackgroundImageFix"/>
<feBlend mode="normal" in="SourceGraphic" in2="BackgroundImageFix" result="shape"/>
<feGaussianBlur stdDeviation="5" result="effect1_foregroundBlur"/>
</filter>
<filter id="filter38_f" x="982" y="1274" width="231" height="29" filterUnits="userSpaceOnUse" color-interpolation-filters="sRGB">
<feFlood flood-opacity="0" result="BackgroundImageFix"/>
<feBlend mode="normal" in="SourceGraphic" in2="BackgroundImageFix" result="shape"/>
<feGaussianBlur stdDeviation="5" result="effect1_foregroundBlur"/>
</filter>
<filter id="filter39_f" x="982" y="1297" width="231" height="29" filterUnits="userSpaceOnUse" color-interpolation-filters="sRGB">
<feFlood flood-opacity="0" result="BackgroundImageFix"/>
<feBlend mode="normal" in="SourceGraphic" in2="BackgroundImageFix" result="shape"/>
<feGaussianBlur stdDeviation="5" result="effect1_foregroundBlur"/>
</filter>
<filter id="filter40_f" x="1277" y="1922" width="67" height="67" filterUnits="userSpaceOnUse" color-interpolation-filters="sRGB">
<feFlood flood-opacity="0" result="BackgroundImageFix"/>
<feBlend mode="normal" in="SourceGraphic" in2="BackgroundImageFix" result="shape"/>
<feGaussianBlur stdDeviation="5" result="effect1_foregroundBlur"/>
</filter>
<filter id="filter41_f" x="1161" y="1579" width="235" height="164" filterUnits="userSpaceOnUse" color-interpolation-filters="sRGB">
<feFlood flood-opacity="0" result="BackgroundImageFix"/>
<feBlend mode="normal" in="SourceGraphic" in2="BackgroundImageFix" result="shape"/>
<feGaussianBlur stdDeviation="5" result="effect1_foregroundBlur"/>
</filter>
<filter id="filter42_f" x="1777" y="1558" width="75" height="74" filterUnits="userSpaceOnUse" color-interpolation-filters="sRGB">
<feFlood flood-opacity="0" result="BackgroundImageFix"/>
<feBlend mode="normal" in="SourceGraphic" in2="BackgroundImageFix" result="shape"/>
<feGaussianBlur stdDeviation="5" result="effect1_foregroundBlur"/>
</filter>
<filter id="filter43_f" x="1792" y="1574" width="44" height="41" filterUnits="userSpaceOnUse" color-interpolation-filters="sRGB">
<feFlood flood-opacity="0" result="BackgroundImageFix"/>
<feBlend mode="normal" in="SourceGraphic" in2="BackgroundImageFix" result="shape"/>
<feGaussianBlur stdDeviation="5" result="effect1_foregroundBlur"/>
</filter>
<filter id="filter44_f" x="1168" y="1055" width="84" height="82" filterUnits="userSpaceOnUse" color-interpolation-filters="sRGB">
<feFlood flood-opacity="0" result="BackgroundImageFix"/>
<feBlend mode="normal" in="SourceGraphic" in2="BackgroundImageFix" result="shape"/>
<feGaussianBlur stdDeviation="5" result="effect1_foregroundBlur"/>
</filter>
<filter id="filter45_f" x="1187" y="1075" width="46" height="43" filterUnits="userSpaceOnUse" color-interpolation-filters="sRGB">
<feFlood flood-opacity="0" result="BackgroundImageFix"/>
<feBlend mode="normal" in="SourceGraphic" in2="BackgroundImageFix" result="shape"/>
<feGaussianBlur stdDeviation="5" result="effect1_foregroundBlur"/>
</filter>
</defs>
</svg>
