<svg width="2279" height="2037" viewBox="0 0 2279 2037" fill="none" xmlns="http://www.w3.org/2000/svg">
<g filter="url(#filter0_f)">
<path d="M2132.6 172H240.404C202.626 172 172 202.626 172 240.404V273.596C172 311.374 202.626 342 240.404 342H2132.6C2170.37 342 2201 311.374 2201 273.596V240.404C2201 202.626 2170.37 172 2132.6 172Z" fill="#00BFA6"/>
</g>
<g filter="url(#filter1_f)">
<path d="M237.592 203.027H274.082C278.535 203.027 282.738 204.919 286.69 208.705C290.698 212.435 292.702 216.971 292.702 222.316C292.702 224.32 291.979 226.017 290.531 227.409C289.14 228.801 287.581 229.497 285.855 229.497C283.462 229.497 281.819 228.968 280.929 227.91C280.038 226.797 279.175 224.765 278.34 221.815C277.561 218.864 275.779 217.389 272.996 217.389H238.343C236.673 217.389 235.838 217.918 235.838 218.976C235.838 219.644 236.2 220.423 236.924 221.314L288.945 287.864C291.45 291.093 292.702 294.544 292.702 298.218C292.702 302.393 291.172 306.067 288.11 309.24C285.104 312.413 281.736 314 278.006 314H240.18C235.17 314 230.8 312.107 227.07 308.322C223.396 304.481 221.559 300.278 221.559 295.713C221.559 290.48 224.009 287.864 228.907 287.864C230.8 287.864 232.414 288.56 233.75 289.952C235.086 291.288 235.754 292.874 235.754 294.711C235.754 296.214 236.256 297.467 237.258 298.469C238.315 299.471 239.623 299.972 241.182 299.972H276.086C277.589 299.972 278.34 299.387 278.34 298.218C278.34 297.662 277.978 296.938 277.255 296.047L225.317 229.497C222.867 226.324 221.643 222.872 221.643 219.143C221.643 214.8 223.201 211.043 226.319 207.87C229.436 204.641 233.194 203.027 237.592 203.027ZM388.729 217.222H339.129V251.374H360.505C362.398 251.374 364.04 252.07 365.432 253.462C366.824 254.853 367.52 256.495 367.52 258.388C367.52 260.392 366.824 262.09 365.432 263.482C364.096 264.873 362.454 265.569 360.505 265.569H339.129V299.972H388.896C390.789 299.972 392.431 300.668 393.822 302.059C395.214 303.395 395.91 305.038 395.91 306.986C395.91 308.934 395.186 310.604 393.739 311.996C392.347 313.332 390.677 314 388.729 314H325.101V203.027H388.729C390.677 203.027 392.347 203.75 393.739 205.198C395.186 206.59 395.91 208.26 395.91 210.208C395.91 212.101 395.186 213.743 393.739 215.134C392.347 216.526 390.677 217.222 388.729 217.222ZM428.475 314V210.041C428.475 208.148 429.171 206.506 430.563 205.114C431.955 203.723 433.597 203.027 435.49 203.027C437.382 203.027 439.024 203.723 440.416 205.114C441.808 206.506 442.504 208.148 442.504 210.041V299.972H492.103C494.052 299.972 495.722 300.668 497.113 302.059C498.561 303.395 499.285 305.038 499.285 306.986C499.285 308.934 498.561 310.604 497.113 311.996C495.722 313.332 494.052 314 492.103 314H428.475ZM595.478 217.222H545.878V251.374H567.255C569.147 251.374 570.789 252.07 572.181 253.462C573.573 254.853 574.269 256.495 574.269 258.388C574.269 260.392 573.573 262.09 572.181 263.482C570.845 264.873 569.203 265.569 567.255 265.569H545.878V299.972H595.645C597.538 299.972 599.18 300.668 600.572 302.059C601.963 303.395 602.659 305.038 602.659 306.986C602.659 308.934 601.935 310.604 600.488 311.996C599.096 313.332 597.426 314 595.478 314H531.85V203.027H595.478C597.426 203.027 599.096 203.75 600.488 205.198C601.935 206.59 602.659 208.26 602.659 210.208C602.659 212.101 601.935 213.743 600.488 215.134C599.096 216.526 597.426 217.222 595.478 217.222ZM673.719 299.972H699.02C700.968 299.972 702.638 300.668 704.03 302.059C705.477 303.395 706.201 305.038 706.201 306.986C706.201 308.934 705.477 310.604 704.03 311.996C702.638 313.332 700.968 314 699.02 314H672.8C669.46 314 666.009 312.942 662.446 310.827C658.883 308.712 656.406 306.346 655.014 303.729L638.815 272.416C636.644 267.907 635.559 263.287 635.559 258.555C635.559 253.322 636.588 248.785 638.648 244.944L655.014 213.965C656.573 211.071 658.995 208.538 662.279 206.367C665.563 204.14 668.736 203.027 671.798 203.027H699.521C701.469 203.027 703.111 203.723 704.447 205.114C705.839 206.506 706.535 208.148 706.535 210.041C706.535 211.989 705.839 213.687 704.447 215.134C703.111 216.526 701.469 217.222 699.521 217.222H672.8C670.573 217.222 668.764 218.53 667.373 221.147L651.841 250.205C650.617 252.487 650.004 255.187 650.004 258.305C650.004 261.589 650.672 264.484 652.008 266.989L666.872 295.546C668.263 298.497 670.546 299.972 673.719 299.972ZM738.432 222.149V203.194H809.241V222.316C809.241 224.264 808.545 225.934 807.154 227.326C805.762 228.662 804.12 229.33 802.227 229.33C800.279 229.33 798.581 228.634 797.134 227.242C795.742 225.85 795.046 224.208 795.046 222.316V217.222H780.851V306.986C780.851 308.934 780.155 310.604 778.763 311.996C777.372 313.332 775.729 314 773.837 314C771.833 314 770.135 313.332 768.743 311.996C767.351 310.604 766.656 308.934 766.656 306.986V217.222H752.46V222.149C752.46 224.097 751.765 225.767 750.373 227.159C749.037 228.495 747.395 229.163 745.446 229.163C743.498 229.163 741.828 228.495 740.436 227.159C739.1 225.767 738.432 224.097 738.432 222.149ZM987.934 260.81V306.986C987.934 308.934 987.238 310.604 985.846 311.996C984.455 313.332 982.813 314 980.92 314C978.916 314 977.218 313.332 975.826 311.996C974.435 310.604 973.739 308.934 973.739 306.986V260.81L945.515 225.071V210.208C945.515 208.204 946.183 206.506 947.519 205.114C948.911 203.723 950.581 203.027 952.529 203.027C954.478 203.027 956.148 203.75 957.54 205.198C958.987 206.59 959.711 208.26 959.711 210.208V219.811L980.753 246.948L1002.13 219.978V210.208C1002.13 208.26 1002.83 206.59 1004.22 205.198C1005.61 203.75 1007.25 203.027 1009.14 203.027C1010.98 203.027 1012.59 203.695 1013.99 205.031C1015.43 206.311 1016.16 208.037 1016.16 210.208V224.904L987.934 260.81ZM1100.66 213.297L1116.11 244.777C1118.28 249.064 1119.36 253.712 1119.36 258.722C1119.36 263.621 1118.28 268.241 1116.11 272.583L1100.66 303.729C1097.38 310.576 1091.81 314 1083.96 314C1080.23 314 1076.86 313.026 1073.86 311.077C1070.91 309.129 1068.68 306.68 1067.18 303.729L1051.65 272.583C1049.59 268.52 1048.56 263.899 1048.56 258.722C1048.56 253.545 1049.59 248.897 1051.65 244.777L1067.18 213.297C1070.68 206.45 1076.28 203.027 1083.96 203.027C1091.75 203.027 1097.32 206.45 1100.66 213.297ZM1079.28 220.312L1064.76 249.871C1063.42 252.821 1062.75 255.716 1062.75 258.555C1062.75 261.617 1063.42 264.539 1064.76 267.323L1079.7 297.216C1080.48 299.053 1081.9 299.972 1083.96 299.972C1085.74 299.972 1087.11 299.053 1088.05 297.216L1103.08 267.323C1104.47 264.372 1105.17 261.45 1105.17 258.555C1105.17 255.493 1104.47 252.599 1103.08 249.871L1088.39 220.312C1087.44 218.141 1085.96 217.055 1083.96 217.055C1081.96 217.055 1080.4 218.141 1079.28 220.312ZM1151.93 292.958V210.208C1151.93 208.26 1152.63 206.59 1154.02 205.198C1155.41 203.75 1157.05 203.027 1158.94 203.027C1160.84 203.027 1162.48 203.723 1163.87 205.114C1165.26 206.506 1165.96 208.148 1165.96 210.041V292.958C1165.96 294.795 1166.65 296.409 1168.05 297.801C1169.44 299.137 1171.08 299.805 1172.97 299.805H1201.7C1203.65 299.805 1205.29 299.137 1206.62 297.801C1208.02 296.465 1208.71 294.85 1208.71 292.958V210.208C1208.71 208.204 1209.38 206.506 1210.72 205.114C1212.11 203.723 1213.78 203.027 1215.73 203.027C1217.67 203.027 1219.32 203.723 1220.65 205.114C1222.04 206.506 1222.74 208.204 1222.74 210.208V292.791C1222.74 298.58 1220.65 303.562 1216.48 307.737C1212.36 311.912 1207.43 314 1201.7 314H1172.97C1167.18 314 1162.23 311.94 1158.11 307.821C1153.99 303.701 1151.93 298.747 1151.93 292.958ZM1255.64 306.986V203.027H1305.24C1310.97 203.027 1315.9 205.114 1320.02 209.289C1324.19 213.464 1326.28 218.447 1326.28 224.236V232.252C1326.28 238.097 1324.22 243.107 1320.1 247.282C1315.98 251.402 1311.03 253.462 1305.24 253.462H1296.3L1325.03 302.727C1325.92 304.175 1326.36 305.622 1326.36 307.069C1326.36 308.962 1325.64 310.604 1324.19 311.996C1322.75 313.332 1321.1 314 1319.27 314C1316.48 314 1314.37 312.747 1312.92 310.242L1279.94 253.462H1269.83V306.986C1269.83 308.934 1269.11 310.604 1267.66 311.996C1266.27 313.332 1264.6 314 1262.65 314C1260.7 314 1259.03 313.332 1257.64 311.996C1256.31 310.604 1255.64 308.934 1255.64 306.986ZM1269.67 239.433H1305.24C1307.19 239.433 1308.83 238.765 1310.17 237.429C1311.56 236.038 1312.25 234.368 1312.25 232.419V224.236C1312.25 222.288 1311.56 220.646 1310.17 219.31C1308.83 217.918 1307.19 217.222 1305.24 217.222H1269.67V239.433ZM1462.22 306.986V203.027H1511.99C1517.72 203.027 1522.65 205.114 1526.77 209.289C1530.94 213.464 1533.03 218.447 1533.03 224.236V250.539C1533.03 256.328 1530.97 261.283 1526.85 265.402C1522.73 269.522 1517.78 271.581 1511.99 271.581H1476.42V306.986C1476.42 308.934 1475.72 310.604 1474.33 311.996C1472.99 313.332 1471.35 314 1469.4 314C1467.4 314 1465.7 313.332 1464.31 311.996C1462.92 310.604 1462.22 308.934 1462.22 306.986ZM1476.42 257.553H1511.99C1513.88 257.553 1515.52 256.885 1516.91 255.549C1518.31 254.157 1519 252.487 1519 250.539V224.236C1519 222.288 1518.31 220.646 1516.91 219.31C1515.52 217.918 1513.88 217.222 1511.99 217.222H1476.42V257.553ZM1565.76 306.986V203.027H1615.36C1621.1 203.027 1626.02 205.114 1630.14 209.289C1634.32 213.464 1636.4 218.447 1636.4 224.236V232.252C1636.4 238.097 1634.35 243.107 1630.23 247.282C1626.11 251.402 1621.15 253.462 1615.36 253.462H1606.43L1635.15 302.727C1636.04 304.175 1636.49 305.622 1636.49 307.069C1636.49 308.962 1635.76 310.604 1634.32 311.996C1632.87 313.332 1631.23 314 1629.39 314C1626.61 314 1624.49 312.747 1623.04 310.242L1590.06 253.462H1579.96V306.986C1579.96 308.934 1579.23 310.604 1577.79 311.996C1576.4 313.332 1574.73 314 1572.78 314C1570.83 314 1569.16 313.332 1567.77 311.996C1566.43 310.604 1565.76 308.934 1565.76 306.986ZM1579.79 239.433H1615.36C1617.31 239.433 1618.95 238.765 1620.29 237.429C1621.68 236.038 1622.38 234.368 1622.38 232.419V224.236C1622.38 222.288 1621.68 220.646 1620.29 219.31C1618.95 217.918 1617.31 217.222 1615.36 217.222H1579.79V239.433ZM1720.91 213.297L1736.36 244.777C1738.53 249.064 1739.61 253.712 1739.61 258.722C1739.61 263.621 1738.53 268.241 1736.36 272.583L1720.91 303.729C1717.62 310.576 1712.06 314 1704.21 314C1700.48 314 1697.11 313.026 1694.1 311.077C1691.15 309.129 1688.93 306.68 1687.42 303.729L1671.89 272.583C1669.83 268.52 1668.8 263.899 1668.8 258.722C1668.8 253.545 1669.83 248.897 1671.89 244.777L1687.42 213.297C1690.93 206.45 1696.53 203.027 1704.21 203.027C1712 203.027 1717.57 206.45 1720.91 213.297ZM1699.53 220.312L1685 249.871C1683.67 252.821 1683 255.716 1683 258.555C1683 261.617 1683.67 264.539 1685 267.323L1699.95 297.216C1700.73 299.053 1702.15 299.972 1704.21 299.972C1705.99 299.972 1707.35 299.053 1708.3 297.216L1723.33 267.323C1724.72 264.372 1725.42 261.45 1725.42 258.555C1725.42 255.493 1724.72 252.599 1723.33 249.871L1708.63 220.312C1707.69 218.141 1706.21 217.055 1704.21 217.055C1702.2 217.055 1700.65 218.141 1699.53 220.312ZM1779.19 292.791V270.579C1779.19 268.631 1779.86 266.989 1781.2 265.653C1782.59 264.261 1784.26 263.565 1786.21 263.565C1788.15 263.565 1789.8 264.261 1791.13 265.653C1792.52 266.989 1793.22 268.631 1793.22 270.579V292.958C1793.22 294.85 1793.92 296.465 1795.31 297.801C1796.7 299.137 1798.4 299.805 1800.4 299.805H1814.6C1816.54 299.805 1818.21 299.137 1819.61 297.801C1821.05 296.409 1821.78 294.739 1821.78 292.791V210.041C1821.78 208.093 1822.45 206.45 1823.78 205.114C1825.12 203.723 1826.73 203.027 1828.62 203.027C1830.52 203.027 1832.19 203.778 1833.63 205.281C1835.08 206.784 1835.81 208.482 1835.81 210.375V292.791C1835.81 298.691 1833.66 303.701 1829.38 307.821C1825.09 311.94 1820.16 314 1814.6 314H1800.4C1794.56 314 1789.55 311.912 1785.37 307.737C1781.25 303.562 1779.19 298.58 1779.19 292.791ZM1939.35 217.222H1889.75V251.374H1911.12C1913.02 251.374 1914.66 252.07 1916.05 253.462C1917.44 254.853 1918.14 256.495 1918.14 258.388C1918.14 260.392 1917.44 262.09 1916.05 263.482C1914.71 264.873 1913.07 265.569 1911.12 265.569H1889.75V299.972H1939.51C1941.41 299.972 1943.05 300.668 1944.44 302.059C1945.83 303.395 1946.53 305.038 1946.53 306.986C1946.53 308.934 1945.8 310.604 1944.36 311.996C1942.97 313.332 1941.3 314 1939.35 314H1875.72V203.027H1939.35C1941.3 203.027 1942.97 203.75 1944.36 205.198C1945.8 206.59 1946.53 208.26 1946.53 210.208C1946.53 212.101 1945.8 213.743 1944.36 215.134C1942.97 216.526 1941.3 217.222 1939.35 217.222ZM2017.59 299.972H2042.89C2044.84 299.972 2046.51 300.668 2047.9 302.059C2049.35 303.395 2050.07 305.038 2050.07 306.986C2050.07 308.934 2049.35 310.604 2047.9 311.996C2046.51 313.332 2044.84 314 2042.89 314H2016.67C2013.33 314 2009.88 312.942 2006.32 310.827C2002.75 308.712 2000.28 306.346 1998.88 303.729L1982.68 272.416C1980.51 267.907 1979.43 263.287 1979.43 258.555C1979.43 253.322 1980.46 248.785 1982.52 244.944L1998.88 213.965C2000.44 211.071 2002.86 208.538 2006.15 206.367C2009.43 204.14 2012.61 203.027 2015.67 203.027H2043.39C2045.34 203.027 2046.98 203.723 2048.32 205.114C2049.71 206.506 2050.4 208.148 2050.4 210.041C2050.4 211.989 2049.71 213.687 2048.32 215.134C2046.98 216.526 2045.34 217.222 2043.39 217.222H2016.67C2014.44 217.222 2012.63 218.53 2011.24 221.147L1995.71 250.205C1994.49 252.487 1993.87 255.187 1993.87 258.305C1993.87 261.589 1994.54 264.484 1995.88 266.989L2010.74 295.546C2012.13 298.497 2014.42 299.972 2017.59 299.972ZM2082.3 222.149V203.194H2153.11V222.316C2153.11 224.264 2152.41 225.934 2151.02 227.326C2149.63 228.662 2147.99 229.33 2146.1 229.33C2144.15 229.33 2142.45 228.634 2141 227.242C2139.61 225.85 2138.92 224.208 2138.92 222.316V217.222H2124.72V306.986C2124.72 308.934 2124.02 310.604 2122.63 311.996C2121.24 313.332 2119.6 314 2117.71 314C2115.7 314 2114 313.332 2112.61 311.996C2111.22 310.604 2110.53 308.934 2110.53 306.986V217.222H2096.33V222.149C2096.33 224.097 2095.63 225.767 2094.24 227.159C2092.91 228.495 2091.26 229.163 2089.32 229.163C2087.37 229.163 2085.7 228.495 2084.31 227.159C2082.97 225.767 2082.3 224.097 2082.3 222.149Z" fill="white"/>
</g>
<g filter="url(#filter2_f)">
<path d="M1996.56 1445.46C1993.2 1441.72 1990.72 1437.28 1989.29 1432.46C1987.85 1427.67 1987.51 1422.63 1988.29 1417.69C1989.07 1412.74 1990.94 1408.03 1993.77 1403.9C1996.62 1399.74 2000.35 1396.25 2004.7 1393.68L1978.92 1274.94L2038.79 1297.94L2054.14 1407.1C2058.07 1414.54 2059.08 1423.18 2056.97 1431.33C2054.83 1439.53 2049.73 1446.65 2042.67 1451.33C2035.53 1456.05 2026.93 1458.04 2018.45 1456.95C2009.99 1455.88 2002.2 1451.78 1996.54 1445.4L1996.56 1445.46Z" fill="#FFB8B8"/>
<path d="M1989.71 1352.82L1989.39 1351.68C1956.97 1234.33 1923.5 1112.85 1882.6 980.68L1882.35 979.81L1883.23 979.29C1906.01 966.29 1940.23 967.12 1962.92 981.29C1973.11 987.699 1981.08 997.091 1985.74 1008.19C1990.36 1019.21 1991.41 1031.4 1988.74 1043.05L2018.56 1195.43C2030.7 1245.24 2043.24 1296.81 2055.21 1347.63L2055.56 1349.09H2053.7C2031.86 1350.44 2009.3 1351.83 1991.24 1352.61L1989.71 1352.82Z" fill="#F50057"/>
<path d="M1714.36 1984.85H1671.88L1651.65 1824.24H1714.36V1984.85Z" fill="#FFB8B8"/>
<path d="M1725.2 2025.24H1588.2V2023.52C1588.21 2016.62 1589.59 2009.8 1592.28 2003.44C1594.96 1997.09 1598.89 1991.34 1603.83 1986.52C1613.91 1976.69 1627.43 1971.18 1641.52 1971.19H1725.22L1725.2 2025.24Z" fill="#2F2E41"/>
<path d="M2114.81 1950.52L2074.32 1963.15L2005.32 1816.15L2065.06 1797.52L2114.81 1950.52Z" fill="#FFB8B8"/>
<path d="M2007.07 2026.52L2006.44 2024.79C2004.32 2018.25 2003.53 2011.35 2004.13 2004.5C2004.72 1997.66 2006.68 1991 2009.9 1984.92C2016.48 1972.53 2027.7 1963.25 2041.11 1959.11L2120.86 1934.22L2137.56 1985.64L2007.07 2026.52Z" fill="#2F2E41"/>
<path d="M1899.71 873.07C1946.71 873.07 1984.86 835.71 1984.86 789.63C1984.86 743.55 1946.74 706.19 1899.71 706.19C1852.68 706.19 1814.56 743.52 1814.56 789.63C1814.56 835.74 1852.69 873.07 1899.71 873.07Z" fill="#FFB8B8"/>
<path d="M1937.94 774.13C1938.41 740.5 1924.04 707.13 1901.82 690.41C1891.28 682.269 1878.29 677.959 1864.98 678.189C1851.67 678.42 1838.83 683.178 1828.59 691.68C1806.72 709.19 1793.01 743 1794.18 776.68C1843.18 776.78 1892.21 776.94 1937.94 774.13Z" fill="#2F2E41"/>
<path d="M1738.56 1933.15L1736.86 1933C1699.86 1929.45 1661.67 1925.77 1625.53 1925.34H1623.53L1623.79 1923.46C1632.36 1862.68 1635.98 1799.53 1639.54 1738.46C1643.01 1678.16 1646.6 1615.78 1654.95 1556.55C1658.48 1540.67 1661.95 1525.02 1665.35 1509.39C1693.71 1380.16 1720.53 1258.12 1775.83 1137.29L1776.37 1136.15L1777.63 1136.3C1829.53 1142.48 1879.41 1161 1918.08 1188.55L1918.83 1189.07V1190C1918.11 1208.74 1917.32 1228.17 1918.45 1245.83C1935.96 1269.58 1947.59 1297.16 1952.37 1326.28C1957.14 1355.41 1954.94 1385.25 1945.93 1413.36C1961.15 1463.2 1976.93 1514.74 1992.93 1565.56C2031.93 1670.31 2072.28 1778.64 2113.65 1888.56L2114.31 1890.39L2112.42 1890.82C2082.64 1897.64 2051.95 1904.71 2021.67 1907.46H2020.53L2020 1906.46C1942.88 1765.86 1880.09 1617.88 1832.56 1464.73C1822.22 1495.61 1807.35 1523.4 1792.92 1550.48C1779.14 1574.96 1767.01 1600.33 1756.59 1626.42C1750.28 1677.81 1748.49 1733.42 1746.85 1787.28C1745.3 1838.14 1743.85 1886.09 1738.78 1931.39L1738.56 1933.15Z" fill="#2F2E41"/>
<path d="M1870.66 691.99C1907.56 684.17 1948.37 691.59 1977.36 715.99C2006.35 740.39 2021.06 782.6 2009.15 818.79C1997.24 854.98 1956.81 880.55 1920.26 871.1C1930.75 842.2 1918.97 806.69 1893.38 790.04C1863 770.3 1854.65 723.15 1870.66 691.99Z" fill="#2F2E41"/>
<path d="M1915.47 1192.15L1914.11 1191.53C1867.03 1170.47 1820.87 1154.32 1777.6 1139.59L1776.28 1139.32V1135.43L1777.16 1135.73C1777.16 1135.33 1777.54 1134.9 1777.73 1134.44C1778.33 1133.17 1778.73 1132.31 1779.08 1131.72C1782.71 1124.52 1785.57 1117.55 1788.35 1110.81C1791.13 1104.07 1794.15 1096.7 1797.96 1089.2C1788.74 1080.17 1782.4 1068.61 1779.75 1055.98C1777.12 1043.4 1778.3 1030.32 1783.15 1018.42C1792.6 996.25 1817.06 978.96 1842.64 976.08C1852.1 950.79 1872.93 897.62 1872.93 897.62C1872.93 897.62 1916.93 896.44 1934.56 894.25H1935.13C1973.73 902.53 2005.94 938.32 2013.47 981.25C2019.77 1017.5 2010.16 1058.95 1986.27 1097.98C1973.99 1117.1 1960.44 1135.36 1945.69 1152.64C1934.91 1165.82 1924.69 1178.3 1916.29 1190.83L1915.47 1192.15Z" fill="#F50057"/>
<path d="M2000.67 741.43C1974.84 737.63 1954.54 711.75 1957.47 686.34C1960.4 660.93 1986.08 640.02 2012.15 642.09C2038.22 644.16 2060.3 668.46 2059.15 694.03C2058 719.6 2033.64 746.34 2000.67 741.43Z" fill="#2F2E41"/>
<path d="M1996.64 724.94C1970.8 721.14 1950.51 695.26 1953.47 669.85C1954.77 661.157 1958.28 652.944 1963.67 646C1969.12 639.011 1976.24 633.509 1984.38 630C1963.52 634.48 1945.59 652.26 1943.2 673.23C1940.2 698.65 1960.53 724.52 1986.37 728.32C1996 729.808 2005.85 728.457 2014.73 724.43C2008.77 725.67 2002.65 725.85 1996.64 724.96V724.94Z" fill="#2F2E41"/>
<path d="M1495.56 1173.22C1498.07 1168.86 1501.5 1165.11 1505.62 1162.22C1511.89 1157.82 1519.42 1155.57 1527.08 1155.81C1534.73 1156.06 1542.11 1158.78 1548.09 1163.57L1653.75 1100.2L1651.56 1163.22L1551.56 1213.74C1545.6 1219.85 1537.64 1223.61 1529.13 1224.35C1520.63 1225.08 1512.15 1222.74 1505.23 1217.74C1498.37 1212.8 1493.57 1205.51 1491.76 1197.26C1489.99 1189.05 1491.34 1180.48 1495.56 1173.22V1173.22Z" fill="#FFB8B8"/>
<path d="M1582.42 1136.07L1583.42 1135.39C1685.61 1066.32 1791.42 994.95 1904.84 913.06L1905.56 912.53L1906.38 913.18C1926.49 929.89 1937.08 961.85 1930.99 987.48C1928.14 999.132 1921.74 1009.61 1912.69 1017.48C1903.54 1025.45 1892.18 1030.47 1880.13 1031.87L1743.47 1110.18C1699.57 1137.97 1654.16 1166.75 1609.22 1194.76L1607.96 1195.56L1607.24 1193.89C1598.64 1174.16 1589.78 1153.75 1583.01 1137.35L1582.42 1136.07Z" fill="#F50057"/>
<path d="M162.34 1279V1480.55H991.59V1279H162.34ZM333.75 1440C321.841 1440 310.198 1436.47 300.295 1429.86C290.392 1423.24 282.673 1413.84 278.115 1402.84C273.557 1391.83 272.363 1379.73 274.686 1368.05C277.009 1356.37 282.744 1345.64 291.165 1337.22C299.586 1328.79 310.315 1323.06 321.996 1320.74C333.676 1318.41 345.784 1319.61 356.786 1324.17C367.788 1328.72 377.192 1336.44 383.807 1346.35C390.422 1356.25 393.952 1367.89 393.95 1379.8C393.949 1387.7 392.39 1395.53 389.364 1402.83C386.338 1410.14 381.904 1416.77 376.314 1422.36C370.723 1427.95 364.087 1432.38 356.784 1435.4C349.481 1438.43 341.654 1439.98 333.75 1439.98V1440ZM880.37 1403.35H477.69V1390.25H880.37V1403.35ZM880.37 1369.35H477.69V1356.26H880.37V1369.35Z" fill="#F50057" fill-opacity="0.8"/>
<path d="M184.1 1300.77V1458.77H969.84V1300.77H184.1ZM333.75 1439.98C321.84 1439.98 310.198 1436.45 300.295 1429.84C290.392 1423.22 282.673 1413.82 278.115 1402.82C273.556 1391.81 272.363 1379.71 274.686 1368.03C277.009 1356.35 282.744 1345.62 291.165 1337.2C299.586 1328.77 310.315 1323.04 321.996 1320.72C333.676 1318.39 345.783 1319.59 356.786 1324.15C367.788 1328.7 377.191 1336.42 383.807 1346.33C390.422 1356.23 393.952 1367.87 393.95 1379.78C393.951 1387.69 392.395 1395.51 389.37 1402.82C386.345 1410.12 381.911 1416.76 376.32 1422.35C370.73 1427.94 364.093 1432.38 356.789 1435.4C349.484 1438.43 341.656 1439.98 333.75 1439.98ZM880.37 1403.33H477.69V1390.25H880.37V1403.33ZM880.37 1369.33H477.69V1356.24H880.37V1369.33Z" fill="white"/>
<path d="M162.34 1279V1480.55H991.59V1279H162.34ZM333.75 1440C321.841 1440 310.198 1436.47 300.295 1429.86C290.392 1423.24 282.673 1413.84 278.115 1402.84C273.557 1391.83 272.363 1379.73 274.686 1368.05C277.009 1356.37 282.744 1345.64 291.165 1337.22C299.586 1328.79 310.315 1323.06 321.996 1320.74C333.676 1318.41 345.784 1319.61 356.786 1324.17C367.788 1328.72 377.192 1336.44 383.807 1346.35C390.422 1356.25 393.952 1367.89 393.95 1379.8C393.949 1387.7 392.39 1395.53 389.364 1402.83C386.338 1410.14 381.904 1416.77 376.314 1422.36C370.723 1427.95 364.087 1432.38 356.784 1435.4C349.481 1438.43 341.654 1439.98 333.75 1439.98V1440ZM880.37 1403.35H477.69V1390.25H880.37V1403.35ZM880.37 1369.35H477.69V1356.26H880.37V1369.35Z" fill="#F50057" fill-opacity="0.8"/>
<path d="M184.1 1300.77V1458.77H969.84V1300.77H184.1ZM333.75 1439.98C321.84 1439.98 310.198 1436.45 300.295 1429.84C290.392 1423.22 282.673 1413.82 278.115 1402.82C273.556 1391.81 272.363 1379.71 274.686 1368.03C277.009 1356.35 282.744 1345.62 291.165 1337.2C299.586 1328.77 310.315 1323.04 321.996 1320.72C333.676 1318.39 345.783 1319.59 356.786 1324.15C367.788 1328.7 377.191 1336.42 383.807 1346.33C390.422 1356.23 393.952 1367.87 393.95 1379.78C393.951 1387.69 392.395 1395.51 389.37 1402.82C386.345 1410.12 381.911 1416.76 376.32 1422.35C370.73 1427.94 364.093 1432.38 356.789 1435.4C349.484 1438.43 341.656 1439.98 333.75 1439.98ZM880.37 1403.33H477.69V1390.25H880.37V1403.33ZM880.37 1369.33H477.69V1356.24H880.37V1369.33Z" fill="white"/>
<path d="M551 859V1060.55H1380.25V859H551ZM722.41 1020C710.501 1020 698.858 1016.47 688.955 1009.86C679.052 1003.24 671.334 993.838 666.775 982.836C662.217 971.834 661.024 959.727 663.346 948.046C665.669 936.366 671.404 925.636 679.825 917.215C688.246 908.794 698.976 903.059 710.656 900.736C722.337 898.414 734.444 899.607 745.446 904.165C756.448 908.724 765.852 916.442 772.467 926.345C779.082 936.248 782.612 947.891 782.61 959.8C782.609 967.704 781.051 975.531 778.025 982.833C774.998 990.135 770.564 996.77 764.974 1002.36C759.384 1007.95 752.748 1012.38 745.444 1015.4C738.141 1018.43 730.314 1019.98 722.41 1019.98V1020ZM1269.03 983.35H866.35V970.25H1269.03V983.35ZM1269.03 949.35H866.35V936.26H1269.03V949.35Z" fill="#00BFA6"/>
<path d="M572.76 880.77V1038.77H1358.5V880.77H572.76ZM722.41 1019.98C710.5 1019.98 698.858 1016.45 688.955 1009.84C679.052 1003.22 671.333 993.818 666.775 982.816C662.216 971.814 661.023 959.707 663.346 948.026C665.669 936.346 671.404 925.616 679.825 917.195C688.246 908.774 698.975 903.039 710.656 900.716C722.336 898.394 734.443 899.587 745.446 904.145C756.448 908.704 765.852 916.422 772.467 926.325C779.082 936.228 782.612 947.871 782.61 959.78C782.611 967.686 781.055 975.515 778.03 982.819C775.005 990.123 770.571 996.76 764.98 1002.35C759.39 1007.94 752.753 1012.38 745.449 1015.4C738.144 1018.43 730.316 1019.98 722.41 1019.98ZM1269.03 983.33H866.35V970.25H1269.03V983.33ZM1269.03 949.33H866.35V936.24H1269.03V949.33Z" fill="white"/>
<path d="M551 859V1060.55H1380.25V859H551ZM722.41 1020C710.501 1020 698.858 1016.47 688.955 1009.86C679.052 1003.24 671.334 993.838 666.775 982.836C662.217 971.834 661.024 959.727 663.346 948.046C665.669 936.366 671.404 925.636 679.825 917.215C688.246 908.794 698.976 903.059 710.656 900.736C722.337 898.414 734.444 899.607 745.446 904.165C756.448 908.724 765.852 916.442 772.467 926.345C779.082 936.248 782.612 947.891 782.61 959.8C782.609 967.704 781.051 975.531 778.025 982.833C774.998 990.135 770.564 996.77 764.974 1002.36C759.384 1007.95 752.748 1012.38 745.444 1015.4C738.141 1018.43 730.314 1019.98 722.41 1019.98V1020ZM1269.03 983.35H866.35V970.25H1269.03V983.35ZM1269.03 949.35H866.35V936.26H1269.03V949.35Z" fill="#00BFA6"/>
<path d="M572.76 880.77V1038.77H1358.5V880.77H572.76ZM722.41 1019.98C710.5 1019.98 698.858 1016.45 688.955 1009.84C679.052 1003.22 671.333 993.818 666.775 982.816C662.216 971.814 661.023 959.707 663.346 948.026C665.669 936.346 671.404 925.616 679.825 917.195C688.246 908.774 698.975 903.039 710.656 900.716C722.336 898.394 734.443 899.587 745.446 904.145C756.448 908.704 765.852 916.422 772.467 926.325C779.082 936.228 782.612 947.871 782.61 959.78C782.611 967.686 781.055 975.515 778.03 982.819C775.005 990.123 770.571 996.76 764.98 1002.35C759.39 1007.94 752.753 1012.38 745.449 1015.4C738.144 1018.43 730.316 1019.98 722.41 1019.98ZM1269.03 983.33H866.35V970.25H1269.03V983.33ZM1269.03 949.33H866.35V936.24H1269.03V949.33Z" fill="white"/>
<path d="M162.34 1576.35V1777.9H991.59V1576.35H162.34ZM333.75 1737.35C321.841 1737.35 310.198 1733.82 300.295 1727.21C290.392 1720.59 282.673 1711.19 278.115 1700.19C273.557 1689.18 272.363 1677.08 274.686 1665.4C277.009 1653.72 282.744 1642.99 291.165 1634.57C299.586 1626.14 310.315 1620.41 321.996 1618.09C333.676 1615.76 345.784 1616.96 356.786 1621.52C367.788 1626.07 377.192 1633.79 383.807 1643.7C390.422 1653.6 393.952 1665.24 393.95 1677.15C393.945 1693.11 387.6 1708.42 376.311 1719.7C365.021 1730.99 349.712 1737.33 333.75 1737.33V1737.35ZM880.37 1700.7H477.69V1687.6H880.37V1700.7ZM880.37 1666.7H477.69V1653.61H880.37V1666.7Z" fill="#F50057"/>
<path d="M184.1 1598.11V1756.11H969.84V1598.11H184.1ZM333.75 1737.33C321.84 1737.33 310.198 1733.8 300.295 1727.19C290.392 1720.57 282.673 1711.17 278.115 1700.17C273.556 1689.16 272.363 1677.06 274.686 1665.38C277.009 1653.7 282.744 1642.97 291.165 1634.55C299.586 1626.12 310.315 1620.39 321.996 1618.07C333.676 1615.74 345.783 1616.94 356.786 1621.5C367.788 1626.05 377.191 1633.77 383.807 1643.68C390.422 1653.58 393.952 1665.22 393.95 1677.13C393.95 1693.1 387.607 1708.41 376.317 1719.7C365.028 1730.99 349.716 1737.33 333.75 1737.33V1737.33ZM880.37 1700.68H477.69V1687.6H880.37V1700.68ZM880.37 1666.68H477.69V1653.59H880.37V1666.68Z" fill="white"/>
</g>
<defs>
<filter id="filter0_f" x="0.989365" y="0.989365" width="2371.02" height="512.021" filterUnits="userSpaceOnUse" color-interpolation-filters="sRGB">
<feFlood flood-opacity="0" result="BackgroundImageFix"/>
<feBlend mode="normal" in="SourceGraphic" in2="BackgroundImageFix" result="shape"/>
<feGaussianBlur stdDeviation="85.5053" result="effect1_foregroundBlur"/>
</filter>
<filter id="filter1_f" x="214.719" y="196.186" width="1945.23" height="124.654" filterUnits="userSpaceOnUse" color-interpolation-filters="sRGB">
<feFlood flood-opacity="0" result="BackgroundImageFix"/>
<feBlend mode="normal" in="SourceGraphic" in2="BackgroundImageFix" result="shape"/>
<feGaussianBlur stdDeviation="3.42021" result="effect1_foregroundBlur"/>
</filter>
<filter id="filter2_f" x="152.34" y="620" width="1995.22" height="1416.52" filterUnits="userSpaceOnUse" color-interpolation-filters="sRGB">
<feFlood flood-opacity="0" result="BackgroundImageFix"/>
<feBlend mode="normal" in="SourceGraphic" in2="BackgroundImageFix" result="shape"/>
<feGaussianBlur stdDeviation="5" result="effect1_foregroundBlur"/>
</filter>
</defs>
</svg>
