<svg width="57" height="64" viewBox="0 0 57 64" fill="none" xmlns="http://www.w3.org/2000/svg">
<g id="biom" filter="url(#filter0_d)">
<path id="Vector" d="M41.9037 21.3814C41.8445 21.6182 41.6666 21.6913 41.4374 21.5381C41.258 21.3989 41.0939 21.245 40.9475 21.0785C39.4326 19.5215 37.5717 18.2544 35.4796 17.3554C33.3874 16.4565 31.1084 15.9447 28.7832 15.8518C26.4579 15.7588 24.1357 16.0865 21.9597 16.8148C19.7838 17.5431 17.8003 18.6565 16.1316 20.0863C16.1039 20.1106 16.0763 20.1385 16.0486 20.1594C15.8589 20.2882 15.693 20.5841 15.4203 20.3474C15.1476 20.1106 15.4203 19.9505 15.6139 19.7938C16.3057 19.1736 17.0639 18.614 17.8782 18.1226C21.5062 15.8817 25.9577 14.9241 30.3496 15.4401C34.7415 15.956 38.7528 17.9077 41.5876 20.9079C41.7378 21.0542 41.8998 21.1551 41.9037 21.3814Z" stroke="white" stroke-miterlimit="10"/>
<path id="Vector_2" d="M40.8566 30.942C40.6988 33.1784 40.2831 35.3948 39.6158 37.5571C39.3155 38.6015 38.9361 39.6286 38.5884 40.6627C38.5537 40.782 38.5074 40.8985 38.4501 41.0108C38.4388 41.0492 38.4179 41.0848 38.3891 41.1153C38.3603 41.1457 38.3242 41.1701 38.2834 41.1867C38.2426 41.2034 38.1981 41.2119 38.1531 41.2115C38.1081 41.2112 38.0638 41.2021 38.0233 41.1849C37.8376 41.1153 37.8455 40.9656 37.8929 40.8367C38.0984 40.2553 38.3276 39.6808 38.5212 39.0959C39.3216 36.8259 39.8695 34.4927 40.1571 32.1292C40.5918 28.007 38.7899 24.7412 35.0873 22.2553C34.8976 22.1265 34.6921 22.0186 34.4985 21.9072C34.4581 21.8896 34.4226 21.8644 34.3947 21.8333C34.3667 21.8023 34.3469 21.7661 34.3367 21.7275C34.3265 21.6888 34.3261 21.6487 34.3356 21.6099C34.3452 21.5711 34.3644 21.5347 34.3918 21.5033C34.4146 21.4739 34.4443 21.4491 34.4789 21.4308C34.5135 21.4124 34.5522 21.4009 34.5923 21.3969C34.6325 21.3929 34.6731 21.3966 34.7115 21.4078C34.7498 21.4189 34.785 21.4373 34.8146 21.4615C35.2098 21.6948 35.6049 21.9211 35.9724 22.1857C37.4736 23.2339 38.6908 24.5637 39.5357 26.0783C40.3805 27.593 40.8318 29.2544 40.8566 30.942V30.942Z" stroke="white" stroke-miterlimit="10"/>
<path id="Vector_3" d="M43.3184 31.4538C43.0442 34.3268 42.4202 37.1656 41.4572 39.9211C40.9975 41.3248 40.4379 42.7016 39.7817 44.0433C39.6909 44.2279 39.6395 44.4994 39.3155 44.3915C38.9203 44.2731 39.1416 44.0155 39.2325 43.8275C40.8645 40.3332 41.9788 36.6682 42.5478 32.923C42.9716 30.3929 42.5358 27.8089 41.2952 25.4967C41.2715 25.4514 41.2399 25.4062 41.2162 25.3574C41.1253 25.166 40.9712 24.9466 41.2952 24.8282C41.6192 24.7099 41.6666 24.9397 41.7615 25.1137C42.1127 25.7563 42.4099 26.4208 42.6506 27.1017C43.1291 28.5129 43.3544 29.9813 43.3184 31.4538V31.4538Z" stroke="white" stroke-miterlimit="10"/>
<path id="Vector_4" d="M33.313 30.9455C33.2521 31.7862 33.12 32.6218 32.9179 33.4453C32.8704 33.6576 32.9179 33.971 32.5227 33.8909C32.1275 33.8108 32.3054 33.5428 32.3409 33.3164C32.4397 32.7489 32.5701 32.1849 32.6412 31.6139C32.8704 29.8731 32.1829 28.4457 30.4837 27.5056C29.8329 27.1496 29.0928 26.9399 28.3285 26.8951C27.5642 26.8502 26.7991 26.9715 26.1004 27.2483C25.4018 27.5252 24.7911 27.949 24.322 28.4826C23.853 29.0162 23.5399 29.6431 23.4104 30.3083C23.2251 31.4795 22.9719 32.6416 22.6517 33.7899C22.5924 33.9884 22.5766 34.2669 22.2565 34.2112C21.9364 34.1555 22.0194 33.8631 22.0787 33.6611C22.3988 32.547 22.6082 31.4155 22.8097 30.2805C22.9992 29.1902 23.6225 28.1949 24.5682 27.4723C25.514 26.7498 26.7205 26.3471 27.9723 26.3362C29.224 26.3253 30.4393 26.707 31.4011 27.4129C32.3628 28.1189 33.0083 29.1032 33.2221 30.1899C33.2893 30.4615 33.2933 30.74 33.313 30.9455Z" stroke="white" stroke-miterlimit="10"/>
<path id="Vector_5" d="M30.5469 13.2344C33.8538 13.6505 36.999 14.7597 39.7185 16.4689C42.6697 18.3012 45.0163 20.7905 46.5192 23.6828C46.5784 23.7942 46.6298 23.9056 46.6851 24.0309C46.7405 24.1563 46.78 24.3443 46.5705 24.4313C46.3611 24.5184 46.207 24.4 46.1201 24.2224C45.7798 23.5343 45.3836 22.8688 44.9346 22.2309C41.5995 17.5133 36.8062 14.7211 30.5904 13.8089C30.5121 13.8021 30.4343 13.7917 30.3572 13.7776C30.1715 13.7288 29.9265 13.7253 29.9621 13.4816C29.9976 13.2379 30.2229 13.1961 30.5469 13.2344Z" stroke="white" stroke-miterlimit="10"/>
<path id="Vector_6" d="M27.9073 21.9246C30.477 21.9178 32.9583 22.7504 34.8719 24.2615C36.7855 25.7727 37.9956 27.8551 38.2683 30.1064C38.2683 30.1934 38.2683 30.2805 38.2881 30.3675C38.2948 30.4021 38.2935 30.4375 38.2843 30.4717C38.2752 30.5059 38.2583 30.538 38.2347 30.5663C38.2111 30.5946 38.1812 30.6184 38.1469 30.6363C38.1127 30.6541 38.0746 30.6658 38.0352 30.6704C37.8099 30.7017 37.7269 30.5625 37.6993 30.3919C37.6163 29.9288 37.5728 29.4553 37.4424 28.9992C37.1007 27.7526 36.4446 26.5898 35.5228 25.5972C34.601 24.6047 33.4372 23.8078 32.1179 23.266C30.7987 22.7241 29.3578 22.451 27.9023 22.4671C26.4468 22.4832 25.0141 22.7881 23.7107 23.359L23.5487 23.4251C23.363 23.5087 23.1535 23.5783 23.031 23.3764C22.9085 23.1745 23.1061 23.0282 23.2997 22.9412C24.229 22.5167 25.2254 22.2174 26.2555 22.0534C26.7997 21.9611 27.3531 21.918 27.9073 21.9246V21.9246Z" stroke="white" stroke-miterlimit="10"/>
<path id="Vector_7" d="M28.2155 10.8878C29.0476 10.8753 29.8794 10.9277 30.701 11.0445C30.9302 11.0723 31.2463 11.0445 31.2147 11.3509C31.1831 11.6572 30.8433 11.5981 30.6022 11.5702C27.456 11.2313 24.2636 11.5083 21.2528 12.3814C18.6667 13.113 16.2556 14.2578 14.14 15.7586C14.0197 15.8505 13.887 15.9288 13.7448 15.9919C13.7135 16.0055 13.6793 16.0135 13.6444 16.0155C13.6095 16.0174 13.5745 16.0133 13.5415 16.0032C13.5084 15.9932 13.4779 15.9775 13.4518 15.957C13.4256 15.9365 13.4044 15.9117 13.3892 15.8839C13.3569 15.8395 13.3436 15.7865 13.3515 15.7342C13.3595 15.6819 13.3882 15.6338 13.4327 15.5984C13.6065 15.4557 13.7843 15.3164 13.9701 15.1911C18.0345 12.3865 23.053 10.8705 28.2155 10.8878V10.8878Z" stroke="white" stroke-miterlimit="10"/>
<path id="Vector_8" d="M17.0879 39.4337C16.6927 39.3083 16.8389 39.0855 16.9851 38.8662C17.6748 37.8105 18.2706 36.7093 18.7673 35.5725C19.5205 33.7713 20.0504 31.9036 20.3479 30.0019C20.5048 29.0043 20.9109 28.0497 21.5367 27.2068C22.1626 26.364 22.9928 25.6539 23.9675 25.1277C24.1691 25.0128 24.4259 24.8074 24.6275 25.0998C24.829 25.3923 24.5129 25.448 24.3232 25.5663C23.3852 26.0745 22.59 26.7633 21.9973 27.5809C21.4046 28.3986 21.0298 29.3239 20.9011 30.2874C20.4522 33.3674 19.319 36.3393 17.566 39.0333C17.3408 39.378 17.2696 39.4441 17.0879 39.4337Z" stroke="white" stroke-miterlimit="10"/>
<path id="Vector_9" d="M27.9626 18.046C25.7696 18.0537 23.6074 18.5014 21.6401 19.3551C21.6076 19.3751 21.5732 19.3926 21.5373 19.4074C21.3397 19.4735 21.1145 19.6232 20.9683 19.383C20.8221 19.1427 21.0434 19.0348 21.2726 18.9199C22.9977 18.152 24.8775 17.6906 26.8048 17.5621C28.7955 17.4197 30.7984 17.6268 32.6977 18.1712C34.5969 18.7157 36.3547 19.5867 37.8692 20.7339L38.1379 20.9393C38.292 21.0611 38.4303 21.2108 38.2525 21.3814C38.0747 21.552 37.8929 21.4615 37.7309 21.3362C37.0358 20.7952 36.2858 20.3115 35.4903 19.8913C33.2193 18.6823 30.616 18.0442 27.9626 18.046V18.046Z" stroke="white" stroke-miterlimit="10"/>
<path id="Vector_10" d="M27.2039 13.0882C27.52 13.0882 27.8361 13.0882 28.1523 13.0882C28.4012 13.0882 28.7371 13.029 28.7529 13.3493C28.7687 13.6696 28.4091 13.6139 28.176 13.6174C26.1603 13.6219 24.1564 13.8882 22.2289 14.4077C19.3524 15.1955 16.7209 16.5573 14.5391 18.3872L14.2388 18.6414C14.0807 18.7807 13.9029 18.9373 13.6856 18.7598C13.4682 18.5822 13.6381 18.4116 13.8002 18.2793C14.1953 17.9485 14.5905 17.6074 15.0251 17.2975C18.4458 14.748 22.7281 13.2679 27.2039 13.0882V13.0882Z" stroke="white" stroke-miterlimit="10"/>
<path id="Vector_11" d="M45.8316 31.2518C45.8316 32.366 45.4602 34.0371 45.1203 35.7188C45.0808 35.9033 45.0136 36.0669 44.7607 36.046C44.5078 36.0251 44.4999 35.7919 44.5355 35.5899C44.7173 34.629 44.9306 33.6681 45.061 32.7037C45.6146 29.2591 44.7753 25.7527 42.6901 22.7985C42.6387 22.7253 42.5755 22.6557 42.5281 22.5826C42.4293 22.419 42.2475 22.2344 42.5281 22.0812C42.8086 21.928 42.9549 22.1404 43.0774 22.3075C44.0276 23.6121 44.7446 25.0377 45.2033 26.5342C45.6594 28.0736 45.8708 29.6613 45.8316 31.2518V31.2518Z" stroke="white" stroke-miterlimit="10"/>
<path id="Vector_12" d="M35.8341 31.1161C35.7907 31.4642 35.7353 31.9342 35.6761 32.3973C35.6524 32.5783 35.601 32.7733 35.3402 32.7455C35.0794 32.7176 35.0478 32.5087 35.0873 32.3068C35.2758 31.3982 35.2583 30.4658 35.0359 29.5632C34.8189 28.7448 34.4196 27.9725 33.8612 27.2911C33.3027 26.6097 32.5962 26.0329 31.7827 25.594C30.9691 25.1551 30.0648 24.863 29.1221 24.7345C28.1794 24.606 27.2171 24.6438 26.2911 24.8456C26.1014 24.8874 25.8959 24.9849 25.7221 24.8735C25.673 24.8432 25.6364 24.7996 25.6179 24.7493C25.5994 24.6991 25.5999 24.6449 25.6193 24.595C25.6746 24.4104 25.8643 24.3861 26.0342 24.3478C27.1026 24.0869 28.2231 24.0368 29.3159 24.2011C30.4087 24.3654 31.447 24.74 32.3567 25.2983C34.6249 26.6665 35.7551 28.5884 35.8341 31.1161Z" stroke="white" stroke-miterlimit="10"/>
<path id="Vector_13" d="M29.8593 35.576C29.5265 36.7478 29.1148 37.9011 28.6264 39.0298C27.4031 41.8786 25.7238 44.5587 23.6396 46.9888C23.5684 47.0723 23.4934 47.1524 23.4183 47.2325C23.3952 47.2612 23.3657 47.2855 23.3317 47.3039C23.2977 47.3223 23.2598 47.3345 23.2203 47.3397C23.1808 47.3449 23.1406 47.343 23.1019 47.3342C23.0633 47.3253 23.0271 47.3097 22.9955 47.2882C22.9619 47.2686 22.9337 47.2427 22.9128 47.2124C22.8919 47.182 22.879 47.148 22.8748 47.1127C22.8707 47.0774 22.8754 47.0418 22.8888 47.0083C22.9021 46.9748 22.9237 46.9444 22.952 46.9191C23.2207 46.571 23.5092 46.2437 23.7818 45.9025C26.2446 42.8465 28.0673 39.4271 29.1639 35.8058C29.2034 35.6735 29.2389 35.5342 29.2864 35.4054C29.3338 35.2766 29.4444 35.106 29.6815 35.1617C29.9186 35.2174 29.883 35.381 29.8593 35.576Z" stroke="white" stroke-miterlimit="10"/>
<path id="Vector_14" d="M35.3639 34.0789C35.09 35.4244 34.7258 36.7544 34.2732 38.0619C33.3239 40.8606 31.9972 43.5491 30.3217 46.0696C30.2624 46.1567 30.2031 46.2507 30.136 46.3342C30.1168 46.3631 30.0913 46.3883 30.061 46.4084C30.0306 46.4285 29.996 46.443 29.9592 46.4511C29.9224 46.4592 29.8841 46.4608 29.8466 46.4556C29.8091 46.4505 29.7731 46.4388 29.7408 46.4213C29.5669 46.3273 29.5906 46.188 29.6578 46.0522C29.725 45.9164 29.808 45.8085 29.887 45.7041C32.196 42.1952 33.8177 38.3688 34.6842 34.3853C34.7079 34.2669 34.7395 34.1485 34.7672 34.0371C34.7949 33.9257 34.8897 33.7377 35.1228 33.776C35.356 33.8143 35.3797 33.9431 35.3639 34.0789Z" stroke="white" stroke-miterlimit="10"/>
<path id="Vector_15" d="M15.2148 30.4093C15.3964 28.1176 16.3391 25.9237 17.9256 24.1006C19.2571 22.5721 21.0145 21.3728 23.0271 20.619C23.1703 20.5617 23.3183 20.514 23.4696 20.4762C23.5269 20.4598 23.5891 20.4628 23.6439 20.4847C23.6988 20.5066 23.7423 20.5458 23.766 20.5946C23.8045 20.6467 23.8186 20.7098 23.8053 20.7709C23.7921 20.8319 23.7525 20.886 23.6949 20.9219C23.5776 20.9863 23.4531 21.04 23.3234 21.082C19.0953 22.788 16.6058 25.6569 15.934 29.7164L15.8036 30.4406C15.7759 30.6112 15.689 30.7435 15.4677 30.7331C15.2464 30.7226 15.2069 30.5729 15.2148 30.4093Z" stroke="white" stroke-miterlimit="10"/>
<path id="Vector_16" d="M27.8559 8.68744C28.7403 8.6602 29.6257 8.6963 30.5034 8.79537C30.7287 8.81974 31.0409 8.79537 31.0171 9.09827C30.9934 9.40117 30.6931 9.34546 30.4679 9.32806C25.9195 8.91758 21.3322 9.65156 17.238 11.4449C17.0365 11.5319 16.7875 11.706 16.6216 11.4449C16.4556 11.1838 16.7757 11.0619 16.9851 10.9714C20.369 9.50279 24.084 8.72228 27.8559 8.68744Z" stroke="white" stroke-miterlimit="10"/>
<path id="Vector_17" d="M38.1537 8.46112C38.0747 8.76402 37.8297 8.72572 37.5689 8.63868C36.6284 8.32882 35.68 8.04332 34.7079 7.80657C31.2348 6.96325 27.5973 6.78283 24.0387 7.27736C23.9596 7.27736 23.8846 7.30174 23.8055 7.3087C23.5921 7.32611 23.3867 7.3087 23.3709 7.06847C23.3551 6.82824 23.525 6.80735 23.7186 6.78297C24.1888 6.73075 24.6551 6.66808 25.1254 6.61934C29.3603 6.20716 33.6456 6.70779 37.6123 8.07814C38.0549 8.22437 38.1379 8.27311 38.1537 8.46112Z" stroke="white" stroke-miterlimit="10"/>
<path id="Vector_18" d="M32.4516 35.5342C32.1455 36.7028 31.7628 37.8549 31.3056 38.9845C30.2164 41.7105 28.7399 44.304 26.9115 46.7033C26.8392 46.8069 26.7587 46.9058 26.6704 46.9992C26.649 47.0293 26.6204 47.0549 26.5866 47.0742C26.5528 47.0936 26.5147 47.1062 26.4748 47.1111C26.4349 47.1161 26.3942 47.1133 26.3557 47.103C26.3171 47.0927 26.2816 47.0751 26.2516 47.0514C26.1962 47.014 26.1586 46.9598 26.1462 46.8992C26.1337 46.8387 26.1474 46.7763 26.1844 46.7242C26.2469 46.6157 26.3196 46.5121 26.4017 46.4143C28.8595 43.1879 30.6668 39.6121 31.7442 35.8441C31.7877 35.6944 31.8272 35.5412 31.8825 35.3915C31.8961 35.3217 31.9401 35.2594 32.005 35.2178C32.07 35.1762 32.1508 35.1586 32.2303 35.1687C32.4002 35.1895 32.4713 35.3079 32.4516 35.5342Z" stroke="white" stroke-miterlimit="10"/>
<path id="Vector_19" d="M9.48899 33.0275C9.1452 32.9543 9.22028 32.7315 9.31117 32.54C9.59109 31.9261 9.82603 31.2969 10.0146 30.6565C10.3149 29.6607 10.386 28.6302 10.6468 27.6309C11.2252 25.3831 12.3495 23.2724 13.9424 21.4441C14.0267 21.3466 14.1136 21.2526 14.2032 21.1621C14.2264 21.1331 14.2563 21.1089 14.2909 21.0908C14.3255 21.0728 14.364 21.0614 14.404 21.0575C14.4439 21.0536 14.4844 21.0571 14.5226 21.0679C14.5609 21.0788 14.5962 21.0966 14.626 21.1203C14.6573 21.1419 14.6833 21.1689 14.7023 21.1996C14.7213 21.2304 14.7331 21.2642 14.7368 21.2991C14.7405 21.3339 14.736 21.3691 14.7238 21.4024C14.7116 21.4357 14.6917 21.4665 14.6655 21.4928C14.6358 21.5376 14.6028 21.5807 14.5668 21.6217C12.5182 23.9195 11.2398 26.6763 10.876 29.5807C10.6994 30.6497 10.3688 31.6945 9.89205 32.6897C9.81697 32.8499 9.7656 33.0309 9.48899 33.0275Z" stroke="white" stroke-miterlimit="10"/>
<path id="Vector_20" d="M16.507 22.9168C16.507 23.0665 16.3647 23.1605 16.2738 23.265C14.7418 25.069 13.7669 27.1923 13.4445 29.4275C13.206 31.0676 12.6906 32.6671 11.9153 34.1729C11.861 34.2847 11.8004 34.3939 11.7335 34.5002C11.718 34.5322 11.6955 34.5612 11.6671 34.5855C11.6388 34.6098 11.6052 34.6288 11.5684 34.6414C11.5315 34.6541 11.4922 34.6601 11.4527 34.6592C11.4132 34.6582 11.3743 34.6503 11.3383 34.636C11.3029 34.6215 11.2712 34.6009 11.2452 34.5753C11.2191 34.5497 11.1991 34.5198 11.1866 34.4872C11.174 34.4547 11.1691 34.4202 11.1721 34.3859C11.1751 34.3517 11.1859 34.3183 11.204 34.2878C11.3502 33.9675 11.5161 33.6507 11.6663 33.3304C12.3072 31.8533 12.745 30.3139 12.9703 28.7451C13.3562 26.6234 14.3368 24.6202 15.8234 22.9168C15.9577 22.7601 16.0763 22.5687 16.341 22.6661C16.3972 22.6847 16.4444 22.7198 16.4746 22.7655C16.5048 22.8111 16.5163 22.8646 16.507 22.9168V22.9168Z" stroke="white" stroke-miterlimit="10"/>
<path id="Vector_21" d="M28.911 51.5567C28.8592 51.5609 28.8072 51.552 28.761 51.531C28.7147 51.51 28.6763 51.4779 28.6502 51.4383C28.619 51.3744 28.6103 51.3039 28.6251 51.2356C28.6399 51.1674 28.6775 51.1046 28.7331 51.0553C29.156 50.554 29.5788 50.0526 29.9937 49.5408C32.0488 47.0046 33.7373 44.2526 35.0201 41.3485C35.0557 41.2685 35.0912 41.1849 35.1228 41.1048C35.2019 40.9168 35.3007 40.701 35.5694 40.7845C35.8381 40.8681 35.763 41.1327 35.68 41.3207C34.959 42.9964 34.1047 44.6252 33.1233 46.195C32.0356 47.9299 30.8019 49.5907 29.4326 51.1632C29.2706 51.3164 29.1639 51.5184 28.911 51.5567Z" stroke="white" stroke-miterlimit="10"/>
<path id="Vector_22" d="M38.2604 13.1474C38.3592 13.1892 38.5054 13.2414 38.6555 13.3041C42.2926 15.0171 45.3474 17.5512 47.5071 20.6468C47.5584 20.7199 47.6098 20.793 47.6572 20.8696C47.6807 20.8981 47.6975 20.9304 47.7066 20.9646C47.7157 20.9989 47.717 21.0344 47.7104 21.069C47.7038 21.1037 47.6894 21.1369 47.668 21.1666C47.6467 21.1964 47.6188 21.222 47.5861 21.2422C47.4043 21.3571 47.2502 21.2839 47.1356 21.1342C46.8195 20.7164 46.5231 20.2847 46.1951 19.8739C44.1656 17.3342 41.4904 15.2477 38.3829 13.781C38.2412 13.7172 38.1086 13.6389 37.9877 13.5478C37.9503 13.5191 37.9249 13.4802 37.9155 13.4372C37.9062 13.3943 37.9136 13.3498 37.9364 13.311C37.9641 13.2573 38.0103 13.2126 38.0685 13.1832C38.1266 13.1539 38.1937 13.1413 38.2604 13.1474V13.1474Z" stroke="white" stroke-miterlimit="10"/>
<path id="Vector_23" d="M37.9759 42.1389C37.9443 42.212 37.9008 42.3269 37.8494 42.4418C36.5386 45.3905 34.8424 48.1947 32.7954 50.7977C32.7519 50.8534 32.7084 50.9126 32.6571 50.9683C32.5425 51.0936 32.416 51.2224 32.2145 51.1075C32.0129 50.9926 32.0446 50.8255 32.1671 50.6584C32.7005 49.9621 33.2379 49.2414 33.7477 48.5207C35.1145 46.5474 36.2884 44.4754 37.2567 42.3269C37.308 42.1954 37.3701 42.0675 37.4424 41.9439C37.4589 41.9168 37.4814 41.893 37.5086 41.8737C37.5357 41.8544 37.567 41.8402 37.6005 41.8317C37.634 41.8233 37.6691 41.8208 37.7037 41.8246C37.7383 41.8283 37.7718 41.8381 37.802 41.8534C37.8615 41.8786 37.9105 41.9199 37.9417 41.9712C37.973 42.0225 37.9849 42.0812 37.9759 42.1389Z" stroke="white" stroke-miterlimit="10"/>
<path id="Vector_24" d="M23.1259 38.8592C22.9441 38.8592 22.8176 38.7652 22.8413 38.5911C22.8625 38.4704 22.9038 38.353 22.9638 38.2429C24.1186 35.8367 24.8963 33.3032 25.2755 30.7122C25.3477 30.1172 25.6689 29.5674 26.1765 29.1698C26.3345 29.048 26.5163 28.947 26.6902 29.1315C26.864 29.3161 26.7574 29.4275 26.6072 29.5424C26.0382 29.9741 25.8999 30.559 25.8169 31.1752C25.4358 33.6616 24.6769 36.0915 23.5605 38.3996C23.4578 38.5807 23.4301 38.8244 23.1259 38.8592Z" stroke="white" stroke-miterlimit="10"/>
<path id="Vector_25" d="M17.483 31.7567C17.7991 28.8008 18.6685 26.0642 21.399 24.0971C21.5197 24.0018 21.6523 23.9188 21.7942 23.8499C21.855 23.8178 21.9278 23.8082 21.9967 23.8232C22.0655 23.8382 22.1248 23.8766 22.1617 23.93C22.2041 23.9783 22.224 24.039 22.2174 24.0998C22.2108 24.1606 22.1782 24.2169 22.1261 24.2573C22.0842 24.2949 22.0393 24.3298 21.9918 24.3617C19.7591 25.9702 18.629 28.0801 18.3326 30.5764C18.2812 31.0046 18.1627 31.4294 18.0639 31.8542C18.0244 32.0178 17.9216 32.1571 17.7004 32.1188C17.4791 32.0805 17.4237 31.9168 17.483 31.7567Z" stroke="white" stroke-miterlimit="10"/>
<path id="Vector_26" d="M22.5568 40.2449C22.5094 40.3319 22.4501 40.4607 22.3751 40.593C21.0486 42.788 19.4027 44.821 17.4791 46.6406C17.4028 46.7217 17.3182 46.7963 17.2262 46.8634C17.1982 46.8883 17.165 46.908 17.1284 46.9215C17.0918 46.9349 17.0525 46.9419 17.0128 46.9419C16.9731 46.9419 16.9338 46.9349 16.8972 46.9215C16.8606 46.908 16.8273 46.8883 16.7994 46.8634C16.7698 46.8399 16.7461 46.8112 16.7299 46.7791C16.7137 46.747 16.7053 46.7123 16.7053 46.6772C16.7053 46.6421 16.7137 46.6073 16.7299 46.5752C16.7461 46.5431 16.7698 46.5144 16.7994 46.4909C17.0997 46.188 17.4158 45.9025 17.7122 45.5996C19.2941 43.9999 20.6661 42.248 21.8021 40.3772C21.8745 40.2555 21.9577 40.1391 22.051 40.029C22.0845 39.9829 22.1365 39.9497 22.1967 39.9362C22.2568 39.9226 22.3206 39.9296 22.3751 39.9559C22.4368 39.9802 22.4879 40.0216 22.5207 40.0737C22.5535 40.1258 22.5661 40.1859 22.5568 40.2449V40.2449Z" stroke="white" stroke-miterlimit="10"/>
<path id="Vector_27" d="M25.9315 39.1168C25.9078 39.1656 25.8683 39.2631 25.8208 39.3571C24.7177 41.6452 23.2947 43.8031 21.5848 45.7807C21.5204 45.867 21.4448 45.9465 21.3595 46.0174C21.3144 46.0527 21.2572 46.0736 21.197 46.0768C21.1368 46.0799 21.0771 46.0652 21.0276 46.0348C20.9972 46.02 20.9705 45.9999 20.949 45.9759C20.9275 45.9518 20.9117 45.9242 20.9025 45.8947C20.8933 45.8652 20.8909 45.8344 20.8954 45.804C20.8999 45.7737 20.9113 45.7444 20.9288 45.718C21.0037 45.5961 21.0896 45.4796 21.1856 45.3698C22.8087 43.4659 24.166 41.3969 25.2281 39.2074C25.281 39.0956 25.3403 38.9864 25.4059 38.8801C25.4367 38.824 25.4912 38.7809 25.5578 38.7601C25.6244 38.7392 25.6976 38.7423 25.7616 38.7687C25.892 38.8209 25.9315 38.9288 25.9315 39.1168Z" stroke="white" stroke-miterlimit="10"/>
<path id="Vector_28" d="M38.2169 32.352C37.8671 34.6957 37.2813 37.0074 36.4664 39.2596C36.4031 39.4406 36.2767 39.6077 36.0475 39.5242C35.7511 39.4162 35.8578 39.176 35.929 38.981C36.5843 37.1217 37.0914 35.2242 37.4464 33.3025C37.5135 32.9543 37.5728 32.5818 37.6281 32.2197C37.6558 32.0352 37.6993 31.8507 37.9561 31.8716C38.213 31.8925 38.2367 32.1048 38.2169 32.352Z" stroke="white" stroke-miterlimit="10"/>
<path id="Vector_29" d="M27.6504 19.7207C29.4749 19.6878 31.2869 19.9926 32.9692 20.6155C33.1905 20.6956 33.479 20.7687 33.3644 21.0402C33.2498 21.3118 32.9692 21.1865 32.7519 21.1064C30.4088 20.2211 27.8064 20.0175 25.3229 20.525C25.0977 20.5702 24.8132 20.6816 24.7262 20.3927C24.6235 20.0445 24.9871 20.0445 25.2123 20.0097C26.0099 19.8322 26.8279 19.7353 27.6504 19.7207V19.7207Z" stroke="white" stroke-miterlimit="10"/>
<path id="Vector_30" d="M28.3261 31.0952C28.2036 31.9934 28.0179 32.8812 27.8045 33.7656C27.4946 35.0386 27.0987 36.2942 26.6191 37.5257C26.5479 37.7033 26.4728 37.9226 26.1765 37.8321C25.8801 37.7416 25.9749 37.5327 26.0461 37.3482C26.8386 35.3275 27.3999 33.2421 27.7215 31.123C27.7492 30.935 27.7887 30.7157 28.089 30.7435C28.3024 30.7644 28.3419 30.9246 28.3261 31.0952Z" stroke="white" stroke-miterlimit="10"/>
<path id="Vector_31" d="M30.8038 31.1683C30.6934 32.0738 30.5272 32.9734 30.3059 33.8631C30.2664 34.0302 30.1873 34.1729 29.9621 34.1451C29.7368 34.1172 29.6855 33.9257 29.7171 33.7447C29.8514 33.0484 29.9976 32.352 30.1122 31.6557C30.4086 30.0751 29.5985 29.1838 27.7966 29.1037C27.5832 29.1037 27.3698 29.0793 27.3619 28.8565C27.354 28.6337 27.5516 28.5954 27.7571 28.5675C29.3377 28.3551 30.8314 29.5772 30.8038 31.1683Z" stroke="white" stroke-miterlimit="10"/>
<path id="Vector_32" d="M32.4753 9.05995C32.8151 9.1261 33.1826 9.19225 33.5462 9.26885C35.5448 9.6754 37.4777 10.3012 39.2996 11.1315C39.5249 11.236 39.8331 11.3335 39.6434 11.6189C39.4538 11.9044 39.2246 11.699 39.0191 11.6189C36.9654 10.6916 34.7749 10.0213 32.5108 9.62746C32.2975 9.58916 32.0564 9.56479 32.0604 9.30715C32.0643 9.04951 32.254 9.06692 32.4753 9.05995Z" stroke="white" stroke-miterlimit="10"/>
<path id="Vector_33" d="M12.9585 19.7625C12.9265 19.8972 12.8461 20.0193 12.7293 20.1106C11.3525 21.5924 10.2727 23.2702 9.5364 25.0719C9.45737 25.2669 9.3902 25.5246 9.07802 25.448C8.76585 25.3714 8.86464 25.1242 8.94762 24.9257C9.71957 23.0507 10.8473 21.3048 12.2827 19.7625C12.4092 19.6267 12.5317 19.477 12.7727 19.5396C12.8273 19.5535 12.8751 19.5829 12.9087 19.6232C12.9423 19.6635 12.9598 19.7125 12.9585 19.7625V19.7625Z" stroke="white" stroke-miterlimit="10"/>
<path id="Vector_34" d="M17.5028 33.5984C17.5028 33.6681 17.4554 33.769 17.4198 33.87C16.8413 35.4768 16.0453 37.0163 15.0488 38.4553L14.9184 38.6294C14.7999 38.7756 14.6734 38.9323 14.4443 38.7861C14.2151 38.6398 14.306 38.4901 14.4205 38.3265C14.9016 37.6534 15.337 36.9559 15.7246 36.2375C16.1784 35.3889 16.5665 34.5141 16.8863 33.6193C16.9496 33.4418 17.0404 33.2712 17.2815 33.3199C17.4475 33.3408 17.5107 33.4244 17.5028 33.5984Z" stroke="white" stroke-miterlimit="10"/>
<path id="Vector_35" d="M19.2494 40.6522C18.9846 40.5965 18.8858 40.4433 19.0044 40.2588C20.0027 38.7021 20.8437 37.0711 21.5176 35.3845C21.5269 35.3485 21.5456 35.3148 21.5723 35.2863C21.599 35.2578 21.633 35.2352 21.6714 35.2203C21.7098 35.2054 21.7516 35.1986 21.7935 35.2005C21.8355 35.2025 21.8763 35.213 21.9127 35.2313C21.9512 35.2427 21.9866 35.2611 22.0164 35.2853C22.0463 35.3095 22.07 35.3391 22.0861 35.3719C22.1021 35.4048 22.1101 35.4403 22.1095 35.476C22.1089 35.5118 22.0998 35.5471 22.0826 35.5795C21.9839 35.8615 21.8693 36.1366 21.7507 36.4116C21.185 37.7443 20.4951 39.0334 19.688 40.2658C19.5694 40.4224 19.4865 40.6104 19.2494 40.6522Z" stroke="white" stroke-miterlimit="10"/>
<path id="Vector_36" d="M48.3211 29.9288C48.3211 30.1203 48.3211 30.3118 48.3211 30.5033C48.3211 30.6948 48.2974 30.8514 48.0563 30.8514C47.8153 30.8514 47.7323 30.6948 47.7165 30.5033C47.6493 29.8453 47.6098 29.1837 47.5189 28.5292C47.3708 27.5482 47.1127 26.5825 46.7484 25.6464C46.6733 25.448 46.535 25.2112 46.8392 25.1068C47.2028 24.9814 47.2581 25.2878 47.3332 25.4897C47.8669 26.9283 48.1987 28.4191 48.3211 29.9288V29.9288Z" stroke="white" stroke-miterlimit="10"/>
<path id="Vector_37" d="M22.2407 7.34004C22.217 7.5385 22.0708 7.60465 21.8811 7.64295C20.1359 8.01116 18.4353 8.5277 16.8033 9.18531C16.6097 9.2619 16.4082 9.30716 16.2975 9.09478C16.1869 8.8824 16.3726 8.78144 16.5584 8.70484C18.2203 8.01858 19.9592 7.48763 21.7468 7.1207C21.9799 7.07544 22.1854 7.08937 22.2407 7.34004Z" stroke="white" stroke-miterlimit="10"/>
<path id="Vector_38" d="M45.5392 15.1702C45.5432 15.2223 45.5275 15.2741 45.4947 15.3176C45.4618 15.361 45.4135 15.3937 45.3574 15.4104C45.1796 15.4662 45.061 15.3791 44.9385 15.2851C44.2984 14.7977 43.674 14.2928 43.0062 13.8368C42.3384 13.3807 41.6587 12.9977 40.983 12.5799C40.8052 12.4685 40.5879 12.3605 40.7143 12.1342C40.8408 11.9079 41.0779 12.0054 41.2715 12.1099C42.7295 12.9084 44.0884 13.8397 45.3258 14.8882C45.4206 14.9544 45.5392 15.0309 45.5392 15.1702Z" stroke="white" stroke-miterlimit="10"/>
<path id="Vector_39" d="M28.5356 4.8298H27.0577C26.8482 4.8298 26.6388 4.8298 26.6309 4.57564C26.623 4.32148 26.8048 4.28666 27.0261 4.26926C28.6608 4.16445 30.3039 4.23812 31.9181 4.4886C32.1355 4.51993 32.3133 4.62786 32.254 4.83676C32.1947 5.04566 31.9774 5.05958 31.7798 5.03173C30.7077 4.87724 29.6217 4.80965 28.5356 4.8298V4.8298Z" stroke="white" stroke-miterlimit="10"/>
<path id="Vector_40" d="M25.9315 51.3408C25.8723 51.3447 25.8133 51.3319 25.7629 51.3044C25.7125 51.2769 25.6733 51.236 25.6509 51.1876C25.5719 51.0344 25.6509 50.9265 25.7734 50.8151C26.2674 50.2719 26.7613 49.7323 27.2355 49.1752C27.7097 48.6182 28.1602 48.0472 28.6106 47.4797C28.7529 47.3021 28.8952 47.0897 29.1639 47.2534C29.4326 47.417 29.2469 47.6015 29.1323 47.7547C28.2456 48.926 27.2865 50.0534 26.2595 51.1319C26.1855 51.2368 26.0677 51.3118 25.9315 51.3408V51.3408Z" stroke="white" stroke-miterlimit="10"/>
<path id="Vector_41" d="M18.5776 41.7907C18.5381 41.8499 18.4867 41.9439 18.4195 42.0275C17.5874 43.0835 16.6766 44.0895 15.693 45.0391C15.5428 45.1853 15.361 45.3524 15.1437 45.1923C14.9264 45.0321 15.1042 44.8162 15.2583 44.6665C16.2275 43.7309 17.1239 42.7387 17.9414 41.6967C18.0441 41.5644 18.1508 41.4356 18.3682 41.4843C18.5183 41.5122 18.5816 41.6166 18.5776 41.7907Z" stroke="white" stroke-miterlimit="10"/>
<path id="Vector_42" d="M13.6223 35.3044C13.9582 35.3741 13.9582 35.569 13.8318 35.7779C13.484 36.3454 13.1442 36.9164 12.7648 37.463C12.4369 37.9366 12.0615 38.3857 11.6979 38.8557C11.5675 39.0193 11.4015 39.176 11.1724 39.0054C10.9432 38.8348 11.0775 38.6921 11.2079 38.5424C12.003 37.606 12.6988 36.6072 13.2864 35.5586C13.3103 35.493 13.3543 35.4346 13.4136 35.3897C13.4729 35.3448 13.5452 35.3153 13.6223 35.3044Z" stroke="white" stroke-miterlimit="10"/>
<path id="Vector_43" d="M13.8436 43.4062C13.5117 43.3087 13.4485 43.1242 13.6618 42.9292C14.5047 42.0837 15.2873 41.193 16.0051 40.2623C16.1118 40.123 16.2659 40.029 16.4556 40.1369C16.4934 40.1583 16.5253 40.1868 16.5491 40.2203C16.5729 40.2538 16.5879 40.2916 16.5932 40.3309C16.5985 40.3701 16.5939 40.4099 16.5797 40.4474C16.5654 40.4849 16.542 40.5192 16.5109 40.5478C15.792 41.5209 14.9775 42.4366 14.0768 43.2843C14.006 43.3345 13.9275 43.3755 13.8436 43.4062V43.4062Z" stroke="white" stroke-miterlimit="10"/>
<path id="Vector_44" d="M41.5125 45.6797C41.149 45.5996 41.2201 45.3838 41.3228 45.1574C41.6271 44.4785 41.9393 43.8031 42.2436 43.1242C42.37 42.8491 42.4728 42.5671 42.5913 42.2921C42.6664 42.118 42.781 41.9718 43.0299 42.0553C43.2789 42.1389 43.2354 42.299 43.1682 42.4487C42.7296 43.4549 42.2791 44.4576 41.8326 45.4603C41.811 45.5213 41.7687 45.575 41.7115 45.6142C41.6543 45.6534 41.5849 45.6762 41.5125 45.6797Z" stroke="white" stroke-miterlimit="10"/>
<path id="Vector_45" d="M43.267 40.5373C43.5515 39.5868 43.8361 38.6329 44.1245 37.6824C44.1284 37.6474 44.1408 37.6136 44.1609 37.5833C44.1811 37.5529 44.2084 37.5268 44.241 37.5066C44.2737 37.4864 44.3109 37.4727 44.3501 37.4664C44.3894 37.4601 44.4297 37.4613 44.4683 37.47C44.5121 37.4751 44.5539 37.489 44.5906 37.5106C44.6273 37.5321 44.6579 37.5608 44.68 37.5945C44.7022 37.6281 44.7153 37.6658 44.7183 37.7045C44.7213 37.7433 44.7142 37.7822 44.6975 37.8182C44.413 38.7687 44.1206 39.7226 43.8282 40.6731C43.8233 40.7126 43.8085 40.7507 43.7848 40.7845C43.7612 40.8184 43.7293 40.8472 43.6915 40.8689C43.6537 40.8905 43.6109 40.9045 43.5662 40.9098C43.5214 40.9151 43.476 40.9115 43.433 40.8994C43.2157 40.8576 43.2157 40.694 43.267 40.5373Z" stroke="white" stroke-miterlimit="10"/>
<path id="Vector_46" d="M33.1984 11.4588C34.3016 11.6914 35.3824 11.9999 36.4308 12.3814C36.6086 12.4476 36.7311 12.5694 36.6363 12.7505C36.6021 12.8127 36.5416 12.8607 36.4677 12.8841C36.3939 12.9076 36.3125 12.9046 36.2411 12.8758C35.1971 12.516 34.1296 12.2114 33.0443 11.9636C33.0002 11.9587 32.958 11.945 32.9207 11.9238C32.8834 11.9025 32.852 11.874 32.8288 11.8406C32.8057 11.8072 32.7914 11.7696 32.7869 11.7306C32.7825 11.6916 32.7881 11.6523 32.8033 11.6155C32.8507 11.4414 33.0443 11.4553 33.1984 11.4588Z" stroke="white" stroke-miterlimit="10"/>
<path id="Vector_47" d="M17.2578 22.0986C17.2029 22.0988 17.1488 22.0864 17.101 22.0626C17.0532 22.0388 17.0133 22.0044 16.9851 21.9629C16.9511 21.9097 16.9395 21.8477 16.9525 21.7877C16.9656 21.7278 17.0023 21.6739 17.0562 21.6356C17.8244 20.9336 18.6808 20.311 19.609 19.7799C19.6701 19.7335 19.7494 19.71 19.83 19.7146C19.9105 19.7191 19.9858 19.7513 20.0397 19.8043C20.0648 19.829 20.0837 19.8581 20.0951 19.8898C20.1064 19.9214 20.1099 19.9548 20.1055 19.9878C20.101 20.0208 20.0885 20.0525 20.069 20.0809C20.0495 20.1093 20.0233 20.1337 19.9923 20.1524C19.0898 20.7106 18.2412 21.3336 17.4554 22.0151C17.3983 22.0569 17.3304 22.0856 17.2578 22.0986Z" stroke="white" stroke-miterlimit="10"/>
<path id="Vector_48" d="M15.4756 31.8472C15.2453 32.6872 14.9415 33.5101 14.5668 34.3087C14.5564 34.3445 14.5374 34.3778 14.5111 34.4065C14.4847 34.4353 14.4517 34.4587 14.4143 34.4752C14.3768 34.4917 14.3357 34.5009 14.2939 34.5022C14.252 34.5035 14.2103 34.4969 14.1716 34.4828C13.9503 34.4201 13.9345 34.2669 14.0056 34.1033C14.3493 33.3059 14.6422 32.4923 14.8829 31.6661C14.9303 31.499 15.0409 31.3702 15.278 31.412C15.5151 31.4538 15.523 31.6 15.4756 31.8472Z" stroke="white" stroke-miterlimit="10"/>
<path id="Vector_49" d="M41.1608 24.1807C41.1743 24.2323 41.1661 24.2865 41.1378 24.3332C41.1095 24.3799 41.0629 24.416 41.0067 24.4348C40.8052 24.5184 40.6708 24.4348 40.5602 24.2851C40.1967 23.829 39.8371 23.3729 39.4617 22.9273C39.2641 22.6905 39.023 22.4816 38.8096 22.2553C38.78 22.2318 38.7563 22.2031 38.7401 22.171C38.7239 22.1389 38.7155 22.1042 38.7155 22.0691C38.7155 22.0339 38.7239 21.9992 38.7401 21.9671C38.7563 21.935 38.78 21.9063 38.8096 21.8828C38.8348 21.8552 38.8667 21.8329 38.903 21.8176C38.9392 21.8023 38.9789 21.7944 39.0191 21.7944C39.0593 21.7944 39.099 21.8023 39.1352 21.8176C39.1714 21.8329 39.2033 21.8552 39.2285 21.8828C39.9548 22.5473 40.5901 23.2847 41.1213 24.0797C41.1396 24.1117 41.1528 24.1456 41.1608 24.1807Z" stroke="white" stroke-miterlimit="10"/>
<path id="Vector_50" d="M25.4296 48.4894C25.3779 48.5821 25.3171 48.6706 25.2478 48.754C24.7144 49.325 24.173 49.8925 23.6317 50.4634C23.4854 50.6166 23.3116 50.7698 23.0903 50.6097C22.869 50.4495 23.0034 50.2615 23.1496 50.1188L24.8448 48.3292C24.9633 48.2039 25.0937 48.0994 25.2953 48.1795C25.4138 48.2282 25.4612 48.3118 25.4296 48.4894Z" stroke="white" stroke-miterlimit="10"/>
<path id="Vector_51" d="M42.1329 10.1079C42.0934 10.3795 41.9314 10.4874 41.6824 10.376C40.8921 10.0279 40.1018 9.65532 39.3115 9.28627C39.2764 9.2715 39.2454 9.25031 39.2204 9.2241C39.1954 9.19789 39.177 9.16727 39.1665 9.1343C39.1561 9.10134 39.1537 9.06677 39.1596 9.03294C39.1655 8.9991 39.1796 8.96677 39.2009 8.93811C39.2135 8.90931 39.233 8.8832 39.2579 8.86148C39.2828 8.83976 39.3127 8.82292 39.3455 8.81208C39.3784 8.80123 39.4134 8.79662 39.4484 8.79853C39.4834 8.80045 39.5175 8.80887 39.5486 8.82322C40.3772 9.14356 41.1799 9.51347 41.9511 9.93037C42.0247 9.97819 42.0865 10.0386 42.1329 10.1079V10.1079Z" stroke="white" stroke-miterlimit="10"/>
<path id="Vector_52" d="M37.5175 47.9358C37.463 47.933 37.4103 47.9174 37.365 47.8906C37.3198 47.8638 37.2835 47.8267 37.26 47.7832C37.2366 47.7398 37.2269 47.6916 37.2318 47.6437C37.2368 47.5958 37.2563 47.55 37.2883 47.511C37.6835 46.7764 38.0786 46.0487 38.5172 45.3246C38.5963 45.1818 38.7385 45.0669 38.948 45.1714C39.0159 45.2038 39.0666 45.2586 39.0888 45.3239C39.111 45.3891 39.103 45.4595 39.0665 45.5195C38.6516 46.2681 38.2367 47.0131 37.8139 47.7547C37.788 47.8059 37.7466 47.8498 37.6944 47.8818C37.6421 47.9137 37.581 47.9324 37.5175 47.9358Z" stroke="white" stroke-miterlimit="10"/>
<path id="Vector_53" d="M15.1911 11.8801C15.2501 11.8748 15.3093 11.8879 15.3584 11.9172C15.4076 11.9465 15.4434 11.99 15.4598 12.0402C15.4818 12.089 15.4848 12.1428 15.4684 12.1932C15.4519 12.2436 15.4169 12.2878 15.3689 12.3188C14.6102 12.783 13.8502 13.2414 13.0889 13.694C13.0292 13.7323 12.9553 13.7492 12.882 13.7415C12.8087 13.7337 12.7414 13.7018 12.6937 13.6522C12.667 13.632 12.6455 13.6068 12.6308 13.5786C12.6161 13.5504 12.6085 13.5197 12.6085 13.4886C12.6085 13.4575 12.6161 13.4268 12.6308 13.3986C12.6455 13.3703 12.667 13.3452 12.6937 13.325C13.4247 12.7749 14.2194 12.2941 15.0646 11.8905C15.1057 11.8803 15.1486 11.8768 15.1911 11.8801V11.8801Z" stroke="white" stroke-miterlimit="10"/>
<path id="Vector_54" d="M33.8978 4.79149C34.4906 4.92728 35.2374 5.08743 35.9803 5.26848C36.0235 5.27523 36.0646 5.28994 36.1009 5.31163C36.1372 5.33331 36.1679 5.3615 36.1911 5.39436C36.2142 5.42721 36.2292 5.46398 36.2351 5.50228C36.241 5.54058 36.2377 5.57955 36.2253 5.61664C36.2194 5.65733 36.2031 5.69631 36.1776 5.73065C36.1521 5.76498 36.1181 5.79379 36.0782 5.8149C36.0383 5.83601 35.9934 5.84887 35.947 5.85252C35.9007 5.85617 35.854 5.85052 35.8104 5.83598C35.0794 5.67931 34.3562 5.51219 33.6291 5.35204C33.4316 5.30677 33.3051 5.20581 33.3407 5.00387C33.3762 4.80194 33.5422 4.76712 33.8978 4.79149Z" stroke="white" stroke-miterlimit="10"/>
<path id="Vector_55" d="M10.5203 18.8329C10.2319 18.7876 10.1252 18.6066 10.2872 18.422C10.8213 17.7962 11.4177 17.2137 12.0694 16.6812C12.0951 16.6606 12.1254 16.6449 12.1584 16.6352C12.1914 16.6256 12.2264 16.6221 12.261 16.625C12.2956 16.628 12.3292 16.6373 12.3595 16.6524C12.3897 16.6675 12.4161 16.688 12.4369 16.7126C12.5317 16.7961 12.5752 16.9145 12.4922 16.9946C11.8994 17.5934 11.3067 18.1818 10.6863 18.7667C10.6666 18.8155 10.5915 18.8155 10.5203 18.8329Z" stroke="white" stroke-miterlimit="10"/>
<path id="Vector_56" d="M24.5998 4.44333C24.995 4.41199 25.2439 4.37718 25.2953 4.6383C25.3466 4.89942 25.0937 4.93075 24.9001 4.95861C24.3706 5.02824 23.8451 5.09439 23.3195 5.1501C23.114 5.17447 22.8453 5.23366 22.8018 4.95861C22.7584 4.68356 22.9797 4.64874 23.197 4.61045C23.7186 4.55474 24.2481 4.48511 24.5998 4.44333Z" stroke="white" stroke-miterlimit="10"/>
<path id="Vector_57" d="M18.9056 48.4476C18.5737 48.3466 18.5104 48.1725 18.7001 47.9636C19.0953 47.5667 19.4904 47.1838 19.8856 46.7973C19.9094 46.7635 19.9415 46.7349 19.9795 46.7136C20.0176 46.6922 20.0606 46.6787 20.1054 46.674C20.1502 46.6693 20.1956 46.6736 20.2383 46.6865C20.281 46.6994 20.3198 46.7206 20.3519 46.7486C20.3827 46.7718 20.4075 46.8006 20.4245 46.833C20.4415 46.8655 20.4503 46.9008 20.4503 46.9366C20.4503 46.9723 20.4415 47.0076 20.4245 47.0401C20.4075 47.0725 20.3827 47.1014 20.3519 47.1246C19.9567 47.5319 19.5615 47.9288 19.1308 48.3292C19.0624 48.3777 18.9865 48.4175 18.9056 48.4476V48.4476Z" stroke="white" stroke-miterlimit="10"/>
<path id="Vector_58" d="M12.5198 41.3485C12.2274 41.2685 12.1563 41.0909 12.3065 40.9064C12.666 40.4747 13.0533 40.0638 13.4366 39.6495C13.459 39.6234 13.4872 39.6016 13.5194 39.5853C13.5516 39.569 13.5872 39.5586 13.6241 39.5547C13.661 39.5508 13.6984 39.5535 13.7341 39.5626C13.7697 39.5717 13.803 39.5871 13.8318 39.6077C13.8626 39.6221 13.8898 39.642 13.9115 39.6661C13.9332 39.6902 13.9491 39.7181 13.958 39.7478C13.9669 39.7776 13.9687 39.8087 13.9633 39.8391C13.9579 39.8695 13.9454 39.8986 13.9266 39.9246C13.587 40.4085 13.1896 40.8591 12.7411 41.2685C12.6736 41.307 12.5986 41.3342 12.5198 41.3485V41.3485Z" stroke="white" stroke-miterlimit="10"/>
<path id="Vector_59" d="M22.3197 48.4232C22.2413 48.5268 22.1569 48.6267 22.0668 48.7226C21.7823 49.0081 21.4899 49.2867 21.1935 49.5687C21.1709 49.5974 21.1417 49.6217 21.1079 49.6401C21.0741 49.6584 21.0364 49.6704 20.997 49.6753C20.9577 49.6802 20.9177 49.6779 20.8794 49.6686C20.8411 49.6592 20.8055 49.643 20.7747 49.6209C20.7408 49.6017 20.7121 49.5763 20.6905 49.5464C20.669 49.5165 20.6551 49.4828 20.6498 49.4477C20.6445 49.4125 20.648 49.3768 20.66 49.343C20.6721 49.3092 20.6923 49.2781 20.7194 49.2518C21.075 48.8828 21.4464 48.5242 21.8218 48.1656C21.8645 48.1289 21.9195 48.1054 21.9786 48.0985C22.0377 48.0916 22.0978 48.1017 22.1498 48.1273C22.2763 48.176 22.3158 48.2665 22.3197 48.4232Z" stroke="white" stroke-miterlimit="10"/>
<path id="Vector_60" d="M36.4585 49.593C36.4206 49.5944 36.3827 49.5892 36.3471 49.5777C36.3115 49.5662 36.2788 49.5487 36.2509 49.526C36.2231 49.5034 36.2005 49.4761 36.1846 49.4458C36.1686 49.4155 36.1597 49.3827 36.1581 49.3493C36.1265 49.1265 36.5533 48.6077 36.7746 48.6147C36.8137 48.6136 36.8525 48.6198 36.8887 48.6329C36.9248 48.646 36.9574 48.6657 36.9843 48.6907C37.0112 48.7157 37.0318 48.7454 37.0447 48.7779C37.0575 48.8104 37.0625 48.845 37.0591 48.8793C37.071 49.0812 36.66 49.5791 36.4585 49.593Z" stroke="white" stroke-miterlimit="10"/>
<path id="Vector_61" d="M10.9155 35.8337C10.8167 36.0634 10.7298 36.328 10.4057 36.4046C10.3666 36.4154 10.3249 36.4174 10.2847 36.4103C10.2444 36.4032 10.2068 36.3873 10.1754 36.3641C10.1439 36.3409 10.1195 36.3111 10.1046 36.2774C10.0896 36.2437 10.0844 36.2073 10.0896 36.1714C10.1449 35.8998 10.2556 35.6178 10.6152 35.5516C10.7811 35.5203 10.872 35.6596 10.9155 35.8337Z" stroke="white" stroke-miterlimit="10"/>
<path id="Vector_62" d="M28.5 55C41.4787 55 52 42.9117 52 28C52 13.0883 41.4787 1 28.5 1C15.5213 1 5 13.0883 5 28C5 42.9117 15.5213 55 28.5 55Z" stroke="white" stroke-width="2" stroke-miterlimit="10"/>
</g>
<defs>
<filter id="filter0_d" x="0" y="0" width="57" height="64" filterUnits="userSpaceOnUse" color-interpolation-filters="sRGB">
<feFlood flood-opacity="0" result="BackgroundImageFix"/>
<feColorMatrix in="SourceAlpha" type="matrix" values="0 0 0 0 0 0 0 0 0 0 0 0 0 0 0 0 0 0 127 0"/>
<feOffset dy="4"/>
<feGaussianBlur stdDeviation="2"/>
<feColorMatrix type="matrix" values="0 0 0 0 0 0 0 0 0 0 0 0 0 0 0 0 0 0 0.25 0"/>
<feBlend mode="normal" in2="BackgroundImageFix" result="effect1_dropShadow"/>
<feBlend mode="normal" in="SourceGraphic" in2="effect1_dropShadow" result="shape"/>
</filter>
</defs>
</svg>
