<svg width="1857" height="1206" viewBox="0 0 1857 1206" fill="none" xmlns="http://www.w3.org/2000/svg">
<g filter="url(#filter0_f)">
<path d="M1254.41 286H602.594C427.744 286 286 427.744 286 602.594C286 777.444 427.744 919.188 602.594 919.188H1254.41C1429.26 919.188 1571 777.444 1571 602.594C1571 427.744 1429.26 286 1254.41 286Z" fill="#F50057" fill-opacity="0.4"/>
</g>
<g filter="url(#filter1_f)">
<path d="M1224.24 417.852H615.63C519.154 417.852 440.945 496.062 440.945 592.538C440.945 689.014 519.154 767.223 615.631 767.223H1224.24C1320.71 767.223 1398.92 689.014 1398.92 592.538C1398.92 496.062 1320.71 417.852 1224.24 417.852Z" fill="#00BFA6" fill-opacity="0.8"/>
</g>
<g filter="url(#filter2_f)">
<path d="M575.341 553.803H599.657C602.831 553.852 605.907 554.877 608.886 556.879C611.913 558.881 614.135 561.298 615.551 564.13L627.709 588.74C630.004 593.183 631.151 597.822 631.151 602.656C631.151 607.148 629.931 611.762 627.489 616.499L615.258 640.815C613.695 643.94 611.449 646.455 608.52 648.359C605.59 650.214 602.318 651.142 598.705 651.142H575.194C573.485 651.142 572.021 650.532 570.8 649.311C569.628 648.09 569.042 646.65 569.042 644.99C569.042 643.281 569.628 641.816 570.8 640.595C572.021 639.326 573.485 638.691 575.194 638.691H581.64V566.254H575.341C573.632 566.254 572.167 565.644 570.946 564.423C569.775 563.154 569.189 561.665 569.189 559.956C569.189 558.295 569.775 556.855 570.946 555.634C572.167 554.414 573.632 553.803 575.341 553.803ZM593.944 566.254V638.837H598.266C601 638.837 603.051 637.495 604.418 634.809L616.576 610.639C618.09 607.465 618.847 604.804 618.847 602.656C618.847 599.97 618.236 597.431 617.016 595.039L604.418 569.99C603.1 567.5 600.951 566.254 597.973 566.254H593.944ZM705.566 562.812L719.115 590.424C721.02 594.184 721.972 598.261 721.972 602.656C721.972 606.953 721.02 611.005 719.115 614.814L705.566 642.133C702.685 648.139 697.802 651.142 690.917 651.142C687.646 651.142 684.692 650.288 682.055 648.579C679.467 646.87 677.514 644.721 676.195 642.133L662.572 614.814C660.766 611.249 659.862 607.197 659.862 602.656C659.862 598.115 660.766 594.038 662.572 590.424L676.195 562.812C679.272 556.806 684.179 553.803 690.917 553.803C697.753 553.803 702.636 556.806 705.566 562.812ZM686.816 568.964L674.071 594.892C672.9 597.48 672.314 600.019 672.314 602.509C672.314 605.195 672.9 607.758 674.071 610.2L687.182 636.42C687.865 638.032 689.11 638.837 690.917 638.837C692.48 638.837 693.676 638.032 694.506 636.42L707.69 610.2C708.91 607.612 709.521 605.048 709.521 602.509C709.521 599.824 708.91 597.285 707.69 594.892L694.799 568.964C693.969 567.06 692.675 566.108 690.917 566.108C689.159 566.108 687.792 567.06 686.816 568.964ZM787.89 591.889V632.832L791.479 638.837H796.606L800.341 632.685V560.102C800.341 558.393 800.951 556.928 802.172 555.708C803.441 554.438 804.931 553.803 806.64 553.803C808.3 553.803 809.74 554.414 810.961 555.634C812.182 556.855 812.792 558.295 812.792 559.956V634.663C812.792 635.59 812.279 636.884 811.254 638.544L805.541 647.993C804.369 650.092 802.587 651.142 800.194 651.142H788.622C784.96 651.142 782.616 649.482 781.591 646.162C780.468 649.482 778.222 651.142 774.853 651.142H764.013C760.888 651.142 758.642 649.995 757.274 647.7L752.001 638.837C751.025 637.226 750.536 635.834 750.536 634.663V560.102C750.536 558.393 751.147 556.928 752.367 555.708C753.637 554.438 755.126 553.803 756.835 553.803C758.446 553.803 759.838 554.438 761.01 555.708C762.231 556.928 762.841 558.393 762.841 560.102V632.978L766.43 638.837H771.703L775.585 632.685V591.889C775.585 590.18 776.171 588.74 777.343 587.568C778.564 586.347 780.028 585.737 781.737 585.737C783.446 585.737 784.887 586.347 786.059 587.568C787.279 588.74 787.89 590.18 787.89 591.889ZM903.319 560.102V651.142H886.767L853.661 575.556V644.99C853.661 646.699 853.051 648.164 851.83 649.384C850.658 650.556 849.218 651.142 847.509 651.142C845.8 651.142 844.335 650.556 843.114 649.384C841.942 648.164 841.357 646.699 841.357 644.99V553.803H857.69L890.868 629.243V560.102C890.868 558.393 891.479 556.928 892.699 555.708C893.969 554.438 895.458 553.803 897.167 553.803C898.876 553.803 900.316 554.414 901.488 555.634C902.709 556.855 903.319 558.344 903.319 560.102ZM932.03 651.142V559.956C932.03 558.295 932.641 556.855 933.861 555.634C935.082 554.414 936.523 553.803 938.183 553.803C939.843 553.803 941.283 554.414 942.504 555.634C943.725 556.855 944.335 558.295 944.335 559.956V638.837H987.841C989.55 638.837 991.015 639.448 992.235 640.668C993.505 641.84 994.14 643.281 994.14 644.99C994.14 646.699 993.505 648.164 992.235 649.384C991.015 650.556 989.55 651.142 987.841 651.142H932.03ZM1068.26 562.812L1081.81 590.424C1083.71 594.184 1084.67 598.261 1084.67 602.656C1084.67 606.953 1083.71 611.005 1081.81 614.814L1068.26 642.133C1065.38 648.139 1060.5 651.142 1053.61 651.142C1050.34 651.142 1047.39 650.288 1044.75 648.579C1042.16 646.87 1040.21 644.721 1038.89 642.133L1025.27 614.814C1023.46 611.249 1022.56 607.197 1022.56 602.656C1022.56 598.115 1023.46 594.038 1025.27 590.424L1038.89 562.812C1041.97 556.806 1046.87 553.803 1053.61 553.803C1060.45 553.803 1065.33 556.806 1068.26 562.812ZM1049.51 568.964L1036.77 594.892C1035.59 597.48 1035.01 600.019 1035.01 602.509C1035.01 605.195 1035.59 607.758 1036.77 610.2L1049.88 636.42C1050.56 638.032 1051.81 638.837 1053.61 638.837C1055.17 638.837 1056.37 638.032 1057.2 636.42L1070.38 610.2C1071.61 607.612 1072.22 605.048 1072.22 602.509C1072.22 599.824 1071.61 597.285 1070.38 594.892L1057.49 568.964C1056.66 567.06 1055.37 566.108 1053.61 566.108C1051.85 566.108 1050.49 567.06 1049.51 568.964ZM1113.74 642.573L1138.65 558.417C1139.62 555.341 1141.67 553.803 1144.8 553.803C1147.83 553.803 1149.73 555.097 1150.51 557.685L1175.05 643.159C1175.24 643.793 1175.34 644.404 1175.34 644.99C1175.34 646.699 1174.75 648.164 1173.58 649.384C1172.41 650.556 1171.07 651.142 1169.55 651.142C1166.33 651.142 1164.28 649.653 1163.4 646.674L1158.42 629.975H1130.37L1124.95 647.846C1124.8 648.627 1124.19 649.384 1123.12 650.117C1122.04 650.8 1120.87 651.142 1119.6 651.142C1117.8 651.142 1116.31 650.532 1115.14 649.311C1113.96 648.09 1113.38 646.601 1113.38 644.843C1113.38 644.111 1113.5 643.354 1113.74 642.573ZM1144.65 582.294L1134.11 617.524H1154.83L1144.65 582.294ZM1210.06 553.803H1234.37C1237.55 553.852 1240.62 554.877 1243.6 556.879C1246.63 558.881 1248.85 561.298 1250.27 564.13L1262.43 588.74C1264.72 593.183 1265.87 597.822 1265.87 602.656C1265.87 607.148 1264.65 611.762 1262.21 616.499L1249.97 640.815C1248.41 643.94 1246.17 646.455 1243.24 648.359C1240.31 650.214 1237.04 651.142 1233.42 651.142H1209.91C1208.2 651.142 1206.74 650.532 1205.52 649.311C1204.34 648.09 1203.76 646.65 1203.76 644.99C1203.76 643.281 1204.34 641.816 1205.52 640.595C1206.74 639.326 1208.2 638.691 1209.91 638.691H1216.36V566.254H1210.06C1208.35 566.254 1206.88 565.644 1205.66 564.423C1204.49 563.154 1203.91 561.665 1203.91 559.956C1203.91 558.295 1204.49 556.855 1205.66 555.634C1206.88 554.414 1208.35 553.803 1210.06 553.803ZM1228.66 566.254V638.837H1232.98C1235.72 638.837 1237.77 637.495 1239.13 634.809L1251.29 610.639C1252.81 607.465 1253.56 604.804 1253.56 602.656C1253.56 599.97 1252.95 597.431 1251.73 595.039L1239.13 569.99C1237.82 567.5 1235.67 566.254 1232.69 566.254H1228.66Z" fill="white"/>
</g>
<defs>
<filter id="filter0_f" x="0" y="0" width="1857" height="1205.19" filterUnits="userSpaceOnUse" color-interpolation-filters="sRGB">
<feFlood flood-opacity="0" result="BackgroundImageFix"/>
<feBlend mode="normal" in="SourceGraphic" in2="BackgroundImageFix" result="shape"/>
<feGaussianBlur stdDeviation="143" result="effect1_foregroundBlur"/>
</filter>
<filter id="filter1_f" x="154.945" y="131.852" width="1529.98" height="921.371" filterUnits="userSpaceOnUse" color-interpolation-filters="sRGB">
<feFlood flood-opacity="0" result="BackgroundImageFix"/>
<feBlend mode="normal" in="SourceGraphic" in2="BackgroundImageFix" result="shape"/>
<feGaussianBlur stdDeviation="143" result="effect1_foregroundBlur"/>
</filter>
<filter id="filter2_f" x="562.202" y="546.963" width="710.507" height="111.02" filterUnits="userSpaceOnUse" color-interpolation-filters="sRGB">
<feFlood flood-opacity="0" result="BackgroundImageFix"/>
<feBlend mode="normal" in="SourceGraphic" in2="BackgroundImageFix" result="shape"/>
<feGaussianBlur stdDeviation="3.42021" result="effect1_foregroundBlur"/>
</filter>
</defs>
</svg>
