<?xml version="1.0" encoding="utf-8"?>
<!-- Generator: Adobe Illustrator 23.0.5, SVG Export Plug-In . SVG Version: 6.00 Build 0)  -->
<svg version="1.1" id="Layer_1" xmlns="http://www.w3.org/2000/svg" xmlns:xlink="http://www.w3.org/1999/xlink" x="0px" y="0px"
	 viewBox="0 0 1080 492.7" style="enable-background:new 0 0 1080 492.7;" xml:space="preserve">
<style type="text/css">
	.st0{fill:none;stroke:#FFFFFF;stroke-width:2;stroke-miterlimit:10;}
	.st1{fill:#FFFFFF;}
</style>
<title>Artboard 1biometric</title>
<g>
	<g>
		<path class="st0" d="M579,309c-0.1,0.5-0.5,0.7-0.9,0.3c-0.3-0.3-0.6-0.6-0.9-1c-11.6-13.6-32-15.1-45.6-3.5
			c-0.5,0.4-1,0.9-1.5,1.4c0,0.1-0.1,0.1-0.2,0.1c-0.4,0.3-0.7,0.9-1.2,0.4s0-0.9,0.4-1.2c1.3-1.3,2.7-2.5,4.3-3.6
			c14.3-10,33.8-7.4,45,6C578.6,308.3,579,308.5,579,309z"/>
		<path class="st0" d="M577,329.6c-0.3,4.8-1.1,9.6-2.4,14.2c-0.6,2.3-1.3,4.5-2,6.7c-0.1,0.3-0.2,0.5-0.3,0.7
			c-0.2,0.4-0.4,0.5-0.8,0.4s-0.3-0.5-0.3-0.8c0.4-1.3,0.8-2.5,1.2-3.7c1.5-4.9,2.5-9.9,3.1-15c0.8-8.9-2.6-15.9-9.6-21.3
			c-0.3-0.3-0.7-0.5-1.1-0.8c-0.3-0.1-0.4-0.5-0.3-0.8c0,0,0-0.1,0.1-0.1c0.2-0.2,0.5-0.3,0.8-0.1c0,0,0,0,0.1,0
			c0.7,0.5,1.5,1,2.2,1.5C573.4,315.3,576.9,322.2,577,329.6z"/>
		<path class="st0" d="M581.7,330.7c-0.5,6.2-1.7,12.3-3.5,18.2c-0.9,3-1.9,6-3.2,8.9c-0.2,0.4-0.3,1-0.9,0.8s-0.3-0.8-0.2-1.2
			c3.1-7.5,5.2-15.4,6.3-23.5c0.8-5.5,0-11-2.4-16c0-0.1-0.1-0.2-0.2-0.3c-0.2-0.4-0.5-0.9,0.1-1.1s0.7,0.2,0.9,0.6
			c0.7,1.4,1.2,2.8,1.7,4.3C581.3,324.4,581.7,327.6,581.7,330.7z"/>
		<path class="st0" d="M562.7,329.6c-0.1,1.8-0.3,3.6-0.7,5.4c-0.1,0.5,0,1.1-0.8,1s-0.4-0.8-0.3-1.2c0.2-1.2,0.4-2.4,0.6-3.7
			c0.6-3.5-1-7-4.1-8.9c-4.2-2.6-9.6-1.3-12.2,2.9c-0.6,1-1,2-1.2,3.1c-0.4,2.5-0.8,5-1.4,7.5c-0.1,0.4-0.1,1-0.8,0.9
			s-0.5-0.7-0.3-1.2c0.6-2.4,1-4.8,1.4-7.3c0.8-5.5,5.9-9.2,11.3-8.4c4.3,0.6,7.7,4,8.4,8.3C562.6,328.5,562.6,329,562.7,329.6z"/>
		<path class="st0" d="M557.4,291.4c6.3,0.9,12.2,3.3,17.4,7c5.6,4,10.1,9.3,12.9,15.5c0.1,0.2,0.2,0.5,0.3,0.7s0.2,0.7-0.2,0.9
			s-0.7-0.1-0.9-0.5c-0.6-1.5-1.4-2.9-2.2-4.3c-5.9-9.9-15.9-16.5-27.2-18.2c-0.2,0-0.3,0-0.5-0.1c-0.3-0.1-0.8-0.1-0.8-0.6
			S556.8,291.3,557.4,291.4z"/>
		<path class="st0" d="M552.4,310.2c10.1,0,18.6,7.6,19.7,17.6c0,0.2,0,0.4,0,0.6s-0.1,0.6-0.5,0.7s-0.6-0.2-0.6-0.6
			c-0.2-1-0.2-2-0.5-3c-2.4-9.9-12.3-15.9-22.2-13.6c-1.3,0.3-2.6,0.8-3.9,1.4l-0.3,0.1c-0.3,0.2-0.7,0.3-1-0.1s0.1-0.7,0.5-0.9
			c1.8-0.9,3.7-1.6,5.6-1.9C550.3,310.2,551.4,310.1,552.4,310.2z"/>
		<path class="st0" d="M553,286.4c1.6,0,3.2,0.1,4.7,0.3c0.4,0.1,1,0,1,0.7s-0.7,0.5-1.2,0.5c-6-0.7-12-0.1-17.8,1.8
			c-4.9,1.6-9.5,4-13.5,7.3c-0.2,0.2-0.5,0.4-0.7,0.5c-0.3,0.1-0.6,0-0.7-0.2c-0.1-0.2-0.1-0.5,0.1-0.6c0.3-0.3,0.7-0.6,1-0.9
			C533.7,289.6,543.2,286.4,553,286.4z"/>
		<path class="st0" d="M531.9,347.9c-0.7-0.3-0.5-0.7-0.2-1.2c1.3-2.3,2.4-4.6,3.4-7.1c1.4-3.9,2.4-7.9,3-12
			c0.6-4.3,3.1-8.2,6.9-10.5c0.4-0.3,0.9-0.7,1.3-0.1s-0.2,0.8-0.6,1c-3.6,2.2-6,6-6.5,10.2c-0.9,6.6-3,13-6.3,18.9
			C532.3,347.7,532.2,347.9,531.9,347.9z"/>
		<path class="st0" d="M552.5,301.8c-4.2,0-8.3,1-12,2.8c-0.1,0-0.1,0.1-0.2,0.1c-0.4,0.1-0.8,0.5-1.1-0.1s0.1-0.8,0.6-1
			c3.3-1.7,6.8-2.7,10.5-3c7.6-0.6,15.2,1.8,21,6.8l0.5,0.4c0.3,0.3,0.6,0.6,0.2,1s-0.7,0.2-1-0.1c-1.3-1.2-2.7-2.2-4.3-3.1
			C562.5,303.2,557.5,301.8,552.5,301.8z"/>
		<path class="st0" d="M551.1,291.1h1.8c0.5,0,1.1-0.1,1.1,0.6s-0.7,0.6-1.1,0.6c-3.8,0-7.6,0.6-11.3,1.7
			c-5.5,1.7-10.5,4.6-14.6,8.6l-0.6,0.5c-0.3,0.3-0.7,0.6-1.1,0.3s-0.1-0.8,0.2-1c0.8-0.7,1.5-1.4,2.3-2.1
			C534.4,294.7,542.6,291.5,551.1,291.1z"/>
		<path class="st0" d="M586.4,331.1c-0.2,3.2-0.7,6.4-1.4,9.6c-0.1,0.4-0.2,0.8-0.7,0.7s-0.5-0.5-0.4-1c0.3-2.1,0.7-4.1,1-6.2
			c1.1-7.4-0.5-15-4.4-21.3c-0.1-0.2-0.2-0.3-0.3-0.5c-0.2-0.4-0.5-0.7,0-1.1s0.8,0.1,1,0.5c1.8,2.8,3.1,5.9,4,9.1
			C586.1,324.2,586.5,327.6,586.4,331.1z"/>
		<path class="st0" d="M567.4,330c-0.1,0.8-0.2,1.8-0.3,2.8c0,0.4-0.1,0.8-0.6,0.8s-0.6-0.5-0.5-0.9c0.4-2,0.3-4-0.1-5.9
			c-1.7-7.4-9.1-11.9-16.5-10.2c0,0-0.1,0-0.1,0c-0.4,0.1-0.7,0.3-1.1,0.1c-0.2-0.1-0.3-0.4-0.2-0.6c0.1-0.4,0.5-0.5,0.8-0.5
			c4.1-1.2,8.5-0.4,12,2C565.2,320.4,567.3,324.5,567.4,330z"/>
		<path class="st0" d="M556.1,339.6c-0.6,2.5-1.4,5-2.3,7.4c-2.3,6.1-5.5,11.9-9.5,17.1l-0.4,0.5c-0.2,0.3-0.5,0.3-0.8,0.1
			c0,0,0,0,0,0c-0.2-0.2-0.3-0.5-0.1-0.8c0,0,0,0,0,0c0.5-0.7,1-1.5,1.6-2.2c4.7-6.6,8.1-13.9,10.2-21.7c0.1-0.3,0.1-0.6,0.2-0.9
			s0.3-0.6,0.7-0.5S556.2,339.1,556.1,339.6z"/>
		<path class="st0" d="M566.5,336.3c-0.5,2.9-1.2,5.8-2.1,8.6c-1.8,6-4.3,11.8-7.5,17.3c-0.1,0.2-0.2,0.4-0.4,0.6
			c-0.1,0.3-0.5,0.4-0.7,0.2c0,0,0,0-0.1,0c-0.3-0.2-0.3-0.5-0.2-0.8c0,0,0,0,0,0c0.1-0.3,0.3-0.5,0.4-0.8
			c4.4-7.6,7.5-15.8,9.2-24.4c0-0.3,0.1-0.5,0.2-0.8s0.2-0.6,0.7-0.6S566.6,336,566.5,336.3z"/>
		<path class="st0" d="M528.3,328.4c0.3-4.9,2.1-9.7,5.1-13.6c2.5-3.3,5.9-5.9,9.7-7.5c0.3-0.1,0.6-0.2,0.8-0.3
			c0.2-0.1,0.5,0,0.6,0.3c0.1,0.2,0.1,0.5-0.1,0.7c-0.2,0.1-0.5,0.3-0.7,0.4c-8,3.7-12.7,9.9-14,18.6c-0.1,0.5-0.2,1-0.3,1.5
			s-0.2,0.7-0.6,0.6S528.3,328.8,528.3,328.4z"/>
		<path class="st0" d="M552.3,281.6c1.7-0.1,3.3,0,5,0.2c0.4,0,1,0,1,0.6s-0.6,0.5-1,0.5c-8.6-0.9-17.3,0.7-25.1,4.6
			c-0.4,0.2-0.8,0.6-1.2,0s0.3-0.8,0.7-1C538.1,283.4,545.1,281.7,552.3,281.6z"/>
		<path class="st0" d="M571.8,281.2c-0.1,0.6-0.6,0.6-1.1,0.4c-1.8-0.7-3.6-1.3-5.4-1.8c-6.6-1.8-13.5-2.2-20.3-1.1
			c-0.2,0-0.3,0-0.4,0.1c-0.4,0-0.8,0-0.8-0.5s0.3-0.6,0.7-0.6c0.9-0.1,1.8-0.3,2.7-0.4c8-0.9,16.2,0.2,23.7,3.1
			C571.7,280.6,571.8,280.8,571.8,281.2z"/>
		<path class="st0" d="M561,339.5c-0.6,2.5-1.3,5-2.2,7.4c-2.1,5.9-4.9,11.5-8.3,16.6c-0.1,0.2-0.3,0.4-0.5,0.6
			c-0.2,0.2-0.5,0.3-0.7,0.2c0,0,0,0-0.1,0c-0.2-0.2-0.3-0.5-0.1-0.7c0.1-0.2,0.3-0.5,0.4-0.7c4.7-7,8.1-14.7,10.1-22.8
			c0.1-0.3,0.2-0.6,0.3-1c0.1-0.3,0.3-0.5,0.7-0.5C560.9,338.7,561.1,339,561,339.5z"/>
		<path class="st0" d="M517.4,334.1c-0.6-0.1-0.5-0.6-0.3-1c0.5-1.3,1-2.7,1.3-4c0.6-2.1,0.7-4.4,1.2-6.5c1.1-4.8,3.2-9.4,6.3-13.3
			c0.2-0.2,0.3-0.4,0.5-0.6c0.2-0.2,0.5-0.3,0.8-0.1c0,0,0,0,0,0c0.2,0.2,0.3,0.6,0.1,0.8c0,0,0,0,0,0l-0.2,0.3
			c-3.9,4.9-6.3,10.9-7,17.1c-0.3,2.3-1,4.6-1.9,6.7C518.1,333.7,518,334.1,517.4,334.1z"/>
		<path class="st0" d="M530.8,312.3c-0.1,0.3-0.2,0.6-0.5,0.8c-2.9,3.9-4.8,8.5-5.4,13.3c-0.5,3.5-1.4,7-2.9,10.2
			c-0.1,0.2-0.2,0.5-0.3,0.7c-0.1,0.3-0.5,0.4-0.7,0.3c0,0,0,0,0,0c-0.3-0.1-0.4-0.5-0.3-0.7c0,0,0,0,0,0c0.3-0.7,0.6-1.4,0.9-2.1
			c1.2-3.2,2-6.5,2.5-9.9c0.7-4.6,2.6-8.9,5.4-12.5c0.3-0.3,0.5-0.7,1-0.5C530.7,311.8,530.8,312.1,530.8,312.3z"/>
		<path class="st0" d="M554.3,374c-0.2,0-0.4-0.1-0.5-0.3c-0.1-0.3-0.1-0.6,0.2-0.8c0.8-1.1,1.6-2.2,2.4-3.3
			c3.9-5.5,7.1-11.4,9.5-17.7c0.1-0.2,0.1-0.4,0.2-0.5c0.1-0.4,0.3-0.9,0.8-0.7s0.4,0.7,0.2,1.1c-1.4,3.6-3,7.1-4.8,10.5
			c-2.1,3.7-4.4,7.3-7,10.7C555,373.5,554.8,373.9,554.3,374z"/>
		<path class="st0" d="M572.1,291.2c0.2,0.1,0.5,0.2,0.7,0.3c6.9,3.7,12.7,9.1,16.8,15.8c0.1,0.2,0.2,0.3,0.3,0.5
			c0.2,0.3,0.1,0.6-0.1,0.8c-0.3,0.2-0.7,0.1-0.9-0.2c-0.6-0.9-1.2-1.8-1.8-2.7c-3.8-5.5-8.9-10-14.8-13.1c-0.3-0.1-0.5-0.3-0.7-0.5
			c-0.1-0.1-0.2-0.3-0.1-0.5C571.5,291.3,571.8,291.2,572.1,291.2z"/>
		<path class="st0" d="M571.5,353.7c0,0.1-0.1,0.4-0.2,0.6c-2.5,6.4-5.7,12.4-9.6,18c-0.1,0.1-0.2,0.3-0.3,0.4
			c-0.2,0.3-0.5,0.5-0.8,0.3s-0.3-0.6-0.1-1c1-1.5,2-3,3-4.6c2.6-4.3,4.8-8.7,6.7-13.4c0.1-0.3,0.2-0.6,0.3-0.8
			c0.1-0.2,0.4-0.3,0.7-0.2c0,0,0,0,0,0C571.4,353.2,571.5,353.4,571.5,353.7z"/>
		<path class="st0" d="M543.3,346.6c-0.3,0-0.6-0.2-0.5-0.6c0-0.3,0.1-0.5,0.2-0.7c2.2-5.2,3.7-10.6,4.4-16.2
			c0.1-1.3,0.7-2.5,1.7-3.3c0.3-0.3,0.7-0.5,1-0.1s0.1,0.6-0.2,0.9c-0.9,0.9-1.5,2.2-1.5,3.5c-0.7,5.4-2.2,10.6-4.3,15.6
			C544,346,543.9,346.6,543.3,346.6z"/>
		<path class="st0" d="M532.6,331.3c0.6-6.4,2.2-12.3,7.4-16.5c0.2-0.2,0.5-0.4,0.7-0.5c0.2-0.1,0.6-0.1,0.7,0.2
			c0.2,0.2,0.1,0.5-0.1,0.7l-0.3,0.2c-4.1,3.3-6.6,8.1-7,13.4c-0.1,0.9-0.3,1.8-0.5,2.8c-0.1,0.4-0.3,0.6-0.7,0.6
			S532.5,331.7,532.6,331.3z"/>
		<path class="st0" d="M542.2,349.6c-0.1,0.2-0.2,0.5-0.3,0.7c-2.5,4.7-5.6,9.1-9.3,13c-0.1,0.2-0.3,0.3-0.5,0.5
			c-0.2,0.2-0.6,0.2-0.8,0c-0.2-0.2-0.2-0.6,0-0.8c0,0,0,0,0,0c0.6-0.6,1.2-1.3,1.7-1.9c3-3.5,5.6-7.2,7.8-11.3
			c0.1-0.3,0.3-0.5,0.5-0.8c0.1-0.2,0.4-0.3,0.6-0.1C542.1,349.1,542.3,349.3,542.2,349.6z"/>
		<path class="st0" d="M548.6,347.2l-0.2,0.5c-2.1,4.9-4.8,9.6-8,13.8c-0.1,0.2-0.3,0.4-0.4,0.5c-0.2,0.1-0.4,0.1-0.6,0
			c-0.2-0.1-0.3-0.4-0.2-0.6c0,0,0,0,0,0c0.1-0.3,0.3-0.5,0.5-0.8c3.1-4.1,5.7-8.6,7.7-13.3c0.1-0.2,0.2-0.5,0.3-0.7
			c0.1-0.3,0.4-0.4,0.7-0.2c0,0,0,0,0,0C548.6,346.5,548.7,346.8,548.6,347.2z"/>
		<path class="st0" d="M572,332.6c-0.7,5.1-1.8,10-3.3,14.9c-0.1,0.4-0.4,0.8-0.8,0.6s-0.4-0.7-0.2-1.2c1.3-4,2.2-8.1,2.9-12.2
			c0.1-0.8,0.2-1.6,0.3-2.3c0-0.4,0.1-0.8,0.6-0.8S572,332.1,572,332.6z"/>
		<path class="st0" d="M551.9,305.4c3.5-0.1,6.9,0.6,10.1,1.9c0.4,0.2,1,0.3,0.7,0.9s-0.8,0.3-1.2,0.1c-4.4-1.9-9.4-2.3-14.1-1.2
			c-0.4,0.1-1,0.3-1.1-0.3s0.5-0.7,0.9-0.8C548.8,305.6,550.3,305.4,551.9,305.4z"/>
		<path class="st0" d="M553.2,329.9c-0.2,1.9-0.6,3.8-1,5.8c-0.6,2.7-1.4,5.4-2.3,8.1c-0.1,0.4-0.3,0.9-0.8,0.7s-0.4-0.6-0.3-1
			c1.5-4.4,2.6-8.9,3.2-13.4c0-0.4,0.1-0.9,0.7-0.8C553.1,329.2,553.2,329.5,553.2,329.9z"/>
		<path class="st0" d="M557.9,330.1c-0.2,2-0.5,3.9-0.9,5.8c-0.1,0.4-0.2,0.7-0.7,0.6s-0.5-0.5-0.5-0.9c0.3-1.5,0.5-3,0.8-4.5
			c0.6-3.4-1-5.3-4.4-5.5c-0.4,0-0.8,0-0.8-0.5s0.4-0.6,0.8-0.6C555.1,324,557.9,326.6,557.9,330.1z"/>
		<path class="st0" d="M561.1,282.4c0.6,0.1,1.3,0.3,2,0.5c3.8,0.9,7.5,2.2,10.9,4c0.4,0.2,1,0.4,0.7,1s-0.8,0.2-1.2,0
			c-3.9-2-8.1-3.4-12.3-4.3c-0.4-0.1-0.9-0.1-0.9-0.7S560.7,282.5,561.1,282.4z"/>
		<path class="st0" d="M524,305.5c-0.1,0.3-0.2,0.6-0.4,0.8c-2.6,3.2-4.7,6.8-6.1,10.7c-0.2,0.4-0.3,1-0.9,0.8
			c-0.6-0.2-0.4-0.7-0.3-1.1c1.5-4.1,3.6-7.8,6.3-11.2c0.2-0.3,0.5-0.6,0.9-0.5C523.9,305.1,524,305.3,524,305.5z"/>
		<path class="st0" d="M532.7,335.3c0,0.1-0.1,0.4-0.2,0.6c-1.1,3.5-2.6,6.8-4.5,9.9l-0.2,0.4c-0.2,0.3-0.5,0.7-0.9,0.3
			s-0.3-0.6,0-1c2-3.2,3.6-6.6,4.7-10.2c0.1-0.4,0.3-0.7,0.8-0.6C532.5,334.7,532.7,334.9,532.7,335.3z"/>
		<path class="st0" d="M536,350.5c-0.5-0.1-0.7-0.5-0.5-0.8c1.9-3.4,3.5-6.9,4.8-10.5c0.1-0.3,0.3-0.4,0.6-0.4c0,0,0.1,0,0.1,0
			c0.3,0.1,0.4,0.4,0.3,0.7c0,0,0,0,0,0.1c-0.2,0.6-0.4,1.2-0.6,1.8c-1.1,2.9-2.4,5.6-3.9,8.3C536.6,350,536.4,350.4,536,350.5z"/>
		<path class="st0" d="M591.1,327.4c0,0.4,0,0.8,0,1.2s0,0.7-0.5,0.7s-0.6-0.3-0.7-0.7c-0.1-1.4-0.2-2.8-0.4-4.2
			c-0.3-2.1-0.8-4.2-1.5-6.2c-0.2-0.4-0.4-0.9,0.2-1.2s0.8,0.4,0.9,0.8C590.3,320.9,590.9,324.1,591.1,327.4z"/>
		<path class="st0" d="M541.6,278.7c0,0.4-0.3,0.6-0.7,0.6c-3.3,0.8-6.5,1.9-9.6,3.4c-0.4,0.2-0.8,0.3-1-0.2s0.1-0.7,0.5-0.8
			c3.1-1.5,6.4-2.6,9.8-3.4C541.1,278.2,541.5,278.2,541.6,278.7z"/>
		<path class="st0" d="M585.9,295.6c0,0.2-0.1,0.4-0.3,0.5c-0.3,0.1-0.6-0.1-0.8-0.3c-1.2-1-2.4-2.1-3.7-3.1s-2.6-1.8-3.8-2.7
			c-0.3-0.2-0.8-0.5-0.5-1s0.7-0.3,1.1,0c2.8,1.7,5.3,3.7,7.7,6C585.6,295.1,585.9,295.3,585.9,295.6z"/>
		<path class="st0" d="M553.6,273.3h-2.8c-0.4,0-0.8,0-0.8-0.5s0.3-0.6,0.8-0.7c3.1-0.2,6.2-0.1,9.3,0.5c0.4,0.1,0.7,0.3,0.6,0.8
			s-0.5,0.5-0.9,0.4C557.7,273.4,555.6,273.3,553.6,273.3z"/>
		<path class="st0" d="M548.6,373.5c-0.2,0-0.5-0.1-0.5-0.3c-0.1-0.3,0-0.6,0.2-0.8c0.9-1.2,1.9-2.3,2.8-3.5s1.8-2.4,2.6-3.6
			c0.3-0.4,0.5-0.8,1-0.5s0.2,0.7-0.1,1.1c-1.7,2.5-3.5,5-5.5,7.3C549.1,373.3,548.9,373.5,548.6,373.5z"/>
		<path class="st0" d="M534.7,352.9c-0.1,0.1-0.2,0.3-0.3,0.5c-1.6,2.3-3.3,4.4-5.2,6.5c-0.3,0.3-0.6,0.7-1,0.3s-0.1-0.8,0.2-1.1
			c1.9-2,3.6-4.2,5.1-6.4c0.2-0.3,0.4-0.6,0.8-0.5S534.7,352.6,534.7,352.9z"/>
		<path class="st0" d="M525.3,339c0.6,0.1,0.6,0.6,0.4,1c-0.7,1.2-1.3,2.5-2,3.6c-0.6,1-1.3,2-2,3c-0.2,0.4-0.6,0.7-1,0.3
			s-0.2-0.7,0.1-1c1.5-2,2.8-4.1,3.9-6.4C524.8,339.3,525,339,525.3,339z"/>
		<path class="st0" d="M525.7,356.4c-0.6-0.2-0.7-0.6-0.3-1c1.6-1.8,3.1-3.7,4.5-5.7c0.2-0.3,0.5-0.5,0.8-0.3s0.3,0.6,0.1,0.9
			c-1.4,2.1-2.9,4.1-4.6,5.9C526,356.3,525.9,356.4,525.7,356.4z"/>
		<path class="st0" d="M578.2,361.3c-0.7-0.2-0.6-0.6-0.4-1.1l1.8-4.4c0.2-0.6,0.4-1.2,0.7-1.8c0.2-0.4,0.4-0.7,0.8-0.5
			s0.4,0.5,0.3,0.9c-0.8,2.2-1.7,4.3-2.5,6.5C578.7,361.1,578.5,361.3,578.2,361.3z"/>
		<path class="st0" d="M581.5,350.2l1.6-6.1c0-0.3,0.3-0.5,0.6-0.5c0,0,0,0,0.1,0c0.3,0,0.5,0.3,0.5,0.6c0,0.1,0,0.1,0,0.1
			c-0.5,2-1.1,4.1-1.7,6.1c0,0.3-0.3,0.5-0.6,0.5c0,0-0.1,0-0.1,0C581.5,350.9,581.5,350.6,581.5,350.2z"/>
		<path class="st0" d="M562.4,287.6c2.1,0.5,4.1,1.2,6.1,2c0.3,0.1,0.6,0.4,0.4,0.8c-0.1,0.3-0.5,0.4-0.7,0.3c0,0,0,0,0,0
			c-2-0.8-4-1.4-6.1-2c-0.3,0-0.5-0.3-0.5-0.6c0-0.1,0-0.1,0-0.2C561.8,287.6,562.1,287.6,562.4,287.6z"/>
		<path class="st0" d="M532.2,310.5c-0.2,0-0.4-0.1-0.5-0.3c-0.1-0.2-0.1-0.5,0.1-0.7c1.5-1.5,3.1-2.9,4.8-4c0.2-0.2,0.6-0.2,0.8,0
			c0,0,0,0,0,0c0.2,0.2,0.2,0.5,0,0.7c0,0-0.1,0.1-0.1,0.1c-1.7,1.2-3.3,2.5-4.8,4C532.4,310.5,532.3,310.5,532.2,310.5z"/>
		<path class="st0" d="M528.8,331.5c-0.4,1.8-1,3.6-1.7,5.3c-0.1,0.3-0.4,0.5-0.7,0.4c0,0,0,0,0,0c-0.4-0.1-0.5-0.5-0.3-0.8
			c0.7-1.7,1.2-3.5,1.7-5.2c0.1-0.4,0.3-0.6,0.7-0.5S528.9,331,528.8,331.5z"/>
		<path class="st0" d="M577.5,315c0,0.2-0.1,0.5-0.3,0.5c-0.4,0.2-0.6,0-0.8-0.3c-0.7-1-1.4-2-2.1-2.9c-0.4-0.5-0.8-1-1.3-1.5
			c-0.2-0.2-0.2-0.6,0-0.8c0,0,0,0,0,0c0.2-0.2,0.5-0.3,0.7-0.1c0,0,0,0,0.1,0.1c1.4,1.4,2.6,3,3.6,4.7
			C577.5,314.9,577.5,314.9,577.5,315z"/>
		<path class="st0" d="M547.7,367.4c-0.1,0.2-0.2,0.4-0.3,0.6c-1,1.2-2,2.5-3.1,3.7c-0.3,0.3-0.6,0.7-1,0.3s-0.2-0.7,0.1-1.1
			l3.2-3.9c0.2-0.3,0.5-0.5,0.9-0.3C547.7,366.8,547.8,367,547.7,367.4z"/>
		<path class="st0" d="M579.4,284.7c-0.1,0.6-0.4,0.8-0.9,0.6c-1.5-0.8-3-1.5-4.5-2.4c-0.3-0.1-0.4-0.4-0.3-0.7c0,0,0,0,0-0.1
			c0.1-0.2,0.4-0.4,0.6-0.3c0,0,0,0,0,0c1.6,0.7,3.1,1.5,4.6,2.4C579.2,284.4,579.3,284.6,579.4,284.7z"/>
		<path class="st0" d="M570.6,366.2c-0.3,0-0.6-0.3-0.5-0.6c0-0.1,0-0.2,0.1-0.3c0.8-1.6,1.5-3.1,2.3-4.7c0.2-0.3,0.4-0.5,0.8-0.3
			c0.3,0.1,0.4,0.5,0.2,0.7c0,0,0,0,0,0c-0.8,1.6-1.6,3.2-2.4,4.8C571.1,366,570.9,366.2,570.6,366.2z"/>
		<path class="st0" d="M528.3,288.5c0.2,0,0.4,0.1,0.5,0.4c0.1,0.2,0,0.5-0.2,0.6c-1.4,1-2.9,2-4.3,3c-0.2,0.2-0.5,0.1-0.7-0.1
			c-0.2-0.2-0.2-0.4-0.1-0.6c0,0,0,0,0.1-0.1c1.4-1.2,2.9-2.2,4.5-3.1C528.1,288.5,528.2,288.5,528.3,288.5z"/>
		<path class="st0" d="M563.8,273.3c1.1,0.3,2.5,0.6,4,1c0.3,0.1,0.5,0.4,0.5,0.7c0,0,0,0,0,0.1c-0.1,0.3-0.4,0.5-0.7,0.4
			c0,0-0.1,0-0.1,0c-1.4-0.3-2.8-0.7-4.1-1c-0.4-0.1-0.6-0.3-0.5-0.7S563.1,273.2,563.8,273.3z"/>
		<path class="st0" d="M519.4,303.5c-0.5-0.1-0.7-0.5-0.5-0.9c1-1.3,2.1-2.6,3.4-3.7c0.2-0.2,0.5-0.2,0.7,0c0,0,0,0,0,0
			c0.2,0.1,0.2,0.4,0.1,0.6c-1.1,1.3-2.3,2.5-3.4,3.8C519.7,303.5,519.5,303.5,519.4,303.5z"/>
		<path class="st0" d="M546.1,272.5c0.8-0.1,1.2-0.1,1.3,0.4s-0.4,0.6-0.8,0.7l-3,0.4c-0.4,0-0.9,0.2-1-0.4s0.3-0.7,0.8-0.7
			C544.5,272.7,545.5,272.6,546.1,272.5z"/>
		<path class="st0" d="M535.3,367.3c-0.6-0.2-0.8-0.6-0.4-1c0.7-0.9,1.5-1.7,2.3-2.5c0.2-0.3,0.5-0.4,0.8-0.2c0,0,0.1,0,0.1,0.1
			c0.2,0.2,0.2,0.5,0,0.8c0,0,0,0,0,0c-0.8,0.9-1.5,1.7-2.3,2.6C535.6,367.2,535.5,367.2,535.3,367.3z"/>
		<path class="st0" d="M523.2,352c-0.5-0.2-0.7-0.6-0.4-1c0.7-0.9,1.4-1.8,2.1-2.7c0.2-0.2,0.5-0.3,0.7-0.1c0.2,0.1,0.3,0.4,0.2,0.6
			c0,0,0,0,0,0c-0.7,1-1.4,2-2.3,2.9C523.5,351.9,523.3,352,523.2,352z"/>
		<path class="st0" d="M541.8,367.2c-0.1,0.2-0.3,0.4-0.5,0.6c-0.5,0.6-1.1,1.2-1.7,1.8c-0.2,0.2-0.5,0.3-0.7,0.2c0,0,0,0,0,0
			c-0.2-0.2-0.3-0.5-0.2-0.7c0,0,0,0,0.1-0.1c0.7-0.8,1.4-1.6,2.1-2.3c0.2-0.2,0.4-0.2,0.6-0.1C541.7,366.7,541.8,366.9,541.8,367.2
			z"/>
		<path class="st0" d="M568.6,369.7c-0.3,0-0.5-0.2-0.6-0.5c0,0,0,0,0,0c-0.1-0.5,0.8-1.6,1.2-1.6c0.3,0,0.5,0.2,0.5,0.5
			c0,0,0,0,0,0.1C569.8,368.7,569,369.7,568.6,369.7z"/>
		<path class="st0" d="M520.1,340.1c-0.2,0.5-0.4,1.1-1,1.2c-0.2,0.1-0.5-0.1-0.6-0.3c0-0.1,0-0.1,0-0.2c0.1-0.6,0.3-1.2,1-1.3
			C519.9,339.4,520.1,339.7,520.1,340.1z"/>
	</g>
	<path class="st1" d="M954.6,289.4c-13.1-11.2-35-9.5-44.8,4.6c-4.4,6.4-9.1,7.4-15.8,7.4c-45.6-0.2-91.2,0-136.8-0.2
		c-3.3,0-7.1,1.5-12.1-3.3c11-10.2,21.9-20.1,32.6-30.2c10-9.4,23.9-8.9,32.8,1.6c0.4,0.5,0.8,1,1.2,1.4
		c11.9,12.7,31.9,13.3,44.6,1.4c12.6-11.9,13.1-32.1,1.1-44.1c-12.6-12.6-34.8-12.6-45.8,1.4c-5.7,7.2-11.8,9-19.5,7.8
		c-13.1-1.9-22.5,2.9-31.3,12.6c-13.4,14.8-28.1,28.4-42.2,42.6c-5.1,5.2-10.1,11.9-18.1,8.3c-6.9-3.1-3.1-10.7-3.2-16.1
		c-0.5-17.6-0.1-35.2-0.2-52.8c-0.1-17.9-5.7-24.1-23.4-24.2c-8,0-10.2-2.8-10-10.4c0.3-13.2,0.4-26.3-1.1-39.5
		c-5.8-53.4-50.8-97.1-104.1-100.7c-56.4-3.8-106.9,32.5-120.2,86c-4.5,18.1-3.8,36.5-3.6,54.8c0.1,7.1-1.9,9.7-9.4,9.8
		c-18.6,0.3-23.9,6.2-24,24.8c-0.1,20-0.3,40,0,60c0.1,6.6-1.9,9.2-8.9,9c-14.4-0.4-28.8-0.4-43.2,0c-6.2,0.2-10.4-2-14.6-6.3
		c-15.4-15.7-31.5-30.8-46.4-46.9c-7.7-8.4-15.8-12.5-27.2-11.1c-6.2,0.8-11.6,0.4-16.5-6.1c-11.4-15.1-33.1-16.2-46.6-3.8
		c-12.4,11.5-12.6,32.3-0.5,44.1c13.8,13.5,34.4,12,47.5-3.3c6.9-8.1,18-9.4,25.8-2.4c11.6,10.4,22.7,21.3,34.1,32
		c-0.6,1.1-1.3,2.2-2,3.2c-1.9,0.1-3.7,0.3-5.6,0.3c-32.8,0-65.6-0.1-98.4,0.1c-4.9,0.1-6.8-2.7-9.3-6
		c-11.5-15.3-32.7-17.7-46.4-5.6c-13.3,11.8-13.6,33.9-0.6,46c13.9,13,34.4,11.7,46.2-4.1c4.4-5.9,9.1-6.5,15.3-6.5
		c45.2,0.1,90.4,0,135.6,0.1c3.6,0,7.8-1.6,12.6,3.4c-9.7,9.1-19.4,18-28.8,27.1c-12.6,12.2-25.2,12.2-37.4-0.5
		c-0.2-0.2-0.4-0.4-0.6-0.6c-12.3-12.2-32.3-12.1-44.5,0.2c-12,11.9-11.6,32.2,0.8,44.1c13,12.3,34,12.2,44.7-1.9
		c5.8-7.7,12.1-9.5,20.4-8.4c12.5,1.7,21.7-2.6,30.3-12.2c13.8-15.4,29.3-29.5,43.8-44.4c4.8-4.9,9.8-9.1,16.6-6.4
		c6.4,2.5,3.3,9.1,3.4,13.8c0.4,17.6,0,35.2,0.2,52.8c0.2,17.2,6.9,24,24.1,24c82.4,0.1,164.8,0.1,247.2,0
		c17.9,0,24.5-6.7,24.6-24.8c0.2-18.8,0.4-37.6-0.1-56.4c-0.2-7.9,2.5-10.5,10.3-10.2c14,0.5,28,0.4,42,0c6.1-0.2,10.5,1.8,14.8,6.1
		c15.7,16,32,31.4,47.3,47.7c6.9,7.3,14.1,11.3,24.1,9.7c8.5-1.3,14.5,1.5,20.3,8.7c10.1,12.6,29.9,13.7,42.1,3.9
		c14.3-11.5,16.1-32.9,3.9-45.7c-12.7-13.3-35.3-13.5-46.6,1.2c-7.6,9.8-17.6,10.8-24.8,5.4c-13.2-9.8-24-22.8-37.7-36.3
		c7-0.3,10.9-0.7,14.7-0.7c28,0,56,0.2,84-0.2c8.5-0.1,14.4,1.5,20.3,8.8c11.4,14.4,32.6,14,45.5,0.6
		C968.8,322.2,967.7,300.6,954.6,289.4z M834.2,239.2c7.5-0.5,11.2,3.9,11.3,10.6c0.1,6.4-4.3,9.8-10,10.9
		c-6.8-0.8-11-3.8-11.1-10.5C824.4,243.8,827.4,239.7,834.2,239.2z M219.6,260.4c-6.3,0-10.6-3.8-10.7-10.2c-0.1-6.8,3.5-11.1,11-11
		c6.9,0.2,9.6,4.5,10,9.8C229.7,256.6,226.1,260.4,219.6,260.4z M163.6,323.8c-6.7-0.1-10.3-4-10.3-10.5c0-7.1,4.1-11.3,11.3-10.9
		c6.5,0.4,9.6,4.8,9.9,11.6C173.7,320.1,170.4,323.9,163.6,323.8z M262.8,387.4c-7.4-0.3-10.7-5.3-10.2-11.8
		c0.4-6.2,4.7-9.8,11.4-9.3c6.7,0.6,9.4,4.8,9.7,11.4C272.8,383.8,269.4,387.7,262.8,387.4z M553.5,381.4c-24.6,0-44.6-26-44.6-58.2
		c0-32.1,20-58.2,44.6-58.2s44.6,26,44.6,58.2C598.1,355.4,578.2,381.4,553.5,381.4z M616.2,207.7c-22.4-0.4-44.8-0.2-67.2-0.2
		c-22.4,0-44.8-0.3-67.2,0.1c-7.2,0.1-10.2-1.8-9.6-9.4c1.1-14.3-1.5-28.8,1.8-43c9.2-39.8,44-64.2,85.8-60
		c34.9,3.5,64.4,36.6,65.8,74.3c0.4,9.6-0.3,19.2,0.3,28.8C626.3,205.9,623.3,207.8,616.2,207.7z M868.1,376.5
		c0.3-6.7,3.8-10.3,10.5-10.2c7.2,0.1,11.1,4.3,10.5,11.4c-0.6,6.4-4.9,9.5-11.2,9.9C871.4,386.7,867.9,383.3,868.1,376.5z
		 M934.8,323.7c-7.2,0.3-11.3-3.6-11.2-10.8c0.1-6.5,4-10,10.4-10.8c6.5,0.7,10.4,4.1,10.6,10.6
		C944.9,319.3,941.6,323.4,934.8,323.7z"/>
</g>
</svg>
