<svg width="823" height="996" viewBox="0 0 823 996" fill="none" xmlns="http://www.w3.org/2000/svg">
<g filter="url(#filter0_f)">
<g filter="url(#filter1_d)">
<path d="M418.678 957.926H418.461C410.563 957.926 402.557 957.702 394.689 957.253L394.813 955.321C402.649 955.771 410.61 955.995 418.461 955.995H418.678V957.926ZM442.666 957.223L442.558 955.306C450.472 954.842 458.478 954.139 466.33 953.226L466.577 955.142C458.679 956.055 450.626 956.759 442.682 957.223H442.666ZM370.778 955.187C362.865 954.274 354.889 953.106 347.053 951.729L347.408 949.828C355.136 951.205 363.143 952.357 371.026 953.271L370.778 955.187ZM490.303 951.654L489.947 949.753C497.753 948.376 505.605 946.759 513.302 944.918L513.781 946.789C506.053 948.63 498.139 950.262 490.303 951.654ZM323.574 946.909C315.846 945.082 308.118 942.986 300.39 940.696L300.977 938.855C308.551 941.13 316.294 943.211 323.992 945.037L323.574 946.909ZM536.873 940.576L536.27 938.735C543.828 936.445 551.417 933.915 558.836 931.25L559.547 933.062C552.097 935.801 544.462 938.361 536.873 940.651V940.576ZM277.669 933.092C270.219 930.352 262.754 927.358 255.458 924.185L256.277 922.418C263.526 925.577 270.961 928.556 278.38 931.28L277.669 933.092ZM581.681 924.11L580.862 922.343C588.08 919.2 595.298 915.787 602.3 912.209L603.227 913.915C596.179 917.508 588.93 920.936 581.681 924.11V924.11ZM233.912 914.035C226.848 910.442 219.816 906.55 212.999 902.583L214.02 900.937C220.805 904.919 227.807 908.751 234.839 912.329L233.912 914.035ZM624.171 902.494L623.135 900.847C629.92 896.88 636.659 892.644 643.228 888.287L644.357 889.874C637.726 894.2 630.94 898.452 624.14 902.449L624.171 902.494ZM192.844 889.949C186.275 885.563 179.768 880.967 173.493 876.162L174.729 874.665C180.912 879.41 187.45 884.021 193.973 888.392L192.844 889.949ZM663.615 876.087L662.379 874.59C668.639 869.845 674.744 864.86 680.71 859.77L682.039 861.267C676.089 866.372 669.891 871.372 663.615 876.147V876.087ZM155.1 861.267C149.134 856.148 143.245 850.788 137.619 845.324L139.025 843.962C144.636 849.396 150.478 854.725 156.414 859.815L155.1 861.267ZM699.567 845.25L698.16 843.887C703.771 838.438 709.289 832.78 714.544 827.032L716.09 828.319C710.804 834.082 705.27 839.786 699.629 845.25H699.567ZM121.08 828.364C115.779 822.586 110.616 816.583 105.701 810.52L107.247 809.322C112.131 815.31 117.293 821.298 122.549 827.076L121.08 828.364ZM731.33 810.4L729.784 809.203C734.699 803.215 739.46 796.883 743.973 790.58L745.611 791.673C741.052 798.05 736.26 804.353 731.33 810.43V810.4ZM91.4348 791.808C86.8906 785.461 82.501 778.904 78.3742 772.347L80.0744 771.344C84.1858 777.901 88.5445 784.428 93.0577 790.805L91.4348 791.808ZM758.626 772.153L756.926 771.165C761.037 764.578 764.994 757.797 768.688 751.001L770.45 751.899C766.787 758.755 762.784 765.581 758.641 772.183L758.626 772.153ZM66.6118 752.138C62.9023 745.312 59.3628 738.291 56.086 731.271L57.8944 730.477C61.1557 737.468 64.6798 744.444 68.3739 751.24L66.6118 752.138ZM781.007 731.001L779.183 730.223C782.46 723.187 785.535 715.987 788.348 708.816L790.203 709.49C787.39 716.705 784.283 723.936 781.007 731.001ZM46.8276 709.849C43.9991 702.634 41.3561 695.239 38.9758 687.874L40.8769 687.305C43.2418 694.625 45.8693 701.975 48.6051 709.16L46.8276 709.849ZM798.009 687.484L796.108 686.916C798.457 679.58 800.621 672.081 802.506 664.626L804.439 665.09C802.537 672.575 800.374 680.059 798.009 687.544V687.484ZM32.6078 665.479C30.7066 657.994 29.0064 650.345 27.5844 642.74L29.5319 642.396C30.9694 649.955 32.6232 657.56 34.5553 665.015L32.6078 665.479ZM809.555 642.336L807.592 641.992C809.014 634.432 810.219 626.753 811.147 619.118L813.125 619.358C812.182 627.007 810.977 634.746 809.555 642.336V642.336ZM23.9058 619.777C22.9475 612.127 22.2211 604.343 21.7419 596.634L23.7358 596.514C24.2149 604.178 24.9414 611.933 25.8997 619.552L23.9058 619.777ZM815.273 596.214L813.295 596.095C813.759 588.445 814.006 580.661 814.006 572.982V572.158H816V572.982C815.938 580.706 815.691 588.52 815.212 596.214H815.273ZM22.9939 573.386H21V572.982C21 565.392 21.2318 557.712 21.6801 550.153L23.674 550.273C23.2257 557.757 22.9939 565.437 22.9939 572.982V573.386ZM813.156 549.045C812.677 541.366 811.935 533.611 810.977 526.022L812.955 525.782C813.929 533.417 814.655 541.216 815.15 548.925L813.156 549.045ZM25.7915 527.234L23.8131 527.01C24.7559 519.345 25.946 511.606 27.368 504.016L29.3155 504.361C27.9708 511.92 26.7189 519.615 25.7915 527.234ZM807.375 503.148C805.938 495.588 804.284 487.969 802.336 480.544L804.269 480.08C806.185 487.565 807.885 495.199 809.338 502.804L807.375 503.148ZM34.2925 481.727L32.345 481.277C34.2461 473.793 36.3946 466.308 38.7594 458.823L40.6605 459.392C38.3112 466.727 36.1627 474.227 34.2925 481.682V481.727ZM795.891 458.269C793.526 450.949 790.883 443.599 788.07 436.413L789.925 435.725C792.753 442.94 795.412 450.335 797.808 457.685L795.891 458.269ZM48.4351 437.521L46.5185 436.848C49.347 429.617 52.4383 422.387 55.7924 415.321L57.6007 416.115C54.2467 423.135 51.2482 430.351 48.4351 437.521ZM778.889 415.067C775.628 408.076 772.088 401.1 768.394 394.319L770.156 393.421C773.881 400.232 777.421 407.253 780.698 414.273L778.889 415.067ZM68.0338 395.292L66.2718 394.394C69.9659 387.567 74 380.741 78.065 374.125L79.7652 375.128C75.6693 381.714 71.7124 388.54 68.0338 395.292ZM756.616 374.334C752.505 367.778 748.131 361.266 743.602 354.949L745.241 353.856C749.785 360.203 754.19 366.745 758.317 373.316L756.616 374.334ZM92.7486 355.682L91.1102 354.589C95.6235 348.242 100.384 341.94 105.346 335.847L106.891 337.045C102.022 343.093 97.2464 349.365 92.7486 355.682ZM729.413 336.222C724.498 330.234 719.351 324.246 714.08 318.482L715.626 317.21C720.912 322.958 726.09 328.961 731.083 335.024L729.413 336.222ZM122.255 319.261L120.709 317.973C125.995 312.195 131.529 306.507 137.155 301.043L138.561 302.405C132.966 307.839 127.448 313.513 122.255 319.261ZM697.697 301.716C692.071 296.282 686.213 290.953 680.277 285.879L681.607 284.382C687.557 289.471 693.446 294.86 699.103 300.294L697.697 301.716ZM155.934 286.522L154.605 285.025C160.556 279.906 166.754 274.891 173.014 270.056L174.25 271.553C168.021 276.448 161.854 281.433 155.934 286.522ZM661.915 271.104C655.733 266.373 649.194 261.762 642.656 257.406L643.785 255.819C650.354 260.206 656.861 264.801 663.136 269.592L661.915 271.104ZM193.447 257.96L192.319 256.373C198.872 251.972 205.627 247.721 212.412 243.709L213.448 245.356C206.678 249.338 199.939 253.574 193.354 257.945L193.447 257.96ZM622.579 244.832C615.778 240.85 608.761 237.033 601.743 233.47L602.671 231.763C609.734 235.341 616.767 239.248 623.614 243.185L622.579 244.832ZM234.221 233.979L233.294 232.272C240.342 228.68 247.591 225.236 254.84 222.063L255.659 223.814C248.441 226.973 241.238 230.401 234.236 233.979H234.221ZM580.243 223.365C572.994 220.222 565.56 217.243 558.125 214.533L558.836 212.737C566.302 215.461 573.767 218.44 581.063 221.614L580.243 223.365ZM277.669 214.892L276.958 213.096C284.408 210.342 292.043 207.782 299.633 205.477L300.235 207.318C292.677 209.608 285.073 212.153 277.669 214.892V214.892ZM535.497 206.959C527.924 204.683 520.18 202.617 512.483 200.791L512.946 198.92C520.674 200.746 528.403 202.827 536.131 205.117L535.497 206.959ZM323.188 201.15L322.709 199.279C330.437 197.423 338.335 195.776 346.172 194.384L346.527 196.285C338.799 197.662 330.885 199.279 323.188 201.15ZM489.066 196.061C481.338 194.698 473.332 193.546 465.449 192.648L465.681 190.731C473.61 191.63 481.601 192.797 489.422 194.159L489.066 196.061ZM370.052 192.797L369.944 190.941C377.842 189.998 385.879 189.294 393.839 188.815L393.963 190.746C386.034 191.21 378.043 191.914 370.176 192.842L370.052 192.797ZM441.584 190.612C433.856 190.193 426.128 189.968 418.4 189.968H417.766V188.037H418.4C426.128 188.037 434.026 188.261 441.754 188.696L441.584 190.612Z" fill="white"/>
</g>
<g filter="url(#filter2_d)">
<path d="M584 816.579V988H819V816.579H584ZM789.627 942.292H613.373V930.865H789.627V942.292ZM789.627 908.011H613.373V896.584H789.627V908.011ZM789.627 873.73H613.373V862.303H789.627V873.73Z" fill="#F50057"/>
</g>
<g filter="url(#filter3_d)">
<path d="M17 173V293.295H182V173.075L17 173ZM161.379 261.211H37.6211V253.202H161.379V261.211ZM161.379 237.167H37.6211V229.143H161.379V237.167ZM161.379 213.123H37.6211V205.084H161.379V213.123Z" fill="white"/>
</g>
<g filter="url(#filter4_d)">
<path d="M86 235.153V355.448H251V235.228L86 235.153ZM230.379 323.364H106.714V315.354H230.456L230.379 323.364ZM230.379 299.32H106.714V291.295H230.456L230.379 299.32ZM230.379 275.276H106.714V267.236H230.456L230.379 275.276Z" fill="#F50057"/>
</g>
<g filter="url(#filter5_d)">
<path d="M643 735.38H194V409.581H643V735.38ZM198.629 414.064V730.897H638.371V414.064H198.629Z" fill="white"/>
</g>
<g filter="url(#filter6_d)">
<path d="M418.5 489.777C401.59 489.777 385.059 494.628 370.999 503.715C356.938 512.803 345.98 525.719 339.508 540.831C333.037 555.943 331.344 572.572 334.643 588.615C337.942 604.658 346.085 619.394 358.042 630.96C370 642.526 385.234 650.403 401.82 653.594C418.405 656.785 435.596 655.147 451.219 648.888C466.843 642.628 480.196 632.028 489.591 618.428C498.986 604.827 504 588.837 504 572.48C504 561.62 501.788 550.865 497.492 540.831C493.195 530.797 486.897 521.68 478.958 514.001C471.018 506.321 461.593 500.229 451.219 496.073C440.846 491.917 429.728 489.777 418.5 489.777V489.777ZM460.841 572.152C460.841 573.906 460.121 575.587 458.839 576.827C457.557 578.067 455.818 578.764 454.005 578.764H424.935V606.884C424.851 608.585 424.093 610.19 422.819 611.365C421.545 612.541 419.852 613.196 418.091 613.196C416.33 613.196 414.637 612.541 413.363 611.365C412.089 610.19 411.331 608.585 411.248 606.884V578.764H382.177C380.365 578.76 378.629 578.062 377.348 576.823C376.067 575.584 375.345 573.904 375.341 572.152V572.152C375.341 570.397 376.061 568.714 377.342 567.471C378.624 566.229 380.362 565.529 382.177 565.525H411.248V537.45C411.252 535.695 411.975 534.013 413.26 532.774C414.544 531.534 416.285 530.838 418.099 530.838V530.838C419.912 530.838 421.65 531.534 422.932 532.774C424.214 534.014 424.935 535.696 424.935 537.45V565.57H454.005C454.904 565.57 455.795 565.741 456.625 566.074C457.455 566.408 458.209 566.896 458.844 567.512C459.479 568.127 459.983 568.858 460.325 569.662C460.668 570.466 460.843 571.327 460.841 572.197V572.152Z" fill="#00BFA6"/>
</g>
<g filter="url(#filter7_d)">
<path d="M4 787.508V907.803H169V787.508H4ZM148.379 875.72H24.6211V867.71H148.379V875.72ZM148.379 851.675H24.6211V843.666H148.379V851.675ZM148.379 827.631H24.6211V819.622H148.379V827.631Z" fill="white"/>
</g>
<g filter="url(#filter8_d)">
<path d="M690 2H129.32V56.79H690V2Z" fill="#00BFA6"/>
</g>
<g filter="url(#filter9_d)">
<path d="M164.043 41.2025H171.144C171.691 41.2025 172.16 41.3978 172.55 41.7884C172.957 42.1634 173.16 42.6243 173.16 43.1712C173.16 43.7181 172.957 44.1868 172.55 44.5775C172.16 44.9525 171.691 45.14 171.144 45.14H163.785C162.847 45.14 161.879 44.8431 160.879 44.2493C159.879 43.6556 159.183 42.9915 158.793 42.2571L154.246 33.4681C153.636 32.2025 153.332 30.9056 153.332 29.5775C153.332 28.1087 153.621 26.8353 154.199 25.7571L158.793 17.0618C159.23 16.2493 159.91 15.5384 160.832 14.929C161.754 14.304 162.644 13.9915 163.504 13.9915H171.285C171.832 13.9915 172.293 14.1868 172.668 14.5775C173.058 14.9681 173.254 15.429 173.254 15.9603C173.254 16.5071 173.058 16.9837 172.668 17.39C172.293 17.7806 171.832 17.9759 171.285 17.9759H163.785C163.16 17.9759 162.652 18.3431 162.261 19.0775L157.902 27.2337C157.558 27.8743 157.386 28.6321 157.386 29.5071C157.386 30.429 157.574 31.2415 157.949 31.9446L162.121 39.9603C162.511 40.7884 163.152 41.2025 164.043 41.2025ZM182.3 43.1712V13.9915H196.222C197.832 13.9915 199.214 14.5775 200.371 15.7493C201.543 16.9212 202.129 18.3196 202.129 19.9446V22.1946C202.129 23.8353 201.55 25.2415 200.394 26.4134C199.238 27.5696 197.847 28.1478 196.222 28.1478H193.714L201.777 41.9759C202.027 42.3821 202.152 42.7884 202.152 43.1946C202.152 43.7259 201.949 44.1868 201.543 44.5775C201.136 44.9525 200.675 45.14 200.16 45.14C199.379 45.14 198.785 44.7884 198.379 44.0853L189.121 28.1478H186.285V43.1712C186.285 43.7181 186.082 44.1868 185.675 44.5775C185.285 44.9525 184.816 45.14 184.269 45.14C183.722 45.14 183.254 44.9525 182.863 44.5775C182.488 44.1868 182.3 43.7181 182.3 43.1712ZM186.238 24.2103H196.222C196.769 24.2103 197.23 24.0228 197.605 23.6478C197.996 23.2571 198.191 22.7884 198.191 22.2415V19.9446C198.191 19.3978 197.996 18.9368 197.605 18.5618C197.23 18.1712 196.769 17.9759 196.222 17.9759H186.238V24.2103ZM229.129 17.9759H215.207V27.5618H221.207C221.738 27.5618 222.199 27.7571 222.589 28.1478C222.98 28.5384 223.175 28.9993 223.175 29.5306C223.175 30.0931 222.98 30.5696 222.589 30.9603C222.214 31.3509 221.754 31.5462 221.207 31.5462H215.207V41.2025H229.175C229.707 41.2025 230.168 41.3978 230.558 41.7884C230.949 42.1634 231.144 42.6243 231.144 43.1712C231.144 43.7181 230.941 44.1868 230.535 44.5775C230.144 44.9525 229.675 45.14 229.129 45.14H211.269V13.9915H229.129C229.675 13.9915 230.144 14.1946 230.535 14.6009C230.941 14.9915 231.144 15.4603 231.144 16.0071C231.144 16.5384 230.941 16.9993 230.535 17.39C230.144 17.7806 229.675 17.9759 229.129 17.9759ZM240.402 42.3978L248.371 15.4681C248.683 14.4837 249.339 13.9915 250.339 13.9915C251.308 13.9915 251.918 14.4056 252.168 15.2337L260.019 42.5853C260.082 42.7884 260.113 42.9837 260.113 43.1712C260.113 43.7181 259.925 44.1868 259.55 44.5775C259.175 44.9525 258.746 45.14 258.261 45.14C257.23 45.14 256.574 44.6634 256.293 43.7103L254.699 38.3665H245.722L243.988 44.0853C243.941 44.3353 243.746 44.5775 243.402 44.8118C243.058 45.0306 242.683 45.14 242.277 45.14C241.699 45.14 241.222 44.9446 240.847 44.554C240.472 44.1634 240.285 43.6868 240.285 43.1243C240.285 42.89 240.324 42.6478 240.402 42.3978ZM250.293 23.1087L246.918 34.3821H253.55L250.293 23.1087ZM269.254 19.3587V14.0384H289.129V19.4056C289.129 19.9525 288.933 20.4212 288.543 20.8118C288.152 21.1868 287.691 21.3743 287.16 21.3743C286.613 21.3743 286.136 21.179 285.73 20.7884C285.339 20.3978 285.144 19.9368 285.144 19.4056V17.9759H281.16V43.1712C281.16 43.7181 280.964 44.1868 280.574 44.5775C280.183 44.9525 279.722 45.14 279.191 45.14C278.629 45.14 278.152 44.9525 277.761 44.5775C277.371 44.1868 277.175 43.7181 277.175 43.1712V17.9759H273.191V19.3587C273.191 19.9056 272.996 20.3743 272.605 20.765C272.23 21.14 271.769 21.3275 271.222 21.3275C270.675 21.3275 270.207 21.14 269.816 20.765C269.441 20.3743 269.254 19.9056 269.254 19.3587ZM316.175 17.9759H302.254V27.5618H308.254C308.785 27.5618 309.246 27.7571 309.636 28.1478C310.027 28.5384 310.222 28.9993 310.222 29.5306C310.222 30.0931 310.027 30.5696 309.636 30.9603C309.261 31.3509 308.8 31.5462 308.254 31.5462H302.254V41.2025H316.222C316.754 41.2025 317.214 41.3978 317.605 41.7884C317.996 42.1634 318.191 42.6243 318.191 43.1712C318.191 43.7181 317.988 44.1868 317.582 44.5775C317.191 44.9525 316.722 45.14 316.175 45.14H298.316V13.9915H316.175C316.722 13.9915 317.191 14.1946 317.582 14.6009C317.988 14.9915 318.191 15.4603 318.191 16.0071C318.191 16.5384 317.988 16.9993 317.582 17.39C317.191 17.7806 316.722 17.9759 316.175 17.9759ZM376.175 16.0071V45.14H370.879L360.285 20.9525V43.1712C360.285 43.7181 360.089 44.1868 359.699 44.5775C359.324 44.9525 358.863 45.14 358.316 45.14C357.769 45.14 357.3 44.9525 356.91 44.5775C356.535 44.1868 356.347 43.7181 356.347 43.1712V13.9915H361.574L372.191 38.1321V16.0071C372.191 15.4603 372.386 14.9915 372.777 14.6009C373.183 14.1946 373.66 13.9915 374.207 13.9915C374.754 13.9915 375.214 14.1868 375.589 14.5775C375.98 14.9681 376.175 15.4446 376.175 16.0071ZM403.222 17.9759H389.3V27.5618H395.3C395.832 27.5618 396.293 27.7571 396.683 28.1478C397.074 28.5384 397.269 28.9993 397.269 29.5306C397.269 30.0931 397.074 30.5696 396.683 30.9603C396.308 31.3509 395.847 31.5462 395.3 31.5462H389.3V41.2025H403.269C403.8 41.2025 404.261 41.3978 404.652 41.7884C405.043 42.1634 405.238 42.6243 405.238 43.1712C405.238 43.7181 405.035 44.1868 404.629 44.5775C404.238 44.9525 403.769 45.14 403.222 45.14H385.363V13.9915H403.222C403.769 13.9915 404.238 14.1946 404.629 14.6009C405.035 14.9915 405.238 15.4603 405.238 16.0071C405.238 16.5384 405.035 16.9993 404.629 17.39C404.238 17.7806 403.769 17.9759 403.222 17.9759ZM426.285 26.179V39.2806L427.433 41.2025H429.074L430.269 39.2337V16.0071C430.269 15.4603 430.464 14.9915 430.855 14.6009C431.261 14.1946 431.738 13.9915 432.285 13.9915C432.816 13.9915 433.277 14.1868 433.668 14.5775C434.058 14.9681 434.254 15.429 434.254 15.9603V39.8665C434.254 40.1634 434.089 40.5775 433.761 41.1087L431.933 44.1321C431.558 44.804 430.988 45.14 430.222 45.14H426.519C425.347 45.14 424.597 44.6087 424.269 43.5462C423.91 44.6087 423.191 45.14 422.113 45.14H418.644C417.644 45.14 416.925 44.7728 416.488 44.0384L414.8 41.2025C414.488 40.6868 414.332 40.2415 414.332 39.8665V16.0071C414.332 15.4603 414.527 14.9915 414.918 14.6009C415.324 14.1946 415.8 13.9915 416.347 13.9915C416.863 13.9915 417.308 14.1946 417.683 14.6009C418.074 14.9915 418.269 15.4603 418.269 16.0071V39.3275L419.418 41.2025H421.105L422.347 39.2337V26.179C422.347 25.6321 422.535 25.1712 422.91 24.7962C423.3 24.4056 423.769 24.2103 424.316 24.2103C424.863 24.2103 425.324 24.4056 425.699 24.7962C426.089 25.1712 426.285 25.6321 426.285 26.179ZM472.41 43.1712V13.9915H486.379C487.988 13.9915 489.371 14.5775 490.527 15.7493C491.699 16.9212 492.285 18.3196 492.285 19.9446V27.3275C492.285 28.9525 491.707 30.3431 490.55 31.4993C489.394 32.6556 488.004 33.2337 486.379 33.2337H476.394V43.1712C476.394 43.7181 476.199 44.1868 475.808 44.5775C475.433 44.9525 474.972 45.14 474.425 45.14C473.863 45.14 473.386 44.9525 472.996 44.5775C472.605 44.1868 472.41 43.7181 472.41 43.1712ZM476.394 29.2962H486.379C486.91 29.2962 487.371 29.1087 487.761 28.7337C488.152 28.3431 488.347 27.8743 488.347 27.3275V19.9446C488.347 19.3978 488.152 18.9368 487.761 18.5618C487.371 18.1712 486.91 17.9759 486.379 17.9759H476.394V29.2962ZM501.472 43.1712V13.9915H515.394C517.004 13.9915 518.386 14.5775 519.543 15.7493C520.714 16.9212 521.3 18.3196 521.3 19.9446V22.1946C521.3 23.8353 520.722 25.2415 519.566 26.4134C518.41 27.5696 517.019 28.1478 515.394 28.1478H512.886L520.949 41.9759C521.199 42.3821 521.324 42.7884 521.324 43.1946C521.324 43.7259 521.121 44.1868 520.714 44.5775C520.308 44.9525 519.847 45.14 519.332 45.14C518.55 45.14 517.957 44.7884 517.55 44.0853L508.293 28.1478H505.457V43.1712C505.457 43.7181 505.254 44.1868 504.847 44.5775C504.457 44.9525 503.988 45.14 503.441 45.14C502.894 45.14 502.425 44.9525 502.035 44.5775C501.66 44.1868 501.472 43.7181 501.472 43.1712ZM505.41 24.2103H515.394C515.941 24.2103 516.402 24.0228 516.777 23.6478C517.168 23.2571 517.363 22.7884 517.363 22.2415V19.9446C517.363 19.3978 517.168 18.9368 516.777 18.5618C516.402 18.1712 515.941 17.9759 515.394 17.9759H505.41V24.2103ZM545.019 16.8743L549.355 25.7103C549.964 26.9134 550.269 28.2181 550.269 29.6243C550.269 30.9993 549.964 32.2962 549.355 33.515L545.019 42.2571C544.097 44.179 542.535 45.14 540.332 45.14C539.285 45.14 538.339 44.8665 537.496 44.3196C536.668 43.7728 536.043 43.0853 535.621 42.2571L531.261 33.515C530.683 32.3743 530.394 31.0775 530.394 29.6243C530.394 28.1712 530.683 26.8665 531.261 25.7103L535.621 16.8743C536.605 14.9525 538.175 13.9915 540.332 13.9915C542.519 13.9915 544.082 14.9525 545.019 16.8743ZM539.019 18.8431L534.941 27.14C534.566 27.9681 534.379 28.7806 534.379 29.5775C534.379 30.4368 534.566 31.2571 534.941 32.0384L539.136 40.429C539.355 40.9446 539.754 41.2025 540.332 41.2025C540.832 41.2025 541.214 40.9446 541.48 40.429L545.699 32.0384C546.089 31.2103 546.285 30.39 546.285 29.5775C546.285 28.7181 546.089 27.9056 545.699 27.14L541.574 18.8431C541.308 18.2337 540.894 17.929 540.332 17.929C539.769 17.929 539.332 18.2337 539.019 18.8431ZM561.379 39.1868V32.9525C561.379 32.4056 561.566 31.9446 561.941 31.5696C562.332 31.179 562.8 30.9837 563.347 30.9837C563.894 30.9837 564.355 31.179 564.73 31.5696C565.121 31.9446 565.316 32.4056 565.316 32.9525V39.2337C565.316 39.765 565.511 40.2181 565.902 40.5931C566.293 40.9681 566.769 41.1556 567.332 41.1556H571.316C571.863 41.1556 572.332 40.9681 572.722 40.5931C573.129 40.2025 573.332 39.7337 573.332 39.1868V15.9603C573.332 15.4134 573.519 14.9525 573.894 14.5775C574.269 14.1868 574.722 13.9915 575.254 13.9915C575.785 13.9915 576.254 14.2025 576.66 14.6243C577.066 15.0462 577.269 15.5228 577.269 16.054V39.1868C577.269 40.8431 576.668 42.2493 575.464 43.4056C574.261 44.5618 572.879 45.14 571.316 45.14H567.332C565.691 45.14 564.285 44.554 563.113 43.3821C561.957 42.2103 561.379 40.8118 561.379 39.1868ZM606.332 17.9759H592.41V27.5618H598.41C598.941 27.5618 599.402 27.7571 599.793 28.1478C600.183 28.5384 600.379 28.9993 600.379 29.5306C600.379 30.0931 600.183 30.5696 599.793 30.9603C599.418 31.3509 598.957 31.5462 598.41 31.5462H592.41V41.2025H606.379C606.91 41.2025 607.371 41.3978 607.761 41.7884C608.152 42.1634 608.347 42.6243 608.347 43.1712C608.347 43.7181 608.144 44.1868 607.738 44.5775C607.347 44.9525 606.879 45.14 606.332 45.14H588.472V13.9915H606.332C606.879 13.9915 607.347 14.1946 607.738 14.6009C608.144 14.9915 608.347 15.4603 608.347 16.0071C608.347 16.5384 608.144 16.9993 607.738 17.39C607.347 17.7806 606.879 17.9759 606.332 17.9759ZM628.293 41.2025H635.394C635.941 41.2025 636.41 41.3978 636.8 41.7884C637.207 42.1634 637.41 42.6243 637.41 43.1712C637.41 43.7181 637.207 44.1868 636.8 44.5775C636.41 44.9525 635.941 45.14 635.394 45.14H628.035C627.097 45.14 626.129 44.8431 625.129 44.2493C624.129 43.6556 623.433 42.9915 623.043 42.2571L618.496 33.4681C617.886 32.2025 617.582 30.9056 617.582 29.5775C617.582 28.1087 617.871 26.8353 618.449 25.7571L623.043 17.0618C623.48 16.2493 624.16 15.5384 625.082 14.929C626.004 14.304 626.894 13.9915 627.754 13.9915H635.535C636.082 13.9915 636.543 14.1868 636.918 14.5775C637.308 14.9681 637.504 15.429 637.504 15.9603C637.504 16.5071 637.308 16.9837 636.918 17.39C636.543 17.7806 636.082 17.9759 635.535 17.9759H628.035C627.41 17.9759 626.902 18.3431 626.511 19.0775L622.152 27.2337C621.808 27.8743 621.636 28.6321 621.636 29.5071C621.636 30.429 621.824 31.2415 622.199 31.9446L626.371 39.9603C626.761 40.7884 627.402 41.2025 628.293 41.2025ZM646.457 19.3587V14.0384H666.332V19.4056C666.332 19.9525 666.136 20.4212 665.746 20.8118C665.355 21.1868 664.894 21.3743 664.363 21.3743C663.816 21.3743 663.339 21.179 662.933 20.7884C662.543 20.3978 662.347 19.9368 662.347 19.4056V17.9759H658.363V43.1712C658.363 43.7181 658.168 44.1868 657.777 44.5775C657.386 44.9525 656.925 45.14 656.394 45.14C655.832 45.14 655.355 44.9525 654.964 44.5775C654.574 44.1868 654.379 43.7181 654.379 43.1712V17.9759H650.394V19.3587C650.394 19.9056 650.199 20.3743 649.808 20.765C649.433 21.14 648.972 21.3275 648.425 21.3275C647.879 21.3275 647.41 21.14 647.019 20.765C646.644 20.3743 646.457 19.9056 646.457 19.3587Z" fill="#F50057"/>
</g>
<g filter="url(#filter10_d)">
<path d="M162.415 41.5325H169.517C170.064 41.5325 170.532 41.7278 170.923 42.1184C171.329 42.4934 171.532 42.9543 171.532 43.5012C171.532 44.0481 171.329 44.5168 170.923 44.9075C170.532 45.2825 170.064 45.47 169.517 45.47H162.157C161.22 45.47 160.251 45.1731 159.251 44.5793C158.251 43.9856 157.556 43.3215 157.165 42.5872L152.618 33.7981C152.009 32.5325 151.704 31.2356 151.704 29.9075C151.704 28.4387 151.993 27.1653 152.572 26.0872L157.165 17.3918C157.603 16.5793 158.282 15.8684 159.204 15.259C160.126 14.634 161.017 14.3215 161.876 14.3215H169.657C170.204 14.3215 170.665 14.5168 171.04 14.9075C171.431 15.2981 171.626 15.759 171.626 16.2903C171.626 16.8372 171.431 17.3137 171.04 17.72C170.665 18.1106 170.204 18.3059 169.657 18.3059H162.157C161.532 18.3059 161.025 18.6731 160.634 19.4075L156.275 27.5637C155.931 28.2043 155.759 28.9622 155.759 29.8372C155.759 30.759 155.947 31.5715 156.322 32.2747L160.493 40.2903C160.884 41.1184 161.525 41.5325 162.415 41.5325ZM180.673 43.5012V14.3215H194.595C196.204 14.3215 197.587 14.9075 198.743 16.0793C199.915 17.2512 200.501 18.6497 200.501 20.2747V22.5247C200.501 24.1653 199.923 25.5715 198.767 26.7434C197.611 27.8997 196.22 28.4778 194.595 28.4778H192.087L200.15 42.3059C200.4 42.7122 200.525 43.1184 200.525 43.5247C200.525 44.0559 200.322 44.5168 199.915 44.9075C199.509 45.2825 199.048 45.47 198.532 45.47C197.751 45.47 197.157 45.1184 196.751 44.4153L187.493 28.4778H184.657V43.5012C184.657 44.0481 184.454 44.5168 184.048 44.9075C183.657 45.2825 183.189 45.47 182.642 45.47C182.095 45.47 181.626 45.2825 181.236 44.9075C180.861 44.5168 180.673 44.0481 180.673 43.5012ZM184.611 24.5403H194.595C195.142 24.5403 195.603 24.3528 195.978 23.9778C196.368 23.5872 196.564 23.1184 196.564 22.5715V20.2747C196.564 19.7278 196.368 19.2668 195.978 18.8918C195.603 18.5012 195.142 18.3059 194.595 18.3059H184.611V24.5403ZM227.501 18.3059H213.579V27.8918H219.579C220.111 27.8918 220.572 28.0872 220.962 28.4778C221.353 28.8684 221.548 29.3293 221.548 29.8606C221.548 30.4231 221.353 30.8997 220.962 31.2903C220.587 31.6809 220.126 31.8762 219.579 31.8762H213.579V41.5325H227.548C228.079 41.5325 228.54 41.7278 228.931 42.1184C229.322 42.4934 229.517 42.9543 229.517 43.5012C229.517 44.0481 229.314 44.5168 228.907 44.9075C228.517 45.2825 228.048 45.47 227.501 45.47H209.642V14.3215H227.501C228.048 14.3215 228.517 14.5247 228.907 14.9309C229.314 15.3215 229.517 15.7903 229.517 16.3372C229.517 16.8684 229.314 17.3293 228.907 17.72C228.517 18.1106 228.048 18.3059 227.501 18.3059ZM238.775 42.7278L246.743 15.7981C247.056 14.8137 247.712 14.3215 248.712 14.3215C249.681 14.3215 250.29 14.7356 250.54 15.5637L258.392 42.9153C258.454 43.1184 258.486 43.3137 258.486 43.5012C258.486 44.0481 258.298 44.5168 257.923 44.9075C257.548 45.2825 257.118 45.47 256.634 45.47C255.603 45.47 254.947 44.9934 254.665 44.0403L253.072 38.6965H244.095L242.361 44.4153C242.314 44.6653 242.118 44.9075 241.775 45.1418C241.431 45.3606 241.056 45.47 240.65 45.47C240.072 45.47 239.595 45.2747 239.22 44.884C238.845 44.4934 238.657 44.0168 238.657 43.4543C238.657 43.22 238.697 42.9778 238.775 42.7278ZM248.665 23.4387L245.29 34.7122H251.923L248.665 23.4387ZM267.626 19.6887V14.3684H287.501V19.7356C287.501 20.2825 287.306 20.7512 286.915 21.1418C286.525 21.5168 286.064 21.7043 285.532 21.7043C284.986 21.7043 284.509 21.509 284.103 21.1184C283.712 20.7278 283.517 20.2668 283.517 19.7356V18.3059H279.532V43.5012C279.532 44.0481 279.337 44.5168 278.947 44.9075C278.556 45.2825 278.095 45.47 277.564 45.47C277.001 45.47 276.525 45.2825 276.134 44.9075C275.743 44.5168 275.548 44.0481 275.548 43.5012V18.3059H271.564V19.6887C271.564 20.2356 271.368 20.7043 270.978 21.095C270.603 21.47 270.142 21.6575 269.595 21.6575C269.048 21.6575 268.579 21.47 268.189 21.095C267.814 20.7043 267.626 20.2356 267.626 19.6887ZM314.548 18.3059H300.626V27.8918H306.626C307.157 27.8918 307.618 28.0872 308.009 28.4778C308.4 28.8684 308.595 29.3293 308.595 29.8606C308.595 30.4231 308.4 30.8997 308.009 31.2903C307.634 31.6809 307.173 31.8762 306.626 31.8762H300.626V41.5325H314.595C315.126 41.5325 315.587 41.7278 315.978 42.1184C316.368 42.4934 316.564 42.9543 316.564 43.5012C316.564 44.0481 316.361 44.5168 315.954 44.9075C315.564 45.2825 315.095 45.47 314.548 45.47H296.689V14.3215H314.548C315.095 14.3215 315.564 14.5247 315.954 14.9309C316.361 15.3215 316.564 15.7903 316.564 16.3372C316.564 16.8684 316.361 17.3293 315.954 17.72C315.564 18.1106 315.095 18.3059 314.548 18.3059ZM374.548 16.3372V45.47H369.251L358.657 21.2825V43.5012C358.657 44.0481 358.462 44.5168 358.072 44.9075C357.697 45.2825 357.236 45.47 356.689 45.47C356.142 45.47 355.673 45.2825 355.282 44.9075C354.907 44.5168 354.72 44.0481 354.72 43.5012V14.3215H359.947L370.564 38.4622V16.3372C370.564 15.7903 370.759 15.3215 371.15 14.9309C371.556 14.5247 372.032 14.3215 372.579 14.3215C373.126 14.3215 373.587 14.5168 373.962 14.9075C374.353 15.2981 374.548 15.7747 374.548 16.3372ZM401.595 18.3059H387.673V27.8918H393.673C394.204 27.8918 394.665 28.0872 395.056 28.4778C395.447 28.8684 395.642 29.3293 395.642 29.8606C395.642 30.4231 395.447 30.8997 395.056 31.2903C394.681 31.6809 394.22 31.8762 393.673 31.8762H387.673V41.5325H401.642C402.173 41.5325 402.634 41.7278 403.025 42.1184C403.415 42.4934 403.611 42.9543 403.611 43.5012C403.611 44.0481 403.407 44.5168 403.001 44.9075C402.611 45.2825 402.142 45.47 401.595 45.47H383.736V14.3215H401.595C402.142 14.3215 402.611 14.5247 403.001 14.9309C403.407 15.3215 403.611 15.7903 403.611 16.3372C403.611 16.8684 403.407 17.3293 403.001 17.72C402.611 18.1106 402.142 18.3059 401.595 18.3059ZM424.657 26.509V39.6106L425.806 41.5325H427.447L428.642 39.5637V16.3372C428.642 15.7903 428.837 15.3215 429.228 14.9309C429.634 14.5247 430.111 14.3215 430.657 14.3215C431.189 14.3215 431.65 14.5168 432.04 14.9075C432.431 15.2981 432.626 15.759 432.626 16.2903V40.1965C432.626 40.4934 432.462 40.9075 432.134 41.4387L430.306 44.4622C429.931 45.134 429.361 45.47 428.595 45.47H424.892C423.72 45.47 422.97 44.9387 422.642 43.8762C422.282 44.9387 421.564 45.47 420.486 45.47H417.017C416.017 45.47 415.298 45.1028 414.861 44.3684L413.173 41.5325C412.861 41.0168 412.704 40.5715 412.704 40.1965V16.3372C412.704 15.7903 412.9 15.3215 413.29 14.9309C413.697 14.5247 414.173 14.3215 414.72 14.3215C415.236 14.3215 415.681 14.5247 416.056 14.9309C416.447 15.3215 416.642 15.7903 416.642 16.3372V39.6575L417.79 41.5325H419.478L420.72 39.5637V26.509C420.72 25.9622 420.907 25.5012 421.282 25.1262C421.673 24.7356 422.142 24.5403 422.689 24.5403C423.236 24.5403 423.697 24.7356 424.072 25.1262C424.462 25.5012 424.657 25.9622 424.657 26.509ZM470.782 43.5012V14.3215H484.751C486.361 14.3215 487.743 14.9075 488.9 16.0793C490.072 17.2512 490.657 18.6497 490.657 20.2747V27.6575C490.657 29.2825 490.079 30.6731 488.923 31.8293C487.767 32.9856 486.376 33.5637 484.751 33.5637H474.767V43.5012C474.767 44.0481 474.572 44.5168 474.181 44.9075C473.806 45.2825 473.345 45.47 472.798 45.47C472.236 45.47 471.759 45.2825 471.368 44.9075C470.978 44.5168 470.782 44.0481 470.782 43.5012ZM474.767 29.6262H484.751C485.282 29.6262 485.743 29.4387 486.134 29.0637C486.525 28.6731 486.72 28.2043 486.72 27.6575V20.2747C486.72 19.7278 486.525 19.2668 486.134 18.8918C485.743 18.5012 485.282 18.3059 484.751 18.3059H474.767V29.6262ZM499.845 43.5012V14.3215H513.767C515.376 14.3215 516.759 14.9075 517.915 16.0793C519.087 17.2512 519.673 18.6497 519.673 20.2747V22.5247C519.673 24.1653 519.095 25.5715 517.939 26.7434C516.782 27.8997 515.392 28.4778 513.767 28.4778H511.259L519.322 42.3059C519.572 42.7122 519.697 43.1184 519.697 43.5247C519.697 44.0559 519.493 44.5168 519.087 44.9075C518.681 45.2825 518.22 45.47 517.704 45.47C516.923 45.47 516.329 45.1184 515.923 44.4153L506.665 28.4778H503.829V43.5012C503.829 44.0481 503.626 44.5168 503.22 44.9075C502.829 45.2825 502.361 45.47 501.814 45.47C501.267 45.47 500.798 45.2825 500.407 44.9075C500.032 44.5168 499.845 44.0481 499.845 43.5012ZM503.782 24.5403H513.767C514.314 24.5403 514.775 24.3528 515.15 23.9778C515.54 23.5872 515.736 23.1184 515.736 22.5715V20.2747C515.736 19.7278 515.54 19.2668 515.15 18.8918C514.775 18.5012 514.314 18.3059 513.767 18.3059H503.782V24.5403ZM543.392 17.2043L547.728 26.0403C548.337 27.2434 548.642 28.5481 548.642 29.9543C548.642 31.3293 548.337 32.6262 547.728 33.845L543.392 42.5872C542.47 44.509 540.907 45.47 538.704 45.47C537.657 45.47 536.712 45.1965 535.868 44.6497C535.04 44.1028 534.415 43.4153 533.993 42.5872L529.634 33.845C529.056 32.7043 528.767 31.4075 528.767 29.9543C528.767 28.5012 529.056 27.1965 529.634 26.0403L533.993 17.2043C534.978 15.2825 536.548 14.3215 538.704 14.3215C540.892 14.3215 542.454 15.2825 543.392 17.2043ZM537.392 19.1731L533.314 27.47C532.939 28.2981 532.751 29.1106 532.751 29.9075C532.751 30.7668 532.939 31.5872 533.314 32.3684L537.509 40.759C537.728 41.2747 538.126 41.5325 538.704 41.5325C539.204 41.5325 539.587 41.2747 539.853 40.759L544.072 32.3684C544.462 31.5403 544.657 30.72 544.657 29.9075C544.657 29.0481 544.462 28.2356 544.072 27.47L539.947 19.1731C539.681 18.5637 539.267 18.259 538.704 18.259C538.142 18.259 537.704 18.5637 537.392 19.1731ZM559.751 39.5168V33.2825C559.751 32.7356 559.939 32.2747 560.314 31.8997C560.704 31.509 561.173 31.3137 561.72 31.3137C562.267 31.3137 562.728 31.509 563.103 31.8997C563.493 32.2747 563.689 32.7356 563.689 33.2825V39.5637C563.689 40.095 563.884 40.5481 564.275 40.9231C564.665 41.2981 565.142 41.4856 565.704 41.4856H569.689C570.236 41.4856 570.704 41.2981 571.095 40.9231C571.501 40.5325 571.704 40.0637 571.704 39.5168V16.2903C571.704 15.7434 571.892 15.2825 572.267 14.9075C572.642 14.5168 573.095 14.3215 573.626 14.3215C574.157 14.3215 574.626 14.5325 575.032 14.9543C575.439 15.3762 575.642 15.8528 575.642 16.384V39.5168C575.642 41.1731 575.04 42.5793 573.837 43.7356C572.634 44.8918 571.251 45.47 569.689 45.47H565.704C564.064 45.47 562.657 44.884 561.486 43.7122C560.329 42.5403 559.751 41.1418 559.751 39.5168ZM604.704 18.3059H590.782V27.8918H596.782C597.314 27.8918 597.775 28.0872 598.165 28.4778C598.556 28.8684 598.751 29.3293 598.751 29.8606C598.751 30.4231 598.556 30.8997 598.165 31.2903C597.79 31.6809 597.329 31.8762 596.782 31.8762H590.782V41.5325H604.751C605.282 41.5325 605.743 41.7278 606.134 42.1184C606.525 42.4934 606.72 42.9543 606.72 43.5012C606.72 44.0481 606.517 44.5168 606.111 44.9075C605.72 45.2825 605.251 45.47 604.704 45.47H586.845V14.3215H604.704C605.251 14.3215 605.72 14.5247 606.111 14.9309C606.517 15.3215 606.72 15.7903 606.72 16.3372C606.72 16.8684 606.517 17.3293 606.111 17.72C605.72 18.1106 605.251 18.3059 604.704 18.3059ZM626.665 41.5325H633.767C634.314 41.5325 634.782 41.7278 635.173 42.1184C635.579 42.4934 635.782 42.9543 635.782 43.5012C635.782 44.0481 635.579 44.5168 635.173 44.9075C634.782 45.2825 634.314 45.47 633.767 45.47H626.407C625.47 45.47 624.501 45.1731 623.501 44.5793C622.501 43.9856 621.806 43.3215 621.415 42.5872L616.868 33.7981C616.259 32.5325 615.954 31.2356 615.954 29.9075C615.954 28.4387 616.243 27.1653 616.822 26.0872L621.415 17.3918C621.853 16.5793 622.532 15.8684 623.454 15.259C624.376 14.634 625.267 14.3215 626.126 14.3215H633.907C634.454 14.3215 634.915 14.5168 635.29 14.9075C635.681 15.2981 635.876 15.759 635.876 16.2903C635.876 16.8372 635.681 17.3137 635.29 17.72C634.915 18.1106 634.454 18.3059 633.907 18.3059H626.407C625.782 18.3059 625.275 18.6731 624.884 19.4075L620.525 27.5637C620.181 28.2043 620.009 28.9622 620.009 29.8372C620.009 30.759 620.197 31.5715 620.572 32.2747L624.743 40.2903C625.134 41.1184 625.775 41.5325 626.665 41.5325ZM644.829 19.6887V14.3684H664.704V19.7356C664.704 20.2825 664.509 20.7512 664.118 21.1418C663.728 21.5168 663.267 21.7043 662.736 21.7043C662.189 21.7043 661.712 21.509 661.306 21.1184C660.915 20.7278 660.72 20.2668 660.72 19.7356V18.3059H656.736V43.5012C656.736 44.0481 656.54 44.5168 656.15 44.9075C655.759 45.2825 655.298 45.47 654.767 45.47C654.204 45.47 653.728 45.2825 653.337 44.9075C652.947 44.5168 652.751 44.0481 652.751 43.5012V18.3059H648.767V19.6887C648.767 20.2356 648.572 20.7043 648.181 21.095C647.806 21.47 647.345 21.6575 646.798 21.6575C646.251 21.6575 645.782 21.47 645.392 21.095C645.017 20.7043 644.829 20.2356 644.829 19.6887Z" fill="white"/>
</g>
</g>
<defs>
<filter id="filter0_f" x="2" y="0" width="819" height="990" filterUnits="userSpaceOnUse" color-interpolation-filters="sRGB">
<feFlood flood-opacity="0" result="BackgroundImageFix"/>
<feBlend mode="normal" in="SourceGraphic" in2="BackgroundImageFix" result="shape"/>
<feGaussianBlur stdDeviation="1" result="effect1_foregroundBlur"/>
</filter>
<filter id="filter1_d" x="17" y="188.037" width="803" height="777.889" filterUnits="userSpaceOnUse" color-interpolation-filters="sRGB">
<feFlood flood-opacity="0" result="BackgroundImageFix"/>
<feColorMatrix in="SourceAlpha" type="matrix" values="0 0 0 0 0 0 0 0 0 0 0 0 0 0 0 0 0 0 127 0"/>
<feOffset dy="4"/>
<feGaussianBlur stdDeviation="2"/>
<feColorMatrix type="matrix" values="0 0 0 0 0 0 0 0 0 0 0 0 0 0 0 0 0 0 0.25 0"/>
<feBlend mode="normal" in2="BackgroundImageFix" result="effect1_dropShadow"/>
<feBlend mode="normal" in="SourceGraphic" in2="effect1_dropShadow" result="shape"/>
</filter>
<filter id="filter2_d" x="580" y="816.579" width="243" height="179.421" filterUnits="userSpaceOnUse" color-interpolation-filters="sRGB">
<feFlood flood-opacity="0" result="BackgroundImageFix"/>
<feColorMatrix in="SourceAlpha" type="matrix" values="0 0 0 0 0 0 0 0 0 0 0 0 0 0 0 0 0 0 127 0"/>
<feOffset dy="4"/>
<feGaussianBlur stdDeviation="2"/>
<feColorMatrix type="matrix" values="0 0 0 0 0 0 0 0 0 0 0 0 0 0 0 0 0 0 0.25 0"/>
<feBlend mode="normal" in2="BackgroundImageFix" result="effect1_dropShadow"/>
<feBlend mode="normal" in="SourceGraphic" in2="effect1_dropShadow" result="shape"/>
</filter>
<filter id="filter3_d" x="13" y="173" width="173" height="128.295" filterUnits="userSpaceOnUse" color-interpolation-filters="sRGB">
<feFlood flood-opacity="0" result="BackgroundImageFix"/>
<feColorMatrix in="SourceAlpha" type="matrix" values="0 0 0 0 0 0 0 0 0 0 0 0 0 0 0 0 0 0 127 0"/>
<feOffset dy="4"/>
<feGaussianBlur stdDeviation="2"/>
<feColorMatrix type="matrix" values="0 0 0 0 0 0 0 0 0 0 0 0 0 0 0 0 0 0 0.25 0"/>
<feBlend mode="normal" in2="BackgroundImageFix" result="effect1_dropShadow"/>
<feBlend mode="normal" in="SourceGraphic" in2="effect1_dropShadow" result="shape"/>
</filter>
<filter id="filter4_d" x="82" y="235.153" width="173" height="128.295" filterUnits="userSpaceOnUse" color-interpolation-filters="sRGB">
<feFlood flood-opacity="0" result="BackgroundImageFix"/>
<feColorMatrix in="SourceAlpha" type="matrix" values="0 0 0 0 0 0 0 0 0 0 0 0 0 0 0 0 0 0 127 0"/>
<feOffset dy="4"/>
<feGaussianBlur stdDeviation="2"/>
<feColorMatrix type="matrix" values="0 0 0 0 0 0 0 0 0 0 0 0 0 0 0 0 0 0 0.25 0"/>
<feBlend mode="normal" in2="BackgroundImageFix" result="effect1_dropShadow"/>
<feBlend mode="normal" in="SourceGraphic" in2="effect1_dropShadow" result="shape"/>
</filter>
<filter id="filter5_d" x="190" y="409.581" width="457" height="333.799" filterUnits="userSpaceOnUse" color-interpolation-filters="sRGB">
<feFlood flood-opacity="0" result="BackgroundImageFix"/>
<feColorMatrix in="SourceAlpha" type="matrix" values="0 0 0 0 0 0 0 0 0 0 0 0 0 0 0 0 0 0 127 0"/>
<feOffset dy="4"/>
<feGaussianBlur stdDeviation="2"/>
<feColorMatrix type="matrix" values="0 0 0 0 0 0 0 0 0 0 0 0 0 0 0 0 0 0 0.25 0"/>
<feBlend mode="normal" in2="BackgroundImageFix" result="effect1_dropShadow"/>
<feBlend mode="normal" in="SourceGraphic" in2="effect1_dropShadow" result="shape"/>
</filter>
<filter id="filter6_d" x="329" y="489.777" width="179" height="173.406" filterUnits="userSpaceOnUse" color-interpolation-filters="sRGB">
<feFlood flood-opacity="0" result="BackgroundImageFix"/>
<feColorMatrix in="SourceAlpha" type="matrix" values="0 0 0 0 0 0 0 0 0 0 0 0 0 0 0 0 0 0 127 0"/>
<feOffset dy="4"/>
<feGaussianBlur stdDeviation="2"/>
<feColorMatrix type="matrix" values="0 0 0 0 0 0 0 0 0 0 0 0 0 0 0 0 0 0 0.25 0"/>
<feBlend mode="normal" in2="BackgroundImageFix" result="effect1_dropShadow"/>
<feBlend mode="normal" in="SourceGraphic" in2="effect1_dropShadow" result="shape"/>
</filter>
<filter id="filter7_d" x="0" y="787.508" width="173" height="128.295" filterUnits="userSpaceOnUse" color-interpolation-filters="sRGB">
<feFlood flood-opacity="0" result="BackgroundImageFix"/>
<feColorMatrix in="SourceAlpha" type="matrix" values="0 0 0 0 0 0 0 0 0 0 0 0 0 0 0 0 0 0 127 0"/>
<feOffset dy="4"/>
<feGaussianBlur stdDeviation="2"/>
<feColorMatrix type="matrix" values="0 0 0 0 0 0 0 0 0 0 0 0 0 0 0 0 0 0 0.25 0"/>
<feBlend mode="normal" in2="BackgroundImageFix" result="effect1_dropShadow"/>
<feBlend mode="normal" in="SourceGraphic" in2="effect1_dropShadow" result="shape"/>
</filter>
<filter id="filter8_d" x="125.32" y="2" width="568.68" height="62.79" filterUnits="userSpaceOnUse" color-interpolation-filters="sRGB">
<feFlood flood-opacity="0" result="BackgroundImageFix"/>
<feColorMatrix in="SourceAlpha" type="matrix" values="0 0 0 0 0 0 0 0 0 0 0 0 0 0 0 0 0 0 127 0"/>
<feOffset dy="4"/>
<feGaussianBlur stdDeviation="2"/>
<feColorMatrix type="matrix" values="0 0 0 0 0 0 0 0 0 0 0 0 0 0 0 0 0 0 0.25 0"/>
<feBlend mode="normal" in2="BackgroundImageFix" result="effect1_dropShadow"/>
<feBlend mode="normal" in="SourceGraphic" in2="effect1_dropShadow" result="shape"/>
</filter>
<filter id="filter9_d" x="149.332" y="13.9915" width="521" height="39.1484" filterUnits="userSpaceOnUse" color-interpolation-filters="sRGB">
<feFlood flood-opacity="0" result="BackgroundImageFix"/>
<feColorMatrix in="SourceAlpha" type="matrix" values="0 0 0 0 0 0 0 0 0 0 0 0 0 0 0 0 0 0 127 0"/>
<feOffset dy="4"/>
<feGaussianBlur stdDeviation="2"/>
<feColorMatrix type="matrix" values="0 0 0 0 0 0 0 0 0 0 0 0 0 0 0 0 0 0 0.25 0"/>
<feBlend mode="normal" in2="BackgroundImageFix" result="effect1_dropShadow"/>
<feBlend mode="normal" in="SourceGraphic" in2="effect1_dropShadow" result="shape"/>
</filter>
<filter id="filter10_d" x="147.704" y="14.3215" width="521" height="39.1484" filterUnits="userSpaceOnUse" color-interpolation-filters="sRGB">
<feFlood flood-opacity="0" result="BackgroundImageFix"/>
<feColorMatrix in="SourceAlpha" type="matrix" values="0 0 0 0 0 0 0 0 0 0 0 0 0 0 0 0 0 0 127 0"/>
<feOffset dy="4"/>
<feGaussianBlur stdDeviation="2"/>
<feColorMatrix type="matrix" values="0 0 0 0 0 0 0 0 0 0 0 0 0 0 0 0 0 0 0.25 0"/>
<feBlend mode="normal" in2="BackgroundImageFix" result="effect1_dropShadow"/>
<feBlend mode="normal" in="SourceGraphic" in2="effect1_dropShadow" result="shape"/>
</filter>
</defs>
</svg>
