<svg width="1857" height="1206" viewBox="0 0 1857 1206" fill="none" xmlns="http://www.w3.org/2000/svg">
<g filter="url(#filter0_f)">
<path d="M1254.41 286H602.594C427.744 286 286 427.744 286 602.594C286 777.444 427.744 919.188 602.594 919.188H1254.41C1429.26 919.188 1571 777.444 1571 602.594C1571 427.744 1429.26 286 1254.41 286Z" fill="#F50057" fill-opacity="0.4"/>
</g>
<g filter="url(#filter1_f)">
<path d="M1224.24 417.852H615.63C519.154 417.852 440.945 496.062 440.945 592.538C440.945 689.014 519.154 767.223 615.63 767.223H1224.24C1320.71 767.223 1398.92 689.014 1398.92 592.538C1398.92 496.062 1320.71 417.852 1224.24 417.852Z" fill="#00BFA6" fill-opacity="0.8"/>
</g>
<g filter="url(#filter2_f)">
<path d="M583.251 553.803H615.258C619.164 553.803 622.851 555.463 626.317 558.784C629.833 562.055 631.591 566.035 631.591 570.722C631.591 572.48 630.956 573.969 629.687 575.19C628.466 576.411 627.099 577.021 625.585 577.021C623.485 577.021 622.045 576.557 621.264 575.629C620.482 574.653 619.726 572.871 618.993 570.283C618.31 567.695 616.747 566.401 614.306 566.401H583.91C582.445 566.401 581.713 566.865 581.713 567.792C581.713 568.378 582.03 569.062 582.665 569.843L628.295 628.217C630.492 631.049 631.591 634.077 631.591 637.299C631.591 640.961 630.248 644.184 627.562 646.967C624.926 649.75 621.972 651.142 618.7 651.142H585.521C581.127 651.142 577.294 649.482 574.022 646.162C570.8 642.792 569.188 639.106 569.188 635.102C569.188 630.512 571.337 628.217 575.634 628.217C577.294 628.217 578.71 628.828 579.882 630.048C581.054 631.22 581.64 632.612 581.64 634.223C581.64 635.541 582.079 636.64 582.958 637.519C583.886 638.398 585.033 638.837 586.4 638.837H617.016C618.334 638.837 618.993 638.325 618.993 637.299C618.993 636.811 618.676 636.176 618.041 635.395L572.484 577.021C570.336 574.238 569.262 571.21 569.262 567.939C569.262 564.13 570.629 560.834 573.363 558.051C576.098 555.219 579.394 553.803 583.251 553.803ZM666.015 553.803H715.819C717.431 553.803 718.847 554.414 720.067 555.634C721.337 556.855 721.972 558.295 721.972 559.955C721.972 561.664 721.361 563.154 720.141 564.423C718.92 565.644 717.479 566.254 715.819 566.254H697.216V638.837H715.819C717.528 638.837 718.969 639.448 720.141 640.668C721.361 641.84 721.972 643.281 721.972 644.99C721.972 646.699 721.361 648.163 720.141 649.384C718.92 650.556 717.479 651.142 715.819 651.142H666.015C664.306 651.142 662.841 650.556 661.62 649.384C660.448 648.163 659.862 646.699 659.862 644.99C659.862 643.281 660.448 641.84 661.62 640.668C662.841 639.448 664.306 638.837 666.015 638.837H684.911V566.254H666.015C664.306 566.254 662.841 565.644 661.62 564.423C660.448 563.203 659.862 561.762 659.862 560.102C659.862 558.344 660.448 556.855 661.62 555.634C662.841 554.414 664.306 553.803 666.015 553.803ZM786.352 553.803H806.786C808.495 553.803 809.936 554.414 811.107 555.634C812.328 556.806 812.938 558.247 812.938 559.955C812.938 561.762 812.279 563.276 810.961 564.497C809.691 565.668 808.3 566.254 806.786 566.254H787.304C785.399 566.254 783.739 567.158 782.323 568.964L765.038 591.157C763.573 592.914 762.841 595.356 762.841 598.481V632.538C762.841 634.296 763.427 635.786 764.599 637.006C765.819 638.227 767.284 638.837 768.993 638.837H794.042C795.702 638.837 797.143 638.227 798.363 637.006C799.584 635.786 800.194 634.345 800.194 632.685V619.355H787.45C785.692 619.355 784.227 618.769 783.056 617.597C781.884 616.376 781.298 614.912 781.298 613.203C781.298 611.494 781.884 610.053 783.056 608.881C784.227 607.661 785.692 607.05 787.45 607.05H812.499V632.685C812.499 637.763 810.692 642.109 807.079 645.722C803.466 649.335 799.12 651.142 794.042 651.142H768.993C763.866 651.142 759.472 649.335 755.81 645.722C752.196 642.109 750.39 637.763 750.39 632.685V598.627C750.39 592.524 752.025 587.372 755.297 583.173L773.461 560.102C774.779 558.344 776.61 556.855 778.954 555.634C781.347 554.414 783.812 553.803 786.352 553.803ZM903.319 560.102V651.142H886.767L853.661 575.556V644.99C853.661 646.699 853.051 648.163 851.83 649.384C850.658 650.556 849.218 651.142 847.509 651.142C845.8 651.142 844.335 650.556 843.114 649.384C841.942 648.163 841.356 646.699 841.356 644.99V553.803H857.689L890.868 629.243V560.102C890.868 558.393 891.478 556.928 892.699 555.707C893.969 554.438 895.458 553.803 897.167 553.803C898.876 553.803 900.316 554.414 901.488 555.634C902.709 556.855 903.319 558.344 903.319 560.102ZM1028.71 553.803H1078.51C1080.13 553.803 1081.54 554.414 1082.76 555.634C1084.03 556.855 1084.67 558.295 1084.67 559.955C1084.67 561.664 1084.06 563.154 1082.84 564.423C1081.62 565.644 1080.17 566.254 1078.51 566.254H1059.91V638.837H1078.51C1080.22 638.837 1081.66 639.448 1082.84 640.668C1084.06 641.84 1084.67 643.281 1084.67 644.99C1084.67 646.699 1084.06 648.163 1082.84 649.384C1081.62 650.556 1080.17 651.142 1078.51 651.142H1028.71C1027 651.142 1025.54 650.556 1024.32 649.384C1023.14 648.163 1022.56 646.699 1022.56 644.99C1022.56 643.281 1023.14 641.84 1024.32 640.668C1025.54 639.448 1027 638.837 1028.71 638.837H1047.61V566.254H1028.71C1027 566.254 1025.54 565.644 1024.32 564.423C1023.14 563.203 1022.56 561.762 1022.56 560.102C1022.56 558.344 1023.14 556.855 1024.32 555.634C1025.54 554.414 1027 553.803 1028.71 553.803ZM1175.34 560.102V651.142H1158.79L1125.68 575.556V644.99C1125.68 646.699 1125.07 648.163 1123.85 649.384C1122.68 650.556 1121.24 651.142 1119.53 651.142C1117.82 651.142 1116.36 650.556 1115.14 649.384C1113.96 648.163 1113.38 646.699 1113.38 644.99V553.803H1129.71L1162.89 629.243V560.102C1162.89 558.393 1163.5 556.928 1164.72 555.707C1165.99 554.438 1167.48 553.803 1169.19 553.803C1170.9 553.803 1172.34 554.414 1173.51 555.634C1174.73 556.855 1175.34 558.344 1175.34 560.102Z" fill="white"/>
</g>
<defs>
<filter id="filter0_f" x="0" y="0" width="1857" height="1205.19" filterUnits="userSpaceOnUse" color-interpolation-filters="sRGB">
<feFlood flood-opacity="0" result="BackgroundImageFix"/>
<feBlend mode="normal" in="SourceGraphic" in2="BackgroundImageFix" result="shape"/>
<feGaussianBlur stdDeviation="143" result="effect1_foregroundBlur"/>
</filter>
<filter id="filter1_f" x="154.945" y="131.852" width="1529.98" height="921.371" filterUnits="userSpaceOnUse" color-interpolation-filters="sRGB">
<feFlood flood-opacity="0" result="BackgroundImageFix"/>
<feBlend mode="normal" in="SourceGraphic" in2="BackgroundImageFix" result="shape"/>
<feGaussianBlur stdDeviation="143" result="effect1_foregroundBlur"/>
</filter>
<filter id="filter2_f" x="562.348" y="546.963" width="619.833" height="111.02" filterUnits="userSpaceOnUse" color-interpolation-filters="sRGB">
<feFlood flood-opacity="0" result="BackgroundImageFix"/>
<feBlend mode="normal" in="SourceGraphic" in2="BackgroundImageFix" result="shape"/>
<feGaussianBlur stdDeviation="3.42021" result="effect1_foregroundBlur"/>
</filter>
</defs>
</svg>
